<svg xmlns="http://www.w3.org/2000/svg" viewBox="0 0 161.3 161.3"><path d="M80.7 161.3c-21.6 0-41.8-8.4-57.1-23.6C8.4 122.4 0 102.2 0 80.6s8.4-41.8 23.6-57c31.5-31.5 82.6-31.5 114.1 0 31.4 31.5 31.4 82.6 0 114.1-15.2 15.2-35.5 23.6-57 23.6zM80.7 7C61.8 7 43 14.2 28.6 28.5 14.7 42.5 7 61 7 80.6c0 19.7 7.7 38.2 21.6 52.1 13.9 13.9 32.4 21.6 52.1 21.6 19.7 0 38.2-7.7 52.1-21.6 28.7-28.7 28.7-75.4 0-104.2A73.85 73.85 0 0080.7 7z"/><path d="M61.2 103.6c-.9 0-1.8-.3-2.5-1-1.4-1.4-1.4-3.6 0-4.9l19.5-19.5c1.4-1.4 3.6-1.4 4.9 0 1.4 1.4 1.4 3.6 0 4.9l-19.5 19.5c-.6.7-1.5 1-2.4 1z"/><path d="M80.7 84.1c-1.9 0-3.5-1.6-3.5-3.5V31.9c0-1.9 1.6-3.5 3.5-3.5s3.5 1.6 3.5 3.5v48.7c0 2-1.6 3.5-3.5 3.5z"/></svg>