<svg xmlns="http://www.w3.org/2000/svg" width="32" height="32" preserveAspectRatio="xMinYMid" aria-hidden="true"><path d="M31.25 4.875L19.937 16l11.125 11.125c.563.563.75 1.125.75 2.063 0 1.5-1.313 2.813-2.813 2.813-.75 0-1.5-.375-2.063-.75L15.998 19.938 4.873 31.063c-.563.563-1.125.75-2.063.75-1.5 0-2.813-1.313-2.813-2.813 0-.75.375-1.5.75-2.063l11.125-11.125L.747 4.687c-.375-.375-.75-1.125-.75-1.875 0-1.5 1.313-2.813 2.813-2.813.75 0 1.5.375 2.063.75l11.125 11.125L27.123.749c.563-.563 1.125-.75 2.063-.75 1.5 0 2.813 1.313 2.813 2.813 0 .75-.375 1.5-.75 2.063z"/></svg>