<svg xmlns="http://www.w3.org/2000/svg" viewBox="0 0 23 20"><path fill="#00A499" d="M20.174 0H2.826A1.823 1.823 0 001 1.826v11.87a1.824 1.824 0 001.826 1.826h3.652v2.739a.916.916 0 00.564.843.906.906 0 00.995-.198l3.386-3.384h8.75A1.828 1.828 0 0022 13.696V1.826A1.823 1.823 0 0020.174 0zm0 13.466a.228.228 0 01-.228.228h-8.903a.912.912 0 00-.645.267l-2.094 2.094v-1.446a.914.914 0 00-.913-.913H3.054a.228.228 0 01-.228-.229V2.054a.228.228 0 01.228-.228h16.892a.228.228 0 01.228.228v11.412z"/><rect width="13" height="2" x="5.047" y="5" fill="#00A499" rx="1"/><rect width="13" height="2" x="5.047" y="9" fill="#00A499" rx="1"/></svg>