<svg xmlns="http://www.w3.org/2000/svg" viewBox="0 0 140 180"><path d="M121.5 180h-103C3.9 180 0 167.9 0 161.5v-143C0 3.9 12.1 0 18.5 0h103C136.1 0 140 12.1 140 18.5v143c0 14.6-12.1 18.5-18.5 18.5zM18.5 7C17.3 7 7 7.4 7 18.5v143c0 1.2.4 11.5 11.5 11.5h103c1.2 0 11.5-.4 11.5-11.5v-143c0-1.2-.4-11.5-11.5-11.5h-103z"/><path d="M101.3 44.8h-73c-1.9 0-3.5-1.6-3.5-3.5s1.6-3.5 3.5-3.5h73c1.9 0 3.5 1.6 3.5 3.5s-1.6 3.5-3.5 3.5zm-7.5 19.3H28.3c-1.9 0-3.5-1.6-3.5-3.5s1.6-3.5 3.5-3.5h65.5c1.9 0 3.5 1.6 3.5 3.5s-1.6 3.5-3.5 3.5zm7.5 19.3h-73c-1.9 0-3.5-1.6-3.5-3.5s1.6-3.5 3.5-3.5h73c1.9 0 3.5 1.6 3.5 3.5s-1.6 3.5-3.5 3.5zm0 19.3h-73c-1.9 0-3.5-1.6-3.5-3.5s1.6-3.5 3.5-3.5h73c1.9 0 3.5 1.6 3.5 3.5s-1.6 3.5-3.5 3.5zM93.8 122H28.3c-1.9 0-3.5-1.6-3.5-3.5s1.6-3.5 3.5-3.5h65.5c1.9 0 3.5 1.6 3.5 3.5s-1.6 3.5-3.5 3.5zm7.5 19.4h-73c-1.9 0-3.5-1.6-3.5-3.5s1.6-3.5 3.5-3.5h73c1.9 0 3.5 1.6 3.5 3.5s-1.6 3.5-3.5 3.5z"/></svg>