<svg xmlns="http://www.w3.org/2000/svg" viewBox="0 0 98.253 130"><path class="cls-1" d="M49.117 0c-9.65 0-17.5 7.54-17.5 16.82v53.44l-2-2a17.49 17.49 0 00-24.73 24.73l31.91 31.89a17.49 17.49 0 0024.73 0l31.84-31.84a17.49 17.49 0 00-24.73-24.73l-2 2V16.82C66.617 7.54 58.797 0 49.117 0zm24.43 73.26a10.49 10.49 0 0114.83 14.83l-31.84 31.84a10.5 10.5 0 01-14.83 0L9.867 88.09a10.49 10.49 0 0114.83-14.83l7.95 7.95a3.5 3.5 0 006-2.47V16.82c0-5.42 4.71-9.82 10.5-9.82s10.5 4.4 10.5 9.82v61.92a3.5 3.5 0 006 2.47z" data-name="Layer 10"/></svg>