<svg viewBox="0 0 28 28" xmlns="http://www.w3.org/2000/svg"><path d="M5.837 27.997a.892.892 0 01-.633-.338.973.973 0 01-.2-.714l1.092-8.872L.238 11.56l.002-.002a.972.972 0 01-.196-.928.918.918 0 01.68-.633L9.11 8.345 13.2.488l.002.002A.891.891 0 0113.99 0c.329 0 .632.188.79.49l4.09 7.857L27.276 10v-.002c.318.068.58.308.68.633.1.324.025.679-.196.928l-5.858 6.514 1.091 8.871.002.002c.04.342-.1.68-.369.88a.864.864 0 01-.913.081L14 24.06l-7.729 3.846a.878.878 0 01-.434.091zm1.16-2.54l6.62-3.266h.001a.864.864 0 01.764 0l6.62 3.266-.937-7.584a.967.967 0 01.244-.78l5.026-5.57-7.209-1.415-.002-.001a.901.901 0 01-.623-.472l-3.518-6.732-3.5 6.732a.897.897 0 01-.624.472l-7.192 1.415 5.026 5.57-.001.001a.97.97 0 01.243.78L7 25.457h-.002z"/></svg>