<svg viewBox="0 0 31 28" fill="none" xmlns="http://www.w3.org/2000/svg"><path clip-rule="evenodd" d="M30.996 2.985a2.99 2.99 0 00-.87-2.11A2.96 2.96 0 0028.028 0H9.402a2.976 2.976 0 00-2.968 2.985v9.283l-.015 2.399c0 .791.313 1.55.87 2.11a2.96 2.96 0 002.098.875h7.869l5.081 5.622a.74.74 0 001.273-.335l1.213-5.288h3.21a2.96 2.96 0 002.098-.874c.556-.56.869-1.319.869-2.11l-.004-11.682zM4.918 12H1.855A1.86 1.86 0 000 13.866v7.67c0 .496.196.97.543 1.32.348.35.82.546 1.312.546h1.992l.69 3.023a.742.742 0 001.272.335l3.032-3.358h4.937c.491 0 .963-.195 1.311-.547a1.87 1.87 0 00.544-1.319v-2.64L8 19c-.819 0-3.082-.5-3.082-3v-4z"/></svg>