<svg viewBox="0 0 33 30" fill="none" xmlns="http://www.w3.org/2000/svg"><path d="M32.995 3.283c0-.87-.344-1.705-.956-2.321A3.255 3.255 0 0029.73 0H9.24a3.274 3.274 0 00-3.264 3.283v10.211H2.04c-1.127 0-2.04.92-2.04 2.053v8.438a2.052 2.052 0 002.04 2.052h2.192l.759 3.325a.817.817 0 00.588.61.808.808 0 00.811-.242l3.335-3.693h5.43a2.052 2.052 0 002.041-2.052v-4.568h.685l5.59 6.185a.815.815 0 001.4-.369l1.334-5.816h3.53a3.26 3.26 0 002.309-.962A3.295 3.295 0 0033 16.133l-.005-12.85zM15.563 23.984a.411.411 0 01-.408.41H9.361a.816.816 0 00-.604.272L6.231 27.46l-.555-2.43v.001a.82.82 0 00-.795-.636H2.024a.408.408 0 01-.408-.41v-8.438c0-.227.182-.41.408-.41h3.937v.996c0 .87.345 1.706.957 2.322a3.256 3.256 0 002.308.962h6.337v4.567zm15.8-7.85c0 .436-.172.852-.478 1.16-.306.308-.72.481-1.154.481h-4.178a.82.82 0 00-.797.637l-1.127 4.925-4.785-5.291a.811.811 0 00-.604-.266H9.242a1.64 1.64 0 01-1.633-1.642V3.284c0-.908.732-1.642 1.633-1.642H29.73c.433 0 .848.173 1.154.48.306.309.478.725.478 1.162v12.85z"/></svg>