<svg viewBox="0 0 35 26" xmlns="http://www.w3.org/2000/svg"><path d="M26.133 0c3.792 0 6.875 3.106 6.875 6.926a6.933 6.933 0 01-3.128 5.804 11.062 11.062 0 014.93 3.604.91.91 0 01-.155 1.269.895.895 0 01-1.26-.156 9.19 9.19 0 00-7.262-3.56 9.194 9.194 0 00-7.26 3.558.893.893 0 01-1.26.156.908.908 0 01-.156-1.27 11.026 11.026 0 014.931-3.6 6.937 6.937 0 01-3.128-5.805C19.26 3.106 22.343 0 26.134 0zm0 1.816c-2.805 0-5.071 2.283-5.071 5.11 0 2.826 2.266 5.11 5.071 5.11 2.806 0 5.072-2.284 5.072-5.11 0-2.829-2.266-5.11-5.072-5.11z"/><path d="M10.565 4.986c3.792 0 6.875 3.106 6.875 6.926a6.936 6.936 0 01-3.096 5.781 11.1 11.1 0 016.744 7.13.909.909 0 01-.59 1.135.9.9 0 01-1.127-.594c-1.199-3.884-4.772-6.527-8.806-6.527-4.037 0-7.608 2.64-8.806 6.527a.898.898 0 01-1.127.594.907.907 0 01-.59-1.135 11.096 11.096 0 016.743-7.13 6.937 6.937 0 01-3.095-5.781c0-3.82 3.083-6.926 6.874-6.926h.001zm0 1.816c-2.805 0-5.071 2.284-5.071 5.11 0 2.826 2.266 5.11 5.071 5.11 2.806 0 5.072-2.284 5.072-5.11 0-2.826-2.266-5.11-5.072-5.11z"/></svg>