<svg xmlns="http://www.w3.org/2000/svg" viewBox="0 0 32 120.03"><path class="cls-1" d="M15.955 83.55c8.5 0 14.67-6.84 14.67-16.28V16.28c0-9.43-6.17-16.28-14.67-16.28S1.295 6.85 1.295 16.28v51c0 9.43 6.16 16.27 14.66 16.27zm-7.66-67.27c0-4.62 2.37-9.28 7.66-9.28s7.68 4.68 7.68 9.28v51c0 4.62-2.37 9.28-7.67 9.28s-7.66-4.66-7.66-9.28zm7.66 103.75a16.09 16.09 0 0016-16.17 16 16 0 10-31.91 0 16.09 16.09 0 0015.91 16.17zm0-25.33a9.29 9.29 0 019 9.16 9 9 0 11-17.91 0 9.29 9.29 0 018.91-9.16z" data-name="Layer 10"/></svg>