<svg xmlns="http://www.w3.org/2000/svg" viewBox="0 0 129.996 98.508"><path class="cls-1" d="M5.146 61.507l31.84 31.89a17.5 17.5 0 0024.72-24.78l-2-2h53.47c9.27 0 16.82-7.85 16.82-17.5s-7.55-17.5-16.82-17.5h-53.47l2-2a17.49 17.49 0 00-24.73-24.73l-31.84 31.84a17.5 17.5 0 00.01 24.78zm4.95-19.78l31.84-31.84a10.49 10.49 0 0114.83 14.83l-7.95 8a3.5 3.5 0 002.48 6h61.92c5.41 0 9.82 4.71 9.82 10.5s-4.41 10.5-9.82 10.5h-61.92a3.5 3.5 0 00-2.48 6l7.95 7.95a10.49 10.49 0 01-14.83 14.73l-31.84-31.84a10.5 10.5 0 010-14.83z" data-name="Layer 10"/></svg>