<svg viewBox="0 0 23 21" xmlns="http://www.w3.org/2000/svg"><path fill-rule="evenodd" clip-rule="evenodd" d="M22.05 9.148c.064.377.04.764-.071 1.13l-.008.032-1.69 5.667c-.884 2.869-2.47 4.252-4.855 4.252-.379 0-1.146.006-1.774.012l-.932.006c-2.68 0-3.774-.21-7.066-1.805a.445.445 0 01-.251-.4V7.975a.413.413 0 01.413-.413 1.115 1.115 0 00.908-.47l4.35-6.165A2.193 2.193 0 0114.568.81a2.157 2.157 0 01.374 2.053l-1.27 2.663a1.11 1.11 0 001.002 1.591h4.965a2.446 2.446 0 012.41 2.03zM4.045 7.563h.023v10.9a1.335 1.335 0 01-1.335 1.334H1.398a.445.445 0 01-.444-.445V6.896a.445.445 0 01.444-.445h1.335a1.335 1.335 0 011.312 1.112z"/></svg>