<svg xmlns="http://www.w3.org/2000/svg" viewBox="0 0 118 119.7"><path d="M87.7 34l17.7-17.7c1.4-1.4 1.4-3.6 0-5s-3.6-1.4-5 0L82.7 29c-1.4 1.4-1.4 3.6 0 5 .7.7 1.6 1 2.5 1 .9 0 1.8-.4 2.5-1zM73.3 23.1c1.6 0 3-1.1 3.4-2.6l4.4-16.3c.4-1.9-.8-3.8-2.7-4.2-1.8-.4-3.5.6-4.1 2.3l-4.4 16.3c-.5 1.9.6 3.8 2.5 4.3.3.2.6.2.9.2zm44.6 16.1c-.5-1.9-2.4-3-4.3-2.5l-16.3 4.4c-1.9.5-3 2.4-2.5 4.3.4 1.5 1.8 2.6 3.4 2.6.3 0 .6 0 .9-.1l16.3-4.4c1.9-.5 3-2.4 2.5-4.3zm-11.4 39.3c2.8-2.1 3.4-6 1.3-8.8-.2-.3-.4-.5-.7-.8L48.9 10.7c-2.4-2.5-6.4-2.6-8.9-.1-.2.2-.5.5-.7.8-.1.1-.2.2-.3.4L4.5 72.1c-6.8 9.1-5.9 23.1 2.2 31.1l8.2 8.2c4.6 4.4 10.7 6.8 17 6.8 5.1.1 10.1-1.5 14.2-4.5l2.3-1.3 1.4 2.4c1.4 2.3 3.6 4 6.3 4.7.8.2 1.7.3 2.6.3 1.8 0 3.6-.5 5.2-1.4l23.5-13.8c4.9-2.9 6.5-9.1 3.6-14l-1.3-2.2 16.5-9.6.3-.3zm-22 15.8c.7 1.3.3 2.9-1 3.7L60 111.8c-.6.3-1.3.4-2 .3-.7-.2-1.3-.6-1.7-1.2l-1.4-2.4 28.2-16.4 1.4 2.2zm-36.1 9.9l-.3.1c-.1 0-.1.1-.2.2l-5.5 3.2c-.1.1-.3.2-.4.2-6.8 4.9-16.1 4.3-22.1-1.5l-8.2-8.2c-5.7-6-6.4-15.3-1.4-22.1.1-.1.2-.3.3-.4l34.1-59.5 57.1 57.1-53.4 30.9z"/></svg>