<svg viewBox="0 0 23 30" xmlns="http://www.w3.org/2000/svg"><path d="M20.342 20.467a.276.276 0 01-.075-.187v-8.342c0-4.73-3.488-8.63-7.93-9.068v-2c0-.48-.375-.87-.835-.87-.461 0-.837.39-.837.87v2c-4.441.44-7.929 4.339-7.929 9.068v8.343c0 .07-.03.14-.075.187L.565 22.647A2.035 2.035 0 000 24.065v.665c0 1.11.866 2.01 1.932 2.01h5.863C8.093 28.587 9.64 30 11.5 30s3.407-1.413 3.705-3.26h5.863c1.066 0 1.932-.9 1.932-2.01v-.665c0-.535-.2-1.04-.565-1.418l-2.093-2.18zm-8.84 7.791c-.933 0-1.716-.643-1.982-1.521h3.964c-.268.878-1.05 1.521-1.983 1.521zm9.826-3.53c0 .147-.117.27-.26.27H1.935a.267.267 0 01-.26-.27v-.666c0-.07.025-.14.075-.187l2.096-2.179c.364-.378.565-.883.565-1.418l-.001-8.34c0-4.065 3.182-7.373 7.092-7.373 3.91 0 7.093 3.308 7.093 7.373v8.343c0 .535.2 1.04.565 1.418l2.096 2.18c.05.047.075.116.075.186l-.002.663z"/></svg>