<svg viewBox="0 0 16 16" fill="none" xmlns="http://www.w3.org/2000/svg"><path d="M15.737 5.597L10.405.262a.888.888 0 00-.966-.196.895.895 0 00-.563.788V3L5.884 6l-4.573.782a.89.89 0 00-.486 1.506l2.814 2.816-3.377 3.38a.882.882 0 000 1.256.888.888 0 001.256 0l3.377-3.38 2.814 2.817a.906.906 0 00.628.26 1.14 1.14 0 00.273-.04.901.901 0 00.592-.706l.753-4.577 2.997-2.993h2.157a.896.896 0 00.823-.552.89.89 0 00-.195-.972zm-3.14-.26a.888.888 0 00-.628.26l-3.46 3.456a.894.894 0 00-.249.486l-.515 3.148-4.438-4.464 3.146-.515a.893.893 0 00.486-.25l3.43-3.461a.867.867 0 00.261-.629v-.367l2.31 2.312-.343.023z"/></svg>