<svg xmlns="http://www.w3.org/2000/svg" width="18.001" height="18.001" preserveAspectRatio="xMinYMid" aria-hidden="true"><path d="M17.877 16.485a.423.423 0 010 .6l-.795.795a.421.421 0 01-.6 0l-4.268-4.268a.429.429 0 01-.123-.3v-.464a7.292 7.292 0 01-4.782 1.779A7.311 7.311 0 010 7.312 7.311 7.311 0 017.312 0a7.311 7.311 0 017.313 7.312 7.3 7.3 0 01-1.779 4.781h.464a.416.416 0 01.3.123zM7.312 12.938a5.623 5.623 0 005.625-5.625 5.623 5.623 0 00-5.625-5.625 5.624 5.624 0 00-5.625 5.625 5.624 5.624 0 005.625 5.624z" class="cls-1"/></svg>