<svg xmlns="http://www.w3.org/2000/svg" viewBox="0 0 119.69 116"><path class="cls-1" d="M0 13.03v50.19a13 13 0 0013 13h6.14c-.05 3.5-.13 8.74-.18 12 0 3.94 2.22 5.22 3.17 5.59a4.45 4.45 0 001.63.3 6.05 6.05 0 004.48-2.28l12-13.11v6.4a13 13 0 0013 13h23.95l14.26 15.6a6 6 0 004.47 2.28 4.56 4.56 0 001.64-.3c.95-.37 3.17-1.65 3.17-5.64-.05-3.21-.13-8.45-.18-11.94h6.14a13 13 0 0013-13V34.89a13 13 0 00-13-13H79.38V13a13 13 0 00-13-13H12.97A13 13 0 000 13.03zm106.6 15.89a6 6 0 016 6v50.15a6 6 0 01-6 6h-9.68a3.5 3.5 0 00-3.5 3.5c0 .91.09 6.88.15 11.14l-12.35-13.5a3.48 3.48 0 00-2.58-1.14H53.15a6 6 0 01-6-6v-8.89h19.31a13 13 0 0013-13V28.92zM7 13.03a6 6 0 016-6h53.46a6 6 0 016 6v50.19a6 6 0 01-6 6H40.92a3.48 3.48 0 00-2.58 1.14L26 83.86c.06-4.28.15-10.24.15-11.14a3.5 3.5 0 00-3.5-3.5h-9.68a6 6 0 01-6-6z" data-name="Layer 10"/></svg>