<svg xmlns="http://www.w3.org/2000/svg" viewBox="0 0 115.433 115.68"><path class="cls-1" d="M35.362 36.1l-29.63 3.91c-2.12.28-4.66 1.45-5.48 3.89-.48 1.43-.51 3.68 2.08 6.24l21.93 21.63a6.55 6.55 0 011.7 5.33l-5.7 31.33c-.19 1-.59 4.53 2.05 6.39a4.74 4.74 0 002.76.86 7.64 7.64 0 003.82-1.18l26.26-15.2a5.59 5.59 0 015.15 0l26.27 15.2c.9.52 4.06 2.09 6.7.23 1.24-.87 2.59-2.67 1.93-6.3l-5.7-31.29a6.61 6.61 0 011.67-5.35l22-21.65c1.51-1.49 2.84-4 2-6.4-.48-1.44-1.81-3.25-5.42-3.73l-29.68-3.91a6.1 6.1 0 01-4.26-3.18L62.942 4.1c-.43-1-2.08-4.1-5.31-4.1-1.52 0-3.64.71-5.16 4.1l-12.87 28.81a6.05 6.05 0 01-4.24 3.19zm10.65-.33l11.72-26.21 11.71 26.21a12.94 12.94 0 009.72 7.33l27.5 3.63-20.42 20.14a13.56 13.56 0 00-3.65 11.55l5.24 28.79-24-13.91a12.56 12.56 0 00-12.16 0l-24 13.91 5.24-28.79a13.57 13.57 0 00-3.65-11.55l-20.5-20.19 27.5-3.58a12.94 12.94 0 009.73-7.32z" data-name="Layer 10"/></svg>