<svg xmlns="http://www.w3.org/2000/svg" viewBox="0 0 139.072 118.17"><path class="cls-1" d="M12.11 52.81A12.19 12.19 0 000 65.06v32.16a12.2 12.2 0 0012.11 12.25H44.2c.94.21 5.33 1.33 25.5 7a46.11 46.11 0 0012.42 1.7h38.45a3.52 3.52 0 001.94-.59 12.4 12.4 0 006.5-3.53 12.92 12.92 0 001.86-15.64 12.86 12.86 0 004.23-21.28 12.87 12.87 0 00.28-18.32 3.7 3.7 0 00-.28-.28 12.82 12.82 0 00-8.68-22.09H104.2l-.77-21.61A14.86 14.86 0 0099.2 4.38 14.51 14.51 0 0088.8 0h-2a14.8 14.8 0 00-14.69 14.89l.17 21.89c-10.23 5.9-25 14.37-28.22 16zm65.39-11a3.53 3.53 0 001.75-3.06l-.19-23.9a7.79 7.79 0 017.69-7.86h2a7.52 7.52 0 015.45 2.32 7.88 7.88 0 012.27 5.57v.13l.9 25a3.49 3.49 0 003.49 3.37h25.54a5.8 5.8 0 010 11.6h-14.84a3.5 3.5 0 000 7h14.84a5.53 5.53 0 014 1.68 5.82 5.82 0 011.68 4.12 5.73 5.73 0 01-5.65 5.79h-14.87a3.5 3.5 0 000 7h14.84a5.8 5.8 0 010 11.6h-14.76a3.5 3.5 0 100 7h8.38a5.53 5.53 0 014 1.68 5.92 5.92 0 010 8.24 5.56 5.56 0 01-4 1.67 3.49 3.49 0 00-1.51.35H82.1a39.18 39.18 0 01-10.54-1.45c-25.88-7.22-26.37-7.22-27.07-7.22H12.11A5.19 5.19 0 017 97.19V65.06a5.18 5.18 0 015.11-5.25h32.67c1.22 0 1.59 0 32.72-17.99z" data-name="Layer 10"/></svg>