<svg xmlns="http://www.w3.org/2000/svg" viewBox="0 0 124.029 95.307"><path class="cls-1" d="M.036 48.987a17.29 17.29 0 005.14 12.12l29 29a17.89 17.89 0 0011.62 5.2h.94a17.3 17.3 0 0012.12-5.14l60.08-60.16a17.64 17.64 0 000-24.8c-3.35-3.37-8.69-5.56-12.56-5.16a17.22 17.22 0 00-12.12 5.14l-47.7 47.73-16.56-16.5a17.65 17.65 0 00-24.8 0c-3.37 3.36-5.5 8.7-5.16 12.57zm10.09-7.59a10.65 10.65 0 0114.94 0l19 19a3.49 3.49 0 005 0l50.19-50.26a10.31 10.31 0 017.36-3.07 3.55 3.55 0 00.46 0c1.56-.21 4.92 1.11 6.91 3.12a10.64 10.64 0 010 14.94l-60.08 60.16a10.28 10.28 0 01-7.37 3.08 3.59 3.59 0 00-.47 0c-1.56.21-4.92-1.11-6.91-3.12l-29.05-29a10.3 10.3 0 01-3.08-7.37 3.71 3.71 0 000-.47c-.23-1.66 1.09-5.01 3.1-7.01z" data-name="Layer 10"/></svg>