<svg viewBox="0 0 21 14" fill="none" xmlns="http://www.w3.org/2000/svg"><path clip-rule="evenodd" d="M11.01.01c3.51.165 6.894 2.414 9.195 4.947a3.025 3.025 0 01.002 4.084C19.15 10.204 15.337 14 10.61 14h-.224C5.662 14 1.848 10.204.794 9.041a3.025 3.025 0 010-4.085l.131-.144C3.391 2.163 6.778.03 10.5 0c.175 0 .34 0 .511.01zm.34 12.2c2.907-.273 5.663-2.257 7.562-4.346a1.291 1.291 0 00.002-1.732 15.83 15.83 0 00-2.161-1.975 13.342 13.342 0 00-2.975-1.73 8.23 8.23 0 00-3.279-.677c-3.21-.074-6.342 2.1-8.413 4.385a1.292 1.292 0 000 1.73c.095.105.19.208.288.31 2.14 2.229 4.95 4 8.125 4.075.284.004.568-.01.85-.04zm-1.195-8.693A3.5 3.5 0 116.998 7c.002-.239.031-.478.088-.711a.219.219 0 01.35-.12 1.745 1.745 0 002.559-2.314.218.218 0 01.16-.337z"/></svg>