<?xml version="1.0" encoding="UTF-8" standalone="no"?>
<svg
   xmlns:dc="http://purl.org/dc/elements/1.1/"
   xmlns:cc="http://creativecommons.org/ns#"
   xmlns:rdf="http://www.w3.org/1999/02/22-rdf-syntax-ns#"
   xmlns:svg="http://www.w3.org/2000/svg"
   xmlns="http://www.w3.org/2000/svg"
   xmlns:sodipodi="http://sodipodi.sourceforge.net/DTD/sodipodi-0.dtd"
   xmlns:inkscape="http://www.inkscape.org/namespaces/inkscape"
   viewBox="0 0 514.92578 32.009764"
   version="1.1"
   preserveAspectRatio="none">
  <path
     d="M 96.79599,32.33 C 94.92599,17.6 75.565989,6.01 51.955989,6.01 c -23.61,0 -43,11.59 -44.84,26.32 z"
     id="path2" />
  <path
     d="m 201.45599,32.33 c -1.88,-14.73 -21.22,-26.32 -44.88,-26.32 -23.66,0 -43,11.59 -44.83,26.32 z"
     id="path4" />
  <path
     d="m 305.40599,32.33 c -1.83,-14.73 -21.22,-26.32 -44.83,-26.32 -23.61,0 -43,11.59 -44.84,26.32 z"
     id="path6" />
  <path
     d="m 410.45599,32.33 c -1.87,-14.73 -21.22,-26.32 -44.84,-26.32 -23.62,0 -43,11.59 -44.83,26.32 z"
     id="path8" />
  <path
     d="m 515.45599,32.33 c -1.87,-14.73 -21.22,-26.32 -44.84,-26.32 -23.62,0 -43,11.59 -44.83,26.32 z"
     id="path10" />
  <path
      class="c-icon-border-decorator"
     d="m 52.175781,0 c -15.06,0 -22.838984,5.9702344 -29.708984,11.240234 -6.12,4.71 -11.390625,8.769532 -22.3906251,8.769532 H 0 v 12 h 0.076172 c 15.06,0 22.838984,-5.98 29.708984,-11.25 6.12,-4.7 11.400625,-8.759766 22.390625,-8.759766 10.99,0 16.280391,4.059766 22.400391,8.759766 6.86,5.25 14.648984,11.25 29.708988,11.25 15.06,0 22.84117,-5.98 29.70117,-11.25 6.12,-4.7 11.42039,-8.759766 22.40039,-8.759766 10.98,0 16.26867,4.059766 22.38867,8.759766 6.86,5.25 14.65094,11.25 29.71094,11.25 15.06,0 22.83922,-5.98 29.69922,-11.25 6.12,-4.7 11.40062,-8.759766 22.39062,-8.759766 10.99,0 16.28039,4.059766 22.40039,8.759766 6.86,5.25 14.63922,11.25 29.69922,11.25 15.06,0 22.84094,-5.98 29.71094,-11.25 6.12,-4.7 11.39867,-8.759766 22.38867,-8.759766 10.99,0 16.27063,4.059766 22.39063,8.759766 6.87,5.25 14.65093,11.25 29.71093,11.25 15.06,0 22.83922,-5.98 29.69922,-11.25 6.12,-4.7 11.42039,-8.759766 22.40039,-8.759766 10.98,0 16.26867,4.059766 22.38867,8.759766 5.85625,4.481821 12.40036,9.497492 23.56055,10.873046 v -12.125 C 507.86718,18.289435 503.52622,14.975009 498.67578,11.25 491.81578,6 484.04656,0 468.97656,0 c -15.07,0 -22.84094,5.9702344 -29.71094,11.240234 -6.12,4.71 -11.39867,8.769532 -22.38867,8.769532 -10.99,0 -16.27039,-4.059766 -22.40039,-8.759766 C 387.61656,6 379.83539,0 364.77539,0 c -15.06,0 -22.83922,5.9702344 -29.69922,11.240234 -6.13,4.71 -11.42039,8.769532 -22.40039,8.769532 -10.98,0 -16.27062,-4.059532 -22.39062,-8.769532 C 283.42516,6.0002344 275.63617,0 260.57617,0 c -15.06,0 -22.83922,5.97 -29.69922,11.25 -6.12,4.7 -11.40062,8.759766 -22.39062,8.759766 -10.99,0 -16.28039,-4.059766 -22.40039,-8.759766 C 179.22594,6 171.45672,0 156.38672,0 c -15.07,0 -22.85094,5.9702344 -29.71094,11.240234 -6.12,4.71 -11.40062,8.769532 -22.39062,8.769532 -10.99,0 -16.278441,-4.059532 -22.398441,-8.769532 C 75.026719,6.0002344 67.235781,0 52.175781,0 Z" />
</svg>
