<?xml version="1.0" encoding="UTF-8" standalone="no"?>
<svg
   xmlns:dc="http://purl.org/dc/elements/1.1/"
   xmlns:cc="http://creativecommons.org/ns#"
   xmlns:rdf="http://www.w3.org/1999/02/22-rdf-syntax-ns#"
   xmlns:svg="http://www.w3.org/2000/svg"
   xmlns="http://www.w3.org/2000/svg"
   xmlns:sodipodi="http://sodipodi.sourceforge.net/DTD/sodipodi-0.dtd"
   xmlns:inkscape="http://www.inkscape.org/namespaces/inkscape"
   viewBox="0 0 195.36623 119.27"
   version="1.1"
   id="svg11"
   sodipodi:docname="bulldozer.svg"
   width="195.36623"
   height="119.27"
   inkscape:version="1.0.2 (e86c870879, 2021-01-15, custom)">
  <g
     id="Layer_10"
     data-name="Layer 10"
     transform="translate(-133.6598,-170.15)">
    <path
       class="cls-1"
       d="m 154.29,259.75 a 9.73,9.73 0 1 0 9.72,9.73 9.74,9.74 0 0 0 -9.72,-9.73 z m 0,12.45 a 2.73,2.73 0 1 1 2.72,-2.72 2.72,2.72 0 0 1 -2.72,2.72 z"
       id="path2" />
    <path
       class="cls-1"
       d="m 203.63,259.75 a 9.73,9.73 0 1 0 9.72,9.73 9.74,9.74 0 0 0 -9.72,-9.73 z m 0,12.45 a 2.73,2.73 0 1 1 2.72,-2.72 2.72,2.72 0 0 1 -2.72,2.72 z"
       id="path4" />
    <path
       class="cls-1"
       d="m 253,259.75 a 9.73,9.73 0 1 0 9.72,9.73 9.74,9.74 0 0 0 -9.72,-9.73 z m 0,12.45 a 2.73,2.73 0 1 1 2.72,-2.72 2.72,2.72 0 0 1 -2.72,2.72 z"
       id="path6" />
    <path
       class="cls-1"
       d="m 313.55,265 -3.47,-32.28 a 3.49,3.49 0 0 0 -3.48,-3.12 h -18.84 a 3.49,3.49 0 0 0 -3.48,3.12 L 280.7,266 h -7.24 a 19.62,19.62 0 0 0 -5.31,-11.51 13.52,13.52 0 0 0 5.44,-10.8 v -12.4 a 13.54,13.54 0 0 0 -13.52,-13.52 h -3.6 L 252.13,208 245,192 v 0 l -4.35,-9.76 c 0,-0.1 -0.1,-0.21 -0.15,-0.31 -4.47,-7.82 -9.85,-11.78 -16,-11.78 h -22.4 a 13.54,13.54 0 0 0 -13.52,13.52 v 33.94 c -6.79,0 -16.58,0 -25.22,0 -5.14,0 -9.87,0.05 -13.32,0.08 -1.74,0 -3.15,0 -4.13,0.05 a 10.62,10.62 0 0 0 -2.38,0.24 v 0 a 13.53,13.53 0 0 0 -9.73,11.36 3.38,3.38 0 0 0 -0.14,1 v 13.23 a 13.52,13.52 0 0 0 5.52,10.88 c -3.17,2.85 -5.52,7.21 -5.52,13.65 v 2.82 c 0,6.39 3.87,18.5 18.5,18.5 h 102.93 c 6.08,0 17.3,-3.5 18.4,-16.41 H 280 l -1.34,12.53 a 3.5,3.5 0 0 0 3.48,3.88 h 43.38 a 3.5,3.5 0 0 0 2.76,-5.66 z m -64.76,-47.3 h -33.26 a 2.59,2.59 0 0 1 -1.45,-0.31 v -20.18 a 2.68,2.68 0 0 1 1.45,-0.31 h 24 L 247,213.67 Z M 147.19,250 a 6.53,6.53 0 0 1 -6.52,-6.52 v -12.6 a 2.6,2.6 0 0 0 0.05,-0.39 6.52,6.52 0 0 1 4.45,-5.74 c 2.79,-0.1 20.1,-0.18 46.94,-0.2 a 3.5,3.5 0 0 0 3.49,-3.5 v -37.4 a 6.53,6.53 0 0 1 6.52,-6.52 h 22.4 c 3.45,0 6.67,2.65 9.81,8.11 l 2.08,4.66 h -20.88 c -5.55,0 -8.45,3.62 -8.45,7.2 v 20.4 c 0,3.57 2.9,7.19 8.45,7.19 h 38.15 a 3,3 0 0 0 0.52,0 h 5.87 a 6.53,6.53 0 0 1 6.52,6.52 v 12.4 a 6.53,6.53 0 0 1 -4.45,6.17 c -0.55,0 -1.65,0 -3.19,0 a 23.4,23.4 0 0 0 -3.86,-0.31 H 152.17 a 19.92,19.92 0 0 0 -4.23,0.49 z m 119.4,20.83 c 0,11.05 -10.34,11.48 -11.5,11.5 H 152.17 c -11.06,0 -11.49,-10.34 -11.5,-11.5 v -2.82 c 0,-7.49 4.74,-10.1 8.17,-11 6.48,0 31.3,0 56.13,0 14.45,0 28.9,0 39.74,-0.08 l 13.11,-0.06 h 0.36 c 8,1.72 8.4,10.14 8.41,11.18 z m 19.41,11.54 4.92,-45.78 h 12.56 l 3.24,30.14 a 3.53,3.53 0 0 0 0.72,1.79 l 10.86,13.85 z"
       id="path8" />
  </g>
</svg>
