<?xml version="1.0" encoding="UTF-8" standalone="no"?>
<svg
   xmlns:dc="http://purl.org/dc/elements/1.1/"
   xmlns:cc="http://creativecommons.org/ns#"
   xmlns:rdf="http://www.w3.org/1999/02/22-rdf-syntax-ns#"
   xmlns:svg="http://www.w3.org/2000/svg"
   xmlns="http://www.w3.org/2000/svg"
   xmlns:sodipodi="http://sodipodi.sourceforge.net/DTD/sodipodi-0.dtd"
   xmlns:inkscape="http://www.inkscape.org/namespaces/inkscape"
   viewBox="0 0 139.95 170"
   version="1.1"
   id="svg7"
   sodipodi:docname="Cross b.svg"
   width="139.95"
   height="170"
   inkscape:version="1.0.2 (e86c870879, 2021-01-15, custom)">
  <g
     id="Layer_10"
     data-name="Layer 10"
     transform="translate(-165.32,-144.75)">
    <path
       class="cls-1"
       d="m 281.82,144.75 h -93 a 23.53,23.53 0 0 0 -23.5,23.5 v 93 a 23.53,23.53 0 0 0 23.5,23.5 h 6.81 c -0.13,9.39 -0.31,21.5 -0.31,21.55 0,5.7 2.61,7.52 4.17,8.11 a 5.48,5.48 0 0 0 1.9,0.34 c 1.66,0 3.9,-0.74 6.38,-3.58 l 23,-26.42 h 51 a 23.52,23.52 0 0 0 23.5,-23.5 v -93 a 23.52,23.52 0 0 0 -23.45,-23.5 z m 16.5,116.5 a 16.52,16.52 0 0 1 -16.5,16.5 h -52.61 a 3.51,3.51 0 0 0 -2.64,1.2 l -24.08,27.62 -0.16,0.18 c 0,-0.13 0,-0.26 0,-0.4 0,-0.14 0.23,-15.52 0.36,-25.06 a 3.55,3.55 0 0 0 -1,-2.5 3.5,3.5 0 0 0 -2.49,-1 h -10.38 a 16.52,16.52 0 0 1 -16.5,-16.5 v -93 a 16.52,16.52 0 0 1 16.5,-16.5 h 93 a 16.52,16.52 0 0 1 16.5,16.5 z"
       id="path2" />
    <path
       class="cls-1"
       d="m 265.81,226.81 -11.67,-11.66 11.6,-11.62 a 13.41,13.41 0 0 0 0,-18.84 c -2.21,-2.23 -6.18,-4.26 -9.6,-3.92 a 13.1,13.1 0 0 0 -9.16,3.9 l -11.66,11.68 -11.62,-11.61 a 13.42,13.42 0 0 0 -18.84,0 c -2.23,2.22 -4.26,6.19 -3.92,9.6 a 13.14,13.14 0 0 0 3.9,9.17 l 11.68,11.66 -11.6,11.61 a 13.41,13.41 0 0 0 0,18.84 13.63,13.63 0 0 0 8.84,4 6.62,6.62 0 0 0 0.77,0 13.09,13.09 0 0 0 9.16,-3.9 L 235.34,234 247,245.58 a 13.42,13.42 0 0 0 18.85,0 c 2.23,-2.21 4.25,-6.18 3.92,-9.6 a 13.11,13.11 0 0 0 -3.96,-9.17 z m -4.94,13.79 v 0 a 6.4,6.4 0 0 1 -9,0 l -14.08,-14.07 a 3.5,3.5 0 0 0 -4.95,0 l -14.14,14.15 a 6.18,6.18 0 0 1 -4.41,1.85 v 0 h -0.47 a 6.61,6.61 0 0 1 -4,-1.89 6.38,6.38 0 0 1 0,-9 l 14.06,-14.09 a 3.48,3.48 0 0 0 0,-4.94 l -14.16,-14.14 a 6.18,6.18 0 0 1 -1.84,-4.42 3.83,3.83 0 0 0 0,-0.47 6.65,6.65 0 0 1 1.88,-3.95 6.37,6.37 0 0 1 9,0 l 14.09,14.06 a 3.49,3.49 0 0 0 4.95,0 l 14.14,-14.16 a 6.15,6.15 0 0 1 4.4,-1.84 v 0 c 0.15,0 0.32,0 0.47,0 a 6.56,6.56 0 0 1 3.95,1.88 6.38,6.38 0 0 1 0,9 l -14.07,14.09 a 3.5,3.5 0 0 0 0,4.95 l 14.16,14.14 a 6.2,6.2 0 0 1 1.84,4.41 3.59,3.59 0 0 0 0,0.47 6.62,6.62 0 0 1 -1.82,3.97 z"
       id="path4" />
  </g>
</svg>
