<svg xmlns="http://www.w3.org/2000/svg" viewBox="0 0 23 20">
    <path fill="#00A499" d="M20.174 0H2.826c-.484 0-.949.192-1.291.535C1.192.877 1 1.342 1 1.826v11.87c0 .484.192.948.535 1.29.342.343.807.536 1.291.536h3.652v2.739c0 .18.054.357.154.507.1.15.243.267.41.336.167.07.35.087.527.052.177-.035.34-.122.468-.25l3.386-3.384h8.75c.485 0 .95-.193 1.292-.535.343-.343.535-.807.535-1.291V1.826c0-.484-.192-.949-.535-1.291C21.123.192 20.658 0 20.174 0zm0 13.466c0 .06-.024.118-.067.161-.043.043-.1.067-.161.067h-8.903c-.242 0-.474.096-.645.267l-2.094 2.094v-1.446c0-.242-.096-.475-.267-.646-.171-.171-.404-.267-.646-.267H3.054c-.06 0-.118-.024-.161-.067-.043-.043-.067-.101-.067-.162V2.054c0-.06.024-.118.067-.161.043-.043.1-.067.161-.067h16.892c.06 0 .118.024.161.067.043.043.067.1.067.161v11.412z"/>
    <rect width="13" height="2" x="5.047" y="5" fill="#00A499" rx="1"/>
    <rect width="13" height="2" x="5.047" y="9" fill="#00A499" rx="1"/>
</svg>
