<?xml version="1.0" encoding="utf-8"?>
<!-- Generator: Adobe Illustrator 25.0.0, SVG Export Plug-In . SVG Version: 6.00 Build 0)  -->
<svg version="1.1" id="Layer_1" xmlns="http://www.w3.org/2000/svg" xmlns:xlink="http://www.w3.org/1999/xlink" x="0px" y="0px"
	 viewBox="0 0 140 180" style="enable-background:new 0 0 140 180;" xml:space="preserve">
<g>
	<path d="M121.5,180h-103C3.9,180,0,167.9,0,161.5v-143C0,3.9,12.1,0,18.5,0h103C136.1,0,140,12.1,140,18.5v143
		C140,176.1,127.9,180,121.5,180z M18.5,7C17.3,7,7,7.4,7,18.5v143c0,1.2,0.4,11.5,11.5,11.5h103c1.2,0,11.5-0.4,11.5-11.5v-143
		c0-1.2-0.4-11.5-11.5-11.5H18.5z"/>
	<path d="M101.3,44.8h-73c-1.9,0-3.5-1.6-3.5-3.5s1.6-3.5,3.5-3.5h73c1.9,0,3.5,1.6,3.5,3.5S103.2,44.8,101.3,44.8z"/>
	<path d="M93.8,64.1H28.3c-1.9,0-3.5-1.6-3.5-3.5s1.6-3.5,3.5-3.5h65.5c1.9,0,3.5,1.6,3.5,3.5S95.7,64.1,93.8,64.1z"/>
	<path d="M101.3,83.4h-73c-1.9,0-3.5-1.6-3.5-3.5s1.6-3.5,3.5-3.5h73c1.9,0,3.5,1.6,3.5,3.5S103.2,83.4,101.3,83.4z"/>
	<path d="M101.3,102.7h-73c-1.9,0-3.5-1.6-3.5-3.5s1.6-3.5,3.5-3.5h73c1.9,0,3.5,1.6,3.5,3.5S103.2,102.7,101.3,102.7z"/>
	<path d="M93.8,122H28.3c-1.9,0-3.5-1.6-3.5-3.5s1.6-3.5,3.5-3.5h65.5c1.9,0,3.5,1.6,3.5,3.5S95.7,122,93.8,122z"/>
	<path d="M101.3,141.4h-73c-1.9,0-3.5-1.6-3.5-3.5s1.6-3.5,3.5-3.5h73c1.9,0,3.5,1.6,3.5,3.5S103.2,141.4,101.3,141.4z"/>
</g>
</svg>
