<svg viewBox="0 0 28 28" xmlns="http://www.w3.org/2000/svg">
<path d="M5.83672 27.9975C5.59122 27.9793 5.36162 27.8572 5.20446 27.6587C5.04727 27.4584 4.97486 27.2016 5.00488 26.9448L6.09638 18.0733L0.238078 11.5602L0.239844 11.5583C0.0190762 11.3088 -0.0568687 10.9536 0.0438034 10.6295C0.144476 10.3053 0.405863 10.0649 0.723767 9.99744L9.1113 8.34549L13.2017 0.488122L13.2035 0.489943C13.3607 0.187603 13.6627 0 13.9912 0C14.3197 0 14.6234 0.187594 14.7807 0.489943L18.8711 8.34731L27.2762 9.99926V9.99744C27.5941 10.0648 27.8555 10.3052 27.9562 10.6295C28.0569 10.9536 27.9809 11.3088 27.7602 11.5583L21.9019 18.0715L22.9934 26.943L22.9951 26.9448C23.0357 27.2872 22.8944 27.6241 22.626 27.8245C22.3593 28.0248 22.0078 28.0558 21.7129 27.9064L14 24.0598L6.27118 27.9064C6.13519 27.9738 5.98683 28.0048 5.83671 27.9975L5.83672 27.9975ZM6.99708 25.4568L13.6168 22.1911H13.6185C13.8605 22.0727 14.1395 22.0727 14.3815 22.1911L21.0012 25.4568L20.0651 17.8726C20.0281 17.5867 20.1181 17.2989 20.3089 17.0931L25.3352 11.5236L18.126 10.1084L18.1242 10.1066C17.8593 10.0556 17.6315 9.8826 17.5008 9.63491L13.9826 2.90308L10.4821 9.63491C10.3532 9.88261 10.1236 10.0556 9.85866 10.1066L2.66702 11.5218L7.69339 17.0913L7.69162 17.0931C7.88237 17.2989 7.97244 17.5867 7.93535 17.8726L6.9993 25.4568H6.99708Z" />
</svg>
