<svg viewBox="0 0 31 28" fill="none" xmlns="http://www.w3.org/2000/svg">
<path fill-rule="evenodd" clip-rule="evenodd" d="M30.9956 2.98492C30.9956 2.1935 30.6826 1.43418 30.1261 0.874506C29.5696 0.314834 28.8147 0 28.0279 0H9.40162C7.76272 0 6.43394 1.3365 6.43394 2.98492V12.2676L6.41943 14.6666C6.41943 15.4581 6.73243 16.2174 7.28889 16.7771C7.84535 17.3367 8.60031 17.6516 9.38711 17.6516L16.6326 17.6517H17.2557L22.3375 23.2745C22.523 23.48 22.807 23.5646 23.0751 23.4946C23.3417 23.4247 23.5489 23.2104 23.6098 22.9393L24.8226 17.6515H28.0323C28.8191 17.6515 29.5741 17.3367 30.1305 16.777C30.687 16.2173 31 15.458 31 14.6666L30.9956 2.98492ZM4.9177 12H1.8548C0.830319 12 0 12.8351 0 13.8656V21.5364C0 22.032 0.195622 22.5057 0.543382 22.8555C0.891157 23.2067 1.36209 23.402 1.8548 23.402H3.84726L4.53702 26.4248C4.59788 26.6959 4.8051 26.9102 5.07173 26.9801C5.3398 27.0516 5.62382 26.967 5.8093 26.7601L8.84075 23.402H13.7779C14.2691 23.402 14.7415 23.2067 15.0893 22.8555C15.437 22.5057 15.6327 22.032 15.6327 21.5365V18.8958L8 19C7.18129 19 4.9177 18.5 4.9177 16V12Z"/>
</svg>
