<svg viewBox="0 0 30 24" xmlns="http://www.w3.org/2000/svg">
<path fill-rule="evenodd" clip-rule="evenodd"
      d="M9.13741 15.4331C7.84351 15.3198 6.59496 14.8835 5.50896 14.1597C4.23424 13.3102 3.24073 12.1027 2.65404 10.69C2.06735 9.27729 1.91385 7.72277 2.21294 6.22304C2.51203 4.7233 3.25028 3.34571 4.33433 2.26446C5.41839 1.18321 6.79956 0.446875 8.30319 0.148559C9.80681 -0.149756 11.3654 0.00334945 12.7817 0.588517C13.5421 0.902634 14.2431 1.33368 14.8611 1.86226C15.7461 1.10533 16.7919 0.556454 17.9212 0.257969C19.1405 -0.0643255 20.4203 -0.0849437 21.6494 0.197906C22.8786 0.480755 24.0199 1.05853 24.9744 1.88107C25.929 2.70361 26.6678 3.74607 27.1268 4.91797C27.5858 6.08988 27.7512 7.35581 27.6085 8.60589C27.4658 9.85597 27.0194 11.0524 26.308 12.0914C25.5966 13.1304 24.6418 13.9806 23.5263 14.5681C22.7109 14.9975 21.8277 15.2772 20.9188 15.3965L28.0464 22.5057L27.2258 23.3235L19.9071 16.0237L15.8667 20.0543L18.3243 22.5057L17.5037 23.3235L10.1857 16.0237L2.867 23.3235L2.04639 22.5057L9.13741 15.4331ZM15.6857 2.68243C15.8918 2.92083 16.0839 3.17241 16.2605 3.43604C17.1122 4.70746 17.5668 6.20224 17.5668 7.73135C17.5646 9.59013 16.8922 11.3793 15.6833 12.7774C16.5187 13.473 17.5164 13.9534 18.5886 14.1718C19.8546 14.4295 21.1686 14.3104 22.3673 13.8293C23.566 13.3482 24.5964 12.5262 25.3305 11.4657C26.0646 10.4051 26.47 9.15271 26.4962 7.86422C26.5224 6.57574 26.1683 5.30799 25.4779 4.21861C24.7875 3.12924 23.7913 2.2663 22.6132 1.73708C21.4351 1.20787 20.127 1.03573 18.8516 1.24207C17.684 1.43096 16.591 1.92939 15.6857 2.68243ZM14.8575 13.5987C13.7971 14.5055 12.514 15.1072 11.147 15.3464L15.0465 19.2362L18.8935 15.3986C18.2234 15.3117 17.5662 15.137 16.9392 14.8779C16.1803 14.5643 15.4777 14.1321 14.8575 13.5987ZM6.15339 2.26493C7.23735 1.54252 8.51174 1.15694 9.81541 1.15694C11.563 1.15874 13.2385 1.85198 14.4743 3.08453C15.71 4.31708 16.4051 5.98826 16.4069 7.73135C16.4069 9.03165 16.0203 10.3027 15.296 11.3839C14.5717 12.4651 13.5423 13.3077 12.3379 13.8053C11.1334 14.3029 9.8081 14.4331 8.52948 14.1794C7.25086 13.9258 6.07637 13.2996 5.15454 12.3802C4.2327 11.4607 3.60493 10.2893 3.3506 9.01396C3.09626 7.73865 3.22679 6.41675 3.72569 5.21543C4.22458 4.01412 5.06942 2.98734 6.15339 2.26493Z"/>
</svg>
