<?xml version="1.0" encoding="UTF-8" standalone="no"?>
<svg
   xmlns:dc="http://purl.org/dc/elements/1.1/"
   xmlns:cc="http://creativecommons.org/ns#"
   xmlns:rdf="http://www.w3.org/1999/02/22-rdf-syntax-ns#"
   xmlns:svg="http://www.w3.org/2000/svg"
   xmlns="http://www.w3.org/2000/svg"
   xmlns:sodipodi="http://sodipodi.sourceforge.net/DTD/sodipodi-0.dtd"
   xmlns:inkscape="http://www.inkscape.org/namespaces/inkscape"
   viewBox="0 0 160.09096 139.96376"
   version="1.1"
   id="svg10"
   sodipodi:docname="home.svg"
   width="160.09096"
   height="139.96376"
   inkscape:version="0.92.4 (5da689c313, 2019-01-14)">
  <metadata
     id="metadata16">
    <rdf:RDF>
      <cc:Work
         rdf:about="">
        <dc:format>image/svg+xml</dc:format>
        <dc:type
           rdf:resource="http://purl.org/dc/dcmitype/StillImage" />
      </cc:Work>
    </rdf:RDF>
  </metadata>
  <defs
     id="defs14" />
  <sodipodi:namedview
     pagecolor="#ffffff"
     bordercolor="#666666"
     borderopacity="1"
     objecttolerance="10"
     gridtolerance="10"
     guidetolerance="10"
     inkscape:pageopacity="0"
     inkscape:pageshadow="2"
     inkscape:window-width="1920"
     inkscape:window-height="1013"
     id="namedview12"
     showgrid="false"
     inkscape:zoom="0.51360174"
     inkscape:cx="80.095958"
     inkscape:cy="70.01"
     inkscape:window-x="-9"
     inkscape:window-y="-9"
     inkscape:window-maximized="1"
     inkscape:current-layer="svg10" />
  <path
     d="m 156.59096,64.113756 a 3.5,3.5 0 0 0 2.1,-6.3 L 82.260961,0.67375573 h -0.06 v 0 a 2,2 0 0 0 -0.19,-0.12 2.9,2.9 0 0 0 -0.29,-0.19 l -0.17,-0.07 c -0.12,0 -0.23,-0.11 -0.35,-0.15 h -0.1 a 3.55,3.55 0 0 0 -2,0 h -0.1 c -0.12,0 -0.23,0.1 -0.35,0.15 l -0.17,0.07 a 2.9,2.9 0 0 0 -0.29,0.19 1.22,1.22 0 0 0 -0.19,0.12 v 0 h -0.05 L 1.5209613,57.813756 a 3.5,3.5 0 1 0 4.19,5.6 l 14.3999997,-10.76 v 83.810004 a 3.5,3.5 0 0 0 3.5,3.5 H 136.61096 a 3.5,3.5 0 0 0 3.5,-3.5 V 52.653756 l 14.41,10.76 a 3.42,3.42 0 0 0 2.07,0.7 z M 93.500961,132.96376 v -27.64 c 0,-1.4 0.41,-8.380004 8.509999,-8.500004 h 2 c 1.4,0 8.39,0.41 8.5,8.500004 v 27.64 z m 39.589999,0 h -13.59 v -27.64 c 0,-6.230004 -4.13,-15.500004 -15.5,-15.500004 h -2 c -6.229999,0 -15.499999,4.13 -15.499999,15.500004 v 27.64 h -59.41 V 47.833756 l 53,-40.0000003 52.999999,40.0000003 z"
     id="path2"
     inkscape:connector-curvature="0" />
  <path
     d="m 67.190961,47.693756 h -23 a 3.5,3.5 0 0 0 -3.5,3.5 v 23 a 3.5,3.5 0 0 0 3.5,3.5 h 23 a 3.5,3.5 0 0 0 3.5,-3.5 v -22.99 a 3.5,3.5 0 0 0 -3.5,-3.51 z m -3.5,23 h -16 v -16 h 16 z"
     id="path4"
     inkscape:connector-curvature="0" />
  <path
     d="m 67.190961,92.823756 h -23 a 3.5,3.5 0 0 0 -3.5,3.5 v 23.000004 a 3.5,3.5 0 0 0 3.5,3.5 h 23 a 3.5,3.5 0 0 0 3.5,-3.5 V 96.323756 a 3.5,3.5 0 0 0 -3.5,-3.5 z m -3.5,23.000004 h -16 V 99.823756 h 16 z"
     id="path6"
     inkscape:connector-curvature="0" />
  <path
     d="m 93.000961,77.693756 h 22.999999 a 3.5,3.5 0 0 0 3.5,-3.5 v -22.99 a 3.5,3.5 0 0 0 -3.5,-3.5 H 93.000961 a 3.5,3.5 0 0 0 -3.5,3.5 v 23 a 3.5,3.5 0 0 0 3.5,3.49 z m 3.5,-23 h 15.999999 v 16 H 96.500961 Z"
     id="path8"
     inkscape:connector-curvature="0" />
</svg>
