<?xml version="1.0" encoding="utf-8"?>
<!-- Generator: Adobe Illustrator 25.0.0, SVG Export Plug-In . SVG Version: 6.00 Build 0)  -->
<svg version="1.1" id="Layer_1" xmlns="http://www.w3.org/2000/svg" xmlns:xlink="http://www.w3.org/1999/xlink" x="0px" y="0px"
	 viewBox="0 0 121.2 174" style="enable-background:new 0 0 121.2 174;" xml:space="preserve">
<g id="Layer_10">
	<path d="M87,15.8v-9C87,2.9,83.1,0,78,0H9C3.9,0,0,2.9,0,6.8v9c0,3.6,3.4,6.4,8.1,6.7v28.4c0,1.2,0.1,2.4,0.2,3.6
		c2.4,23.6,13.2,45.6,30.6,61.7c16.4,15.3,37.7,24.4,60.2,25.5c0.9,3.5,3.3,5.9,6.4,5.9h9c3.9,0,6.8-3.9,6.8-9v-69
		c0-5.1-2.9-9-6.8-9h-9c-3.8,0-6.7,3.8-6.8,8.8c-9.8-2.6-17.2-10.8-18.7-20.8V22.4C84.1,21.8,87,19.1,87,15.8z M7.1,7.4
		C7.7,7.1,8.4,7,9.1,7h69c0.7,0,1.4,0.1,2,0.4v7.7c-0.6,0.3-1.3,0.4-2,0.4h-69c-0.7,0-1.4-0.1-2-0.4V7.4z M106.1,67.8h7.7
		c0.3,0.6,0.4,1.3,0.4,2v69c0,0.7-0.1,1.4-0.4,2h-7.7c-0.3-0.6-0.4-1.3-0.4-2v-0.1c0-0.1,0-0.1,0-0.2V73.6c0-0.1,0-0.1,0-0.2v-3.7
		C105.7,69.1,105.8,68.4,106.1,67.8L106.1,67.8z M98.7,76.7v58c-15.3-0.9-30.1-5.8-42.9-14.1l3.7-10.5l10.1,7.7c1.2,0.9,2.8,1,4,0.2
		l9.1-5.8c1.7-1,2.2-3.1,1.2-4.8c-1-1.7-3.1-2.2-4.8-1.2c-0.1,0-0.1,0.1-0.2,0.1l-7.1,4.5L60,101.6c-0.9-0.7-2-0.9-3.1-0.6
		c-1.1,0.3-1.9,1.1-2.3,2.2l-4.7,13.1c-2.1-1.7-4.2-3.4-6.2-5.3C27.6,96,17.6,75.6,15.4,53.7c-0.1-1-0.2-1.9-0.1-2.9V22.5H73V49
		c0,0.2,0,0.3,0,0.5C75,63.3,85.5,74.3,98.7,76.7L98.7,76.7z"/>
	<path d="M48.3,136c-0.5,0.4-13.2,10.7-13.4,22.2c-0.2,4,1.3,7.9,4.1,10.8c6.1,6.4,16.2,6.6,22.6,0.5c0.2-0.2,0.3-0.3,0.5-0.5
		c2.8-2.9,4.3-6.8,4.1-10.8c-0.2-11.5-12.9-21.8-13.4-22.2C51.4,135,49.6,135,48.3,136z M59.1,158.4L59.1,158.4
		c0.1,2.1-0.6,4.2-2.1,5.8c-3.4,3.6-9,3.8-12.7,0.4c-0.1-0.1-0.3-0.3-0.4-0.4c-1.5-1.5-2.3-3.6-2.1-5.8c0.1-5.5,5.1-11.6,8.6-15
		C54,146.8,59,152.8,59.1,158.4L59.1,158.4z"/>
</g>
</svg>
