<?xml version="1.0" encoding="utf-8"?>
<!-- Generator: Adobe Illustrator 25.0.0, SVG Export Plug-In . SVG Version: 6.00 Build 0)  -->
<svg version="1.1" id="Layer_1" xmlns="http://www.w3.org/2000/svg" xmlns:xlink="http://www.w3.org/1999/xlink" x="0px" y="0px"
	 viewBox="0 0 121.1 147.7" style="enable-background:new 0 0 121.1 147.7;" xml:space="preserve">
<g id="Layer_10">
	<path d="M114.4,60.8h-9c-3.8,0-6.7,3.8-6.8,8.8C88.8,67,81.4,58.8,79.9,48.7V22.4c4.1-0.6,7.1-3.3,7.1-6.6v-9C87,2.9,83.1,0,78,0H9
		C3.9,0,0,2.9,0,6.8v9c0,3.6,3.4,6.4,8.1,6.7v28.4c0,1.2,0.1,2.4,0.2,3.6c2.3,23.6,13.2,45.5,30.5,61.8
		c16.4,15.3,37.7,24.4,60.1,25.5c0.9,3.5,3.3,5.9,6.4,5.9h9c3.9,0,6.8-3.9,6.8-9v-69C121.2,64.7,118.3,60.8,114.4,60.8z M90.6,90.8
		c-0.1-0.4-0.1-0.8-0.1-1.2c0-4.6,3.5-8.5,8.1-9v54.1c-19.4-1.2-37.9-8.8-52.6-21.5c2.3-2.7,6-5.4,9.2-5.9c1.6-0.2,2.8-1.5,3-3.1
		C59,95.5,66.7,89.2,75.3,90c3.4,0.3,6.6,1.8,9.1,4.1c1.1,1,2.7,1.2,4,0.5l0.3-0.2C90,93.8,90.8,92.3,90.6,90.8L90.6,90.8z M7.1,7.4
		c0.6-0.3,1.3-0.4,2-0.4h69c0.7,0,1.4,0.1,2,0.4v7.8c-0.6,0.3-1.3,0.4-2,0.4h-69c-0.7,0-1.4-0.1-2-0.4V7.4z M15.3,53.7
		c-0.1-1-0.2-1.9-0.1-2.9V22.5h57.7V49c0,0.2,0,0.3,0,0.5c1.6,11.5,9.3,21.2,20,25.6c-4.3,2-7.6,5.8-8.9,10.3
		c-11.2-5.7-24.9-1.3-30.6,9.9c-0.9,1.8-1.6,3.7-2,5.7c-4.3,1.2-8.1,3.8-10.8,7.4C26.3,93.6,17.3,74.3,15.3,53.7L15.3,53.7z
		 M114.1,138.7c0,0.7-0.1,1.4-0.4,2H106c-0.3-0.6-0.4-1.3-0.4-2v-0.1c0-0.1,0-0.1,0-0.2V73.7c0-0.1,0-0.1,0-0.2v-3.7
		c0-0.7,0.1-1.4,0.4-2h7.7c0.3,0.6,0.4,1.3,0.4,2V138.7z"/>
</g>
</svg>
