<?xml version="1.0" encoding="utf-8"?>
<!-- Generator: Adobe Illustrator 25.0.0, SVG Export Plug-In . SVG Version: 6.00 Build 0)  -->
<svg version="1.1" id="Layer_1" xmlns="http://www.w3.org/2000/svg" xmlns:xlink="http://www.w3.org/1999/xlink" x="0px" y="0px"
	 viewBox="0 0 83 81.8" style="enable-background:new 0 0 83 81.8;" xml:space="preserve">
<g id="Component_41_1" transform="translate(1.5 1.56)">
	<g id="Path_313">
		<path d="M24.3,73.7c-0.7,0-1.3-0.2-1.9-0.6L-0.1,57c-0.9-0.6-1.4-1.6-1.4-2.7V2.9c0-1.8,1.4-3.2,3.2-3.3c0.7,0,1.3,0.2,1.9,0.6
			l20.7,14.9l22.5-16c1.1-0.8,2.6-0.8,3.8,0l22.6,16.1c0.9,0.6,1.4,1.6,1.4,2.7v16.5h-3V17.9c0-0.1,0-0.2-0.1-0.2L50.2,2.5v31.9h-3
			V2.5L25.8,17.7v52l18.5-13.2l1.7,2.4L26.2,73.1C25.7,73.6,25,73.7,24.3,73.7z M1.7,2.7C1.7,2.7,1.7,2.7,1.7,2.7
			c-0.1,0-0.2,0.1-0.2,0.2v51.4c0,0.1,0,0.2,0.1,0.2l21.2,15.2V17.8L1.9,2.7C1.8,2.7,1.8,2.7,1.7,2.7z"/>
	</g>
	<g id="Path_314">
		<path d="M66.1,80.1c-0.7,0-1.4-0.2-2-0.7c-0.2-0.1-0.4-0.3-0.6-0.6C59.7,74,50.7,61.9,50.7,55.3c0-8.5,6.9-15.4,15.4-15.4l0,0
			c0,0,0,0,0,0c8.5,0,15.4,6.9,15.4,15.4c0,6.4-8.1,17.5-12.9,23.6C68,79.6,67,80.1,66.1,80.1z M66.1,42.8
			c-6.8,0-12.4,5.6-12.4,12.4c0,4.7,6.3,14.3,12.2,21.7c0.1,0.1,0.3,0.1,0.4,0c7.6-9.7,12.2-17.8,12.2-21.7c0-3.3-1.3-6.4-3.6-8.8
			C72.5,44.1,69.4,42.8,66.1,42.8C66.1,42.8,66.1,42.8,66.1,42.8L66.1,42.8z"/>
	</g>
	<g id="Ellipse_19">
		<path d="M66.1,62c-3.7,0-6.7-3-6.7-6.7s3-6.7,6.7-6.7s6.7,3,6.7,6.7S69.8,62,66.1,62z M66.1,51.5c-2,0-3.7,1.7-3.7,3.7
			c0,2,1.7,3.7,3.7,3.7s3.7-1.7,3.7-3.7C69.8,53.2,68.1,51.5,66.1,51.5z"/>
	</g>
</g>
</svg>
