<svg width="21" height="26" viewBox="0 0 21 26" xmlns="http://www.w3.org/2000/svg">
<path fill-rule="evenodd" clip-rule="evenodd"
      d="M17.6867 7.67734C17.6867 3.61313 14.6761 0 10.5368 0C6.32271 0 3.31201 3.61295 3.31201 7.67734C3.31201 11.6664 6.32256 15.3547 10.5368 15.3547C14.676 15.3547 17.6867 11.6668 17.6867 7.67734ZM5.1927 7.67741C5.1927 4.66664 7.37622 1.88221 10.5368 1.88221C13.624 1.88221 15.806 4.66671 15.806 7.67741C15.806 10.6132 13.6225 13.3977 10.5368 13.3977C7.3747 13.3977 5.1927 10.6132 5.1927 7.67741ZM0 24.159V25.74H1.88206V24.159C1.88206 21.2231 4.36537 18.8149 7.30113 18.8149H13.6987C16.7095 18.8149 19.1178 21.2232 19.1178 24.159V25.74H21V24.159C21 20.1697 17.7632 16.8578 13.6988 16.8578H7.3012C3.31189 16.8578 0 20.1695 0 24.159Z"/>
</svg>
