<svg
    version="1.1"
    xmlns="http://www.w3.org/2000/svg"
    width="32"
    height="32"
    viewBox="0 0 32 32"
    preserveAspectRatio="xMinYMid"
    aria-hidden="true"
    focusable="false">
        <title>Menu</title>
        <path d="M30.5 17.5h-29c-0.813 0-1.5-0.688-1.5-1.5s0.688-1.5 1.5-1.5h29c0.813 0 1.5 0.688 1.5 1.5s-0.688 1.5-1.5 1.5zM30.5 9.5h-29c-0.813 0-1.5-0.688-1.5-1.5s0.688-1.5 1.5-1.5h29c0.813 0 1.5 0.688 1.5 1.5s-0.688 1.5-1.5 1.5zM1.5 22.5h29c0.813 0 1.5 0.688 1.5 1.5s-0.688 1.5-1.5 1.5h-29c-0.813 0-1.5-0.688-1.5-1.5s0.688-1.5 1.5-1.5z"></path>
</svg>
