<svg viewBox="0 0 31 31" fill="none" xmlns="http://www.w3.org/2000/svg">
    <path fill-rule="evenodd" clip-rule="evenodd" d="M15.0625 0.0625C11.0843 0.0625 7.26894 1.64285 4.4559 4.4559C1.64285 7.26894 0.0625 11.0843 0.0625 15.0625C0.0625 19.0407 1.64285 22.8561 4.4559 25.6691C7.26894 28.4821 11.0843 30.0625 15.0625 30.0625C19.0407 30.0625 22.8561 28.4821 25.6691 25.6691C28.4821 22.8561 30.0625 19.0407 30.0625 15.0625C30.0625 11.0843 28.4821 7.26894 25.6691 4.4559C22.8561 1.64285 19.0407 0.0625 15.0625 0.0625ZM5.78172 5.78172C8.24314 3.32031 11.5815 1.9375 15.0625 1.9375C18.5435 1.9375 21.8819 3.32031 24.3433 5.78172C26.8047 8.24314 28.1875 11.5815 28.1875 15.0625C28.1875 18.5435 26.8047 21.8819 24.3433 24.3433C21.8819 26.8047 18.5435 28.1875 15.0625 28.1875C11.5815 28.1875 8.24314 26.8047 5.78172 24.3433C3.32031 21.8819 1.9375 18.5435 1.9375 15.0625C1.9375 11.5815 3.32031 8.24314 5.78172 5.78172ZM15.0625 8.5C15.5803 8.5 16 8.91973 16 9.4375V14.125H20.6875C21.2053 14.125 21.625 14.5447 21.625 15.0625C21.625 15.5803 21.2053 16 20.6875 16H16V20.6875C16 21.2053 15.5803 21.625 15.0625 21.625C14.5447 21.625 14.125 21.2053 14.125 20.6875V16H9.4375C8.91973 16 8.5 15.5803 8.5 15.0625C8.5 14.5447 8.91973 14.125 9.4375 14.125H14.125V9.4375C14.125 8.91973 14.5447 8.5 15.0625 8.5Z" />
</svg>
