<svg
    version="1.1"
    xmlns="http://www.w3.org/2000/svg"
    width="20.501"
    height="21.879"
    viewBox="0 0 20.501 21.879">
        <title>Reciteme</title>
        <path d="M22.428 8.9A10.247 10.247 0 0 0 2.2 11.1a9.854 9.854 0 0 0 2.882 7.119.46.46 0 0 1 .113.622c-.17.4-.339.848-.509 1.243-.4.9-.735 1.808-1.187 2.769a2.542 2.542 0 0 1 .452-.113c1.752-.565 3.5-1.074 5.311-1.639a1.377 1.377 0 0 1 .678 0 11.59 11.59 0 0 0 4.407.17A10.309 10.309 0 0 0 22.428 8.9zm-8.645 5.424H12.37v-3.446c0-.565-.226-.9-.622-1.017a.92.92 0 0 0-1.243.961v3.108c0 .4-.113.452-.452.452-1.017 0-1.017 0-1.017-1.074v-2.486a.882.882 0 0 0-1.016-.961.911.911 0 0 0-.848.848c-.057.678 0 1.413-.057 2.091v1.243c0 .17-.057.283-.283.283H5.647V8.957c0-.339.113-.452.452-.452h1.017c0 .17.057.283.057.452a2.118 2.118 0 0 1 2.938.17 2.386 2.386 0 0 1 1.978-.678 1.823 1.823 0 0 1 1.752 1.582c-.002 1.469-.058 2.881-.058 4.294zm5.481-2.373h-3.221c.113 1.3 1.074 1.526 2.6.735.226.283.509.565.791.9a2.1 2.1 0 0 1-1.356.791 7.936 7.936 0 0 1-1.639 0 2.05 2.05 0 0 1-1.7-1.582 4.094 4.094 0 0 1 .057-2.6 2.31 2.31 0 0 1 2.543-1.639 2.3 2.3 0 0 1 2.2 1.978c.056.339.056.735.113 1.13-.052.236-.162.288-.388.288zm-2.2-2.2c-.622 0-1.017.4-1.074 1.13h2.091a1.012 1.012 0 0 0-1.021-1.133z" transform="translate(32.3 -.978) translate(-34.5)"/>
</svg>
