<?xml version="1.0" encoding="UTF-8" standalone="no"?>
<svg
   xmlns:dc="http://purl.org/dc/elements/1.1/"
   xmlns:cc="http://creativecommons.org/ns#"
   xmlns:rdf="http://www.w3.org/1999/02/22-rdf-syntax-ns#"
   xmlns:svg="http://www.w3.org/2000/svg"
   xmlns="http://www.w3.org/2000/svg"
   xmlns:sodipodi="http://sodipodi.sourceforge.net/DTD/sodipodi-0.dtd"
   xmlns:inkscape="http://www.inkscape.org/namespaces/inkscape"
   viewBox="0 0 100 179.88007"
   version="1.1"
   id="svg11"
   sodipodi:docname="shower.svg"
   width="100"
   height="179.88007"
   inkscape:version="1.0.2 (e86c870879, 2021-01-15, custom)">
  <g
     id="Layer_10"
     data-name="Layer 10"
     transform="translate(-181.29,-139.80994)">
    <path
       class="cls-1"
       d="m 181.35,250.74 c 0.11,3.63 3.81,3.63 7.07,3.63 h 89.37 a 3.5,3.5 0 0 0 3.5,-3.4 v -0.37 c 0,-0.38 0,-0.76 0,-1.14 a 50.06,50.06 0 0 0 -46.51,-49.87 v -17.68 a 35.28,35.28 0 0 1 35.36,-35.1 3.5,3.5 0 0 0 0,-7 42.29,42.29 0 0 0 -42.36,42.1 v 17.68 a 50.07,50.07 0 0 0 -46.49,49.87 c 0,0.44 0,0.88 0,1.16 z m 50,-44.28 a 43,43 0 0 1 42.95,40.91 h -85.9 a 43.05,43.05 0 0 1 42.92,-40.91 z"
       id="path2" />
    <path
       class="cls-1"
       d="m 225.72,277 c -0.18,-8.72 -9,-16.14 -10,-17 a 3.51,3.51 0 0 0 -4.43,0 c -1,0.82 -9.8,8.24 -10,17 a 11.72,11.72 0 0 0 3.28,8.66 12.29,12.29 0 0 0 17.83,0 11.68,11.68 0 0 0 3.28,-8.66 z m -8.28,3.76 a 5.29,5.29 0 0 1 -7.83,0 4.75,4.75 0 0 1 -1.29,-3.61 c 0.08,-3.4 2.89,-7.15 5.21,-9.59 2.31,2.44 5.12,6.19 5.2,9.59 a 4.75,4.75 0 0 1 -1.29,3.58 z"
       id="path4" />
    <path
       class="cls-1"
       d="m 258,285.63 a 11.69,11.69 0 0 0 3.29,-8.66 v 0 c -0.19,-8.72 -9,-16.14 -10,-17 a 3.49,3.49 0 0 0 -4.42,0 c -1,0.82 -9.8,8.24 -10,17 a 11.73,11.73 0 0 0 3.29,8.66 12.28,12.28 0 0 0 17.82,0 z m -14.11,-8.51 c 0.07,-3.4 2.89,-7.15 5.2,-9.59 2.31,2.44 5.13,6.19 5.2,9.59 a 4.75,4.75 0 0 1 -1.29,3.61 5.28,5.28 0 0 1 -7.82,0 4.75,4.75 0 0 1 -1.26,-3.61 z"
       id="path6" />
    <path
       class="cls-1"
       d="m 231.32,319.69 a 13.17,13.17 0 0 0 8.92,-3.83 11.72,11.72 0 0 0 3.28,-8.66 c -0.18,-8.72 -9,-16.14 -10,-17 a 3.49,3.49 0 0 0 -4.42,0 c -1,0.82 -9.8,8.24 -10,17 a 11.73,11.73 0 0 0 3.29,8.66 13.17,13.17 0 0 0 8.93,3.83 z m 0,-21.93 c 2.29,2.43 5.13,6.21 5.2,9.59 a 4.71,4.71 0 0 1 -1.29,3.61 5.28,5.28 0 0 1 -7.82,0 4.75,4.75 0 0 1 -1.29,-3.61 c 0.07,-3.35 2.88,-7.15 5.2,-9.59 z"
       id="path8" />
  </g>
</svg>
