<svg viewBox="0 0 21 14" fill="none" xmlns="http://www.w3.org/2000/svg">
<path fill-rule="evenodd" clip-rule="evenodd" d="M11.0104 0.0105001C14.5191 0.175 17.9045 2.42375 20.2049 4.95687C20.7157 5.51424 20.9992 6.24274 20.9996 6.99879C20.9999 7.75483 20.717 8.48357 20.2066 9.04138C19.1505 10.2043 15.3364 14 10.6114 14H10.3874C5.66151 14 1.84826 10.2043 0.79389 9.04138C0.283235 8.48365 0 7.75488 0 6.99869C0 6.2425 0.283235 5.51373 0.79389 4.956L0.793899 4.95599C0.837646 4.90787 0.881393 4.85975 0.92514 4.8125C3.39089 2.16125 6.77802 0.02975 10.4994 0C10.6744 0 10.8398 0 11.0104 0.0105001ZM11.3499 12.2106C14.2566 11.9368 17.0129 9.95312 18.9116 7.86363C19.1265 7.62657 19.2457 7.31823 19.2462 6.99832C19.2466 6.67841 19.1284 6.3697 18.9143 6.132C18.2564 5.40836 17.5329 4.74724 16.753 4.15713C15.8402 3.4545 14.8402 2.87304 13.778 2.42725C12.7431 1.97928 11.6271 1.74877 10.4994 1.75C7.28989 1.67562 4.15739 3.85 2.08626 6.13462C1.87204 6.37195 1.75346 6.68029 1.75346 7C1.75346 7.31971 1.87204 7.62805 2.08626 7.86538C2.18076 7.96979 2.27672 8.07275 2.37414 8.17425C4.51439 10.4038 7.32314 12.1756 10.4994 12.25C10.7834 12.2535 11.0674 12.2403 11.3499 12.2106ZM10.155 3.5175C10.269 3.50591 10.3835 3.50007 10.498 3.5C11.1903 3.5 11.867 3.70527 12.4425 4.08986C13.0181 4.47444 13.4667 5.02107 13.7316 5.66061C13.9965 6.30015 14.0658 7.00388 13.9308 7.68282C13.7957 8.36175 13.4624 8.98539 12.9729 9.47487C12.4834 9.96436 11.8598 10.2977 11.1809 10.4327C10.5019 10.5678 9.7982 10.4985 9.15866 10.2336C8.51911 9.96867 7.97249 9.52007 7.5879 8.9445C7.20332 8.36892 6.99805 7.69223 6.99805 7C6.99986 6.76002 7.02922 6.52104 7.08555 6.28775C7.09408 6.25181 7.11157 6.21862 7.13639 6.19127C7.16121 6.16392 7.19256 6.1433 7.2275 6.13133C7.26244 6.11936 7.29985 6.11644 7.33623 6.12283C7.37261 6.12922 7.40677 6.14471 7.43555 6.16787C7.75871 6.43203 8.16587 6.57158 8.58313 6.5612C9.00039 6.55083 9.4001 6.39121 9.70974 6.11132C10.0194 5.83143 10.2184 5.44981 10.2707 5.03572C10.3231 4.62162 10.2252 4.20249 9.99492 3.85437C9.97425 3.82307 9.962 3.78696 9.95938 3.74954C9.95675 3.71211 9.96384 3.67464 9.97994 3.64076C9.99605 3.60688 10.0206 3.57773 10.0513 3.55613C10.082 3.53454 10.1177 3.52123 10.155 3.5175Z"/>
</svg>
