<?xml version="1.0" encoding="utf-8"?>
<!-- Generator: Adobe Illustrator 25.0.0, SVG Export Plug-In . SVG Version: 6.00 Build 0)  -->
<svg version="1.1" id="Regular" xmlns="http://www.w3.org/2000/svg" xmlns:xlink="http://www.w3.org/1999/xlink" x="0px" y="0px"
	 viewBox="0 0 24 24" style="enable-background:new 0 0 24 24;" xml:space="preserve">
<g>
	<path d="M15.8,9.8C15.3,9.8,15,9.4,15,9V0.8C15,0.3,15.3,0,15.8,0s0.8,0.3,0.8,0.8V9C16.5,9.4,16.2,9.8,15.8,9.8z"/>
</g>
<g>
	<path d="M18,3.8c-0.2,0-0.4-0.1-0.5-0.2l-2.2-2.2c-0.3-0.3-0.3-0.8,0-1.1s0.8-0.3,1.1,0l2.2,2.2c0.3,0.3,0.3,0.8,0,1.1
		C18.4,3.7,18.2,3.8,18,3.8z"/>
</g>
<g>
	<path d="M13.5,3.8c-0.2,0-0.4-0.1-0.5-0.2c-0.3-0.3-0.3-0.8,0-1.1l2.2-2.2c0.3-0.3,0.8-0.3,1.1,0s0.3,0.8,0,1.1L14,3.5
		C13.9,3.7,13.7,3.8,13.5,3.8z"/>
</g>
<g>
	<path d="M8.2,9.8C7.8,9.8,7.5,9.4,7.5,9V0.8C7.5,0.3,7.8,0,8.2,0S9,0.3,9,0.8V9C9,9.4,8.7,9.8,8.2,9.8z"/>
</g>
<g>
	<path d="M10.5,3.8c-0.2,0-0.4-0.1-0.5-0.2L7.7,1.3C7.4,1,7.4,0.5,7.7,0.2s0.8-0.3,1.1,0L11,2.5c0.3,0.3,0.3,0.8,0,1.1
		C10.9,3.7,10.7,3.8,10.5,3.8z"/>
</g>
<g>
	<path d="M6,3.8c-0.2,0-0.4-0.1-0.5-0.2c-0.3-0.3-0.3-0.8,0-1.1l2.2-2.2c0.3-0.3,0.8-0.3,1.1,0s0.3,0.8,0,1.1L6.5,3.5
		C6.4,3.7,6.2,3.8,6,3.8z"/>
</g>
<g>
	<path d="M17.4,19.5c-2.5,0-4.9-1-6.8-1.8c-1.5-0.6-2.8-1.1-3.8-1.1c-2,0-3.9,0.7-5.5,2.1c-0.3,0.3-0.8,0.2-1.1-0.1
		c-0.3-0.3-0.2-0.8,0.1-1.1c1.8-1.6,4.1-2.5,6.5-2.4c1.3,0,2.7,0.6,4.3,1.2c3.6,1.5,7.8,3.2,11.6-0.7c0.3-0.3,0.8-0.3,1.1,0
		s0.3,0.8,0,1.1C21.7,18.8,19.5,19.5,17.4,19.5z"/>
</g>
<g>
	<path d="M17.4,15c-2.5,0-4.9-1-6.8-1.8c-1.5-0.6-2.8-1.1-3.8-1.1c-2,0-3.9,0.7-5.5,2.1c-0.3,0.3-0.8,0.2-1.1-0.1
		c-0.3-0.3-0.2-0.8,0.1-1.1c1.8-1.6,4.1-2.4,6.4-2.4c1.3,0,2.7,0.6,4.4,1.3c3.6,1.5,7.8,3.2,11.6-0.7c0.3-0.3,0.8-0.3,1.1,0
		s0.3,0.8,0,1.1C21.7,14.3,19.5,15,17.4,15z"/>
</g>
<g>
	<path d="M17.4,24c-2.5,0-4.9-1-6.8-1.8c-1.5-0.6-2.8-1.1-3.8-1.1c-2,0-3.9,0.7-5.5,2.1c-0.3,0.3-0.8,0.2-1.1-0.1
		c-0.3-0.3-0.2-0.8,0.1-1.1c1.8-1.6,4.1-2.5,6.5-2.4c1.3,0,2.7,0.6,4.3,1.2c3.6,1.5,7.8,3.2,11.6-0.7c0.3-0.3,0.8-0.3,1.1,0
		s0.3,0.8,0,1.1C21.7,23.3,19.5,24,17.4,24z"/>
</g>
</svg>
