<svg xmlns="http://www.w3.org/2000/svg" viewBox="0 0 95.364 95.317"><path class="cls-1" d="M90.177 65.377l-17.74-17.71 17.63-17.66a17.65 17.65 0 000-24.8c-3.35-3.37-8.69-5.56-12.56-5.16a17.27 17.27 0 00-12.15 5.14l-17.7 17.76-17.65-17.63a17.64 17.64 0 00-24.8 0c-3.38 3.34-5.56 8.69-5.16 12.56a17.25 17.25 0 005.13 12.07l17.74 17.71-17.63 17.66a17.65 17.65 0 000 24.8 17.89 17.89 0 0011.61 5.2h.95a17.26 17.26 0 0012.12-5.14l17.71-17.74 17.68 17.63a17.66 17.66 0 0024.81 0c3.37-3.35 5.55-8.69 5.15-12.56a17.25 17.25 0 00-5.14-12.13zm-4.95 19.71a10.64 10.64 0 01-14.94 0l-20.12-20.09a3.49 3.49 0 00-4.95 0l-20.2 20.22a10.26 10.26 0 01-7.36 3.08h-.47c-1.56.21-4.91-1.11-6.91-3.12a10.64 10.64 0 010-14.93l20.08-20.08a3.5 3.5 0 000-4.95l-20.23-20.19a10.33 10.33 0 01-3.07-7.37 3.59 3.59 0 000-.47c-.21-1.56 1.1-4.92 3.12-6.91a10.61 10.61 0 0114.93 0l20.13 20.09a3.46 3.46 0 002.47 1 3.51 3.51 0 002.47-1l20.18-20.25a10.31 10.31 0 017.36-3.07 3.71 3.71 0 00.47 0c1.54-.22 4.91 1.11 6.91 3.12a10.63 10.63 0 010 14.93l-20.1 20.13a3.5 3.5 0 000 4.95l20.22 20.19a10.25 10.25 0 013.07 7.37 3.57 3.57 0 000 .47c.27 1.53-1.05 4.88-3.06 6.88z" data-name="Layer 10"/></svg>