<?xml version="1.0" encoding="UTF-8" standalone="no"?>
<svg
   xmlns:dc="http://purl.org/dc/elements/1.1/"
   xmlns:cc="http://creativecommons.org/ns#"
   xmlns:rdf="http://www.w3.org/1999/02/22-rdf-syntax-ns#"
   xmlns:svg="http://www.w3.org/2000/svg"
   xmlns="http://www.w3.org/2000/svg"
   xmlns:sodipodi="http://sodipodi.sourceforge.net/DTD/sodipodi-0.dtd"
   xmlns:inkscape="http://www.inkscape.org/namespaces/inkscape"
   width="180"
   height="169"
   viewBox="0 0 180 169"
   fill="none"
   version="1.1"
   id="svg4"
   sodipodi:docname="group-logo.svg"
   inkscape:version="1.0.2 (e86c870879, 2021-01-15, custom)">
  <metadata
     id="metadata10">
    <rdf:RDF>
      <cc:Work
         rdf:about="">
        <dc:format>image/svg+xml</dc:format>
        <dc:type
           rdf:resource="http://purl.org/dc/dcmitype/StillImage" />
      </cc:Work>
    </rdf:RDF>
  </metadata>
  <defs
     id="defs8" />
  <sodipodi:namedview
     pagecolor="#ffffff"
     bordercolor="#666666"
     borderopacity="1"
     objecttolerance="10"
     gridtolerance="10"
     guidetolerance="10"
     inkscape:pageopacity="0"
     inkscape:pageshadow="2"
     inkscape:window-width="3840"
     inkscape:window-height="2066"
     id="namedview6"
     showgrid="false"
     inkscape:zoom="5.964497"
     inkscape:cx="90"
     inkscape:cy="84.5"
     inkscape:window-x="-11"
     inkscape:window-y="-11"
     inkscape:window-maximized="1"
     inkscape:current-layer="svg4" />
  <path
     fill-rule="evenodd"
     clip-rule="evenodd"
     d="M 58.2783,106.82356 C 51.262561,106.14244 44.492717,103.52122 38.604194,99.172231 31.692451,94.066847 26.305453,86.810947 23.124338,78.321625 19.943223,69.832302 19.110889,60.490917 20.732605,51.478767 22.354326,42.466533 26.357254,34.188374 32.235172,27.690945 38.113115,21.193492 45.602087,16.768693 53.75499,14.976055 c 8.152982,-1.792638 16.603659,-0.872594 24.283567,2.643785 4.122566,1.887595 7.923591,4.477815 11.274755,7.654221 4.798659,-4.548566 10.46932,-7.84689 16.592208,-9.640544 6.61168,-1.936728 13.55106,-2.060626 20.21565,-0.360934 6.66458,1.699696 12.85301,5.17163 18.02833,10.11447 5.17532,4.942765 9.18196,11.207131 11.67092,18.249287 2.48816,7.042238 3.3852,14.649438 2.61135,22.161382 -0.77385,7.512027 -3.19411,14.701813 -7.05151,20.945363 -3.85741,6.243549 -9.03431,11.352514 -15.08297,14.882165 -4.42121,2.58125 -9.21039,4.26157 -14.13855,4.97849 l 38.64748,42.72056 -4.44963,4.91437 -39.6835,-43.86547 -21.907216,24.22047 13.325376,14.73063 -4.44963,4.91437 -39.679235,-43.86547 -39.683337,43.86547 -4.44951,-4.91437 z M 93.784348,30.202504 c 1.117503,1.432595 2.158884,2.944376 3.116483,4.528682 4.618229,7.640173 7.083489,16.622515 7.083489,25.811273 -0.0118,11.169744 -3.65841,21.921243 -10.213159,30.322719 4.530102,4.179797 9.939159,7.067219 15.753289,8.378661 6.86437,1.548751 13.98932,0.833491 20.48886,-2.057757 6.49955,-2.891169 12.08628,-7.830354 16.06687,-14.203465 3.98058,-6.373112 6.17816,-13.898961 6.3203,-21.641718 0.14213,-7.742758 -1.77749,-15.360866 -5.52119,-21.907088 -3.7429,-6.546305 -9.14485,-11.731874 -15.53306,-14.91206 -6.38742,-3.180111 -13.48078,-4.214519 -20.39568,-2.974569 -6.33136,1.135052 -12.257625,4.13022 -17.166202,8.655322 z M 89.293571,95.800366 C 83.543867,101.24972 76.587035,104.86514 69.17458,106.30232 l 21.144026,23.37448 20.858574,-23.06057 c -3.63315,-0.52208 -7.19602,-1.57207 -10.59622,-3.12831 -4.115064,-1.88432 -7.924458,-4.482222 -11.287389,-7.687554 z M 42.098442,27.693693 c 5.87739,-4.341 12.787395,-6.658082 19.856119,-6.658082 9.47587,0.01083 18.560789,4.176666 25.261302,11.583278 6.700435,7.406612 10.469005,17.449015 10.478875,27.92357 0,7.813783 -2.096185,15.451959 -6.023316,21.948887 -3.927209,6.496845 -9.509035,11.560513 -16.039696,14.550769 -6.530662,2.990255 -13.716805,3.772125 -20.64971,2.248354 C 48.04911,97.765864 41.6808,94.003231 36.682519,88.478019 31.68416,82.952891 28.280247,75.913483 26.901215,68.249912 25.522143,60.58634 26.229908,52.642828 28.935019,45.423815 31.640098,38.204885 36.220973,32.034777 42.098442,27.693693 Z"
     fill="#4c6272"
     id="path2"
     style="stroke-width:0.810867" />
</svg>
