<?xml version="1.0" encoding="UTF-8" standalone="no"?>
<svg
   xmlns:dc="http://purl.org/dc/elements/1.1/"
   xmlns:cc="http://creativecommons.org/ns#"
   xmlns:rdf="http://www.w3.org/1999/02/22-rdf-syntax-ns#"
   xmlns:svg="http://www.w3.org/2000/svg"
   xmlns="http://www.w3.org/2000/svg"
   xmlns:sodipodi="http://sodipodi.sourceforge.net/DTD/sodipodi-0.dtd"
   xmlns:inkscape="http://www.inkscape.org/namespaces/inkscape"
   width="180"
   height="180"
   viewBox="0 0 180 180"
   fill="none"
   version="1.1"
   id="svg4"
   sodipodi:docname="group-logo.svg"
   inkscape:version="1.0.2 (e86c870879, 2021-01-15, custom)">
  <metadata
     id="metadata10">
    <rdf:RDF>
      <cc:Work
         rdf:about="">
        <dc:format>image/svg+xml</dc:format>
        <dc:type
           rdf:resource="http://purl.org/dc/dcmitype/StillImage" />
        <dc:title></dc:title>
      </cc:Work>
    </rdf:RDF>
  </metadata>
  <defs
     id="defs8" />
  <sodipodi:namedview
     pagecolor="#ffffff"
     bordercolor="#666666"
     borderopacity="1"
     objecttolerance="10"
     gridtolerance="10"
     guidetolerance="10"
     inkscape:pageopacity="0"
     inkscape:pageshadow="2"
     inkscape:window-width="3840"
     inkscape:window-height="2066"
     id="namedview6"
     showgrid="false"
     inkscape:zoom="5.964497"
     inkscape:cx="90"
     inkscape:cy="84.5"
     inkscape:window-x="-11"
     inkscape:window-y="-11"
     inkscape:window-maximized="1"
     inkscape:current-layer="svg4"
     inkscape:document-rotation="0" />
  <path
     fill-rule="evenodd"
     clip-rule="evenodd"
     d="M 58.18239,110.3737 C 51.215256,109.76137 44.492313,107.40488 38.644586,103.49513 31.780727,98.905379 26.43105,92.382307 23.271974,84.750385 20.112897,77.118462 19.28633,68.720534 20.896811,60.618589 c 1.610485,-8.102022 5.585681,-15.544107 11.422877,-21.385312 5.837221,-5.841227 13.27431,-9.819132 21.37073,-11.430718 8.096498,-1.611586 16.488629,-0.784464 24.115331,2.37677 4.094005,1.696952 7.868696,4.025566 11.196644,6.881164 4.765414,-4.089173 10.396788,-7.054374 16.477257,-8.666874 6.56587,-1.741123 13.45718,-1.852507 20.07559,-0.324481 6.61841,1.528031 12.76397,4.649309 17.90344,9.092934 5.13946,4.443559 9.11834,10.075239 11.59006,16.406155 2.47092,6.330989 3.36175,13.169881 2.59326,19.923138 -0.76849,6.753331 -3.17198,13.216967 -7.00266,18.829934 -3.83069,5.612966 -8.97172,10.205941 -14.97847,13.379101 -4.39058,2.32055 -9.14659,3.83116 -14.0406,4.47568 L 160,148.58197 155.58119,153 116.17262,113.56484 94.417179,135.3391 107.65024,148.58197 103.23143,153 63.827096,113.56484 24.418684,153 20,148.58197 Z M 93.442453,41.491175 c 1.109761,1.287907 2.143928,2.647001 3.094893,4.071296 4.586234,6.868535 7.034414,14.943683 7.034414,23.204399 -0.0117,10.041628 -3.633064,19.707252 -10.142402,27.2602 4.498717,3.757648 9.870302,6.35345 15.644152,7.53244 6.81681,1.39233 13.8924,0.74931 20.34691,-1.84993 6.45452,-2.59917 12.00255,-7.039509 15.95556,-12.768952 3.953,-5.729444 6.13536,-12.4952 6.27651,-19.455958 0.14115,-6.960758 -1.76517,-13.809457 -5.48294,-19.694527 -3.71697,-5.885144 -9.08149,-10.546984 -15.42544,-13.405979 -6.34317,-2.858928 -13.38739,-3.788863 -20.25438,-2.674145 -6.2875,1.020414 -12.172706,3.713078 -17.047277,7.781156 z m -4.459665,58.972645 c -5.70987,4.89898 -12.618505,8.14925 -19.979607,9.44128 l 20.997541,21.01372 20.714068,-20.73151 c -3.60798,-0.46936 -7.14617,-1.4133 -10.52281,-2.81236 -4.086556,-1.69401 -7.869559,-4.02953 -11.209192,-6.91113 z M 42.114626,39.235747 c 5.836671,-3.902569 12.698804,-5.985632 19.718556,-5.985632 9.410222,0.0097 18.432201,3.754833 25.086293,10.413396 6.654014,6.658563 10.396476,15.686708 10.406277,25.103359 0,7.024611 -2.081662,13.89135 -5.981586,19.732105 -3.900002,5.84068 -9.443157,10.392929 -15.928574,13.081175 -6.485418,2.68825 -13.621775,3.39115 -20.506649,2.02128 C 48.024068,102.2308 41.699877,98.848188 36.736224,93.881009 31.772494,88.913905 28.392163,82.585459 27.022685,75.69589 25.653167,68.806319 26.356028,61.665082 29.042399,55.175172 31.728737,48.685335 36.277876,43.138393 42.114626,39.235747 Z"
     fill="#4c6272"
     id="path2"
     style="stroke-width:0.766162" />
</svg>
