<svg xmlns="http://www.w3.org/2000/svg" id="Layer_1" data-name="Layer 1" viewBox="5.07 4.33 816.16 94.52"><defs><style>.cls-1{fill:#fff;}.cls-2{fill:#00a499;}.cls-3{fill:#ae2573;}.cls-4{fill:#ed8b00;}.cls-5{fill:none;}</style></defs><title>Artboard 2</title><path class="cls-1" d="M204.44,5.91H253V17.43H217.53v26.7h33.91V55.65H217.53V97.28H204.44Z"/><path class="cls-1" d="M322,97.28H310.08V86.67h-.26c-3.66,7.59-12.56,12.18-21.86,12.18-17.28,0-25-10.74-25-28.67V30.52h12.31V65.08c0,15.57,3.4,23.16,14.13,23.82,14,0,20.29-11.26,20.29-27.49V30.52H322Z"/><path class="cls-1" d="M377.11,40.47H359.44V77c0,7.72,4.71,11.91,10.34,11.91a15.18,15.18,0,0,0,8.38-2.36V97a38.4,38.4,0,0,1-10.47,1.84c-12.7,0-20.55-6-20.55-19.38v-39H332.09V30.52h15.05V15.07l12.3-3.92V30.52h17.67Z"/><path class="cls-1" d="M448.32,97.28H436.41V86.67h-.26c-3.67,7.59-12.57,12.18-21.86,12.18-17.28,0-25-10.74-25-28.67V30.52h12.3V65.08c0,15.57,3.41,23.16,14.14,23.82,14,0,20.29-11.26,20.29-27.49V30.52h12.3Z"/><path class="cls-1" d="M462.73,30.52h11.52V40.86h.26C477.78,33.92,484.85,29,491.92,29a34.34,34.34,0,0,1,8.11.92v11a18.11,18.11,0,0,0-6.8-1.18c-11,0-18.2,10.47-18.2,27.23V97.28h-12.3Z"/><path class="cls-1" d="M561.56,94.53c-4.71,1.7-10.08,4.32-21.08,4.32-23.69,0-34.55-14.4-34.55-36.13C505.93,43,518.36,29,537.21,29c22.26,0,29.45,16.23,29.45,37.7H519A21.84,21.84,0,0,0,541,88.9c8.11,0,17.54-4.19,20.55-6.68Zm-8-37.05c0-10.21-6-18.58-16.63-18.58-12,0-17,9.94-17.93,18.58Z"/><path class="cls-1" d="M581.73,5.91h22.51l34.82,68.33h.26V5.91h17.54V97.28H634.48L599.53,29h-.26V97.28H581.73Z"/><path class="cls-1" d="M673.89,5.91h18.32V42.82h36.65V5.91h18.33V97.28H728.86V57.22H692.21V97.28H673.89Z"/><path class="cls-1" d="M814.21,22.67a47.21,47.21,0,0,0-18.58-3.93c-6.29,0-14.4,2.75-14.4,12.7,0,15.83,40,9.16,40,39.79,0,20-15.84,27.62-34.29,27.62-10,0-14.4-1.31-23.43-3.54l1.7-16.49a44.13,44.13,0,0,0,20.68,5.63c6.94,0,16.23-3.54,16.23-11.78,0-17.41-40-10.21-40-40.45,0-20.42,15.84-27.88,31.94-27.88a69.14,69.14,0,0,1,21.86,3.27Z"/><polygon class="cls-2" points="51.02 51.82 5.07 97.77 31.65 97.77 77.59 51.82 31.65 5.88 5.07 5.88 51.02 51.82"/><polygon class="cls-3" points="104.08 51.82 58.13 97.77 84.71 97.77 130.66 51.82 84.71 5.88 58.13 5.88 104.08 51.82"/><polygon class="cls-4" points="157.43 51.82 111.48 97.77 138.05 97.77 184 51.82 138.05 5.88 111.48 5.88 157.43 51.82"/><rect class="cls-5" x="-86.82" y="-86.12" width="1000" height="275.42"/></svg>