<svg xmlns="http://www.w3.org/2000/svg" width="231" height="41" fill="none" viewBox="0 0 231 41">
    <path fill="#EC8A00" d="M22.83 40.664c0-.023 3.331-4.545 7.392-10.05 4.07-5.506 7.393-10.06 7.393-10.114 0-.07-12.673-17.314-14.575-19.82l-.241-.313h5l7.432 10.067c5.164 6.99 7.4 10.097 7.338 10.183l-7.462 10.106-7.37 9.988h-2.453c-1.351 0-2.454-.023-2.454-.047z"/>
    <path fill="#F3B55C" d="M12.369 40.586c.675-.851 14.746-19.984 14.754-20.07.008-.063-3.23-4.499-7.19-9.864-3.961-5.365-7.284-9.87-7.378-10.02L12.377.36h4.939l7.376 9.989c4.062 5.49 7.377 10.058 7.377 10.152 0 .094-3.33 4.67-7.392 10.184l-7.393 10.02h-2.5c-1.996.007-2.493-.016-2.415-.118z"/>
    <path fill="#F3B55C" d="M1.879 40.633c.015-.047 3.347-4.569 7.4-10.05 4.053-5.483 7.37-10.02 7.37-10.075 0-.055-3.1-4.295-6.88-9.418C5.986 5.967 2.654 1.46 2.367 1.07l-.52-.703H6.833l7.431 10.067c5.195 7.036 7.4 10.097 7.338 10.183L14.14 30.723 6.77 40.71H4.302c-1.343 0-2.438-.039-2.422-.078z"/>
    <path fill="#F0A133" d="M12.952 40.64l-.552-.038 1.29-1.718c1.708-2.28 7.904-10.707 10.925-14.846 1.328-1.82 2.446-3.35 2.493-3.413.108-.14-.458-.922-10.157-14.088C12.494.484 12.5.492 12.5.422c0-.031 1.08-.063 2.392-.063h2.392l4.069 5.514c9.396 12.73 10.708 14.557 10.615 14.72-.264.454-5.218 7.217-12.572 17.19l-2.12 2.866-1.88.007c-1.047.016-2.142 0-2.445-.015z"/>
    <path fill="#fff" d="M49.348 16.776V3.36h9v1.586H51.11v4.154h6.26v1.586h-6.26v6.091h-1.762zM66.766 16.777v-1.429c-.753 1.101-1.778 1.648-3.067 1.648-.567 0-1.103-.11-1.6-.328-.497-.218-.862-.492-1.103-.828-.24-.335-.411-.742-.504-1.218-.07-.32-.101-.835-.101-1.538V7.063h1.638v5.388c0 .86.031 1.437.101 1.742.101.43.318.773.652 1.023.334.25.746.367 1.235.367.49 0 .955-.125 1.382-.383.427-.258.738-.601.916-1.03.18-.43.272-1.07.272-1.899V7.062h1.639v9.723h-1.46v-.008zM74.367 15.308l.233 1.453c-.458.093-.87.148-1.234.148-.598 0-1.056-.094-1.383-.281-.326-.188-.559-.438-.69-.75-.133-.312-.203-.953-.203-1.944V8.341h-1.203v-1.28h1.203V4.655l1.631-.992v3.397h1.646v1.281h-1.646v5.685c0 .469.031.773.085.906.055.133.156.242.28.32.124.079.318.117.56.117.186 0 .426-.023.721-.062zM82.303 16.777v-1.429c-.753 1.101-1.778 1.648-3.067 1.648-.567 0-1.103-.11-1.6-.328-.497-.218-.862-.492-1.103-.828-.24-.335-.411-.742-.504-1.218-.07-.32-.101-.835-.101-1.538V7.063h1.638v5.388c0 .86.031 1.437.101 1.742.101.43.319.773.652 1.023.334.25.746.367 1.235.367.49 0 .955-.125 1.382-.383.427-.258.738-.601.917-1.03.178-.43.271-1.07.271-1.899V7.062h1.639v9.723h-1.46v-.008zM86.318 16.777V7.055h1.476V8.53c.373-.688.722-1.14 1.04-1.367.319-.227.668-.328 1.049-.328.55 0 1.11.18 1.685.531L91 8.897c-.404-.234-.8-.359-1.204-.359-.357 0-.683.11-.963.328-.28.22-.489.516-.613.899-.179.585-.272 1.226-.272 1.92v5.092h-1.63zM99.162 13.646l1.692.21c-.264.992-.761 1.766-1.483 2.312-.722.547-1.646.82-2.764.82-1.413 0-2.532-.437-3.363-1.312-.83-.874-1.242-2.1-1.242-3.686 0-1.632.42-2.905 1.258-3.81.839-.907 1.926-1.352 3.261-1.352 1.29 0 2.345.445 3.168 1.328.824.882 1.227 2.132 1.227 3.733 0 .093 0 .242-.007.437h-7.207c.063 1.07.358 1.882.901 2.452.544.57 1.212.851 2.02.851.597 0 1.11-.156 1.537-.476.427-.32.753-.812 1.002-1.507zm-5.382-2.663h5.397c-.07-.82-.28-1.43-.621-1.843-.52-.633-1.196-.953-2.027-.953-.753 0-1.382.25-1.895.758-.512.507-.8 1.194-.854 2.038zM103.061 16.776V3.36h2.624l5.459 8.958V3.359h2.501v13.417h-2.703l-5.381-8.747v8.747h-2.5zM116.502 16.776V3.36h2.694v5.28h5.281v-5.28h2.694v13.417h-2.694v-5.865h-5.281v5.865h-2.694zM129.268 12.41l2.624-.257c.156.882.482 1.53.963 1.952.482.422 1.134.625 1.949.625.87 0 1.522-.188 1.965-.555.442-.367.66-.804.66-1.296 0-.32-.093-.586-.28-.812-.186-.227-.504-.414-.97-.578-.319-.11-1.033-.305-2.159-.586-1.444-.359-2.454-.804-3.036-1.327-.816-.742-1.227-1.64-1.227-2.702 0-.688.194-1.32.574-1.922.381-.6.94-1.046 1.662-1.358.722-.313 1.6-.469 2.625-.469 1.677 0 2.935.367 3.781 1.109.847.742 1.289 1.726 1.336 2.96l-2.694.117c-.117-.687-.365-1.187-.746-1.484-.38-.297-.947-.453-1.708-.453-.785 0-1.398.164-1.841.484-.287.211-.427.485-.427.836 0 .32.132.586.404.812.342.29 1.165.586 2.477.898 1.313.313 2.283.633 2.904.969.622.335 1.119.788 1.476 1.366.357.578.536 1.289.536 2.14 0 .765-.21 1.492-.637 2.163-.427.672-1.025 1.172-1.802 1.5-.776.328-1.747.492-2.904.492-1.685 0-2.982-.39-3.882-1.18-.901-.788-1.445-1.944-1.623-3.443z"/>
    <path fill="#C8DCF0" d="M58.775 33.13l1.763.444c-.373 1.46-1.033 2.57-1.996 3.335-.963.766-2.136 1.148-3.526 1.148-1.436 0-2.609-.297-3.51-.882-.9-.586-1.584-1.445-2.057-2.562-.474-1.117-.707-2.311-.707-3.6 0-1.398.264-2.616.8-3.655.536-1.038 1.289-1.827 2.267-2.374.979-.547 2.058-.812 3.239-.812 1.335 0 2.453.343 3.37 1.023.916.68 1.545 1.648 1.902 2.882l-1.74.413c-.31-.976-.76-1.686-1.343-2.131-.582-.446-1.328-.672-2.22-.672-1.026 0-1.88.25-2.57.742-.692.492-1.173 1.156-1.453 1.991-.28.836-.42 1.695-.42 2.577 0 1.14.164 2.14.498 2.991.334.852.846 1.484 1.545 1.906.699.422 1.452.633 2.268.633.986 0 1.824-.29 2.508-.86.683-.57 1.141-1.413 1.382-2.538zM61.897 32.975c0-1.797.497-3.132 1.49-3.999.831-.718 1.849-1.078 3.037-1.078 1.327 0 2.415.438 3.261 1.312.846.875 1.266 2.086 1.266 3.632 0 1.25-.187 2.233-.56 2.952-.372.718-.916 1.273-1.63 1.671-.714.398-1.491.594-2.337.594-1.352 0-2.446-.438-3.277-1.312-.831-.875-1.25-2.132-1.25-3.772zm1.684 0c0 1.241.272 2.178.808 2.795s1.22.93 2.035.93c.815 0 1.49-.313 2.026-.937.536-.625.808-1.57.808-2.843 0-1.203-.272-2.116-.815-2.733-.544-.617-1.22-.93-2.027-.93-.816 0-1.499.305-2.035.922-.535.617-.8 1.546-.8 2.796zM72.83 37.83V24.415h1.639v13.417H72.83zM76.977 37.83V24.415h1.638v13.417h-1.638zM87.46 36.63c-.605.515-1.188.882-1.755 1.1-.567.22-1.165.32-1.81.32-1.063 0-1.878-.257-2.445-.78s-.854-1.187-.854-2c0-.476.108-.913.326-1.304.217-.39.497-.71.846-.944.35-.235.746-.422 1.18-.54.319-.085.808-.163 1.46-.25 1.32-.155 2.299-.35 2.92-.57.008-.226.008-.366.008-.429 0-.672-.155-1.14-.466-1.421-.42-.375-1.04-.555-1.864-.555-.768 0-1.335.133-1.708.406-.373.274-.637.75-.815 1.445l-1.6-.218c.148-.688.388-1.25.722-1.672.334-.421.816-.75 1.444-.976.63-.226 1.36-.344 2.19-.344.823 0 1.499.094 2.011.297.513.203.894.438 1.134.734.241.297.412.672.513 1.125.054.281.085.789.085 1.523v2.194c0 1.53.031 2.5.101 2.905.07.406.21.797.412 1.164h-1.709c-.17-.352-.28-.75-.326-1.21zm-.14-3.679c-.597.242-1.483.453-2.679.625-.675.094-1.149.21-1.428.328-.28.117-.497.297-.645.539-.147.242-.225.492-.225.78 0 .438.163.805.497 1.102.334.297.815.437 1.452.437.629 0 1.196-.14 1.685-.414.49-.273.854-.656 1.08-1.14.178-.375.263-.921.263-1.648v-.609zM93.028 37.83h-1.522V24.415h1.638v4.787c.691-.874 1.577-1.312 2.648-1.312.598 0 1.157.117 1.685.36.528.242.971.577 1.313 1.015.341.437.613.96.807 1.577.194.617.295 1.273.295 1.976 0 1.663-.411 2.952-1.227 3.866-.815.913-1.801 1.366-2.95 1.366-1.142 0-2.035-.476-2.687-1.437v1.219zm-.024-4.935c0 1.164.156 2.007.474 2.523.513.85 1.212 1.273 2.097 1.273.714 0 1.335-.313 1.856-.938.52-.624.784-1.554.784-2.795 0-1.265-.249-2.203-.753-2.812-.505-.609-1.103-.906-1.817-.906-.715 0-1.336.313-1.856.938-.52.624-.785 1.538-.785 2.717zM101.266 32.975c0-1.797.497-3.132 1.491-3.999.83-.718 1.848-1.078 3.036-1.078 1.328 0 2.415.438 3.261 1.312.847.875 1.266 2.086 1.266 3.632 0 1.25-.186 2.233-.559 2.952-.373.718-.916 1.273-1.631 1.671-.714.398-1.491.594-2.337.594-1.351 0-2.446-.438-3.277-1.312-.831-.875-1.25-2.132-1.25-3.772zm1.685 0c0 1.241.271 2.178.807 2.795s1.219.93 2.035.93c.815 0 1.491-.313 2.026-.937.536-.625.808-1.57.808-2.843 0-1.203-.272-2.116-.815-2.733-.544-.617-1.219-.93-2.027-.93-.815 0-1.499.305-2.034.922-.536.617-.8 1.546-.8 2.796zM112.223 37.832V28.11h1.475v1.476c.373-.687.722-1.14 1.041-1.366.318-.227.667-.328 1.048-.328.551 0 1.11.18 1.685.53l-.567 1.531c-.404-.234-.8-.359-1.204-.359-.357 0-.683.11-.962.328-.28.219-.49.515-.614.898-.178.586-.272 1.226-.272 1.921v5.092h-1.63zM124.757 36.63c-.606.515-1.188.882-1.755 1.1-.567.22-1.165.32-1.809.32-1.064 0-1.879-.257-2.446-.78-.567-.523-.854-1.187-.854-2 0-.476.108-.913.326-1.304.217-.39.497-.71.846-.944.35-.235.746-.422 1.18-.54.319-.085.808-.163 1.46-.25 1.32-.155 2.299-.35 2.92-.57.008-.226.008-.366.008-.429 0-.672-.155-1.14-.466-1.421-.419-.375-1.041-.555-1.864-.555-.769 0-1.335.133-1.708.406-.373.274-.637.75-.815 1.445l-1.6-.218c.147-.688.388-1.25.722-1.672.334-.421.815-.75 1.444-.976.629-.226 1.359-.344 2.19-.344.823 0 1.499.094 2.011.297.513.203.893.438 1.134.734.241.297.412.672.513 1.125.054.281.085.789.085 1.523v2.194c0 1.53.031 2.5.101 2.905.07.406.21.797.412 1.164h-1.709c-.171-.352-.279-.75-.326-1.21zm-.132-3.679c-.598.242-1.483.453-2.679.625-.676.094-1.149.21-1.429.328-.279.117-.497.297-.644.539-.148.242-.225.492-.225.78 0 .438.163.805.497 1.102.333.297.815.437 1.452.437.629 0 1.195-.14 1.685-.414.489-.273.854-.656 1.079-1.14.179-.375.264-.921.264-1.648v-.609zM132.389 36.355l.233 1.453c-.458.093-.87.148-1.235.148-.598 0-1.056-.094-1.382-.281-.326-.188-.559-.438-.691-.75-.132-.312-.202-.953-.202-1.945V29.39h-1.204v-1.28h1.204v-2.406l1.631-.992v3.397h1.646v1.28h-1.646v5.686c0 .469.031.773.085.906.054.133.155.242.279.32.125.078.319.117.56.117.186 0 .427-.015.722-.062zM134.004 26.312v-1.898h1.638v1.898h-1.638zm0 11.519v-9.723h1.638v9.723h-1.638zM137.521 32.975c0-1.797.497-3.132 1.491-3.999.831-.718 1.849-1.078 3.037-1.078 1.327 0 2.415.438 3.261 1.312.846.875 1.266 2.086 1.266 3.632 0 1.25-.187 2.233-.559 2.952-.373.718-.917 1.273-1.631 1.671-.714.398-1.491.594-2.337.594-1.352 0-2.446-.438-3.277-1.312-.831-.875-1.251-2.132-1.251-3.772zm1.686 0c0 1.241.271 2.178.807 2.795s1.219.93 2.035.93c.815 0 1.491-.313 2.026-.937.536-.625.808-1.57.808-2.843 0-1.203-.272-2.116-.815-2.733-.544-.617-1.22-.93-2.027-.93-.816 0-1.499.305-2.035.922-.535.617-.799 1.546-.799 2.796zM148.502 37.832V28.11h1.475v1.383c.707-1.07 1.732-1.601 3.075-1.601.583 0 1.119.101 1.608.312.489.21.854.484 1.095.828.24.343.411.75.512 1.218.062.305.093.836.093 1.601v5.974h-1.638v-5.911c0-.672-.062-1.172-.194-1.508-.132-.335-.357-.601-.676-.796-.318-.196-.706-.297-1.141-.297-.699 0-1.297.226-1.81.672-.512.445-.761 1.288-.761 2.538v5.31h-1.638zM164.25 37.83V24.415h5.032c.885 0 1.561.04 2.027.125.652.11 1.203.32 1.646.625.442.304.8.742 1.071 1.296.272.555.404 1.164.404 1.828 0 1.14-.357 2.108-1.079 2.897-.722.789-2.027 1.187-3.914 1.187h-3.424v5.451h-1.763v.008zm1.763-7.036h3.447c1.142 0 1.95-.21 2.431-.64.481-.43.722-1.03.722-1.804 0-.562-.14-1.039-.419-1.445-.28-.406-.652-.664-1.118-.789-.295-.078-.847-.117-1.647-.117h-3.409v4.795h-.007zM176.434 37.83V24.415h1.638v13.417h-1.638zM186.917 36.63c-.605.515-1.188.882-1.755 1.1-.567.22-1.165.32-1.809.32-1.064 0-1.879-.257-2.446-.78-.567-.523-.854-1.187-.854-2 0-.476.108-.913.326-1.304.217-.39.497-.71.846-.944.35-.235.746-.422 1.181-.54.318-.085.807-.163 1.459-.25 1.321-.155 2.299-.35 2.92-.57.008-.226.008-.366.008-.429 0-.672-.155-1.14-.466-1.421-.419-.375-1.041-.555-1.864-.555-.768 0-1.335.133-1.708.406-.373.274-.637.75-.815 1.445l-1.6-.218c.148-.688.388-1.25.722-1.672.334-.421.816-.75 1.445-.976.629-.226 1.358-.344 2.189-.344.823 0 1.499.094 2.012.297.512.203.893.438 1.133.734.241.297.412.672.513 1.125.054.281.085.789.085 1.523v2.194c0 1.53.031 2.5.101 2.905.07.406.21.797.412 1.164h-1.709c-.17-.352-.279-.75-.326-1.21zm-.132-3.679c-.598.242-1.483.453-2.679.625-.675.094-1.149.21-1.429.328-.279.117-.497.297-.644.539-.148.242-.225.492-.225.78 0 .438.163.805.497 1.102.334.297.815.437 1.452.437.629 0 1.196-.14 1.685-.414.489-.273.854-.656 1.079-1.14.179-.375.264-.921.264-1.648v-.609zM194.551 36.355l.233 1.453c-.458.093-.87.148-1.235.148-.598 0-1.056-.094-1.382-.281-.326-.188-.559-.438-.691-.75-.132-.312-.202-.953-.202-1.945V29.39h-1.204v-1.28h1.204v-2.406l1.631-.992v3.397h1.646v1.28h-1.646v5.686c0 .469.031.773.085.906.054.133.155.242.28.32.124.078.318.117.559.117.186 0 .427-.015.722-.062zM196.546 37.83v-8.434h-1.444v-1.28h1.444v-1.031c0-.656.054-1.14.171-1.453.155-.43.435-.773.831-1.038.396-.266.955-.399 1.669-.399.458 0 .971.055 1.53.164l-.249 1.437c-.341-.062-.66-.093-.962-.093-.497 0-.847.109-1.057.32-.209.21-.31.617-.31 1.202v.898h1.887v1.281h-1.887v8.435h-1.623v-.008zM200.723 32.975c0-1.797.497-3.132 1.491-3.999.83-.718 1.848-1.078 3.036-1.078 1.328 0 2.415.438 3.261 1.312.847.875 1.266 2.086 1.266 3.632 0 1.25-.186 2.233-.559 2.952-.373.718-.916 1.273-1.631 1.671-.714.398-1.491.594-2.337.594-1.351 0-2.446-.438-3.277-1.312-.831-.875-1.25-2.132-1.25-3.772zm1.685 0c0 1.241.271 2.178.807 2.795s1.219.93 2.035.93c.815 0 1.491-.313 2.027-.937.535-.625.807-1.57.807-2.843 0-1.203-.272-2.116-.815-2.733-.544-.617-1.219-.93-2.027-.93-.815 0-1.499.305-2.034.922-.536.617-.8 1.546-.8 2.796zM211.68 37.832V28.11h1.475v1.476c.373-.687.722-1.14 1.041-1.366.318-.227.667-.328 1.048-.328.551 0 1.11.18 1.685.53l-.567 1.531c-.404-.234-.8-.359-1.204-.359-.357 0-.683.11-.962.328-.28.219-.49.515-.614.898-.178.586-.272 1.226-.272 1.921v5.092h-1.63zM217.9 37.832V28.11h1.468v1.367c.303-.476.707-.86 1.211-1.148.505-.289 1.08-.437 1.717-.437.714 0 1.304.148 1.762.445.458.297.785.718.971 1.257.761-1.132 1.763-1.702 2.982-1.702.955 0 1.693.265 2.213.804s.776 1.359.776 2.468v6.67h-1.63V31.71c0-.657-.055-1.133-.163-1.422-.109-.289-.295-.523-.575-.703-.28-.18-.606-.265-.986-.265-.684 0-1.243.226-1.693.68-.45.452-.676 1.178-.676 2.178v5.646h-1.638v-6.318c0-.734-.132-1.28-.404-1.647s-.707-.547-1.312-.547c-.458 0-.885.125-1.281.367-.397.242-.676.601-.855 1.07-.178.469-.264 1.148-.264 2.03v5.045H217.9v.008z"/>
</svg>
