<?xml version="1.0" encoding="UTF-8" standalone="no"?>
<svg
   xmlns:dc="http://purl.org/dc/elements/1.1/"
   xmlns:cc="http://creativecommons.org/ns#"
   xmlns:rdf="http://www.w3.org/1999/02/22-rdf-syntax-ns#"
   xmlns:svg="http://www.w3.org/2000/svg"
   xmlns="http://www.w3.org/2000/svg"
   xmlns:sodipodi="http://sodipodi.sourceforge.net/DTD/sodipodi-0.dtd"
   xmlns:inkscape="http://www.inkscape.org/namespaces/inkscape"
   viewBox="0 0 159.99172 170.00999"
   version="1.1">
  <g
     id="Layer_10"
     data-name="Layer 10"
     transform="translate(-151.31923,-144.76)">
    <path
       class="cls-1"
       d="m 258,194 -15,-2 a 1.39,1.39 0 0 1 -0.91,-0.63 l -6.55,-14.66 v 0 a 4.88,4.88 0 0 0 -4.27,-3.11 c -1,0 -3,0.41 -4.2,3.11 l -6.51,14.58 a 1.42,1.42 0 0 1 -0.87,0.69 l -15.08,2 a 5,5 0 0 0 -4.19,3.13 4.64,4.64 0 0 0 1.48,5 L 213,213 a 1.69,1.69 0 0 1 0.44,1.23 l -2.91,15.95 a 4.91,4.91 0 0 0 1.75,5 4.09,4.09 0 0 0 2.39,0.76 5.58,5.58 0 0 0 2.81,-0.84 l 13.28,-7.69 a 1.2,1.2 0 0 1 1,0 l 13.37,7.74 a 4.89,4.89 0 0 0 5.26,0 c 0.86,-0.6 2.21,-2 1.68,-4.92 l -2.88,-15.86 a 1.7,1.7 0 0 1 0.35,-1.26 l 11.18,-11 a 5,5 0 0 0 1.45,-5 c -0.31,-1.06 -1.29,-2.76 -4.17,-3.11 z m -13.38,14.12 a 8.66,8.66 0 0 0 -2.34,7.41 l 2,11 -9,-5.21 a 7.52,7.52 0 0 0 -3.85,-1.05 8.44,8.44 0 0 0 -4.06,1.05 l -9,5.21 2,-11 a 8.62,8.62 0 0 0 -2.34,-7.4 l -7.89,-7.79 10.51,-1.39 a 8.34,8.34 0 0 0 6.3,-4.7 l 4.39,-9.83 4.4,9.83 a 8.32,8.32 0 0 0 6.29,4.7 l 10.52,1.39 z"
       id="path2" />
    <path
       class="cls-1"
       d="m 306,174.76 h -14.68 v -21.5 c 0,-3.42 -2.26,-8.5 -8.5,-8.5 h -103 c -3.41,0 -8.5,2.26 -8.5,8.5 v 21.5 h -14.71 a 5.4,5.4 0 0 0 -5.29,5.49 v 28.49 c 0,13.25 9.08,24.21 20.76,25.81 a 71.33,71.33 0 0 0 6.49,20.77 c 6.56,13.13 20.42,28.71 49.25,29.4 v 23 h -13 a 3.5,3.5 0 0 0 0,7 h 16.08 a 3,3 0 0 0 0.42,0.05 3,3 0 0 0 0.43,-0.05 h 16.07 a 3.5,3.5 0 0 0 0,-7 h -13 v -23 a 72.44,72.44 0 0 0 27.07,-7.17 c 12.14,-6.07 26.39,-18.38 29,-43 11.52,-1.76 20.42,-12.64 20.42,-25.76 V 180.25 A 5.39,5.39 0 0 0 306,174.76 Z m -147.72,34 v -27 h 13 v 44.5 c 0,0.08 0,0.44 0,1 -7.38,-1.9 -12.96,-9.48 -12.96,-18.52 z m 74.5,69 h -3 c -50.77,0 -51.49,-49.4 -51.5,-51.5 v -73 c 0,-0.5 0,-1.44 1.55,-1.5 h 103 c 0.51,0 1.44,0 1.5,1.5 v 73 q 0,2.18 -0.12,4.23 a 3.25,3.25 0 0 0 -0.09,0.77 c 0,0.08 0,0.15 0,0.23 -3.26,45.59 -49.27,46.26 -51.3,46.27 z m 71.5,-69 c 0,9 -5.57,16.61 -13,18.53 0,-0.34 0,-0.67 0,-1 v -44.5 h 13 z"
       id="path4" />
  </g>
</svg>
