<?xml version="1.0" encoding="UTF-8" standalone="no"?>
<svg
   xmlns:dc="http://purl.org/dc/elements/1.1/"
   xmlns:cc="http://creativecommons.org/ns#"
   xmlns:rdf="http://www.w3.org/1999/02/22-rdf-syntax-ns#"
   xmlns:svg="http://www.w3.org/2000/svg"
   xmlns="http://www.w3.org/2000/svg"
   xmlns:sodipodi="http://sodipodi.sourceforge.net/DTD/sodipodi-0.dtd"
   xmlns:inkscape="http://www.inkscape.org/namespaces/inkscape"
   viewBox="0 0 103.77184 197.25999"
   version="1.1"
   id="svg9"
   sodipodi:docname="Baby's bottle.svg"
   width="103.77184"
   height="197.25999"
   inkscape:version="1.0.2 (e86c870879, 2021-01-15, custom)">
  <g
     id="Layer_10"
     data-name="Layer 10"
     transform="translate(-179.43816,-131.09)">
    <path
       class="cls-1"
       d="m 283.19,224 a 33.6,33.6 0 0 0 -5.34,-19 7,7 0 0 0 1.13,-3.9 v -8.61 a 6.78,6.78 0 0 0 -6.92,-6.92 h -20 l -5.93,-29.27 v -9.85 c 0,-8.47 -6.64,-15.36 -14.81,-15.36 -8.17,0 -14.81,6.89 -14.81,15.36 v 9.85 l -5.93,29.27 h -21.05 a 6.78,6.78 0 0 0 -6.92,6.92 v 8.61 a 7.14,7.14 0 0 0 1.73,4.66 33.17,33.17 0 0 0 -4.89,18.24 c 0,10.55 3.48,16.07 6.54,20.94 2.94,4.66 5.47,8.68 5.47,17.21 0,8.53 -2.53,12.55 -5.47,17.21 -3.06,4.87 -6.54,10.39 -6.54,20.93 0,10.54 3.48,16.08 6.54,20.95 0.31,0.48 0.61,1 0.91,1.45 a 11.69,11.69 0 0 0 10,5.61 c 7.08,0 20.76,0.05 34.44,0.05 13.68,0 27.35,0 34.43,-0.05 a 11.71,11.71 0 0 0 10,-5.61 l 0.9,-1.45 c 3.07,-4.88 6.54,-10.4 6.54,-20.95 0,-10.55 -3.47,-16.06 -6.54,-20.94 -2.93,-4.65 -5.46,-8.68 -5.46,-17.2 0,-8.52 2.53,-12.55 5.46,-17.21 3.05,-4.83 6.52,-10.35 6.52,-20.94 z m -59.94,-65.75 a 3.38,3.38 0 0 0 0.26,-1.32 v -10.5 a 7.83,7.83 0 1 1 15.62,0 V 157 a 3.38,3.38 0 0 0 0.26,1.32 L 244.8,185 h -27 z m -33.64,34.3 H 272 V 201 h -82.39 z m 81.12,48.66 c -3.07,4.87 -6.54,10.39 -6.54,20.94 0,10.55 3.47,16.06 6.54,20.93 2.93,4.66 5.46,8.69 5.46,17.21 0,8.52 -2.53,12.56 -5.46,17.22 l -1,1.51 a 4.74,4.74 0 0 1 -4,2.28 c -14.15,0.06 -54.66,0.06 -68.81,0 a 4.75,4.75 0 0 1 -4.06,-2.28 l -0.94,-1.5 c -2.93,-4.67 -5.47,-8.7 -5.47,-17.23 0,-8.53 2.53,-12.55 5.47,-17.2 3.06,-4.88 6.54,-10.4 6.54,-20.94 0,-10.54 -3.48,-16.07 -6.54,-20.94 -2.94,-4.66 -5.47,-8.68 -5.47,-17.21 a 27,27 0 0 1 4.71,-16 h 80.32 a 26.75,26.75 0 0 1 4.71,16 c 0,8.57 -2.53,12.59 -5.46,17.25 z"
       id="path2" />
    <path
       class="cls-1"
       d="m 255,231.2 h -21.18 a 3.5,3.5 0 0 0 0,7 H 255 a 3.5,3.5 0 1 0 0,-7 z"
       id="path4" />
    <path
       class="cls-1"
       d="m 255,244.55 h -21.18 a 3.5,3.5 0 0 0 0,7 H 255 a 3.5,3.5 0 1 0 0,-7 z"
       id="path6" />
  </g>
</svg>
