<?xml version="1.0" encoding="UTF-8" standalone="no"?>
<svg
   xmlns:dc="http://purl.org/dc/elements/1.1/"
   xmlns:cc="http://creativecommons.org/ns#"
   xmlns:rdf="http://www.w3.org/1999/02/22-rdf-syntax-ns#"
   xmlns:svg="http://www.w3.org/2000/svg"
   xmlns="http://www.w3.org/2000/svg"
   xmlns:sodipodi="http://sodipodi.sourceforge.net/DTD/sodipodi-0.dtd"
   xmlns:inkscape="http://www.inkscape.org/namespaces/inkscape"
   viewBox="0 0 160.00272 179.51917"
   version="1.1"
   id="svg5"
   sodipodi:docname="Bath.svg"
   width="160.00272"
   height="179.51917"
   inkscape:version="1.0.2 (e86c870879, 2021-01-15, custom)">
  <g
     id="Layer_10"
     data-name="Layer 10"
     transform="translate(-151.31875,-139.98083)">
    <path
       class="cls-1"
       d="M 171.13,305.07 V 316 a 3.5,3.5 0 0 0 7,0 V 305.3 H 286.87 V 316 a 3.5,3.5 0 0 0 7,0 v -11.48 c 8,-2 17.45,-8.15 17.45,-22.73 v -30.5 a 5.87,5.87 0 0 0 -6,-6 H 178.13 V 162 a 15.1,15.1 0 0 1 30,-2.09 20,20 0 0 0 -17,19.75 3.49,3.49 0 0 0 3.5,3.5 h 33 a 3.5,3.5 0 0 0 3.5,-3.5 20,20 0 0 0 -15.89,-19.57 22.1,22.1 0 0 0 -44.11,1.91 v 83.25 h -13.81 a 5.88,5.88 0 0 0 -6,6 v 30.5 c 0,7.6 4.26,21.42 19.81,23.32 z M 223.66,176.2 h -25 a 13,13 0 0 1 25,0 z m -65.34,76.09 h 146 v 29.5 c 0,15.92 -14.82,16.49 -16.5,16.5 h -113 c -15.91,0 -16.48,-14.82 -16.5,-16.5 z"
       id="path2" />
  </g>
</svg>
