<?xml version="1.0" encoding="UTF-8" standalone="no"?>
<svg
   xmlns:dc="http://purl.org/dc/elements/1.1/"
   xmlns:cc="http://creativecommons.org/ns#"
   xmlns:rdf="http://www.w3.org/1999/02/22-rdf-syntax-ns#"
   xmlns:svg="http://www.w3.org/2000/svg"
   xmlns="http://www.w3.org/2000/svg"
   xmlns:sodipodi="http://sodipodi.sourceforge.net/DTD/sodipodi-0.dtd"
   xmlns:inkscape="http://www.inkscape.org/namespaces/inkscape"
   viewBox="0 0 159.91033 159.92999"
   version="1.1"
   id="svg5"
   sodipodi:docname="Beach ball.svg"
   width="159.91032"
   height="159.92999"
   inkscape:version="1.0.2 (e86c870879, 2021-01-15, custom)">
  <g
     id="Layer_10"
     data-name="Layer 10"
     transform="translate(-151.37968,-149.8)">
    <path
       class="cls-1"
       d="m 311.2,234.08 v -0.64 c 0.06,-1.23 0.09,-2.44 0.09,-3.64 v 0 0 -0.07 c 0,-1.18 0,-2.35 -0.09,-3.52 0,-0.41 0,-0.82 -0.07,-1.24 0,-0.81 -0.11,-1.62 -0.18,-2.43 0,-0.43 -0.07,-0.86 -0.12,-1.29 -0.11,-1.07 -0.25,-2.14 -0.41,-3.21 -0.08,-0.52 -0.17,-1 -0.26,-1.57 -0.09,-0.57 -0.21,-1.23 -0.33,-1.85 -0.12,-0.62 -0.23,-1.15 -0.35,-1.73 -0.12,-0.58 -0.26,-1.14 -0.4,-1.71 -0.22,-0.91 -0.45,-1.83 -0.7,-2.73 -0.17,-0.61 -0.34,-1.21 -0.52,-1.82 -0.18,-0.61 -0.37,-1.18 -0.56,-1.76 -0.19,-0.58 -0.34,-1 -0.52,-1.51 -0.18,-0.51 -0.41,-1.16 -0.62,-1.73 -0.21,-0.57 -0.42,-1.07 -0.63,-1.6 -0.35,-0.87 -0.72,-1.74 -1.1,-2.6 -0.26,-0.57 -0.51,-1.15 -0.78,-1.72 -0.27,-0.57 -0.51,-1 -0.77,-1.56 l -0.79,-1.55 -0.8,-1.48 q -0.49,-0.9 -1,-1.77 c -0.32,-0.54 -0.64,-1.08 -1,-1.62 -0.36,-0.54 -0.83,-1.33 -1.26,-2 l -0.06,-0.06 A 80.1,80.1 0 0 0 241.81,150.5 h -0.08 l -0.52,-0.06 c -1.11,-0.14 -2.22,-0.26 -3.34,-0.35 l -1.8,-0.14 -1.36,-0.07 c -1.15,-0.05 -2.28,-0.08 -3.4,-0.08 h -0.09 c -1.17,0 -2.33,0 -3.49,0.09 -0.38,0 -0.75,0 -1.13,0.06 q -1.41,0.07 -2.82,0.21 l -1.62,0.17 -2.18,0.28 -1.77,0.27 -1.42,0.26 c -1.22,0.22 -2.42,0.47 -3.62,0.75 l -0.77,0.18 c -0.76,0.18 -1.52,0.38 -2.27,0.59 l -0.49,0.14 c -1.59,0.45 -3.17,0.94 -4.72,1.48 v 0 l -2.37,0.87 -0.37,0.15 q -2.3,0.9 -4.53,1.93 l -0.11,0.06 c -0.69,0.32 -1.37,0.65 -2.05,1 l -0.84,0.44 c -1,0.52 -2,1.07 -3,1.64 -0.41,0.23 -0.82,0.46 -1.22,0.7 -0.4,0.24 -1,0.6 -1.47,0.9 -0.47,0.3 -1,0.63 -1.48,1 -0.48,0.37 -0.83,0.53 -1.23,0.81 -0.85,0.58 -1.68,1.17 -2.5,1.78 l -0.86,0.65 c -0.65,0.5 -1.3,1 -1.94,1.53 -0.26,0.21 -0.53,0.42 -0.78,0.64 -0.86,0.71 -1.71,1.44 -2.53,2.19 l -0.37,0.34 c -0.73,0.67 -1.44,1.35 -2.15,2.05 l -0.65,0.65 c -0.74,0.75 -1.48,1.52 -2.2,2.3 l -0.18,0.2 c -0.73,0.81 -1.44,1.64 -2.14,2.47 l -0.79,1 c -0.45,0.56 -0.9,1.13 -1.34,1.7 l -0.81,1.07 c -0.57,0.77 -1.13,1.55 -1.67,2.34 -0.36,0.52 -0.7,1.05 -1,1.58 l -0.68,1.06 c -0.37,0.6 -0.75,1.2 -1.11,1.81 l -0.16,0.29 a 79.75,79.75 0 0 0 9.27,93.57 3.18,3.18 0 0 0 0.27,0.37 79.15,79.15 0 0 0 11.44,10.4 l 0.17,0.13 c 0.83,0.62 1.67,1.21 2.52,1.79 l 0.94,0.65 c 0.67,0.44 1.34,0.87 2,1.29 0.66,0.42 1.09,0.68 1.64,1 0.55,0.32 1,0.6 1.53,0.88 0.76,0.43 1.53,0.85 2.3,1.25 l 1,0.54 c 1,0.48 2,1 3,1.4 l 0.56,0.25 c 1.17,0.52 2.37,1 3.57,1.48 h 0.09 a 79.61,79.61 0 0 0 24.37,5.19 v 0 c 1.4,0.07 2.8,0.11 4.21,0.11 v 0 c 1.21,0 2.42,0 3.63,-0.09 h 0.79 c 1.07,-0.06 2.15,-0.14 3.22,-0.25 l 1.25,-0.13 c 0.79,-0.09 1.57,-0.19 2.36,-0.3 0.79,-0.11 1.39,-0.21 2.08,-0.33 l 1.65,-0.29 2.17,-0.44 2,-0.47 1.73,-0.45 1.75,-0.5 c 0.67,-0.2 1.33,-0.4 2,-0.62 0.67,-0.22 1.45,-0.48 2.18,-0.74 l 1,-0.35 c 1.05,-0.39 2.1,-0.81 3.14,-1.24 l 0.34,-0.15 c 1.91,-0.81 3.8,-1.69 5.64,-2.65 a 3.7,3.7 0 0 0 0.33,-0.21 80.17,80.17 0 0 0 42.2,-61.69 0.44,0.44 0 0 1 0,-0.1 v -0.34 c 0,-0.37 0.07,-0.73 0.11,-1.1 0.22,-1.09 0.3,-2.16 0.36,-3.21 z M 264,295 a 72.45,72.45 0 0 1 -25.19,7.36 v 0 c -1.19,0.12 -2.38,0.21 -3.59,0.28 h -0.29 c -1.18,0 -2.36,0.09 -3.55,0.09 H 231 c -1.12,0 -2.23,0 -3.33,-0.08 -0.94,-0.05 -1.88,-0.13 -2.82,-0.21 -0.24,0 -0.48,0 -0.71,-0.06 A 72.93,72.93 0 0 1 200.77,296 l -0.35,-0.16 c -0.82,-0.38 -1.63,-0.79 -2.43,-1.2 l -0.88,-0.45 c -0.61,-0.32 -1.2,-0.66 -1.8,-1 -0.6,-0.34 -1,-0.55 -1.45,-0.84 -0.45,-0.29 -0.77,-0.47 -1.15,-0.71 -0.68,-0.43 -1.35,-0.85 -2,-1.3 l -0.5,-0.34 a 74.07,74.07 0 0 1 -9.88,-8.12 c 23.54,-13.29 63.44,-48.78 75.43,-59.63 a 21,21 0 0 0 14.7,6.46 16.77,16.77 0 0 0 2.73,-0.23 c 3.42,34.1 -6.12,59.42 -9.19,66.52 z M 172.15,187.08 c 0.42,-0.59 0.86,-1.18 1.3,-1.75 0.44,-0.57 0.73,-1 1.11,-1.41 0.38,-0.41 0.52,-0.65 0.79,-1 0.57,-0.68 1.16,-1.36 1.76,-2 l 0.64,-0.69 c 0.51,-0.56 1,-1.11 1.58,-1.66 l 0.58,-0.59 c 0.67,-0.66 1.35,-1.31 2.05,-1.95 l 0.71,-0.65 c 0.63,-0.56 1.27,-1.11 1.91,-1.65 l 0.78,-0.64 c 0.59,-0.48 1.18,-0.94 1.78,-1.4 l 1,-0.72 c 0.67,-0.5 1.36,-1 2.05,-1.46 l 1.2,-0.8 1.19,-0.76 c 0.78,-0.49 1.56,-1 2.36,-1.42 l 0.86,-0.5 c 0.56,-0.31 1.11,-0.62 1.68,-0.91 l 0.45,-0.23 c 1.1,-0.57 2.21,-1.11 3.34,-1.62 l 0.37,-0.17 q 2.88,-1.29 5.87,-2.33 h 0.13 c 1.25,-0.44 2.52,-0.83 3.8,-1.2 l 0.44,-0.12 c 1.92,-0.53 3.86,-1 5.82,-1.36 l 1.38,-0.25 c 0.7,-0.12 1.41,-0.23 2.12,-0.33 0.71,-0.1 1.33,-0.18 2,-0.25 l 1.18,-0.13 c 1,-0.09 1.94,-0.17 2.91,-0.22 h 0.81 c 1.07,-0.05 2.15,-0.08 3.23,-0.08 h 0.05 c 1,0 2.09,0 3.13,0.08 h 1 c 0.8,0 1.59,0.11 2.37,0.19 0.78,0.08 1.29,0.12 1.94,0.2 h 0.05 c 3.57,3.12 16.21,15.08 18.18,29.18 a 18.23,18.23 0 0 0 -7.8,8.7 c -10.32,-4.24 -40.34,-14.32 -78.7,-7.18 z m 107,12.41 a 3.48,3.48 0 0 0 0.94,2.32 c 0.08,0.08 0.16,0.13 0.24,0.2 a 17.37,17.37 0 0 1 0.49,11.63 13.06,13.06 0 0 1 -0.48,1.23 3.58,3.58 0 0 0 -0.52,0.89 c -0.05,0.12 -0.07,0.25 -0.11,0.37 a 11,11 0 0 1 -5.41,4.85 v 0 c -6.5,2.63 -14.42,-1.74 -17.65,-9.74 a 17.94,17.94 0 0 1 -1.15,-9.6 l 0.07,-0.11 a 3.48,3.48 0 0 0 0.35,-1.72 c 0,-0.16 0.08,-0.33 0.14,-0.49 a 11.52,11.52 0 0 1 6.51,-7.34 10.48,10.48 0 0 1 4,-0.76 c 4.82,0 9.74,3.15 12.62,8.27 z m 7.9,0.56 7.34,-6.93 0.58,1 c 0.31,0.57 0.62,1.13 0.92,1.7 0.3,0.57 0.57,1.1 0.85,1.66 0.28,0.56 0.43,0.88 0.64,1.32 0.21,0.44 0.49,1.08 0.73,1.62 0.24,0.54 0.56,1.29 0.82,2 0.21,0.49 0.4,1 0.59,1.48 0.19,0.48 0.36,1 0.53,1.43 0.28,0.77 0.54,1.55 0.79,2.34 0.15,0.47 0.29,0.94 0.43,1.42 0.14,0.48 0.3,1 0.43,1.52 0.13,0.52 0.26,0.93 0.38,1.41 0.21,0.82 0.4,1.64 0.58,2.47 0.1,0.47 0.19,0.93 0.28,1.39 0.13,0.66 0.24,1.33 0.35,2 0.09,0.51 0.17,1 0.24,1.55 0.11,0.75 0.21,1.51 0.29,2.27 0,0.37 0.09,0.74 0.12,1.11 0.09,1 0.17,2 0.23,3 v 0.77 c 0,0.41 0,0.82 0,1.22 a 48.85,48.85 0 0 0 -16.59,-12.53 24.26,24.26 0 0 0 -0.49,-15.22 z m 3.46,-12.9 -6.84,6.46 c -4.66,-6.41 -11.9,-10 -18.93,-9.3 -1.71,-9.88 -7.45,-18.49 -12.62,-24.52 a 73.25,73.25 0 0 1 38.43,27.36 z m -124,9 c 40.42,-9.42 73,2.11 81.91,5.84 a 25.06,25.06 0 0 0 1.75,11.85 25.4,25.4 0 0 0 1.33,2.78 c -11.46,10.39 -53.34,47.76 -76.12,60 a 72.75,72.75 0 0 1 -8.87,-80.44 z m 107.11,93 a 149.89,149.89 0 0 0 6.28,-63.27 17.9,17.9 0 0 0 4.69,-4.42 c 13.5,6.31 18.54,16.81 19.05,17.92 a 73.06,73.06 0 0 1 -29.99,49.79 z"
       id="path2" />
  </g>
</svg>
