<?xml version="1.0" encoding="UTF-8" standalone="no"?>
<svg
   xmlns:dc="http://purl.org/dc/elements/1.1/"
   xmlns:cc="http://creativecommons.org/ns#"
   xmlns:rdf="http://www.w3.org/1999/02/22-rdf-syntax-ns#"
   xmlns:svg="http://www.w3.org/2000/svg"
   xmlns="http://www.w3.org/2000/svg"
   xmlns:sodipodi="http://sodipodi.sourceforge.net/DTD/sodipodi-0.dtd"
   xmlns:inkscape="http://www.inkscape.org/namespaces/inkscape"
   viewBox="0 0 137.37148 116.62157"
   version="1.1"
   id="svg7"
   sodipodi:docname="Bee.svg"
   width="137.37148"
   height="116.62157"
   inkscape:version="1.0.2 (e86c870879, 2021-01-15, custom)">
  <g
     id="Layer_10"
     data-name="Layer 10"
     transform="translate(-162.66852,-171.42843)">
    <path
       class="cls-1"
       d="m 277.55,249.3 a 3.54,3.54 0 1 1 -3.54,-3.61 3.58,3.58 0 0 1 3.54,3.61"
       id="path2" />
    <path
       class="cls-1"
       d="m 272.78,219.87 a 34,34 0 0 0 7.39,-11.11 c 6.19,-16.53 2.71,-29.78 -9.3,-35.48 a 15.56,15.56 0 0 0 -2.11,-0.89 1.43,1.43 0 0 0 -0.27,-0.09 c -12.89,-3.61 -24.3,4.13 -30.5,20.7 a 30,30 0 0 0 -1.71,9 c -6.74,-9 -13.6,-15.17 -20.49,-18.31 -22.32,-10.17 -41,-6.68 -50,9.33 0,0.09 -0.1,0.17 -0.14,0.26 a 21.21,21.21 0 0 0 -1.16,2.86 c -4.81,13.44 0,26.5 13.32,36.41 -5,5.33 -7.77,11.46 -7.77,18 0,21 28.56,37.5 65,37.5 36.44,0 65,-16.48 65,-37.5 C 300,237.73 289.36,226.6 272.78,219.87 Z m -28.23,-24.42 c 6.83,-18.26 17.5,-17.64 21.92,-16.45 l 1,0.4 0.26,0.14 c 4.07,1.9 12.78,8.3 5.88,26.76 -1.29,3.44 -4,7.13 -8.17,11 a 102.64,102.64 0 0 0 -21.35,-3.88 c -1.27,-7.51 -1.09,-13.72 0.46,-17.97 z m -73.45,2.87 a 3.38,3.38 0 0 0 0.11,-0.34 c 0,-0.12 0.2,-0.55 0.72,-1.68 10.17,-17.86 32,-10.34 41,-6.27 7.26,3.31 15,11.24 22.51,23 H 235 c -21.43,0 -40.13,5.7 -51.9,14.67 -7.63,-5.35 -17.1,-15.29 -12,-29.38 z m 31.17,27.26 a 88.16,88.16 0 0 1 17,-4.32 v 58.61 a 88.57,88.57 0 0 1 -17.07,-4.33 c 0,-0.13 0,-0.26 0,-0.4 z m -25.26,25 c 0,-5.41 2.86,-10.53 7.77,-15 a 3.42,3.42 0 0 0 1.83,-1.43 2.12,2.12 0 0 0 0.11,-0.21 50.11,50.11 0 0 1 8.55,-5.35 v 44 C 184.1,266.94 177,259.1 177,250.57 Z m 49.29,30.12 v -59.62 a 3.49,3.49 0 0 0 -0.06,-0.65 c 2.87,-0.24 5.8,-0.36 8.77,-0.36 2.97,0 5.65,0.11 8.39,0.33 a 3.82,3.82 0 0 0 -0.06,0.68 v 59.65 c -2.73,0.22 -5.51,0.34 -8.33,0.34 -2.82,0 -5.86,-0.13 -8.71,-0.37 z m 24,-0.77 V 221.2 a 91.2,91.2 0 0 1 14.27,3.29 3.4,3.4 0 0 0 0.87,0.28 c 16.39,5.46 27.53,15.09 27.53,25.8 0.03,13.75 -18.35,25.72 -42.63,29.36 z"
       id="path4" />
  </g>
</svg>
