<?xml version="1.0" encoding="utf-8"?>
<!-- Generator: Adobe Illustrator 25.0.0, SVG Export Plug-In . SVG Version: 6.00 Build 0)  -->
<svg version="1.1" id="Layer_1" xmlns="http://www.w3.org/2000/svg" xmlns:xlink="http://www.w3.org/1999/xlink" x="0px" y="0px"
	 viewBox="0 0 142.8 133.8" style="enable-background:new 0 0 142.8 133.8;" xml:space="preserve">
<path d="M30.7,133.8C13.8,133.8,0,120,0,103.1s13.8-30.7,30.7-30.7c16.9,0,30.7,13.8,30.7,30.7S47.6,133.8,30.7,133.8z M30.7,79.4
	C17.6,79.4,7,90.1,7,103.1s10.6,23.7,23.7,23.7c13,0,23.7-10.6,23.7-23.7S43.7,79.4,30.7,79.4z"/>
<path d="M57.8,106.6c-1.9,0-3.5-1.6-3.5-3.5V19.4C54.3,12.6,48.8,7,42,7c0,0,0,0,0,0c-5.5,0-10.4,3.7-11.9,9.1L7.9,96.9
	c-0.5,1.9-2.4,3-4.3,2.4c-1.9-0.5-3-2.4-2.4-4.3l22.2-80.8C25.6,5.9,33.3,0,42,0c0,0,0,0,0.1,0c10.7,0,19.3,8.7,19.3,19.4v83.7
	C61.3,105.1,59.8,106.6,57.8,106.6z"/>
<path d="M112.2,133.8C112.2,133.8,112.1,133.8,112.2,133.8c-16.9,0-30.7-13.8-30.7-30.7c0-16.9,13.8-30.7,30.7-30.7c0,0,0,0,0,0
	c16.9,0,30.6,13.8,30.6,30.7C142.8,120,129.1,133.8,112.2,133.8z M112.1,126.8C112.2,126.8,112.2,126.8,112.1,126.8
	c6.3,0,12.3-2.5,16.7-6.9c4.5-4.5,6.9-10.4,6.9-16.7s-2.4-12.3-6.9-16.7c-4.5-4.5-10.4-6.9-16.7-6.9c0,0,0,0,0,0
	c-13,0-23.6,10.6-23.7,23.6C88.5,116.1,99.1,126.8,112.1,126.8z"/>
<path d="M85,106.6c-1.9,0-3.5-1.6-3.5-3.5V19.4C81.5,8.7,90.2,0,100.8,0c0,0,0,0,0,0c8.7,0,16.3,5.8,18.6,14.2L141.7,95
	c0.5,1.9-0.6,3.8-2.4,4.3c-1.9,0.5-3.8-0.6-4.3-2.4l-22.2-80.8c-1.5-5.3-6.4-9.1-11.9-9.1c0,0,0,0,0,0C94,7,88.5,12.6,88.5,19.4
	v83.7C88.5,105.1,86.9,106.6,85,106.6z"/>
<path d="M85,70.4H57.8c-1.9,0-3.5-1.6-3.5-3.5V48.8c0-1.9,1.6-3.5,3.5-3.5H85c1.9,0,3.5,1.6,3.5,3.5v18.2
	C88.5,68.9,86.9,70.4,85,70.4z M61.3,63.4h20.2V52.3H61.3V63.4z"/>
</svg>
