<?xml version="1.0" encoding="UTF-8" standalone="no"?>
<svg
   xmlns:dc="http://purl.org/dc/elements/1.1/"
   xmlns:cc="http://creativecommons.org/ns#"
   xmlns:rdf="http://www.w3.org/1999/02/22-rdf-syntax-ns#"
   xmlns:svg="http://www.w3.org/2000/svg"
   xmlns="http://www.w3.org/2000/svg"
   xmlns:sodipodi="http://sodipodi.sourceforge.net/DTD/sodipodi-0.dtd"
   xmlns:inkscape="http://www.inkscape.org/namespaces/inkscape"
   viewBox="0 0 178.06371 144.67844"
   version="1.1"
   id="svg7"
   sodipodi:docname="Bird.svg"
   width="178.06371"
   height="144.67844"
   inkscape:version="1.0.2 (e86c870879, 2021-01-15, custom)">
  <g
     id="Layer_10"
     data-name="Layer 10"
     transform="translate(-142.29044,-157.39985)">
    <path
       class="cls-1"
       d="m 281.88,188.53 a 3.54,3.54 0 1 1 -3.54,-3.61 3.57,3.57 0 0 1 3.54,3.61"
       id="path2" />
    <path
       class="cls-1"
       d="m 143.33,292.93 0.73,0.74 a 28.83,28.83 0 0 0 40.7,0 l 14.59,-14.59 a 64.77,64.77 0 0 0 24.07,6.29 c 1.76,0.12 3.46,0.18 5.11,0.18 41.73,0 46.5,-37.16 48.58,-53.39 0.38,-2.9 0.84,-6.51 1.25,-7.31 1,-1.5 4.2,-3.8 7.33,-6 4.75,-3.38 10.54,-7.48 14.53,-12.73 a 3.2,3.2 0 0 0 1.09,-0.33 l 17.14,-8.87 a 3.5,3.5 0 0 0 0,-6.23 l -14.82,-7.52 c -3.52,-11.71 -13.5,-19.06 -27,-19.06 a 31,31 0 0 0 -17.43,5.34 c -2.83,1.92 -7.62,6.61 -14.08,13 l -0.18,0.2 c -0.34,0.37 -2.43,2.55 -9.77,10.17 L 200.44,158.4 a 3.48,3.48 0 0 0 -2.46,-1 v 0 a 3.47,3.47 0 0 0 -2.47,1 l -0.44,0.44 c -7.39,7.39 -5.73,16.57 -4.4,20.79 a 19.24,19.24 0 0 0 -4.52,12.2 18.33,18.33 0 0 0 3.38,10.9 19.19,19.19 0 0 0 -3.92,11.44 18.2,18.2 0 0 0 5.39,13.32 l 5.49,5.41 c -26.18,27.15 -53.2,55.1 -53.2,55.1 a 3.49,3.49 0 0 0 0.04,4.93 z m 165.84,-99.11 -4.42,2.29 A 19.68,19.68 0 0 0 305,193 c 0,-0.44 0,-0.88 0,-1.31 z m -116.6,20.45 a 12.26,12.26 0 0 1 3.6,-8.54 l 0.45,-0.46 a 3.5,3.5 0 0 0 0,-4.91 l -0.18,-0.18 a 11.23,11.23 0 0 1 -3.35,-8.24 12.34,12.34 0 0 1 3.59,-8.55 l 0.46,-0.45 a 3.53,3.53 0 0 0 0.68,-3.95 c -0.15,-0.33 -3.2,-7.07 0.37,-12.92 l 34.09,33.79 a 3.57,3.57 0 0 0 0.44,0.52 4.12,4.12 0 0 0 0.41,0.32 l 2.87,2.85 a 3.67,3.67 0 0 0 1,1.39 c 0.51,0.42 1,0.82 1.38,1.24 a 19.42,19.42 0 0 1 5.66,14.18 21,21 0 0 1 -6.23,14.54 c -7.85,7.85 -20.18,8.38 -28.06,1.19 -0.11,-0.1 -0.23,-0.19 -0.35,-0.28 l -13.52,-13.3 a 11.31,11.31 0 0 1 -3.31,-8.24 z m 8.92,23.54 3.45,3.4 a 3.6,3.6 0 0 0 0.58,0.45 26.45,26.45 0 0 0 17.45,6.5 28.34,28.34 0 0 0 28.11,-27.68 26.39,26.39 0 0 0 -7.71,-19.25 l -0.74,-0.71 a 3.42,3.42 0 0 0 -0.7,-1 l -1.81,-1.79 c 2.7,-2.8 4.95,-5.13 6.62,-6.88 l 2.49,-2.6 c 0.27,-0.27 0.54,-0.56 0.8,-0.87 v 0 c 5,-4.92 10.56,-10.5 13.07,-12.2 a 24,24 0 0 1 13.5,-4.13 c 9.93,0 17,4.76 19.93,12.87 a 3.51,3.51 0 0 0 -0.21,1.17 l -0.1,14.3 c -3,5.45 -9.27,9.91 -14.6,13.69 -4.17,3 -7.47,5.31 -9.16,7.95 -1.24,1.92 -1.64,5 -2.3,10.2 -2.23,17.41 -6.38,49.82 -46.28,47.12 a 57.2,57.2 0 0 1 -23.52,-6.66 3.5,3.5 0 0 0 -4.16,0.59 l -16.4,16.4 a 21.81,21.81 0 0 1 -29,1.6 c 7.25,-7.46 29.2,-30.28 50.69,-52.47 z"
       id="path4" />
  </g>
</svg>
