<?xml version="1.0" encoding="UTF-8" standalone="no"?>
<svg
   xmlns:dc="http://purl.org/dc/elements/1.1/"
   xmlns:cc="http://creativecommons.org/ns#"
   xmlns:rdf="http://www.w3.org/1999/02/22-rdf-syntax-ns#"
   xmlns:svg="http://www.w3.org/2000/svg"
   xmlns="http://www.w3.org/2000/svg"
   xmlns:sodipodi="http://sodipodi.sourceforge.net/DTD/sodipodi-0.dtd"
   xmlns:inkscape="http://www.inkscape.org/namespaces/inkscape"
   viewBox="0 0 192.73303 174.8515"
   version="1.1"
   id="svg11"
   sodipodi:docname="Boiling pan.svg"
   width="192.73303"
   height="174.8515"
   inkscape:version="1.0.2 (e86c870879, 2021-01-15, custom)">
  <g
     id="Layer_10"
     data-name="Layer 10"
     transform="translate(-135.09853,-142.3085)">
    <path
       class="cls-1"
       d="m 185.09,186.38 a 14.48,14.48 0 0 0 0,-24.75 7.49,7.49 0 0 1 0,-12.81 3.511499,3.511499 0 1 0 -3.65,-6 14.48,14.48 0 0 0 0,24.75 7.49,7.49 0 0 1 0,12.81 14.48,14.48 0 0 0 0,24.75 3.511499,3.511499 0 1 0 3.65,-6 7.49,7.49 0 0 1 0,-12.81 z"
       id="path2" />
    <path
       class="cls-1"
       d="m 209.43,186.38 a 14.48,14.48 0 0 0 0,-24.75 7.48,7.48 0 0 1 0,-12.81 3.511499,3.511499 0 1 0 -3.65,-6 14.47,14.47 0 0 0 0,24.75 7.49,7.49 0 0 1 0,12.81 14.47,14.47 0 0 0 0,24.75 3.48,3.48 0 0 0 4.81,-1.16 3.51,3.51 0 0 0 -1.16,-4.81 7.48,7.48 0 0 1 0,-12.81 z"
       id="path4" />
    <path
       class="cls-1"
       d="m 233.76,186.38 a 14.47,14.47 0 0 0 0,-24.75 7.5,7.5 0 0 1 0,-12.81 3.508903,3.508903 0 1 0 -3.64,-6 14.48,14.48 0 0 0 0,24.75 7.49,7.49 0 0 1 0,12.81 14.48,14.48 0 0 0 0,24.75 3.508903,3.508903 0 1 0 3.64,-6 7.5,7.5 0 0 1 0,-12.81 z"
       id="path6" />
    <path
       class="cls-1"
       d="m 158.6,317.16 h 98 c 8.13,0 23.5,-4.91 23.5,-23.5 v -31.3 h 40.25 a 7.33,7.33 0 0 0 7.48,-7.48 v -9.31 a 7.33,7.33 0 0 0 -7.48,-7.48 H 280.1 v -14.93 a 5.87,5.87 0 0 0 -6,-6 h -133 a 5.87,5.87 0 0 0 -6,6 v 70.5 c 0,8.13 4.9,23.5 23.5,23.5 z m 161.66,-71.5 v 9.13 H 280.1 v -9.13 z M 142.1,224.16 h 131 v 69.5 c 0,15.91 -14.82,16.49 -16.5,16.5 h -98 c -15.91,0 -16.49,-14.82 -16.5,-16.5 z"
       id="path8" />
  </g>
</svg>
