<?xml version="1.0" encoding="utf-8"?>
<!-- Generator: Adobe Illustrator 25.0.0, SVG Export Plug-In . SVG Version: 6.00 Build 0)  -->
<svg version="1.1" id="Layer_1" xmlns="http://www.w3.org/2000/svg" xmlns:xlink="http://www.w3.org/1999/xlink" x="0px" y="0px"
	 viewBox="0 0 142.2 142.2" style="enable-background:new 0 0 142.2 142.2;" xml:space="preserve">
<path d="M129.7,142.2H12.5c-6.9,0-12.5-5.6-12.5-12.5V12.5C0,5.6,5.6,0,12.5,0h45.2c6.9,0,12.5,5.6,12.5,12.5v45.1
	c0,13,10.5,23.5,23.5,23.5c26.8,0,48.5,21.8,48.5,48.6C142.2,136.6,136.6,142.2,129.7,142.2z M12.5,7C9.5,7,7,9.5,7,12.5v117.2
	c0,3,2.5,5.5,5.5,5.5h117.2c3,0,5.5-2.5,5.5-5.5v0c0-22.9-18.6-41.5-41.5-41.6c-16.8,0-30.5-13.7-30.5-30.5V12.5
	c0-3-2.5-5.5-5.5-5.5H12.5z"/>
<path d="M93.7,124.1c-1.9,0-3.5-1.6-3.5-3.5v-18c0-8.7,5.2-16.5,13.2-19.9c1.8-0.7,3.8,0.1,4.6,1.9c0.7,1.8-0.1,3.8-1.9,4.6
	c-5.4,2.3-8.9,7.5-8.9,13.4v18C97.2,122.6,95.6,124.1,93.7,124.1z"/>
<path d="M137.8,124.2H3.5c-1.9,0-3.5-1.6-3.5-3.5s1.6-3.5,3.5-3.5h134.3c1.9,0,3.5,1.6,3.5,3.5S139.7,124.2,137.8,124.2z"/>
<path d="M66.6,34h-18c-1.9,0-3.5-1.6-3.5-3.5s1.6-3.5,3.5-3.5h18c1.9,0,3.5,1.6,3.5,3.5S68.5,34,66.6,34z"/>
<path d="M66.6,61.1h-18c-1.9,0-3.5-1.6-3.5-3.5s1.6-3.5,3.5-3.5h18c1.9,0,3.5,1.6,3.5,3.5S68.5,61.1,66.6,61.1z"/>
<path d="M61.8,92.9c-0.9,0-1.8-0.3-2.5-1c-1.4-1.4-1.4-3.6,0-4.9L72,74.2c1.4-1.4,3.6-1.4,5,0c1.4,1.4,1.4,3.6,0,5L64.2,91.9
	C63.6,92.6,62.7,92.9,61.8,92.9z"/>
</svg>
