<?xml version="1.0" encoding="utf-8"?>
<!-- Generator: Adobe Illustrator 25.0.0, SVG Export Plug-In . SVG Version: 6.00 Build 0)  -->
<svg version="1.1" id="Layer_1" xmlns="http://www.w3.org/2000/svg" xmlns:xlink="http://www.w3.org/1999/xlink" x="0px" y="0px"
	 viewBox="0 0 79.8 200.1" style="enable-background:new 0 0 79.8 200.1;" xml:space="preserve">
<g id="Layer_10">
	<g>
		<path d="M51.5,27c-1.9,0-3.5-1.6-3.5-3.5v-15C47.9,7,47.1,7,46.5,7h-13C32,7.1,32,7.9,32,8.5v15c0,1.9-1.6,3.5-3.5,3.5
			S25,25.4,25,23.5v-15C25,2.3,30.1,0,33.5,0h13C52.7,0,55,5.1,55,8.5v15C55,25.4,53.4,27,51.5,27z"/>
	</g>
	<g>
		<path d="M23.5,200.1c-13,0-23.5-11-23.5-24.5l0.3-95.7c0-7.1,1.8-14.2,5.3-20.5l18.9-34.6c0,0,0.1-0.1,0.1-0.1
			c1.5-2.5,4.1-4.2,7.1-4.6c0.1,0,0.3,0,0.4,0h16c0.1,0,0.3,0,0.4,0c2.9,0.4,5.5,2,7,4.6c0,0,0.1,0.1,0.1,0.1l18.9,34.6
			c3.4,6.3,5.2,13.4,5.3,20.5l0.3,95.7c0,0,0,0,0,0c0,13.5-10.5,24.5-23.5,24.5H23.5z M30.5,28.2L11.7,62.7
			C8.8,68,7.3,73.9,7.3,79.9L7,175.6c0,9.6,7.4,17.5,16.5,17.5h33c9.1,0,16.5-7.9,16.5-17.5l-0.3-95.7c0-6-1.5-11.9-4.4-17.2
			L49.5,28.2c-0.4-0.6-1-1-1.7-1.2H32.3C31.5,27.2,30.9,27.6,30.5,28.2z"/>
	</g>
	<g>
		<path d="M40,119.9c-0.2,0-0.3,0-0.5,0c-4.1-0.1-7.9-1.8-10.7-4.8c-2.8-3-4.3-6.9-4.2-11v0C24.9,93.9,36.9,82.3,38.2,81
			c0.7-0.6,1.6-1,2.5-1c0.9,0,1.8,0.4,2.5,1.1c1.3,1.4,12.5,13.7,12.2,23.9c-0.1,4.1-1.8,7.9-4.8,10.7
			C47.7,118.5,43.9,119.9,40,119.9z M40.5,88.7c-3.7,4.1-8.7,10.7-8.9,15.5c0,0,0,0,0,0c-0.1,2.2,0.7,4.4,2.3,6
			c1.5,1.6,3.6,2.6,5.9,2.6c4.6,0.2,8.5-3.5,8.7-8.1C48.5,99.9,43.9,93,40.5,88.7z M28.1,104.2L28.1,104.2L28.1,104.2z"/>
	</g>
</g>
</svg>
