<?xml version="1.0" encoding="UTF-8" standalone="no"?>
<svg
   xmlns:dc="http://purl.org/dc/elements/1.1/"
   xmlns:cc="http://creativecommons.org/ns#"
   xmlns:rdf="http://www.w3.org/1999/02/22-rdf-syntax-ns#"
   xmlns:svg="http://www.w3.org/2000/svg"
   xmlns="http://www.w3.org/2000/svg"
   xmlns:sodipodi="http://sodipodi.sourceforge.net/DTD/sodipodi-0.dtd"
   xmlns:inkscape="http://www.inkscape.org/namespaces/inkscape"
   viewBox="0 0 120 100.05045"
   version="1.1">
  <g
     id="Layer_10"
     data-name="Layer 10"
     transform="translate(-171.39845,-179.72954)">
    <path
       class="cls-1"
       d="m 221.21,269.66 a 10.12,10.12 0 1 0 10.11,-10.12 10.12,10.12 0 0 0 -10.11,10.12 z m 13.23,0 a 3.12,3.12 0 1 1 -3.12,-3.12 3.12,3.12 0 0 1 3.12,3.12 z"
       id="path2" />
    <path
       class="cls-1"
       d="m 253.09,251.52 a 3.5000893,3.5000893 0 1 0 5.63,-4.16 33.91,33.91 0 0 0 -51.48,-3.91 33.82,33.82 0 0 0 -3.31,3.9 3.5,3.5 0 0 0 5.62,4.16 27.47,27.47 0 0 1 2.63,-3.1 27.19,27.19 0 0 1 38.27,0 27.65,27.65 0 0 1 2.64,3.11 z"
       id="path4" />
    <path
       class="cls-1"
       d="m 232,179.73 a 3.64,3.64 0 0 1 -1.42,0 81.88,81.88 0 0 0 -58.26,24.07 3.5,3.5 0 0 0 4.94,4.95 75,75 0 0 1 53.32,-22 3.19,3.19 0 0 1 1.42,0 75,75 0 0 1 53.32,22 3.5,3.5 0 1 0 4.94,-4.95 A 81.88,81.88 0 0 0 232,179.73 Z"
       id="path6" />
    <path
       class="cls-1"
       d="m 191.44,230.74 0.58,-0.66 c 0.53,-0.61 1,-1.19 1.56,-1.72 a 52.09,52.09 0 0 1 37,-15.28 3.19,3.19 0 0 1 1.42,0 52.06,52.06 0 0 1 37,15.28 c 0.52,0.53 1,1.11 1.57,1.72 l 0.57,0.66 a 3.5028595,3.5028595 0 0 0 5.24,-4.65 l -0.54,-0.61 c -0.59,-0.68 -1.2,-1.37 -1.9,-2.07 a 59,59 0 0 0 -42,-17.33 3.64,3.64 0 0 1 -1.42,0 59,59 0 0 0 -42,17.33 c -0.7,0.7 -1.31,1.39 -1.9,2.07 l -0.53,0.61 a 3.5,3.5 0 0 0 5.23,4.65 z"
       id="path8" />
  </g>
</svg>
