<?xml version="1.0" encoding="utf-8"?>
<!-- Generator: Adobe Illustrator 25.0.0, SVG Export Plug-In . SVG Version: 6.00 Build 0)  -->
<svg version="1.1" id="Layer_1" xmlns="http://www.w3.org/2000/svg" xmlns:xlink="http://www.w3.org/1999/xlink" x="0px" y="0px"
	 viewBox="0 0 176.8 140" style="enable-background:new 0 0 176.8 140;" xml:space="preserve">
<g id="Layer_10">
	<path d="M2.7,98.3l8.5,1.8C18,123.7,38.8,140,62.6,140h51.5c5.7,0,11.4-0.9,16.8-2.8c0.2-0.1,0.4-0.2,0.6-0.3c1.6,0.5,3.3,1,5,1.4
		c4.8,1.1,9.7,1.7,14.5,1.7c3.6,0,7.3-0.4,10.8-1.2c8.1-2,13.3-6.1,14.6-11.8c1.7-7.2-3.7-15-13.3-20.7c2.9-7,4.4-14.5,4.4-22.1
		V57.3c0.1-6.6-5.2-12.1-11.8-12.2c0,0,0,0-0.1,0h-0.5c-0.7-12-10.6-21.5-22.6-21.7c-3-9.7-11.9-16.4-22.1-16.4
		c-1.6,0-3.1,0.2-4.6,0.5C101.5,2.7,95.3,0,88.9,0h-0.5h-0.5c-6.5,0-12.6,2.8-17,7.5c-1.5-0.3-3.1-0.5-4.6-0.5
		c-10.2,0-19.2,6.7-22.1,16.4C32,23.6,22.2,33.1,21.5,45.1h-0.6C14.3,45.2,9,50.7,9.1,57.3c0,0,0,0,0,0v19.5l-1.3-0.3
		c-1.9-0.5-3.8,0.7-4.2,2.5c0,0,0,0,0,0.1L0.1,94.1C-0.3,96,0.8,97.9,2.7,98.3C2.7,98.3,2.8,98.3,2.7,98.3L2.7,98.3z M114.1,133
		H62.6c-19.4,0-36.6-12.6-43.4-31.2c34.6,7.3,81.4,17.1,83.9,17.7c1.1,0.7,2.2,1.6,3.2,2.5c2.4,2.2,5,4.2,7.7,6
		c2.2,1.7,4.5,3.2,6.9,4.5C118.6,132.8,116.3,133,114.1,133z M44.5,30.4c0.7,0,1.3,0.1,2,0.1c1.9,0.2,3.6-1.1,3.9-3
		c1.4-8.8,9.7-14.7,18.4-13.3c0.8,0.1,1.6,0.3,2.3,0.5c1.4,0.4,3-0.1,3.9-1.3c3-4.1,7.9-6.6,13-6.5l0,0h0.4h0.2h0.4
		c5.1,0,9.9,2.4,12.9,6.5c0.9,1.2,2.4,1.7,3.9,1.3c8.5-2.7,17.5,2,20.2,10.5c0.2,0.8,0.4,1.6,0.6,2.4c0.3,1.9,2,3.2,3.9,3
		c0.7-0.1,1.3-0.1,2-0.1c8.3,0,15.3,6.4,16,14.7H28.5C29.1,36.8,36.1,30.4,44.5,30.4z M16.1,57.3c-0.1-2.8,2-5.1,4.8-5.2
		c0,0,0,0,0.1,0h134.9c2.8,0.1,4.9,2.4,4.8,5.2c0,0,0,0,0,0.1v26.8c0,6.5-1.2,12.9-3.6,18.9c-3.7-1.6-7.5-2.9-11.5-3.8
		c-8.8-2-17.6-2.3-24.8-0.7c-3.2,0.4-6.4,1.1-9.6,2c-1.3,0.4-2.6,0.7-4,0.9c-2.7-0.6-56.6-14.2-91.1-22.9L16.1,57.3z M9.5,84.2
		c17.6,4.4,94.1,23.6,96.2,24.1s4.2-0.1,7.3-1c2.8-0.9,5.7-1.4,8.6-1.8c0.2,0,0.3,0,0.5-0.1c6.2-1.4,14-1.2,21.9,0.6
		c4.3,1,8.4,2.4,12.4,4.3c0.3,0.2,0.5,0.5,0.9,0.6c0.3,0.1,0.6,0.2,0.9,0.3c8.2,4.4,12.6,10,11.7,14.1c-0.7,2.9-4.1,5.3-9.5,6.6
		c-6.2,1.5-14.1,1.3-22.2-0.5c-7.9-1.8-15-5-19.9-9l-0.3-0.2l-0.2-0.1c-2.4-1.6-4.7-3.3-6.8-5.3c-2.4-2.1-4.1-3.6-6.1-4.1
		c-1.9-0.4-63.5-13.4-89.4-18.9c-0.3-0.1-0.6-0.2-0.9-0.2l-6.7-1.4L9.5,84.2z"/>
</g>
</svg>
