<?xml version="1.0" encoding="UTF-8" standalone="no"?>
<svg
   xmlns:dc="http://purl.org/dc/elements/1.1/"
   xmlns:cc="http://creativecommons.org/ns#"
   xmlns:rdf="http://www.w3.org/1999/02/22-rdf-syntax-ns#"
   xmlns:svg="http://www.w3.org/2000/svg"
   xmlns="http://www.w3.org/2000/svg"
   xmlns:sodipodi="http://sodipodi.sourceforge.net/DTD/sodipodi-0.dtd"
   xmlns:inkscape="http://www.inkscape.org/namespaces/inkscape"
   viewBox="0 0 178.88645 160.00212"
   version="1.1"
   id="svg7"
   sodipodi:docname="Bucket and spade.svg"
   width="178.88644"
   height="160.00212"
   inkscape:version="1.0.2 (e86c870879, 2021-01-15, custom)">
  <g
     id="Layer_10"
     data-name="Layer 10"
     transform="translate(-141.8595,-149.72788)">
    <path
       class="cls-1"
       d="M 274.31,216.36 279.09,199 a 7.09,7.09 0 0 0 -1,-6.44 7.93,7.93 0 0 0 -6.09,-2.81 h -12 a 50,50 0 0 0 -97.89,0 h -12.66 a 7.29,7.29 0 0 0 -6,2.57 8.19,8.19 0 0 0 -1.41,6.56 l 3.7,17.24 a 9.55,9.55 0 0 0 8.18,7.55 l 15.22,78.14 a 9.55,9.55 0 0 0 9.39,7.74 h 64.36 a 9.53,9.53 0 0 0 9.39,-7.74 l 15.29,-78.48 a 10.46,10.46 0 0 0 6.74,-6.97 z M 211.08,157 a 42.76,42.76 0 0 1 41.77,32.75 H 169.31 A 42.75,42.75 0 0 1 211.08,157 Z m -58.47,57.65 -3.68,-17.2 a 2.36,2.36 0 0 1 0,-0.65 2.54,2.54 0 0 1 0.52,-0.05 H 272 l 0.37,0.07 a 3.34,3.34 0 0 1 -0.07,0.33 l -4.77,17.32 a 3.1,3.1 0 0 1 -3,2.3 H 155.29 a 2.66,2.66 0 0 1 -2.68,-2.14 z m 92.84,85.76 a 2.5,2.5 0 0 1 -2.53,2.14 h -64.36 a 2.54,2.54 0 0 1 -2.52,-2.08 l -14.94,-76.7 h 99.28 z"
       id="path2" />
    <path
       class="cls-1"
       d="m 280.13,309.73 h 31.34 c 4,0 6.17,-1.59 7.32,-2.92 a 8.61,8.61 0 0 0 1.92,-6.25 V 270.9 c 0,-11.17 -10.59,-17.63 -21.41,-20.25 v -66.52 c 8.36,-2.27 16.36,-7.64 16.36,-16.79 v -9.5 a 7.69,7.69 0 0 0 -1.73,-5.6 7.79,7.79 0 0 0 -6.16,-2.5 h -23.95 a 7.76,7.76 0 0 0 -6.15,2.5 7.64,7.64 0 0 0 -1.73,5.6 v 9.5 c 0,9.15 8,14.52 16.36,16.79 v 66.52 c -10.83,2.62 -21.41,9.08 -21.41,20.25 v 29.66 a 8.64,8.64 0 0 0 1.91,6.25 c 1.2,1.33 3.36,2.92 7.33,2.92 z m 2.81,-142.39 v -9.68 a 1.08,1.08 0 0 0 0,-0.4 c 0,-0.15 0,-0.38 0,-0.39 a 2.19,2.19 0 0 1 0.91,-0.13 h 23.95 a 4.86,4.86 0 0 1 0.86,0.08 1.35,1.35 0 0 1 0.07,0.35 1.63,1.63 0 0 0 0,0.49 v 9.68 c 0,6.87 -9.1,9.58 -12.57,10.37 a 2.85,2.85 0 0 0 -0.29,0 2.58,2.58 0 0 0 -0.29,0 c -3.58,-0.79 -12.64,-3.5 -12.64,-10.37 z m -5.05,133.39 V 270.9 c 0,-9.57 13.78,-13 17.91,-13.85 4.13,0.82 17.91,4.28 17.91,13.85 v 29.83 a 1.29,1.29 0 0 0 0,0.44 1.67,1.67 0 0 1 -0.26,1.08 3,3 0 0 1 -2,0.48 h -31.32 a 3,3 0 0 1 -2,-0.48 1.64,1.64 0 0 1 -0.27,-1 1.8,1.8 0 0 0 0.03,-0.52 z"
       id="path4" />
  </g>
</svg>
