<?xml version="1.0" encoding="UTF-8" standalone="no"?>
<svg
   xmlns:dc="http://purl.org/dc/elements/1.1/"
   xmlns:cc="http://creativecommons.org/ns#"
   xmlns:rdf="http://www.w3.org/1999/02/22-rdf-syntax-ns#"
   xmlns:svg="http://www.w3.org/2000/svg"
   xmlns="http://www.w3.org/2000/svg"
   xmlns:sodipodi="http://sodipodi.sourceforge.net/DTD/sodipodi-0.dtd"
   xmlns:inkscape="http://www.inkscape.org/namespaces/inkscape"
   viewBox="0 0 185.01407 159.98772"
   version="1.1"
   id="svg5"
   sodipodi:docname="Canoe.svg"
   width="185.01407"
   height="159.98772"
   inkscape:version="1.0.2 (e86c870879, 2021-01-15, custom)">
  <g
     id="Layer_10"
     data-name="Layer 10"
     transform="translate(-138.80584,-149.75228)">
    <path
       class="cls-1"
       d="m 138.82,242 a 7.78,7.78 0 0 0 2.52,6.17 7.61,7.61 0 0 0 5,1.78 c 0.26,0 0.48,0 0.66,0 h 16.8 c 9.25,0 14.68,-8.06 17,-16.48 h 10.62 c 1,31.29 15,59.36 37.91,75.62 a 3.47,3.47 0 0 0 2,0.65 3.52,3.52 0 0 0 2,-0.65 c 22.87,-16.26 36.87,-44.33 37.9,-75.62 h 9.91 V 242 a 7.78,7.78 0 0 0 2.52,6.17 7.57,7.57 0 0 0 5,1.78 c 0.27,0 0.49,0 0.66,0 h 16.81 c 10.28,0 15.85,-10 17.63,-19.32 a 3.61,3.61 0 0 0 0,-1.31 C 322,220 316.41,210 306.13,210 h -16.81 a 7.36,7.36 0 0 0 -8.16,7.92 v 8.55 h -9.89 C 270.37,195 256.34,166.73 233.35,150.38 a 3.5,3.5 0 0 0 -4,0 86.43,86.43 0 0 0 -24.17,26.85 103.55,103.55 0 0 0 -13.75,49.24 h -10.66 c -2.3,-8.41 -7.73,-16.47 -17,-16.47 H 147 a 7.37,7.37 0 0 0 -8.17,7.92 z m 149.34,-24.11 a 3.38,3.38 0 0 1 0.1,-0.88 1.57,1.57 0 0 1 0.4,-0.08 1.54,1.54 0 0 0 0.48,0 h 17 c 7.18,0 9.91,9.72 10.62,13 -0.71,3.26 -3.44,13 -10.62,13 h -17 a 3.87,3.87 0 0 0 -0.48,0 h -0.36 a 2,2 0 0 1 -0.14,-0.92 z m -56.84,84 A 78.81,78.81 0 0 1 212.69,281.11 H 250 a 78.64,78.64 0 0 1 -18.68,20.79 z m 22.57,-27.75 a 2.85,2.85 0 0 0 -0.29,0 h -44.55 a 2.85,2.85 0 0 0 -0.29,0 98.38,98.38 0 0 1 -10.36,-40.67 h 8.19 a 25,25 0 0 0 49.47,0 h 8.19 a 98.38,98.38 0 0 1 -10.36,40.68 z M 249,233.48 a 18,18 0 0 1 -35.27,0 z m -35.31,-7 a 18,18 0 0 1 35.34,0 z m 17.67,-68.88 a 78.61,78.61 0 0 1 18.79,21 h -37.66 a 79.68,79.68 0 0 1 18.83,-21 z m -22.75,28 a 2.61,2.61 0 0 0 0.48,0.05 h 44.51 a 2.85,2.85 0 0 0 0.41,0 98.62,98.62 0 0 1 10.26,40.9 h -8.18 a 25,25 0 0 0 -49.53,0 h -8.18 a 97.66,97.66 0 0 1 10.19,-40.98 z m -62.75,32.36 a 3.38,3.38 0 0 1 0.1,-0.88 1.66,1.66 0 0 1 0.4,-0.08 1.6,1.6 0 0 0 0.49,0 h 17 c 7.19,0 9.91,9.72 10.63,13 -0.72,3.26 -3.44,13 -10.63,13 h -17 a 4,4 0 0 0 -0.49,0 H 146 a 2,2 0 0 1 -0.14,-0.92 z"
       id="path2" />
  </g>
</svg>
