<?xml version="1.0" encoding="UTF-8" standalone="no"?>
<svg
   xmlns:dc="http://purl.org/dc/elements/1.1/"
   xmlns:cc="http://creativecommons.org/ns#"
   xmlns:rdf="http://www.w3.org/1999/02/22-rdf-syntax-ns#"
   xmlns:svg="http://www.w3.org/2000/svg"
   xmlns="http://www.w3.org/2000/svg"
   xmlns:sodipodi="http://sodipodi.sourceforge.net/DTD/sodipodi-0.dtd"
   xmlns:inkscape="http://www.inkscape.org/namespaces/inkscape"
   viewBox="0 0 185.13275 105.35905"
   version="1.1"
   id="svg5"
   sodipodi:docname="Car.svg"
   width="185.13275"
   height="105.35905"
   inkscape:version="1.0.2 (e86c870879, 2021-01-15, custom)">
  <g
     id="Layer_10"
     data-name="Layer 10"
     transform="translate(-138.76725,-177.07)">
    <path
       class="cls-1"
       d="m 313.9,262.43 v 0 c 5.88,-1.91 10,-8 10,-14.88 v -14.4 c 0,-8.54 -6.21,-15.5 -13.84,-15.5 h -11.95 v 0 c -0.12,0 -0.23,0 -0.34,0 h -1.85 c -1.87,-4.94 -6.39,-16.47 -9.56,-21.27 -0.05,-0.08 -0.08,-0.16 -0.13,-0.24 a 76.35,76.35 0 0 0 -15.1,-16.23 12.11,12.11 0 0 0 -7.73,-2.84 h -87.09 a 12.15,12.15 0 0 0 -7.75,2.85 84.94,84.94 0 0 0 -26.26,37.34 c -3.33,9.44 -4.42,28.89 -2.78,36 a 12.3,12.3 0 0 0 11.92,9.68 h 8.95 a 22.5,22.5 0 0 0 44.58,0 h 51.12 a 22.49,22.49 0 0 0 44.6,-0.17 h 8.2 3 a 7.94,7.94 0 0 0 2.01,-0.34 z m -51.81,-44.78 v 0 a 3.31,3.31 0 0 0 -0.77,0.09 h -0.23 v -16 h 20.27 a 153.69,153.69 0 0 1 7,16 z m -79.41,57.75 a 15.5,15.5 0 1 1 15.5,-15.5 15.52,15.52 0 0 1 -15.5,15.5 z m 95.7,0 a 15.5,15.5 0 1 1 15.5,-15.5 15.52,15.52 0 0 1 -15.5,15.5 z m 22.11,-19.63 a 22.5,22.5 0 0 0 -44.26,0.17 h -51.4 a 22.5,22.5 0 0 0 -44.29,0 h -9.1 a 5.33,5.33 0 0 1 -5.1,-4.26 c -1.27,-5.49 -0.49,-23.41 2.56,-32.07 a 78,78 0 0 1 24.1,-34.28 5.15,5.15 0 0 1 3.27,-1.23 h 87.06 a 5.11,5.11 0 0 1 3.25,1.21 79,79 0 0 1 9.66,9.39 h -15.38 a 6.58,6.58 0 0 0 -6.78,6.36 v 17.27 a 6.59,6.59 0 0 0 6.78,6.37 3.32,3.32 0 0 0 0.77,-0.1 3.44,3.44 0 0 0 0.45,0.05 h 48 v 0 c 3.78,0 6.85,3.82 6.85,8.5 v 14.4 c 0,3.7 -1.94,6.95 -4.76,8.08 -0.95,0.06 -3.68,0.1 -11.68,0.14 z"
       id="path2" />
  </g>
</svg>
