<?xml version="1.0" encoding="utf-8"?>
<!-- Generator: Adobe Illustrator 25.0.0, SVG Export Plug-In . SVG Version: 6.00 Build 0)  -->
<svg version="1.1" id="Layer_1" xmlns="http://www.w3.org/2000/svg" xmlns:xlink="http://www.w3.org/1999/xlink" x="0px" y="0px"
	 viewBox="0 0 175.9 194.3" style="enable-background:new 0 0 175.9 194.3;" xml:space="preserve">
<g id="Layer_10">
	<path d="M143.6,52c0,2-1.7,3.5-3.6,3.5c-2,0-3.5-1.7-3.5-3.6c0-1.9,1.6-3.5,3.5-3.5C142,48.4,143.6,50,143.6,52
		C143.6,52,143.6,52,143.6,52"/>
	<path d="M133.6,52c0,2-1.7,3.5-3.6,3.5c-2,0-3.5-1.7-3.5-3.6c0-1.9,1.6-3.5,3.5-3.5C132.1,48.4,133.6,50,133.6,52
		C133.6,52,133.6,52,133.6,52"/>
	<path d="M69.8,188.2c-1.4,1.4-1.4,3.6-0.1,4.9c0,0,0,0,0.1,0.1c1.3,1.4,3.6,1.4,4.9,0.1c0,0,0,0,0.1-0.1l5.9-5.8l6,5.8
		c1.5,1.2,3.7,1,4.9-0.6c1-1.3,1-3.2-0.1-4.4l-7.3-7v-9.2h22.7v9.1l-7.4,7.2c-1.4,1.4-1.4,3.6-0.1,4.9c0,0,0,0,0.1,0.1
		c0.7,0.7,1.6,1,2.5,1c0.9,0,1.8-0.4,2.5-1l5.9-5.8l6,5.8c1.5,1.2,3.7,1,4.9-0.6c1-1.3,1-3.2-0.1-4.4l-7.3-7V172h7.3
		c21.1,0,38.2-17.1,38.2-38.2V65.4l14.5-7.5c1.7-0.9,2.4-3,1.5-4.7c-0.3-0.7-0.9-1.2-1.5-1.5l-14.8-7.5c-1.1-6.8-4.5-12.9-9.7-17.4
		l3-3c2.1-2.1,3.3-4.8,3.3-7.8c0.1-5.9-4.6-10.9-10.5-11c-0.1,0-0.2,0-0.3,0h-0.2c-1.3,0-2.5,0.2-3.7,0.7c-2.8-5.2-9.4-7.2-14.6-4.4
		c-1.9,1-3.4,2.5-4.4,4.4c-1.2-0.4-2.4-0.7-3.7-0.7c-5.9-0.1-10.9,4.6-11,10.5c0,0.2,0,0.3,0,0.5c0,2.9,1.2,5.7,3.3,7.8L114,27
		c-6.3,5.5-9.9,13.4-9.8,21.7l-0.1,16.4c0,2.8-0.5,5.6-1.6,8.2c-2.8-0.7-5.6-1-8.4-1L3.5,72.4C1.6,72.4,0,74,0,75.9c0,0,0,0,0,0v0.9
		c0,15.6,12.1,23.1,17.2,25.6c0.2,4,1.3,7.9,3.2,11.4v19.6c0,21.1,17.1,38.2,38.2,38.2h18.5v9.1L69.8,188.2z M159.5,57.5v-5.3
		l5.2,2.6L159.5,57.5z M115.6,18.8c-0.8-0.8-1.2-1.8-1.2-2.9c0-1,0.4-2,1.1-2.8c0.7-0.7,1.7-1.1,2.8-1.1c1.1,0,2.2,0.5,2.9,1.3
		l0.5,0.5c1.4,1.4,3.6,1.4,4.9,0.1c0.7-0.7,1.1-1.6,1.1-2.5v-0.2c-0.1-2.2,1.6-4,3.7-4.1c2.2-0.1,4,1.6,4.1,3.7c0,0.1,0,0.3,0,0.4
		v0.2c0,1.9,1.5,3.5,3.5,3.5c0.9,0,1.9-0.4,2.5-1.1l0.5-0.5c0.8-0.8,1.8-1.2,2.9-1.2c1,0,2,0.4,2.8,1.1c0.7,0.7,1.1,1.7,1.1,2.8
		c0,1.1-0.5,2.2-1.3,2.9l-4.1,4.1c-7.4-3.5-16.1-3.5-23.5,0.1L115.6,18.8z M7.1,79.5l86.9-0.1c17.4,0,31.5,14.7,31.5,32.9
		c0,17.6-13.2,32-30.1,32.8c-0.2,0-0.4,0-0.6,0.1l-28.5,0.2h-0.1c-5,0-9.9-2.1-13.4-5.7c-3.7-3.8-5.7-8.9-5.7-14.1v-1
		c0-1.9-1.6-3.5-3.5-3.5h-0.5c-5,0-9.9-2-13.3-5.7c-3.7-3.8-5.7-8.9-5.7-14.1v-1c0-1.5-0.9-2.8-2.3-3.3C21.3,96.8,8.7,92,7.1,79.5z
		 M58.6,164.8c-17.2,0-31.2-14-31.2-31.2v-11.1c3.7,3,8.2,4.9,12.9,5.4c0.5,6.3,3.2,12.1,7.6,16.6c4.8,5,11.4,7.8,18.4,7.9h0.2
		l29.2-0.2c0.3,0,0.6,0,0.8-0.1c20.3-1.3,36-18.7,36-39.8c0.1-15.8-9.1-30.2-23.4-36.7c1.3-3.3,1.9-6.9,1.9-10.4l0.1-16.4
		c0-11.8,9.3-21.4,20.7-21.4s20.7,9.6,20.7,21.4v84.9c0,17.2-14,31.2-31.2,31.2h-7.3v-7.2c0-1.9-1.6-3.5-3.5-3.5s-3.5,1.6-3.5,3.5
		v7.2H84.2v-3.7c0-1.9-1.6-3.5-3.5-3.5s-3.5,1.6-3.5,3.5v3.7L58.6,164.8z"/>
</g>
</svg>
