<?xml version="1.0" encoding="utf-8"?>
<!-- Generator: Adobe Illustrator 25.0.0, SVG Export Plug-In . SVG Version: 6.00 Build 0)  -->
<svg version="1.1" id="Layer_1" xmlns="http://www.w3.org/2000/svg" xmlns:xlink="http://www.w3.org/1999/xlink" x="0px" y="0px"
	 viewBox="0 0 159.9 110" style="enable-background:new 0 0 159.9 110;" xml:space="preserve">
<path d="M126.4,110H33.5C15,110,0,94.7,0,75.9c-0.1-14.5,9.3-27.5,22.8-32.2c-0.9-3.1-1.4-6.4-1.4-9.7c0-18.8,15-34,33.5-34
	c10.4,0,20.3,5,26.5,13.2C86.4,10.5,91.9,9,97.5,9c0,0,0,0,0,0c18.2,0,33,14.8,33.5,33.2c16.6,2.4,29,16.6,28.9,33.7
	C159.9,94.7,144.9,110,126.4,110z M54.9,7C40.3,7,28.4,19.1,28.4,34c0,3.7,0.7,7.3,2.1,10.7c0.4,1,0.4,2-0.1,3
	c-0.5,0.9-1.3,1.6-2.3,1.8C15.8,52.2,6.9,63.3,7,75.9C7,90.9,18.9,103,33.5,103h92.9c14.6,0,26.5-12.1,26.5-27.1
	c0.1-14.5-11.1-26.4-25.6-27c-0.9,0-1.8-0.5-2.5-1.2s-0.9-1.6-0.9-2.6c0.1-0.8,0.1-1.4,0.1-2.1c0-14.9-11.9-27-26.5-27c0,0,0,0,0,0
	c-5.4,0-10.6,1.7-15.1,4.8c-0.8,0.6-1.8,0.8-2.7,0.6c-1-0.2-1.8-0.8-2.3-1.6C72.7,11.9,64.1,7,54.9,7z"/>
</svg>
