<?xml version="1.0" encoding="UTF-8" standalone="no"?>
<svg
   xmlns:dc="http://purl.org/dc/elements/1.1/"
   xmlns:cc="http://creativecommons.org/ns#"
   xmlns:rdf="http://www.w3.org/1999/02/22-rdf-syntax-ns#"
   xmlns:svg="http://www.w3.org/2000/svg"
   xmlns="http://www.w3.org/2000/svg"
   xmlns:sodipodi="http://sodipodi.sourceforge.net/DTD/sodipodi-0.dtd"
   xmlns:inkscape="http://www.inkscape.org/namespaces/inkscape"
   viewBox="0 0 189.90633 159.55003"
   version="1.1"
   id="svg7">
  <g
     id="Layer_10"
     data-name="Layer 10"
     transform="translate(-136.39484,-149.99997)">
    <path
       class="cls-1"
       d="M 326.3,197.78 A 22,22 0 0 0 308.71,176 a 21.93,21.93 0 0 0 -21.66,-20.5 21.14,21.14 0 0 0 -9.4,2.19 21.41,21.41 0 0 0 -16.47,-7.69 22,22 0 0 0 -21.73,22.19 22.43,22.43 0 0 0 0.57,5.06 22.32,22.32 0 0 0 -13.56,20.57 22,22 0 0 0 21.72,22.18 h 2.07 37.58 c 11.12,0 14.76,0 16.05,0 h 0.14 0.55 A 22,22 0 0 0 326.3,197.78 Z M 304.57,213 h -0.77 c -1,0 -9.58,0 -53.55,0 h -2.07 a 15,15 0 0 1 -14.72,-15.18 15.14,15.14 0 0 1 11.69,-14.87 3.5,3.5 0 0 0 2.5,-4.77 15.47,15.47 0 0 1 -1.2,-6 15,15 0 0 1 14.73,-15.18 14.56,14.56 0 0 1 12.5,7.17 3.49,3.49 0 0 0 5,1 14.39,14.39 0 0 1 8.35,-2.68 15,15 0 0 1 14.73,15.19 c 0,0.39 0,0.78 0,1.16 a 3.53,3.53 0 0 0 0.88,2.6 3.48,3.48 0 0 0 2.48,1.16 15.2,15.2 0 0 1 -0.52,30.36 z"
       id="path2" />
    <path
       class="cls-1"
       d="m 166,309.55 h 1.66 c 28.06,0 46.07,0 57.67,0 14.69,0 19.08,0 20.5,0 v 0 h 0.12 0.86 a 29.61,29.61 0 0 0 4.48,-58.87 29.61,29.61 0 0 0 -43.49,-24.94 29.61,29.61 0 0 0 -52.8,18.41 29.86,29.86 0 0 0 1.06,7.9 29.61,29.61 0 0 0 9.93,57.5 z m -4.68,-51.72 a 3.51,3.51 0 0 0 2.5,-4.8 22.61,22.61 0 0 1 40,-20.76 3.51,3.51 0 0 0 5,1 22.61,22.61 0 0 1 35.49,18.58 c 0,0.51 0,1.07 -0.07,1.72 a 3.53,3.53 0 0 0 0.88,2.6 3.49,3.49 0 0 0 2.49,1.16 22.6,22.6 0 0 1 -0.8,45.19 h -1.11 c -2.37,0 -30.64,0 -78,0 h -1.67 a 22.6,22.6 0 0 1 -4.68,-44.72 z"
       id="path4" />
  </g>
</svg>
