<?xml version="1.0" encoding="utf-8"?>
<!-- Generator: Adobe Illustrator 25.0.0, SVG Export Plug-In . SVG Version: 6.00 Build 0)  -->
<svg version="1.1" id="Layer_1" xmlns="http://www.w3.org/2000/svg" xmlns:xlink="http://www.w3.org/1999/xlink" x="0px" y="0px"
	 viewBox="0 0 177.2 177.2" style="enable-background:new 0 0 177.2 177.2;" xml:space="preserve">
<g>
	<path d="M40.8,177.2c-3.3,0-6.5-1.2-8.9-3.4c-3-2.7-4.6-6.6-4.4-10.7l0.4-7.1c0.1-1.7-0.5-3.3-1.6-4.6c-1.1-1.3-2.7-2-4.4-2.1
		c-0.2,0-0.4,0-0.6,0l-7.1,0.4c-3.6,0.2-7-1-9.6-3.4c-2.7-2.4-4.2-5.7-4.4-9.2c-0.2-4,1.4-7.9,4.4-10.6l5.3-4.8
		c2.6-2.4,2.8-6.4,0.5-9c-0.1-0.2-0.3-0.3-0.5-0.5l-5.3-4.7c-2.7-2.4-4.2-5.7-4.4-9.2s1-7,3.4-9.6c2.7-3,6.6-4.6,10.6-4.4l7.1,0.4
		c1.7,0.1,3.3-0.5,4.6-1.6c1.3-1.1,2-2.7,2.1-4.4c0-0.2,0-0.4,0-0.7l-0.4-7.1c-0.2-3.6,1-7,3.4-9.7s5.7-4.2,9.3-4.4
		c4-0.2,7.9,1.4,10.6,4.4l4.7,5.3c2.4,2.6,6.4,2.8,9,0.4c0.2-0.1,0.3-0.3,0.4-0.4l4.7-5.3c2.4-2.7,5.7-4.2,9.3-4.4
		c3.6-0.2,7,1,9.7,3.4c3,2.7,4.6,6.6,4.4,10.6l-0.4,7.1c-0.2,3.5,2.5,6.5,6,6.7c0.2,0,0.5,0,0.7,0l7.1-0.4
		c7.3-0.4,13.7,5.3,14.1,12.6c0.2,4.1-1.4,7.9-4.4,10.7l-5.2,4.7c-1.3,1.1-2,2.7-2.1,4.4c-0.1,1.7,0.5,3.3,1.6,4.6
		c0.1,0.2,0.3,0.3,0.5,0.5l5.3,4.8c2.6,2.4,4.2,5.7,4.4,9.2c0.2,3.6-1,7-3.4,9.7c-2.7,3-6.6,4.6-10.7,4.4l-7.1-0.3
		c-1.7-0.1-3.3,0.5-4.6,1.7c-1.3,1.1-2,2.7-2.1,4.4c0,0.2,0,0.4,0,0.6l0.4,7c0.2,3.6-1,7-3.4,9.6c-2.4,2.7-5.7,4.2-9.2,4.4
		c-4.1,0.2-7.9-1.4-10.6-4.4l-4.7-5.3c-1.1-1.3-2.7-2-4.4-2.1c-1.7-0.1-3.3,0.5-4.6,1.6c-0.2,0.1-0.3,0.3-0.5,0.5l-4.7,5.3
		c-2.4,2.7-5.7,4.2-9.2,4.4C41.3,177.2,41.1,177.2,40.8,177.2z M21.5,142.4c0.2,0,0.5,0,0.7,0c3.6,0.2,6.9,1.7,9.3,4.4
		s3.6,6.1,3.4,9.7l-0.4,7.1c-0.1,1.9,0.7,3.8,2.1,5.1c1.3,1.1,2.9,1.7,4.6,1.6c1.7-0.1,3.3-0.8,4.4-2.1l4.7-5.3c0.3-0.4,0.6-0.7,1-1
		c2.7-2.4,6.1-3.6,9.7-3.4c3.6,0.2,6.9,1.7,9.3,4.4l4.7,5.3c1.3,1.4,3.1,2.2,5.1,2.1c1.7-0.1,3.3-0.8,4.4-2.1
		c1.1-1.3,1.7-2.9,1.6-4.6l-0.4-7.1c0-0.4,0-0.9,0-1.3c0.2-3.6,1.7-6.9,4.4-9.3c2.6-2.4,6.1-3.6,9.6-3.5l7.1,0.3
		c2,0.1,3.8-0.7,5.1-2.1c1.1-1.3,1.7-2.9,1.6-4.6s-0.8-3.3-2.1-4.4l-5.3-4.8c-0.3-0.3-0.7-0.6-1-1c-2.4-2.6-3.6-6.1-3.4-9.6
		c0.2-3.6,1.7-6.9,4.4-9.2l5.2-4.7c1.5-1.3,2.2-3.2,2.1-5.1c-0.2-3.5-3.2-6.2-6.7-6l-7.1,0.4c-0.5,0-1,0-1.5,0
		c-7.3-0.4-13-6.8-12.5-14.1l0.4-7c0.1-1.9-0.7-3.8-2.1-5.1c-1.3-1.1-2.9-1.7-4.6-1.6c-1.7,0.1-3.3,0.8-4.4,2.1l-4.7,5.3
		c-0.3,0.3-0.6,0.6-0.9,0.9c-5.5,5-14,4.6-18.9-0.9c0,0,0,0,0,0l-4.7-5.3c-1.3-1.4-3.1-2.2-5-2.1c-1.7,0.1-3.3,0.8-4.4,2.1
		c-1.1,1.3-1.7,2.9-1.6,4.6l0.4,7.1c0,0.5,0,0.9,0,1.4c-0.2,3.6-1.7,6.8-4.4,9.2c-2.7,2.4-6.1,3.6-9.7,3.4l-7.1-0.4
		c-1.9-0.1-3.8,0.7-5.1,2.1c-1.1,1.3-1.7,2.9-1.6,4.6s0.8,3.3,2.1,4.4l5.3,4.8c0.3,0.3,0.7,0.6,1,1c4.9,5.5,4.5,14-1,18.9l-5.3,4.7
		c-1.4,1.3-2.2,3.1-2.1,5.1c0.1,1.7,0.8,3.3,2.1,4.4c1.3,1.1,2.9,1.7,4.6,1.6l7.1-0.4C21,142.4,21.2,142.4,21.5,142.4z"/>
	<path d="M60.2,134.7c-9.8,0-17.7-7.9-17.7-17.7c0-9.8,7.9-17.7,17.7-17.7s17.7,7.9,17.7,17.7C77.9,126.7,69.9,134.7,60.2,134.7z
		 M60.2,106.3c-5.9,0-10.7,4.8-10.7,10.7s4.8,10.7,10.7,10.7s10.7-4.8,10.7-10.7S66.1,106.3,60.2,106.3z"/>
	<path d="M138.8,44.8c-3.5,0-6.3-2.8-6.3-6.3c0-3.5,2.8-6.3,6.3-6.3c3.5,0,6.3,2.8,6.3,6.3C145.2,41.9,142.3,44.8,138.8,44.8z
		 M138.8,37.8c-0.4,0-0.7,0.3-0.7,0.7c0,0.4,0.3,0.7,0.7,0.7c0.4,0,0.7-0.3,0.7-0.7S139.2,37.8,138.8,37.8z"/>
	<path d="M146.7,76.7c-0.5,0-1,0-1.5-0.1c-2.2-0.4-4.3-1.5-5.7-3.3l-6.6-8.1c-0.6-0.8-1.6-1-2.5-0.7l-9.7,3.7
		c-4.7,1.8-10-0.5-11.9-5.2c-0.8-2.1-0.8-4.5,0-6.6l3.8-9.7c0.3-0.9,0.1-1.9-0.7-2.5l-8.1-6.6c-1.9-1.6-3.1-3.7-3.4-6.2
		c-0.3-2.4,0.5-4.8,2-6.7c1.4-1.8,3.4-2.9,5.7-3.3l10.3-1.6c0.9-0.1,1.7-0.9,1.8-1.8l1.6-10.3c0.4-2.4,1.7-4.6,3.7-6
		c2-1.4,4.4-2,6.8-1.6c2.2,0.4,4.3,1.5,5.7,3.3l6.6,8.2c0.6,0.7,1.6,1,2.5,0.7l9.8-3.8c4.7-1.8,10,0.5,11.9,5.2
		c0.8,2.1,0.8,4.5,0,6.6L165,30c-0.3,0.9-0.1,1.9,0.7,2.5l8.1,6.5c1.9,1.6,3.1,3.8,3.4,6.2c0.3,2.4-0.5,4.8-2,6.7
		c-1.4,1.8-3.4,2.9-5.7,3.3l-10.3,1.6c-1,0.1-1.7,0.9-1.8,1.8L155.7,69c-0.4,2.4-1.7,4.6-3.7,6C150.5,76.1,148.6,76.7,146.7,76.7z
		 M131.3,57.4c2.7,0,5.4,1.2,7.1,3.4l6.6,8.1c0.3,0.4,0.8,0.7,1.3,0.8c0.6,0.1,1.1,0,1.6-0.4c0.5-0.3,0.8-0.8,0.9-1.4l1.6-10.3
		c0.6-4,3.7-7.1,7.7-7.7l10.3-1.6c0.5-0.1,1-0.4,1.3-0.8c0.4-0.5,0.5-1,0.5-1.6c-0.1-0.6-0.3-1.1-0.8-1.5l-8.1-6.5
		c-3.1-2.5-4.3-6.7-2.8-10.5l3.8-9.7c0.2-0.5,0.2-1.1,0-1.6c-0.2-0.5-0.6-1-1.2-1.2c-0.5-0.2-1.1-0.2-1.7,0c0,0,0,0,0,0l-9.8,3.8
		c-3.7,1.4-7.9,0.3-10.5-2.8l-6.5-8.2c-0.3-0.4-0.8-0.7-1.3-0.8c-0.6-0.1-1.1,0-1.6,0.4c-0.5,0.3-0.8,0.8-0.9,1.4l-1.6,10.3
		c-0.6,4-3.7,7-7.7,7.7l-10.3,1.6c-0.5,0.1-1,0.4-1.3,0.8c-0.4,0.5-0.5,1-0.5,1.6c0.1,0.6,0.3,1.1,0.8,1.5l8.1,6.5
		c3.1,2.5,4.3,6.7,2.8,10.5l-3.8,9.7c-0.2,0.5-0.2,1.1,0,1.6c0.4,1.1,1.7,1.7,2.8,1.2L128,58C129,57.6,130.2,57.4,131.3,57.4z
		 M158.2,11.7L158.2,11.7L158.2,11.7z"/>
</g>
</svg>
