<?xml version="1.0" encoding="UTF-8" standalone="no"?>
<svg
   xmlns:dc="http://purl.org/dc/elements/1.1/"
   xmlns:cc="http://creativecommons.org/ns#"
   xmlns:rdf="http://www.w3.org/1999/02/22-rdf-syntax-ns#"
   xmlns:svg="http://www.w3.org/2000/svg"
   xmlns="http://www.w3.org/2000/svg"
   xmlns:sodipodi="http://sodipodi.sourceforge.net/DTD/sodipodi-0.dtd"
   xmlns:inkscape="http://www.inkscape.org/namespaces/inkscape"
   viewBox="0 0 143.01 191.22"
   version="1.1">
  <g
     id="Layer_10"
     data-name="Layer 10"
     transform="translate(-159.87,-134.14)">
    <line
       class="cls-1"
       x1="245.87"
       y1="307.39001"
       x2="245.87"
       y2="282.12"
       id="line6" />
    <polyline
       class="cls-1"
       points="217.02 282.12 217.02 296.63 217.02 307.39"
       id="polyline8" />
    <path
       class="cls-1"
       d="m 231.32,149.32 c -31.21,0 -56.51,26.42 -56.51,59 v 15 c 0,32.59 25.3,59 56.51,59 31.21,0 56.51,-26.41 56.51,-59 v -15 c 0,-32.58 -25.3,-59 -56.51,-59 z"
       id="path10"
       style="fill: transparent;" />
    <path
       class="cls-1"
       d="M 283.49,321.86 C 269.42,296.67 251.93,297.8 251.93,297.8 H 211.1 c 0,0 -17.49,-1.13 -31.56,24.06"
       id="path12" />
    <path
       class="cls-2"
       d="m 256.78,217.7 a 5.5,5.5 0 1 1 -5.5,-5.5 5.5,5.5 0 0 1 5.5,5.5"
       id="path14" />
    <path
       class="cls-2"
       d="m 217.25,217.7 a 5.5,5.5 0 1 1 -5.5,-5.5 5.5,5.5 0 0 1 5.5,5.5"
       id="path16" />
    <path
       class="cls-1"
       d="m 230.28,217.48 v 13 a 2,2 0 0 0 2,2 H 237"
       id="path18" />
    <path
       class="cls-1"
       d="m 221.32,250 a 13.95,13.95 0 0 0 20.39,0"
       id="path20" />
    <path
       class="cls-1"
       d="m 299.27,263.36 v 0 -55.38 c 0,-38.78 -30.44,-70.34 -67.85,-70.34 h -0.2 c -37.41,0 -67.85,31.56 -67.85,70.34 v 55.38 0 43.85 h 27.33 c 10.74,-10 20.4,-9.41 20.4,-9.41 h 6 v -17.38 a 55.11,55.11 0 0 1 -17.73,-8.48 c -0.49,-0.35 -1,-0.71 -1.43,-1.07 -0.43,-0.36 -0.94,-0.73 -1.4,-1.11 -0.46,-0.38 -1.14,-0.94 -1.69,-1.43 l -0.9,-0.82 c -0.65,-0.61 -1.3,-1.21 -1.92,-1.85 -0.07,-0.06 -0.13,-0.13 -0.2,-0.2 A 60.09,60.09 0 0 1 174.92,223.4 c 0,0 0.4,-17.16 0.72,-21 h 0.11 a 71.54,71.54 0 0 0 30.56,-15.31 36.21,36.21 0 0 0 28.78,14.51 h 52 c 0.33,3.87 0.65,21.81 0.65,21.81 a 60.05,60.05 0 0 1 -17,42.18 v 0.05 c -0.65,0.67 -1.33,1.3 -2,1.93 -0.25,0.24 -0.5,0.48 -0.76,0.71 -0.59,0.52 -1.19,1 -1.79,1.51 -0.4,0.33 -0.81,0.66 -1.22,1 -0.41,0.34 -1.05,0.81 -1.58,1.19 a 55,55 0 0 1 -17.35,8.38 v 17.44 h 6 c 0,0 9.66,-0.61 20.4,9.41 h 26.94 z"
       id="path22" />
    <line
       class="cls-1"
       x1="217.02"
       y1="321.85999"
       x2="217.02"
       y2="297.85999"
       id="line24" />
    <line
       class="cls-1"
       x1="245.94"
       y1="321.85999"
       x2="245.94"
       y2="297.85999"
       id="line26" />
  </g>
</svg>
