<?xml version="1.0" encoding="UTF-8" standalone="no"?>
<svg
   xmlns:svg="http://www.w3.org/2000/svg"
   xmlns="http://www.w3.org/2000/svg"
   viewBox="0 0 146.77858 179.6221"
   version="1.1">
  <path
     class="cls-1"
     d="m 112.22858,71.88 a 5.5,5.5 0 1 1 -5.5,-5.5 5.5,5.5 0 0 1 5.5,5.5"
     id="path2" />
  <path
     class="cls-1"
     d="m 72.698584,71.88 a 5.5,5.5 0 1 1 -5.5,-5.5 5.5,5.5 0 0 1 5.5,5.5"
     id="path4" />
  <path
     class="cls-1"
     d="m 146.77858,77.5 v -15 c 0,-34.46 -26.92,-62.5 -59.999996,-62.5 -30.58,0 -55.87,24 -59.54,54.78 a 29.4,29.4 0 1 0 9.84,57.7 60.51,60.51 0 0 0 32,24.73 v 11.27 h -2.41 c -2,-0.08 -20.24,0 -34.69,25.85 a 3.5,3.5 0 1 0 6.11,3.41 c 12.68,-22.71 27.67,-22.29 28.28,-22.27 h 2.71 v 20.55 a 3.5,3.5 0 0 0 7,0 v -14.44 0 -6.09 h 21.85 v 6.09 a 4.17,4.17 0 0 0 0.07,0.71 v 13.73 a 3.5,3.5 0 0 0 6.999996,0 v -20.54 h 2.61 c 0.63,0 15.63,-0.44 28.31,22.26 a 3.5,3.5 0 1 0 6.11,-3.41 c -14.45,-25.88 -32.72,-25.92 -34.69,-25.85 h -2.41 v -11.4 c 24.22,-8.06 41.85,-31.69 41.85,-59.58 z M 86.778584,7 C 112.64858,7 134.22858,26.5 138.85858,52.19 H 90.678584 a 32.62,32.62 0 0 1 -26,-13.13 3.5,3.5 0 0 0 -5,-0.54 68.8,68.8 0 0 1 -24.96,13.5 c 4.71,-25.62 26.25,-45 52.05,-45 z m -57.31,99.49 a 22.4,22.4 0 0 1 -2.68,-44.63 c 0,0.21 0,0.42 0,0.64 v 15 a 64.3,64.3 0 0 0 6.69,28.63 23,23 0 0 1 -4.02,0.36 z m 4.3,-29 v -15 c 0,-1 0,-2 0.08,-3 a 75.46,75.46 0 0 0 27.58,-13.4 39.38,39.38 0 0 0 29.26,13.12 h 48.999996 c 0.06,1.1 0.1,2.2 0.1,3.31 v 15 c 0,30.6 -23.78,55.5 -52.999996,55.5 -29.22,0 -53.03,-24.92 -53.03,-55.52 z m 64.13,71 h -21.86 v -9.47 a 57.57,57.57 0 0 0 10.73,1 58.24,58.24 0 0 0 11.12,-1.09 z"
     id="path6" />
  <path
     class="cls-1"
     d="m 87.728584,90.19 h 4.72 a 3.5,3.5 0 0 0 0,-7 h -3.22 V 71.66 a 3.5,3.5 0 0 0 -7,0 v 13 a 5.39,5.39 0 0 0 5.5,5.53 z"
     id="path8" />
  <path
     class="cls-1"
     d="m 99.718584,106.54 a 3.5020066,3.5020066 0 1 0 -5.11,-4.79 10.46,10.46 0 0 1 -15.29,0 3.5020066,3.5020066 0 1 0 -5.11,4.79 17.47,17.47 0 0 0 25.51,0 z"
     id="path10" />
</svg>
