<?xml version="1.0" encoding="utf-8"?>
<!-- Generator: Adobe Illustrator 25.0.0, SVG Export Plug-In . SVG Version: 6.00 Build 0)  -->
<svg version="1.1" id="Layer_1" xmlns="http://www.w3.org/2000/svg" xmlns:xlink="http://www.w3.org/1999/xlink" x="0px" y="0px"
	 viewBox="0 0 120 179.5" style="enable-background:new 0 0 120 179.5;" xml:space="preserve">
<g>
	<path d="M74.6,147.1c-1.9,0-3.5-1.6-3.5-3.5v-7.3c0-1.9,1.6-3.5,3.5-3.5s3.5,1.6,3.5,3.5v7.3C78.1,145.5,76.6,147.1,74.6,147.1z"/>
	<path d="M45.8,146.3c-1.9,0-3.5-1.6-3.5-3.5v-7.5c0-1.9,1.6-3.5,3.5-3.5s3.5,1.6,3.5,3.5v7.5C49.3,144.7,47.7,146.3,45.8,146.3z"/>
	<path d="M60,140c-33.1,0-60-28-60-62.5v-15C0,28,26.9,0,60,0s60,28,60,62.5v15C120,112,93.1,140,60,140z M60,7
		C30.8,7,7,31.9,7,62.5v15C7,108.1,30.8,133,60,133c29.2,0,53-24.9,53-55.5v-15C113,31.9,89.2,7,60,7z"/>
	<path d="M4.6,60c-1.6,0-3-1.1-3.4-2.7c-0.4-1.9,0.8-3.8,2.6-4.2c10.7-2.4,20.7-7.5,29.1-14.6c0.7-0.6,1.7-0.9,2.7-0.8
		c1,0.1,1.8,0.6,2.4,1.4c6.1,8.1,15.8,13,26,13.1h52c1.9,0,3.5,1.6,3.5,3.5s-1.6,3.5-3.5,3.5H64c-11.2-0.1-21.9-4.9-29.3-13.1
		C26.1,52.7,16,57.5,5.4,59.9C5.2,60,4.9,60,4.6,60z"/>
	<path d="M8.2,179.5c-0.6,0-1.2-0.1-1.7-0.4c-1.7-0.9-2.3-3.1-1.4-4.8c10.5-18.8,23.1-23.9,29.6-25.3c1.9-0.4,3.7,0.8,4.2,2.7
		s-0.8,3.7-2.7,4.2c-5.4,1.2-15.8,5.5-25,21.9C10.7,178.9,9.5,179.5,8.2,179.5z"/>
	<path d="M112.2,179.5c-1.2,0-2.4-0.6-3.1-1.8c-9.5-16.9-20.2-21.1-25.8-22c-1.9-0.3-3.2-2.1-2.9-4c0.3-1.9,2.1-3.2,4-2.9
		c6.8,1.2,19.8,6,30.7,25.5c0.9,1.7,0.3,3.8-1.3,4.8C113.3,179.4,112.8,179.5,112.2,179.5z"/>
	<path d="M85.5,71.9c0,3-2.5,5.5-5.5,5.5s-5.5-2.5-5.5-5.5s2.5-5.5,5.5-5.5S85.5,68.8,85.5,71.9L85.5,71.9"/>
	<path d="M45.9,71.9c0,3-2.5,5.5-5.5,5.5s-5.5-2.5-5.5-5.5s2.5-5.5,5.5-5.5S45.9,68.8,45.9,71.9L45.9,71.9"/>
	<path d="M65.7,90.2H61c-3,0-5.5-2.5-5.5-5.5v-13c0-1.9,1.6-3.5,3.5-3.5c1.9,0,3.5,1.6,3.5,3.5v11.5h3.2c1.9,0,3.5,1.6,3.5,3.5
		S67.6,90.2,65.7,90.2z"/>
	<path d="M60.2,112.1c-0.2,0-0.4,0-0.6,0c-4.7-0.1-9-2.1-12.2-5.5c-1.3-1.4-1.3-3.6,0.2-4.9c1.4-1.3,3.6-1.3,4.9,0.2
		c1.9,2,4.5,3.2,7.3,3.3c2.8,0.1,5.5-0.9,7.5-2.8c0.2-0.1,0.3-0.3,0.5-0.5c1.3-1.4,3.5-1.5,4.9-0.2c1.4,1.3,1.5,3.5,0.2,4.9
		c-0.2,0.3-0.5,0.5-0.8,0.8C68.9,110.4,64.7,112.1,60.2,112.1z"/>
	<path d="M55.5,165.6c-0.5,0-0.9-0.1-1.4-0.3l-20.3-8.6c-0.9-0.4-1.5-1-1.9-1.9c-0.3-0.9-0.3-1.8,0-2.7l4.7-11
		c0.8-1.8,2.8-2.6,4.6-1.9l20.3,8.6c0.9,0.4,1.5,1,1.9,1.9c0.3,0.9,0.3,1.8,0,2.7l-4.7,11C58.2,164.8,56.9,165.6,55.5,165.6z
		 M39.8,151.7l13.9,5.9l2-4.6l-13.9-5.9L39.8,151.7z"/>
	<path d="M64.9,165.7c-1.4,0-2.7-0.8-3.2-2.1l-4.7-11c-0.4-0.9-0.4-1.8,0-2.7c0.3-0.9,1-1.5,1.9-1.9l20.3-8.6
		c1.8-0.8,3.8,0.1,4.6,1.9l4.7,11c0.8,1.8-0.1,3.8-1.9,4.6l-20.3,8.6C65.8,165.6,65.3,165.7,64.9,165.7z M64.8,153l2,4.6l13.9-5.9
		l-2-4.6L64.8,153z"/>
</g>
</svg>
