<?xml version="1.0" encoding="UTF-8" standalone="no"?>
<svg
   xmlns:dc="http://purl.org/dc/elements/1.1/"
   xmlns:cc="http://creativecommons.org/ns#"
   xmlns:rdf="http://www.w3.org/1999/02/22-rdf-syntax-ns#"
   xmlns:svg="http://www.w3.org/2000/svg"
   xmlns="http://www.w3.org/2000/svg"
   xmlns:sodipodi="http://sodipodi.sourceforge.net/DTD/sodipodi-0.dtd"
   xmlns:inkscape="http://www.inkscape.org/namespaces/inkscape"
   viewBox="0 0 199.96099 140.02345"
   version="1.1"
   id="svg9"
   sodipodi:docname="Cow.svg"
   width="199.96098"
   height="140.02345"
   inkscape:version="1.0.2 (e86c870879, 2021-01-15, custom)">
  <g
     id="Layer_10"
     data-name="Layer 10"
     transform="translate(-131.28879,-159.72655)">
    <path
       class="cls-1"
       d="m 304.75,186.52 a 3.51,3.51 0 1 1 -3.51,-3.61 3.56,3.56 0 0 1 3.51,3.61"
       id="path2" />
    <path
       class="cls-1"
       d="m 294.89,186.52 a 3.52,3.52 0 1 1 -3.52,-3.61 3.57,3.57 0 0 1 3.52,3.61"
       id="path4" />
    <path
       class="cls-1"
       d="m 134.82,250.68 a 3.5,3.5 0 0 0 3.5,-3.5 v -35.65 a 10.69,10.69 0 0 1 8,-10.49 23,23 0 0 0 -0.13,2.36 c 0,0.07 0,0.15 0,0.22 l 6,92.85 a 3.5,3.5 0 0 0 3.49,3.28 h 14.07 a 3.5,3.5 0 0 0 3.5,-3.5 v -27.59 a 10.57,10.57 0 0 1 10.48,-10.38 H 232 a 10.24,10.24 0 0 1 10,10.43 l 0.41,26.78 a 3.48,3.48 0 0 0 3.5,3.44 h 12.69 a 3.51,3.51 0 0 0 3.42,-2.76 l 6.57,-30.38 a 3.43,3.43 0 0 0 0.87,-0.75 c 3.21,-4 9.35,-13.33 18.23,-27.73 a 3.51,3.51 0 0 0 0.51,-2 c 5.74,-9.36 11.09,-18.34 13.26,-22 h 15.9 a 13.87,13.87 0 0 0 12.21,-7.4 14.46,14.46 0 0 0 -3.06,-17.47 c -5.46,-5 -23.36,-21.36 -26,-22.91 a 23.6,23.6 0 0 0 -23.17,-0.58 c -0.07,-0.07 -0.13,-0.12 -0.18,-0.18 a 16.33,16.33 0 0 0 -16.51,-4.35 3.53,3.53 0 0 0 -2.36,2.4 17.56,17.56 0 0 0 2.16,14.18 64.52,64.52 0 0 1 -6.57,3.54 l -85,0.16 a 23,23 0 0 0 -20.49,13.05 17.55,17.55 0 0 0 -17.1,17.75 v 35.65 a 3.5,3.5 0 0 0 3.53,3.53 z m 130.73,6.87 a 13.3,13.3 0 0 1 -3.83,-9.36 12.92,12.92 0 0 1 12.66,-13.19 12,12 0 0 1 5.12,1.15 c -6.03,9.76 -11.19,17.73 -13.95,21.4 z m -30.32,-53.23 a 12.16,12.16 0 0 1 -6.59,2 12.84,12.84 0 0 1 -2.64,-0.32 3.51,3.51 0 0 0 -3,0.76 3.6,3.6 0 0 0 -0.37,0.41 3.51,3.51 0 0 0 -0.84,2.49 v 0.18 c 0,0.26 0,0.52 0,0.79 a 13.46,13.46 0 0 1 -2.16,7.34 12.55,12.55 0 0 1 -10.49,5.79 12.92,12.92 0 0 1 -12.66,-13.14 13.5,13.5 0 0 1 0.33,-3 13.27,13.27 0 0 1 2,-4.54 3.28,3.28 0 0 0 0.34,-0.64 3.42,3.42 0 0 0 0.17,-2.12 3.48,3.48 0 0 0 -1.67,-2.25 13.18,13.18 0 0 1 -6.52,-10.31 l 49.06,-0.09 a 13.51,13.51 0 0 1 1.16,5.48 13.26,13.26 0 0 1 -6.12,11.17 z m -66.31,-16.59 h 15.13 a 20.33,20.33 0 0 0 7.21,14.45 20.56,20.56 0 0 0 -1.81,8.45 19.93,19.93 0 0 0 19.66,20.15 19.55,19.55 0 0 0 16.41,-9.06 20.35,20.35 0 0 0 3.08,-8.41 v 0 a 19.17,19.17 0 0 0 10.82,-3.35 20.26,20.26 0 0 0 8.85,-16.81 20.63,20.63 0 0 0 -0.76,-5.54 h 6.75 c 0.84,0 2.58,0 13.31,-6.7 a 3.5,3.5 0 0 0 0.48,-5.59 5.79,5.79 0 0 1 -0.51,-0.48 10.35,10.35 0 0 1 -2.83,-8 9.41,9.41 0 0 1 7.45,2.89 c 4.26,4.41 6.43,2.89 7.22,2.23 a 16.7,16.7 0 0 1 17.58,-0.33 c 1.83,1.18 15.64,13.62 24.86,22.08 v 0 a 7.41,7.41 0 0 1 1.53,9 6.84,6.84 0 0 1 -6,3.67 h -17.9 a 3.51,3.51 0 0 0 -3,1.73 c -4.38,7.43 -9,15.09 -13.3,22.16 a 19.08,19.08 0 0 0 -8.81,-2.18 19.93,19.93 0 0 0 -19.66,20.15 20.26,20.26 0 0 0 7.2,15.54 l -6.1,28.2 h -6.38 l -0.35,-23.27 a 17.23,17.23 0 0 0 -17,-17.38 H 183.7 a 17.67,17.67 0 0 0 -17.48,17.38 v 24.09 h -7.29 l -5.74,-89.46 a 15.92,15.92 0 0 1 15.73,-15.61 z"
       id="path6" />
  </g>
</svg>
