<?xml version="1.0" encoding="UTF-8" standalone="no"?>
<svg
   xmlns:dc="http://purl.org/dc/elements/1.1/"
   xmlns:cc="http://creativecommons.org/ns#"
   xmlns:rdf="http://www.w3.org/1999/02/22-rdf-syntax-ns#"
   xmlns:svg="http://www.w3.org/2000/svg"
   xmlns="http://www.w3.org/2000/svg"
   xmlns:sodipodi="http://sodipodi.sourceforge.net/DTD/sodipodi-0.dtd"
   xmlns:inkscape="http://www.inkscape.org/namespaces/inkscape"
   viewBox="0 0 200.05001 160"
   version="1.1"
   id="svg5"
   sodipodi:docname="Crab.svg"
   width="200.05"
   height="160"
   inkscape:version="1.0.2 (e86c870879, 2021-01-15, custom)">
  <g
     id="Layer_10"
     data-name="Layer 10"
     transform="translate(-131.32,-149.75)">
    <path
       class="cls-1"
       d="m 300.78,149.75 a 3.5,3.5 0 0 0 -3.5,3.5 v 28.58 a 1.66,1.66 0 0 0 -0.16,-0.21 30.28,30.28 0 0 0 -27.12,-10.88 3.5,3.5 0 0 0 -2.84,2.3 29.71,29.71 0 0 0 5.1,28.59 30.39,30.39 0 0 0 23.37,11.11 c 0.66,0 1.33,0 2,-0.07 v 11.63 a 15.38,15.38 0 0 1 -15.23,15.5 3.62,3.62 0 0 0 -1.09,0.19 v -1.74 c 0,-9.86 -5.95,-28.5 -28.5,-28.5 h -1.5 v -3.09 a 3.5,3.5 0 0 0 -7,0 v 3.09 h -26 v -3.09 a 3.5,3.5 0 0 0 -7,0 v 3.09 h -1.5 c -9.85,0 -28.5,5.95 -28.5,28.5 V 240 A 3.5,3.5 0 0 0 180.23,239.81 15.38,15.38 0 0 1 165,224.3 v -11.63 c 0.66,0 1.32,0.07 2,0.07 a 30.36,30.36 0 0 0 23.36,-11.11 29.71,29.71 0 0 0 5.11,-28.63 3.5,3.5 0 0 0 -2.85,-2.3 30.25,30.25 0 0 0 -27.09,10.88 c -0.06,0.06 -0.11,0.14 -0.17,0.21 v -28.54 a 3.5,3.5 0 0 0 -3.5,-3.5 c -16.84,0 -30.54,14.21 -30.54,31.69 0,16.12 11.66,29.45 26.69,31.43 v 11.43 a 22.39,22.39 0 0 0 22.23,22.5 3.5,3.5 0 0 0 1.08,-0.19 v 14.64 a 48.38,48.38 0 0 0 0.54,5.91 22.36,22.36 0 0 0 -20.54,22.14 3.5,3.5 0 0 0 7,0 15.37,15.37 0 0 1 14.94,-15.21 58.31,58.31 0 0 0 4,10.94 22.31,22.31 0 0 0 -15.78,21.22 3.5,3.5 0 0 0 7,0 15.31,15.31 0 0 1 12.52,-14.93 c 6.88,9.9 18.67,18.43 38.87,18.43 h 3 c 0.35,0 25.33,-0.29 39.3,-18.34 a 15.32,15.32 0 0 1 12,14.84 3.5,3.5 0 0 0 7,0 22.3,22.3 0 0 0 -15.12,-21 45,45 0 0 0 4,-11.13 15.36,15.36 0 0 1 14.32,15.18 3.5,3.5 0 0 0 7,0 22.35,22.35 0 0 0 -20.26,-22.12 c 0.17,-1.9 0.26,-3.87 0.26,-5.93 v -14.64 a 3.62,3.62 0 0 0 1.09,0.19 22.39,22.39 0 0 0 22.23,-22.5 v -11.43 c 15,-2 26.68,-15.31 26.68,-31.43 -0.05,-17.44 -13.75,-31.69 -30.59,-31.69 z m -4.51,56 a 23.35,23.35 0 0 1 -18.57,-8.53 22.8,22.8 0 0 1 -4.56,-19.69 23.29,23.29 0 0 1 18.56,8.54 22.77,22.77 0 0 1 4.57,19.66 z M 171,186.05 a 23.26,23.26 0 0 1 18.56,-8.54 22.77,22.77 0 0 1 -4.57,19.69 23.34,23.34 0 0 1 -18.56,8.53 22.74,22.74 0 0 1 4.57,-19.68 z m -32.63,-4.61 c 0,-12.37 8.72,-22.64 20,-24.42 v 33.54 a 3.49,3.49 0 0 0 -0.35,1.51 v 13.71 c -11.16,-1.94 -19.7,-12.11 -19.7,-24.34 z M 268.66,284 a 3.5,3.5 0 0 0 -3.5,3.5 3.63,3.63 0 0 0 0.19,1.1 c -11.84,13.83 -31.35,14.12 -32.53,14.13 h -3 c -16.52,0 -26.47,-6.51 -32.45,-14.37 a 3.44,3.44 0 0 0 -2.84,-4.31 51.11,51.11 0 0 1 -6.21,-22.82 v -23 c 0,-8.85 3.49,-15.12 10.37,-18.65 a 27.94,27.94 0 0 1 11.14,-2.85 h 3.56 a 3.6,3.6 0 0 0 1.43,0.31 3.56,3.56 0 0 0 1.43,-0.31 h 36.57 c 8.85,0 15.12,3.49 18.65,10.37 a 27.76,27.76 0 0 1 2.85,11.13 v 23 c 0,9.67 -2.22,17.08 -5.65,22.77 z m 36,-78.24 v -13.69 a 3.5,3.5 0 0 0 -0.36,-1.51 V 157 c 11.33,1.78 20,12 20,24.42 0,12.42 -8.51,22.42 -19.66,24.36 z"
       id="path2" />
  </g>
</svg>
