<?xml version="1.0" encoding="UTF-8" standalone="no"?>
<svg
   xmlns:dc="http://purl.org/dc/elements/1.1/"
   xmlns:cc="http://creativecommons.org/ns#"
   xmlns:rdf="http://www.w3.org/1999/02/22-rdf-syntax-ns#"
   xmlns:svg="http://www.w3.org/2000/svg"
   xmlns="http://www.w3.org/2000/svg"
   xmlns:sodipodi="http://sodipodi.sourceforge.net/DTD/sodipodi-0.dtd"
   xmlns:inkscape="http://www.inkscape.org/namespaces/inkscape"
   viewBox="0 0 162.11667 140.81122"
   version="1.1"
   id="svg5"
   sodipodi:docname="Cuppa.svg"
   width="162.11667"
   height="140.81122"
   inkscape:version="1.0.2 (e86c870879, 2021-01-15, custom)">
  <g
     id="Layer_10"
     data-name="Layer 10"
     transform="translate(-150.26906,-159.33878)">
    <path
       class="cls-1"
       d="m 150.27,223.67 a 33.89,33.89 0 0 0 33.49,34 l 1.69,12.68 c 2.19,16.44 17.46,29.8 34,29.8 h 45.15 c 16.57,0 31.84,-13.36 34,-29.8 l 13.7,-102.09 a 7.77,7.77 0 0 0 -7.81,-8.92 H 179.64 a 7.76,7.76 0 0 0 -7.81,8.92 l 3,22.66 a 33.78,33.78 0 0 0 -24.56,32.75 z m 95.73,-7.51 11,-9.08 a 2.49,2.49 0 0 1 3.27,0 l 11.06,9.1 a 8,8 0 0 1 2.58,5.47 v 12 c 0,0.51 0,1.44 -1.5,1.5 h -27.53 c -0.5,0 -1.44,0 -1.5,-1.5 v -12 A 8,8 0 0 1 246,216.16 Z M 178.93,166.6 a 0.94,0.94 0 0 1 0.71,-0.26 h 75.52 v 33.78 a 9.92,9.92 0 0 0 -2.59,1.56 l -11,9.09 c -0.21,0.18 -5.14,4.31 -5.14,10.88 v 12 c 0,3.42 2.27,8.5 8.5,8.5 h 27.55 c 3.42,0 8.5,-2.26 8.5,-8.5 v -12 a 15.14,15.14 0 0 0 -5.13,-10.88 l -11.06,-9.1 a 10.33,10.33 0 0 0 -2.58,-1.48 v -33.85 h 42.33 a 0.78,0.78 0 0 1 0.87,1 l -13.67,102.09 c -1.75,13.08 -13.9,23.72 -27.1,23.72 h -45.15 c -13.2,0 -25.36,-10.64 -27.1,-23.72 L 178.77,167.34 a 0.92,0.92 0 0 1 0.16,-0.74 z m -3.14,31.4 7,52.7 a 27.06,27.06 0 0 1 -7,-52.7 z"
       id="path2" />
  </g>
</svg>
