<?xml version="1.0" encoding="UTF-8" standalone="no"?>
<svg
   xmlns:dc="http://purl.org/dc/elements/1.1/"
   xmlns:cc="http://creativecommons.org/ns#"
   xmlns:rdf="http://www.w3.org/1999/02/22-rdf-syntax-ns#"
   xmlns:svg="http://www.w3.org/2000/svg"
   xmlns="http://www.w3.org/2000/svg"
   xmlns:sodipodi="http://sodipodi.sourceforge.net/DTD/sodipodi-0.dtd"
   xmlns:inkscape="http://www.inkscape.org/namespaces/inkscape"
   viewBox="0 0 182 157.14023"
   version="1.1"
   id="svg11"
   sodipodi:docname="Cycling.svg"
   width="182"
   height="157.14023"
   inkscape:version="1.0.2 (e86c870879, 2021-01-15, custom)">
  <g
     id="Layer_10"
     data-name="Layer 10"
     transform="translate(-140.32,-151.1398)">
    <path
       class="cls-1"
       d="m 170.32,307.91 a 30,30 0 1 0 -30,-30 30,30 0 0 0 30,30 z m 0,-53 a 23,23 0 1 1 -23,23 23,23 0 0 1 23,-23 z"
       id="path2" />
    <path
       class="cls-1"
       d="m 273,151.14 v 0 A 20,20 0 1 0 287.18,157 19.87,19.87 0 0 0 273,151.14 Z m 9.21,29.2 a 13,13 0 0 1 -22.2,-9.22 13,13 0 0 1 13,-13 v 0 a 13,13 0 0 1 9.22,22.2 z"
       id="path4" />
    <path
       class="cls-1"
       d="m 223.55,266 -15.46,19 a 14.44,14.44 0 0 0 2.09,20.28 13.36,13.36 0 0 0 8.46,3 c 0.39,0 0.79,0 1.19,-0.05 h 0.2 a 13.37,13.37 0 0 0 9,-4.87 l 25.07,-30.49 a 9.7,9.7 0 0 0 0.33,-11.94 l -17.53,-23.7 12.33,-12.34 a 41.9,41.9 0 0 0 27.89,10.55 h 14.22 a 11.12,11.12 0 0 0 0,-22.24 h -14.19 a 20,20 0 0 1 -14.08,-5.82 19.94,19.94 0 0 0 -3.32,-17.38 3.88,3.88 0 0 0 -0.44,-0.51 l -2.29,-2.3 a 5.47,5.47 0 0 0 -0.46,-0.4 20,20 0 0 0 -26.22,1.73 l -24.71,24.17 a 20,20 0 0 0 -1.76,26.25 z m 53.6,-45.79 h 14.22 a 4.12,4.12 0 0 1 0,8.24 H 277.15 A 35,35 0 0 1 254.22,220 l 3.75,-3.75 a 18.48,18.48 0 0 0 1.91,-2.25 27,27 0 0 0 17.27,6.23 z m -66.6,-2.56 24.71,-24.17 a 13,13 0 0 1 16.94,-1.23 l 2,2 a 13,13 0 0 1 -1.2,17.01 l -22.56,22.57 a 4.52,4.52 0 0 0 -0.44,5.86 l 18.8,25.42 a 2.72,2.72 0 0 1 -0.09,3.34 L 223.64,299 a 6.37,6.37 0 0 1 -4.24,2.33 h -0.19 a 6.41,6.41 0 0 1 -4.61,-1.42 7.44,7.44 0 0 1 -1.08,-10.44 l 16.68,-20.51 a 4.52,4.52 0 0 0 0.15,-5.48 l -20.88,-28.71 a 13,13 0 0 1 1.08,-17.1 z"
       id="path6" />
    <path
       class="cls-1"
       d="m 292.32,247.91 a 30,30 0 1 0 30,30 30,30 0 0 0 -30,-30 z m 0,53 a 23,23 0 1 1 23,-23 23,23 0 0 1 -23,23 z"
       id="path8" />
  </g>
</svg>
