<?xml version="1.0" encoding="utf-8"?>
<!-- Generator: Adobe Illustrator 25.0.0, SVG Export Plug-In . SVG Version: 6.00 Build 0)  -->
<svg version="1.1" id="Layer_1" xmlns="http://www.w3.org/2000/svg" xmlns:xlink="http://www.w3.org/1999/xlink" x="0px" y="0px"
	 viewBox="0 0 180 148.2" style="enable-background:new 0 0 180 148.2;" xml:space="preserve">
<g>
	<path d="M161.5,148.2h-143C3.9,148.2,0,136.1,0,129.7v-103C0,12,12.1,8.2,18.5,8.2h143c14.6,0,18.5,12.1,18.5,18.5v103
		C180,144.3,167.9,148.2,161.5,148.2z M18.5,15.2C17.3,15.2,7,15.6,7,26.7v103c0,1.2,0.4,11.5,11.5,11.5h143
		c1.2,0,11.5-0.5,11.5-11.5v-103c0-1.2-0.4-11.5-11.5-11.5H18.5z"/>
	<path d="M176.5,50.9H3.5c-1.9,0-3.5-1.6-3.5-3.5s1.6-3.5,3.5-3.5h172.9c1.9,0,3.5,1.6,3.5,3.5S178.4,50.9,176.5,50.9z"/>
	<path d="M79,119.8c-0.9,0-1.8-0.3-2.5-1L53.4,95.7c-1.4-1.4-1.4-3.6,0-4.9c1.4-1.4,3.6-1.4,4.9,0L79,111.3l42.7-42.5
		c1.4-1.4,3.6-1.4,4.9,0c1.4,1.4,1.4,3.6,0,4.9l-45.2,45C80.8,119.5,79.9,119.8,79,119.8z"/>
	<path d="M31,22c-1.9,0-3.5-1.6-3.5-3.5v-15C27.5,1.6,29.1,0,31,0s3.5,1.6,3.5,3.5v15C34.5,20.4,32.9,22,31,22z"/>
	<path d="M119.5,22c-1.9,0-3.5-1.6-3.5-3.5v-15c0-1.9,1.6-3.5,3.5-3.5s3.5,1.6,3.5,3.5v15C123,20.4,121.4,22,119.5,22z"/>
	<path d="M90,22c-1.9,0-3.5-1.6-3.5-3.5v-15C86.5,1.6,88.1,0,90,0s3.5,1.6,3.5,3.5v15C93.5,20.4,91.9,22,90,22z"/>
	<path d="M60.5,22c-1.9,0-3.5-1.6-3.5-3.5v-15C57,1.6,58.6,0,60.5,0S64,1.6,64,3.5v15C64,20.4,62.4,22,60.5,22z"/>
	<path d="M149,22c-1.9,0-3.5-1.6-3.5-3.5v-15c0-1.9,1.6-3.5,3.5-3.5s3.5,1.6,3.5,3.5v15C152.5,20.4,150.9,22,149,22z"/>
</g>
</svg>
