<?xml version="1.0" encoding="utf-8"?>
<!-- Generator: Adobe Illustrator 25.0.0, SVG Export Plug-In . SVG Version: 6.00 Build 0)  -->
<svg version="1.1" id="Layer_1" xmlns="http://www.w3.org/2000/svg" xmlns:xlink="http://www.w3.org/1999/xlink" x="0px" y="0px"
	 viewBox="0 0 199.8 121.7" style="enable-background:new 0 0 199.8 121.7;" xml:space="preserve">
<g id="Layer_10">
	<path d="M20.6,89.6c-5.4,0-9.7,4.4-9.7,9.7s4.4,9.7,9.7,9.7s9.7-4.4,9.7-9.7C30.3,94,26,89.6,20.6,89.6z M20.6,102.1
		c-1.5,0-2.7-1.2-2.7-2.7s1.2-2.7,2.7-2.7s2.7,1.2,2.7,2.7S22.1,102.1,20.6,102.1L20.6,102.1z"/>
	<path d="M70,89.6c-5.4,0-9.7,4.4-9.7,9.7s4.4,9.7,9.7,9.7s9.7-4.4,9.7-9.7C79.7,94,75.3,89.6,70,89.6z M70,102.1
		c-1.5,0-2.7-1.2-2.7-2.7s1.2-2.7,2.7-2.7s2.7,1.2,2.7,2.7C72.7,100.8,71.5,102.1,70,102.1C70,102.1,70,102.1,70,102.1L70,102.1z"/>
	<path d="M119.3,89.6c-5.4,0-9.7,4.4-9.7,9.7s4.4,9.7,9.7,9.7c5.4,0,9.7-4.4,9.7-9.7C129,94,124.7,89.6,119.3,89.6z M119.3,102.1
		c-1.5,0-2.7-1.2-2.7-2.7s1.2-2.7,2.7-2.7s2.7,1.2,2.7,2.7C122,100.8,120.8,102.1,119.3,102.1C119.3,102.1,119.3,102.1,119.3,102.1
		L119.3,102.1z"/>
	<path d="M182,80.1l-9.5-29.8c0-0.1-0.1-0.2-0.1-0.3c-0.1-0.2-0.1-0.3-0.2-0.4L153.7,12c-1.1-1.6-3.1-2.3-5-1.7l-35.9,14.8l-1.4-3.2
		l0,0l-4.4-9.8c0-0.1-0.1-0.2-0.1-0.3C102.4,4,97,0,90.8,0H68.4C61,0,54.9,6.1,54.9,13.5v34c-6.8,0-16.6,0-25.2,0
		c-5.1,0-9.9,0-13.3,0.1c-1.7,0-3.1,0-4.1,0.1c-0.8,0-1.6,0.1-2.4,0.2l0,0c-5.2,1.5-9.1,5.9-9.7,11.3C0,59.5,0,59.9,0,60.2v13.2
		c0,4.3,2.1,8.3,5.5,10.9C2.4,87.2,0,91.5,0,98v2.8c0,6.4,3.9,18.5,18.5,18.5h102.9c6.4,0,18.5-3.9,18.5-18.5V98
		c0-5.1-2-9.9-5.4-13.6c3.4-2.5,5.4-6.6,5.4-10.8V61.1c0-7.5-6.1-13.5-13.5-13.5h-3.6l-7.2-16.1l22.2-9.1l11.7,36.5l0,0l0,0
		c0.1,0.2,0.2,0.4,0.3,0.6L162,84.3c-8.7,8.2-13,25.1-14.6,32.6c-0.2,1,0,2.1,0.7,2.9c0.7,0.8,1.6,1.3,2.7,1.3l40.1,0.5l0,0
		c0.9,0,1.8-0.4,2.4-1c7.5-7.2,8.6-19.5,2.7-29.4C192.8,86,187.9,82,182,80.1z M107,29.4c-0.1,0.6,0,1.2,0.2,1.7
		c0.3,0.6,0.7,1.1,1.2,1.5l6.6,14.9H81.9c-0.5,0-1-0.1-1.4-0.3V27.1c0.4-0.2,0.9-0.3,1.4-0.3h24L107,29.4z M132.9,100.7
		c0,11.1-10.3,11.5-11.5,11.5H18.5C7.4,112.2,7,101.9,7,100.7v-2.8c0-7.5,4.7-10.1,8.2-11c6.5,0,31.3,0,56.1,0
		c14.4,0,28.9,0,39.7-0.1c5.4,0,9.9,0,13.1-0.1h0.4c8,1.7,8.4,10.1,8.4,11.2L132.9,100.7z M132.9,61.1v12.4c0,2.8-1.8,5.3-4.5,6.2
		c-0.5,0-1.7,0-3.2,0c-1.3-0.2-2.6-0.3-3.9-0.3H18.5c-1.4,0-2.8,0.2-4.2,0.5h-0.8c-3.6,0-6.5-2.9-6.5-6.5V60.7c0-0.1,0-0.3,0.1-0.4
		c0.2-2.6,1.9-4.9,4.4-5.7c2.8-0.1,20.5-0.2,46.9-0.2c1.9,0,3.5-1.6,3.5-3.5V13.5c0-3.6,2.9-6.5,6.5-6.5h22.4c3.5,0,6.7,2.7,9.8,8.1
		l2.1,4.7H81.9c-5.6,0-8.4,3.6-8.4,7.2v20.4c0,3.6,2.9,7.2,8.4,7.2H120c0.2,0,0.4,0,0.5,0h5.9C130,54.6,132.9,57.5,132.9,61.1
		C132.9,61.1,132.9,61.1,132.9,61.1L132.9,61.1z M144.4,19.8l4.5-1.8l17.1,34.6l8.4,26.4c-2.2,0.1-4.4,0.6-6.4,1.4l-11.9-24.1
		L144.4,19.8z M189.5,114.7l-34.2-0.5c2.7-10.9,7.4-22.5,13.5-26.3c3.1-1.8,6.8-2.3,10.2-1.4c4.7,1.2,8.6,4.3,11,8.5l0,0
		C194,101.6,193.7,109.6,189.5,114.7L189.5,114.7z"/>
</g>
</svg>
