<?xml version="1.0" encoding="utf-8"?>
<!-- Generator: Adobe Illustrator 25.0.0, SVG Export Plug-In . SVG Version: 6.00 Build 0)  -->
<svg version="1.1" id="Layer_1" xmlns="http://www.w3.org/2000/svg" xmlns:xlink="http://www.w3.org/1999/xlink" x="0px" y="0px"
	 viewBox="0 0 137.6 175.2" style="enable-background:new 0 0 137.6 175.2;" xml:space="preserve">
<g>
	<path d="M62.8,46.6c-13.3,0-24.1-10.5-24.1-23.3S49.5,0,62.8,0C76.2,0,87,10.5,87,23.3S76.2,46.6,62.8,46.6z M62.8,6.6
		c-9.7,0-17.5,7.5-17.5,16.7S53.2,40,62.8,40s17.5-7.5,17.5-16.7S72.5,6.6,62.8,6.6z"/>
	<path d="M122.4,175.2c-5.3,0-10.5-2.8-13.4-7.7c-0.1-0.1-0.2-0.3-0.3-0.4l-13.6-26.2H62.8c-0.1,0-0.2,0-0.3,0
		c-8,0-14.7-6.5-14.9-14.7l0-57.2c0.1-4.2,1.8-7.9,4.8-10.7c3-2.8,6.8-4.3,10.9-4.1c8,0.2,14.5,6.7,14.8,14.8l0,42.5h26.5
		c0.1,0,0.1,0,0.2,0c5.6,0,10.8,3.1,13.4,8l17.9,34.3c1.8,3.5,2.1,7.4,0.9,11.1c-1.2,3.7-3.7,6.7-7.2,8.5c-0.2,0.1-0.4,0.2-0.6,0.3
		C127,174.7,124.7,175.2,122.4,175.2z M114.5,163.7c0.1,0.1,0.1,0.2,0.2,0.3c2.3,4.2,7.4,5.8,11.7,3.7c0.2-0.1,0.3-0.1,0.4-0.2
		c1.9-1,3.3-2.6,3.9-4.6c0.6-2,0.5-4.2-0.5-6l-17.8-34.3c-1.5-2.8-4.4-4.5-7.6-4.5c0,0-0.1,0-0.1,0H74.7c-1.8,0-3.3-1.5-3.3-3.3V69
		c-0.1-4.5-3.8-8.1-8.4-8.3c-2.3-0.1-4.5,0.8-6.2,2.3c-1.7,1.6-2.6,3.7-2.7,6l0,57c0.1,4.5,3.9,8.2,8.5,8.1l34.4,0
		c1.2,0,2.4,0.7,2.9,1.8L114.5,163.7z"/>
	<path d="M51,175.1c-17.6,0-34.7-8.8-44.2-24.4c-6.7-11.2-8.6-24.3-5.2-36.8C5.1,101,13.6,90.3,25.5,83.7c1.6-0.9,3.6-0.3,4.5,1.3
		c0.9,1.6,0.3,3.6-1.3,4.5C18.3,95.2,11,104.5,8,115.6c-2.9,10.8-1.3,22,4.5,31.7c12.2,20.3,39.4,27.3,60.6,15.5
		c1.6-0.9,3.6-0.3,4.5,1.3c0.9,1.6,0.3,3.6-1.3,4.5C68.4,173,59.7,175.1,51,175.1z"/>
</g>
</svg>
