<?xml version="1.0" encoding="utf-8"?>
<!-- Generator: Adobe Illustrator 25.0.0, SVG Export Plug-In . SVG Version: 6.00 Build 0)  -->
<svg version="1.1" id="Layer_1" xmlns="http://www.w3.org/2000/svg" xmlns:xlink="http://www.w3.org/1999/xlink" x="0px" y="0px"
	 viewBox="0 0 200 160.7" style="enable-background:new 0 0 200 160.7;" xml:space="preserve">
<g>
	<path d="M36,160.7H19c-1.8,0-3.3-1.3-3.5-3.1c-0.2-2.1-5.8-50.5-5.8-64.6C9.6,77,22.6,64,38.5,63.9h48l0.4,0c0.1,0,0.2,0,0.3,0
		c17.7,0,32.1-13.3,32.1-29.7V34c0-1.2,0.1-2.3,0.2-3.4v-0.3c0-0.4,0.1-0.8,0.2-1.1c1.1-7.3,4.5-14.1,9.9-19.3
		c6.5-6.4,15.2-9.9,24.3-9.8c15,0.1,28,9.8,32.4,24.1h2.9c6,0.2,10.8,5.1,10.6,11.1l0,8.6c0,10.8-8.5,19.6-18.9,19.6h-5.8l-3,14.6
		c-0.4,1.9-2.2,3.1-4.1,2.7c-1.9-0.4-3.1-2.2-2.7-4.1l3.6-17.4c0.3-1.6,1.8-2.8,3.4-2.8h8.7c6.5,0,11.9-5.7,11.9-12.6v-8.7
		c0.1-2.2-1.6-3.9-3.7-4l-6.2,0c-1.9,0-3.5-1.6-3.5-3.5v-1.8C176,14.6,165.7,7.1,153.9,7c-7.2-0.1-14.2,2.7-19.4,7.8
		c-4.5,4.4-7.2,10-8,16.1v10.8c0,0.5,0.3,0.8,0.7,0.8l4.7,0c3-0.1,5.5-2.7,5.4-5.8l0-11.3c0-1.9,1.6-3.5,3.5-3.5s3.5,1.6,3.5,3.5
		v11.2c0.2,6.9-5.4,12.7-12.3,12.8l-4.8,0c-1.4,0-2.8-0.5-3.9-1.2c-5.9,13.1-19.8,22.3-35.9,22.4l-0.4,0c-0.1,0-0.2,0-0.3,0H38.5
		C26.5,71,16.7,80.9,16.7,93c0,11.8,4.1,49.6,5.4,60.7h10.4v-15.8c0-11.5,10-21.3,21.8-21.3h63.3c11.7,0,21.3,9.5,21.3,21.2
		l0.4,14.8h10.4L161.5,96c0.4-1.9,2.2-3.1,4.1-2.7c1.9,0.4,3.1,2.2,2.7,4.1l-12.2,59.5c-0.3,1.6-1.8,2.8-3.4,2.8H136
		c-1.9,0-3.4-1.5-3.5-3.4L132,138c0,0,0-0.1,0-0.1c0-7.9-6.4-14.3-14.3-14.3H54.3c-8,0-14.8,6.5-14.8,14.3v19.3
		C39.5,159.1,37.9,160.7,36,160.7z"/>
	<path d="M166.2,100.3L166.2,100.3c-3.6,0-6.9-1.4-9.5-3.9c-2.5-2.5-3.9-5.9-3.9-9.5c0-7.4,6-13.4,13.4-13.4s13.4,6,13.4,13.4
		S173.6,100.3,166.2,100.3z M166.2,80.6c-3.5,0-6.4,2.9-6.4,6.4c0,1.7,0.7,3.3,1.9,4.5c1.2,1.2,2.8,1.9,4.5,1.9l0,3.5v-3.5
		c3.5,0,6.4-2.9,6.4-6.4S169.7,80.6,166.2,80.6z"/>
	<path d="M161.8,80.6c-0.5,0-1.1-0.1-1.6-0.4l-42.2-21c-1.7-0.9-2.4-3-1.6-4.7s3-2.4,4.7-1.6l42.2,21c1.7,0.9,2.4,3,1.6,4.7
		C164.3,79.9,163.1,80.6,161.8,80.6z"/>
	<path d="M174.1,27.9c0,2-1.6,3.5-3.5,3.5s-3.5-1.6-3.5-3.5c0-2,1.6-3.5,3.5-3.5c0,0,0,0,0,0C172.5,24.4,174.1,26,174.1,27.9"/>
	<path d="M164.1,27.9c0,2-1.6,3.5-3.5,3.5c-2,0-3.5-1.6-3.5-3.5c0-2,1.6-3.5,3.5-3.5S164.1,26,164.1,27.9L164.1,27.9"/>
	<path d="M21.7,76.2C9.7,76.2,0,66.5,0,54.6C0,52.6,1.6,51,3.5,51c0,0,0,0,0,0C5.4,51,7,52.6,7,54.5c0,8.1,6.6,14.7,14.7,14.7
		c0,0,0,0,0,0L21.7,76.2C21.7,76.2,21.7,76.2,21.7,76.2z"/>
</g>
</svg>
