<?xml version="1.0" encoding="utf-8"?>
<!-- Generator: Adobe Illustrator 25.0.0, SVG Export Plug-In . SVG Version: 6.00 Build 0)  -->
<svg version="1.1" id="Layer_1" xmlns="http://www.w3.org/2000/svg" xmlns:xlink="http://www.w3.org/1999/xlink" x="0px" y="0px"
	 viewBox="0 0 150.5 150.5" style="enable-background:new 0 0 150.5 150.5;" xml:space="preserve">
<g id="Layer_10">
	<path d="M150.5,75.2C150.5,33.7,116.8,0,75.2,0S0,33.7,0,75.2c0,41.6,33.7,75.2,75.2,75.2C116.8,150.4,150.4,116.8,150.5,75.2z
		 M75.2,143.5C37.6,143.5,7,112.9,7,75.2S37.6,7,75.2,7s68.2,30.6,68.2,68.2v0C143.4,112.9,112.9,143.4,75.2,143.5z"/>
	<path d="M125.5,55.6c-0.9-0.6-1.4-1.8-1.1-2.9c1.6-7.7-0.6-15.8-6.1-21.5c-5.5-5.6-13.5-8-21.1-6.3c-1,0.2-2.1-0.2-2.7-1.2
		c-6.4-10.6-20.3-14-30.9-7.5c-3.1,1.9-5.7,4.5-7.5,7.5c-0.5,0.9-1.6,1.4-2.7,1.1c-1.6-0.4-3.3-0.6-5-0.6c-6.1,0-11.9,2.5-16.1,6.8
		C26.8,37,24.5,45,26.1,52.7c0.2,1.1-0.2,2.3-1.2,2.9c-10.8,7.2-13.8,21.8-6.6,32.6c1.7,2.6,4,4.8,6.6,6.6c0.9,0.6,1.4,1.8,1.2,2.9
		c-1.6,7.7,0.6,15.7,6.1,21.4c5.4,5.6,13.5,8,21.1,6.3c1-0.2,2.1,0.2,2.7,1.2c6.4,10.6,20.3,14,30.9,7.5c3.1-1.9,5.7-4.5,7.5-7.5
		c0.6-0.9,1.6-1.4,2.7-1.2c7.6,1.7,15.7-0.6,21.1-6.3c5.4-5.7,7.7-13.7,6.1-21.4c-0.2-1.1,0.2-2.3,1.1-2.9
		c10.8-7.2,13.8-21.8,6.6-32.6C130.3,59.6,128.1,57.4,125.5,55.6L125.5,55.6z M121.6,89c-3.3,2.2-5,6.3-4.2,10.2
		c1.2,5.4-0.4,11.1-4.2,15.1c-2.9,3-6.9,4.7-11.1,4.7c-1.2,0-2.3-0.1-3.4-0.4c-0.7-0.2-1.4-0.2-2.1-0.2c-3.3,0-6.4,1.7-8.1,4.5
		c-4.4,7.3-13.9,9.7-21.3,5.3c-2.2-1.3-4-3.1-5.3-5.3c-1.7-2.8-4.8-4.5-8-4.5c-0.7,0-1.4,0.1-2.1,0.2c-1.1,0.3-2.3,0.4-3.4,0.4
		c-4.2,0-8.2-1.7-11.1-4.7c-3.8-4-5.4-9.7-4.3-15.1c0.8-3.9-0.8-8-4.2-10.2c-7.6-5.1-9.6-15.3-4.6-22.9c1.2-1.8,2.8-3.4,4.6-4.6
		c3.4-2.2,5-6.3,4.2-10.2c-1.2-5.4,0.4-11.1,4.3-15.1c2.9-3,6.9-4.7,11.1-4.7c1.2,0,2.3,0.1,3.4,0.4c0.7,0.2,1.4,0.2,2.1,0.2
		c3.3,0,6.3-1.8,8-4.6c4.4-7.3,13.9-9.7,21.3-5.3c2.2,1.3,4,3.1,5.3,5.3c1.7,2.8,4.8,4.5,8.1,4.5c0.7,0,1.4-0.1,2.1-0.2
		c5.3-1.2,10.8,0.5,14.5,4.4c3.8,4,5.4,9.7,4.2,15.1c-0.8,4,0.8,8,4.2,10.3c7.6,5.1,9.7,15.3,4.6,22.9C125,86.2,123.4,87.8,121.6,89
		z"/>
	<path d="M75.2,55.8c-10.7,0-19.4,8.7-19.4,19.4s8.7,19.4,19.4,19.4c10.7,0,19.4-8.7,19.4-19.4C94.6,64.5,85.9,55.9,75.2,55.8z
		 M75.2,87.6c-6.8,0-12.4-5.5-12.4-12.4c0-6.8,5.5-12.4,12.4-12.4c6.8,0,12.4,5.5,12.4,12.4C87.6,82.1,82.1,87.6,75.2,87.6
		L75.2,87.6z"/>
</g>
</svg>
