<?xml version="1.0" encoding="UTF-8" standalone="no"?>
<svg
   xmlns:dc="http://purl.org/dc/elements/1.1/"
   xmlns:cc="http://creativecommons.org/ns#"
   xmlns:rdf="http://www.w3.org/1999/02/22-rdf-syntax-ns#"
   xmlns:svg="http://www.w3.org/2000/svg"
   xmlns="http://www.w3.org/2000/svg"
   xmlns:sodipodi="http://sodipodi.sourceforge.net/DTD/sodipodi-0.dtd"
   xmlns:inkscape="http://www.inkscape.org/namespaces/inkscape"
   viewBox="0 0 175.91616 185.28157"
   version="1.1"
   id="svg5"
   sodipodi:docname="Drink.svg"
   width="175.91615"
   height="185.28157"
   inkscape:version="1.0.2 (e86c870879, 2021-01-15, custom)">
  <g
     id="Layer_10"
     data-name="Layer 10"
     transform="translate(-143.38506,-137.11879)">
    <path
       class="cls-1"
       d="m 286.44,163.29 31.23,-19.71 a 3.5012141,3.5012141 0 1 0 -3.74,-5.92 l -31.22,19.71 a 34.22,34.22 0 0 0 -15.92,23.41 l -0.26,1.62 h -64 a 30,30 0 1 0 -29.44,37.11 l 15,94.09 a 10.34,10.34 0 0 0 10.31,8.8 h 61 a 10.32,10.32 0 0 0 10.29,-8.81 l 12.29,-78.92 a 3.66,3.66 0 0 0 0.25,-1.29 c 0,-0.06 0,-0.13 0,-0.19 L 288.56,192 c 0,-0.11 0,-0.22 0,-0.32 a 8.46,8.46 0 0 0 -2.3,-6.41 9.12,9.12 0 0 0 -6.64,-2.82 h -6 l 0.08,-0.53 a 26.93,26.93 0 0 1 12.74,-18.63 z m -21,26.11 -6.44,40.48 H 182.66 A 3.35,3.35 0 0 0 181.81,230 L 180,218.76 a 30,30 0 0 0 23.33,-29.24 c 0,0 0,-0.08 0,-0.12 z m -89.82,1.66 A 1.53,1.53 0 0 1 176,190 a 2.07,2.07 0 0 1 1.54,-0.6 h 18.78 c 0,0 0,0.08 0,0.12 a 23,23 0 0 1 -17.43,22.32 z m -25.26,-1.54 a 23,23 0 0 1 44.86,-7.12 h -17.66 a 9.12,9.12 0 0 0 -6.65,2.82 8.47,8.47 0 0 0 -2.28,6.42 c 0,0.1 0,0.21 0,0.32 l 3.26,20.51 a 23,23 0 0 1 -21.54,-22.95 z m 112.35,123 a 3.31,3.31 0 0 1 -3.41,2.89 h -61 a 3.33,3.33 0 0 1 -3.4,-2.9 l -12,-75.62 h 75 l -10.77,68 a 3.5026597,3.5026597 0 1 0 6.92,1.09 L 265,236.88 h 9.49 z M 279.65,189.4 a 2.09,2.09 0 0 1 1.54,0.61 1.54,1.54 0 0 1 0.42,1.06 l -6,38.81 h -9.51 l 6.41,-40.48 z"
       id="path2" />
  </g>
</svg>
