<?xml version="1.0" encoding="UTF-8" standalone="no"?>
<svg
   xmlns:dc="http://purl.org/dc/elements/1.1/"
   xmlns:cc="http://creativecommons.org/ns#"
   xmlns:rdf="http://www.w3.org/1999/02/22-rdf-syntax-ns#"
   xmlns:svg="http://www.w3.org/2000/svg"
   xmlns="http://www.w3.org/2000/svg"
   xmlns:sodipodi="http://sodipodi.sourceforge.net/DTD/sodipodi-0.dtd"
   xmlns:inkscape="http://www.inkscape.org/namespaces/inkscape"
   viewBox="0 0 160.05318 160"
   version="1.1"
   id="svg5"
   sodipodi:docname="Earth.svg"
   width="160.05318"
   height="160"
   inkscape:version="1.0.2 (e86c870879, 2021-01-15, custom)">
  <g
     id="Layer_10"
     data-name="Layer 10"
     transform="translate(-151.324,-149.72)">
    <path
       class="cls-1"
       d="m 231.32,149.76 a 79.85,79.85 0 0 0 -79.47,89 2.3,2.3 0 0 0 0,0.26 3.28,3.28 0 0 0 0.21,1.13 80,80 0 1 0 79.29,-90.43 z m 71.65,66 h -28.7 a 7.81,7.81 0 0 0 -7.8,7.8 v 4.51 a 7.81,7.81 0 0 0 7.8,7.8 h 13.8 a 4.36,4.36 0 1 1 0,8.72 h -0.2 l -1.07,0.06 a 11.08,11.08 0 0 0 -11,11.06 v 10 a 11.72,11.72 0 1 1 -23.43,0 v -17.56 a 11.09,11.09 0 0 0 -11.08,-11.07 h -7 a 13.76,13.76 0 0 1 0,-27.52 h 31.83 a 11.07,11.07 0 1 0 0,-22.13 h -38.37 a 4.07,4.07 0 0 1 -4.07,-4.07 c 0,-0.68 0.16,-4.07 3.21,-4.07 h 17.87 a 11.07,11.07 0 0 0 11.07,-11.07 V 161 A 73.23,73.23 0 0 1 303,215.8 Z m -126,-34.66 h 10.52 a 15.84,15.84 0 1 1 0,31.67 h -27.11 a 72.73,72.73 0 0 1 16.55,-31.63 z m 17.36,110.62 a 3.42,3.42 0 0 0 -0.91,0.34 73.56,73.56 0 0 1 -12,-9.18 19.72,19.72 0 0 0 2.08,-8.88 19.29,19.29 0 0 0 -19.07,-19.45 h -1.26 a 3.54,3.54 0 0 0 -0.48,0.05 72.2,72.2 0 0 1 -3.22,-12.05 h 38.46 a 2.93,2.93 0 0 1 2.91,3 v 1 a 7.81,7.81 0 0 0 7.79,7.8 h 2.63 a 9.77,9.77 0 0 1 0,19.53 h -1.89 a 7.8,7.8 0 0 0 -7.8,7.76 v 1.08 a 9.23,9.23 0 0 1 -7.28,9.04 z M 165.7,261.59 a 12.32,12.32 0 0 1 10.8,12.41 13,13 0 0 1 -0.45,3.35 73.45,73.45 0 0 1 -10.39,-15.72 z m 65.66,41.13 a 72.55,72.55 0 0 1 -30,-6.48 16.21,16.21 0 0 0 7.32,-13.48 v -1.09 a 0.8,0.8 0 0 1 0.76,-0.8 h 1.89 a 16.77,16.77 0 0 0 0,-33.53 h -2.62 a 0.83,0.83 0 0 1 -0.8,-0.89 v -1 A 9.92,9.92 0 0 0 198,235.54 h -39.42 c -0.16,-1.92 -0.26,-3.85 -0.26,-5.8 a 72.78,72.78 0 0 1 0.7,-10 h 28.43 a 22.84,22.84 0 1 0 0,-45.67 h -3.33 a 72.85,72.85 0 0 1 64.71,-15.25 v 9.38 a 4.07,4.07 0 0 1 -4.06,4.07 H 226.9 c -5.92,0 -10.22,4.66 -10.22,11.07 a 11.08,11.08 0 0 0 11.07,11.07 h 38.41 a 4.07,4.07 0 1 1 0,8.13 h -31.83 a 20.76,20.76 0 1 0 0,41.52 h 7 a 4.08,4.08 0 0 1 4.07,4.07 v 17.63 a 18.72,18.72 0 1 0 37.43,0 v -10 a 4.07,4.07 0 0 1 4.07,-4.07 h 0.19 l 1.07,-0.06 a 11.36011,11.36011 0 0 0 -0.1,-22.72 h -13.8 a 0.8,0.8 0 0 1 -0.8,-0.8 v -4.51 a 0.8,0.8 0 0 1 0.8,-0.8 h 29.71 c 0.22,2.29 0.34,4.61 0.34,7 a 73.08,73.08 0 0 1 -72.99,72.96 z"
       id="path2" />
  </g>
</svg>
