<?xml version="1.0" encoding="UTF-8" standalone="no"?>
<svg
   xmlns:dc="http://purl.org/dc/elements/1.1/"
   xmlns:cc="http://creativecommons.org/ns#"
   xmlns:rdf="http://www.w3.org/1999/02/22-rdf-syntax-ns#"
   xmlns:svg="http://www.w3.org/2000/svg"
   xmlns="http://www.w3.org/2000/svg"
   xmlns:sodipodi="http://sodipodi.sourceforge.net/DTD/sodipodi-0.dtd"
   xmlns:inkscape="http://www.inkscape.org/namespaces/inkscape"
   viewBox="0 0 168.60042 88.903923"
   version="1.1"
   id="svg7"
   sodipodi:docname="Fish.svg"
   width="168.60042"
   height="88.903923"
   inkscape:version="1.0.2 (e86c870879, 2021-01-15, custom)">
  <g
     id="Layer_10"
     data-name="Layer 10"
     transform="translate(-147.04784,-185.3361)">
    <path
       class="cls-1"
       d="m 292,230.29 a 3.54,3.54 0 1 1 -3.53,-3.61 3.57,3.57 0 0 1 3.53,3.61"
       id="path2" />
    <path
       class="cls-1"
       d="m 147.93,270.72 a 3.48,3.48 0 0 0 2.6,2.6 34.29,34.29 0 0 0 7.93,0.92 36.52,36.52 0 0 0 36.06,-31.61 76.4,76.4 0 0 0 56.13,24.62 c 26.27,0 51,-13.67 64.48,-35.67 a 3.49,3.49 0 0 0 0,-3.66 c -13.5,-22 -38.21,-35.67 -64.48,-35.67 a 76.4,76.4 0 0 0 -56.13,24.61 36.64,36.64 0 0 0 -10.36,-20.86 36.24,36.24 0 0 0 -33.63,-9.78 3.51,3.51 0 0 0 -2.6,2.61 36.34,36.34 0 0 0 20.33,41 36.83,36.83 0 0 0 -10.56,7.33 36.24,36.24 0 0 0 -9.77,33.56 z M 250.65,199.25 A 69,69 0 0 1 308,229.75 69.18,69.18 0 0 1 194.16,231 c -0.07,-0.37 -0.13,-0.74 -0.22,-1.1 a 0.75,0.75 0 0 0 -0.05,-0.16 1.42,1.42 0 0 0 0.05,-0.16 c 0.09,-0.37 0.15,-0.74 0.22,-1.1 a 69,69 0 0 1 56.49,-29.23 z m -96.33,-6.69 a 29.45,29.45 0 0 1 33.24,33.19 v 0.05 a 29.43,29.43 0 0 1 -33.2,-33.24 z m 33.2,41.13 v 0.06 a 29.44,29.44 0 0 1 -33.24,33.18 29.43,29.43 0 0 1 33.2,-33.24 z"
       id="path4" />
  </g>
</svg>
