<?xml version="1.0" encoding="UTF-8" standalone="no"?>
<svg
   xmlns:dc="http://purl.org/dc/elements/1.1/"
   xmlns:cc="http://creativecommons.org/ns#"
   xmlns:rdf="http://www.w3.org/1999/02/22-rdf-syntax-ns#"
   xmlns:svg="http://www.w3.org/2000/svg"
   xmlns="http://www.w3.org/2000/svg"
   xmlns:sodipodi="http://sodipodi.sourceforge.net/DTD/sodipodi-0.dtd"
   xmlns:inkscape="http://www.inkscape.org/namespaces/inkscape"
   viewBox="0 0 132 160"
   version="1.1">
  <g
     id="Layer_10"
     data-name="Layer 10"
     transform="translate(-165.32,-149.74)">
    <path
       class="cls-1"
       d="m 196.84,292.6 h 23 a 3.5,3.5 0 0 0 3.5,-3.5 v -23 a 3.5,3.5 0 0 0 -3.5,-3.5 h -23 a 3.5,3.5 0 0 0 -3.5,3.5 v 23 a 3.5,3.5 0 0 0 3.5,3.5 z m 3.5,-23 h 16 v 16 h -16 z"
       id="path2" />
    <path
       class="cls-1"
       d="m 196.84,244.64 h 23 a 3.5,3.5 0 0 0 3.5,-3.5 v -23 a 3.5,3.5 0 0 0 -3.5,-3.5 h -23 a 3.5,3.5 0 0 0 -3.5,3.5 v 23 a 3.5,3.5 0 0 0 3.5,3.5 z m 3.5,-23 h 16 v 16 h -16 z"
       id="path4" />
    <path
       class="cls-1"
       d="m 241.31,244.64 h 23 a 3.5,3.5 0 0 0 3.5,-3.5 v -23 a 3.5,3.5 0 0 0 -3.5,-3.5 h -23 a 3.5,3.5 0 0 0 -3.5,3.5 v 23 a 3.5,3.5 0 0 0 3.5,3.5 z m 3.5,-23 h 16 v 16 h -16 z"
       id="path6" />
    <path
       class="cls-1"
       d="m 196.84,196.68 h 23 a 3.5,3.5 0 0 0 3.5,-3.5 v -23 a 3.5,3.5 0 0 0 -3.5,-3.5 h -23 a 3.5,3.5 0 0 0 -3.5,3.5 v 23 a 3.5,3.5 0 0 0 3.5,3.5 z m 3.5,-23 h 16 v 16 h -16 z"
       id="path8" />
    <path
       class="cls-1"
       d="m 241.31,196.68 h 23 a 3.5,3.5 0 0 0 3.5,-3.5 v -23 a 3.5,3.5 0 0 0 -3.5,-3.5 h -23 a 3.5,3.5 0 0 0 -3.5,3.5 v 23 a 3.5,3.5 0 0 0 3.5,3.5 z m 3.5,-23 h 16 v 16 h -16 z"
       id="path10" />
    <path
       class="cls-1"
       d="m 168.82,149.74 a 3.5,3.5 0 0 0 0,7 h 2.5 v 149.5 a 3.5,3.5 0 0 0 3.5,3.5 h 113 a 3.5,3.5 0 0 0 3.5,-3.5 v -149.5 h 2.5 a 3.5,3.5 0 0 0 0,-7 z m 74.49,153 V 275.1 c 0,-1.4 0.41,-8.38 8.51,-8.5 h 2 c 1.4,0 8.39,0.41 8.5,8.5 v 27.64 z m 41,-146 v 146 h -15 V 275.1 c 0,-6.23 -4.13,-15.5 -15.5,-15.5 h -2 c -6.23,0 -15.5,4.13 -15.5,15.5 v 27.64 h -58 v -146 z"
       id="path12" />
  </g>
</svg>
