<?xml version="1.0" encoding="UTF-8" standalone="no"?>
<svg
   xmlns:dc="http://purl.org/dc/elements/1.1/"
   xmlns:cc="http://creativecommons.org/ns#"
   xmlns:rdf="http://www.w3.org/1999/02/22-rdf-syntax-ns#"
   xmlns:svg="http://www.w3.org/2000/svg"
   xmlns="http://www.w3.org/2000/svg"
   xmlns:sodipodi="http://sodipodi.sourceforge.net/DTD/sodipodi-0.dtd"
   xmlns:inkscape="http://www.inkscape.org/namespaces/inkscape"
   viewBox="0 0 159.13001 158.85268"
   version="1.1"
   id="svg15"
   sodipodi:docname="Flood b.svg"
   width="159.13"
   height="158.85268"
   inkscape:version="1.0.2 (e86c870879, 2021-01-15, custom)">
  <g
     id="Layer_10"
     data-name="Layer 10"
     transform="translate(-151.79,-150.30374)">
    <path
       class="cls-1"
       d="m 203.91,212.82 h 18.28 a 3.49,3.49 0 0 0 3.5,-3.5 V 191 a 3.5,3.5 0 0 0 -3.5,-3.5 h -18.28 a 3.5,3.5 0 0 0 -3.5,3.5 v 18.28 a 3.5,3.5 0 0 0 3.5,3.54 z m 3.5,-18.28 h 11.28 v 11.28 h -11.28 z"
       id="path2" />
    <path
       class="cls-1"
       d="m 239.26,212.54 h 18 a 3.5,3.5 0 0 0 3.5,-3.5 V 191 a 3.5,3.5 0 0 0 -3.5,-3.5 h -18 a 3.5,3.5 0 0 0 -3.5,3.5 v 18 a 3.5,3.5 0 0 0 3.5,3.54 z m 3.5,-18 h 11 v 11 h -11 z"
       id="path4" />
    <path
       class="cls-1"
       d="m 180.61,250 a 26.74,26.74 0 0 0 -14.32,3.79 20.07,20.07 0 0 1 -11,3 3.5,3.5 0 0 0 0,7 26.74,26.74 0 0 0 14.32,-3.79 22,22 0 0 1 22.06,0 29,29 0 0 0 28.65,0 22,22 0 0 1 22.06,0 29,29 0 0 0 28.65,0 22,22 0 0 1 22.06,0 26.78,26.78 0 0 0 14.33,3.79 3.5,3.5 0 0 0 0,-7 20,20 0 0 1 -11,-3 A 26.78,26.78 0 0 0 282,250 c -0.81,0 -1.57,0 -2.3,0.07 v -55.69 l 6.64,5 a 3.501007,3.501007 0 0 0 4.19,-5.61 L 233.42,151 a 3.5,3.5 0 0 0 -4.19,0 l -57.15,42.72 a 3.501007,3.501007 0 1 0 4.19,5.61 l 6.64,-5 V 250 c -0.73,0 -1.49,0 -2.3,0 z m 62.15,2.33 v -20 a 5.5,5.5 0 0 1 11,0 v 24.29 a 20.23,20.23 0 0 1 -8.11,-2.81 c -0.91,-0.56 -1.86,-1.06 -2.89,-1.53 z m -52.85,-63.13 41.41,-31 41.41,31 v 62.26 a 35.27,35.27 0 0 0 -5,2.33 21.48,21.48 0 0 1 -6.95,2.65 v -24.18 a 12.5,12.5 0 0 0 -25,0 v 18 a 32.87,32.87 0 0 0 -4.44,-0.29 26.74,26.74 0 0 0 -14.34,3.77 22,22 0 0 1 -22.06,0 35.42,35.42 0 0 0 -5,-2.33 z"
       id="path6" />
    <path
       class="cls-1"
       d="m 155.26,286.43 a 26.83,26.83 0 0 0 14.32,-3.79 22,22 0 0 1 22.06,0 29,29 0 0 0 28.65,0 22,22 0 0 1 22.06,0 29,29 0 0 0 28.65,0 22,22 0 0 1 22.06,0 26.87,26.87 0 0 0 14.33,3.79 3.5,3.5 0 0 0 0,-7 20,20 0 0 1 -11,-3 29,29 0 0 0 -28.65,0 22,22 0 0 1 -22.06,0 29,29 0 0 0 -28.65,0 22,22 0 0 1 -22.06,0 29,29 0 0 0 -28.65,0 20.06,20.06 0 0 1 -11,3 3.5,3.5 0 0 0 0,7 z"
       id="path8" />
    <path
       class="cls-1"
       d="m 155.26,309.15 a 26.74,26.74 0 0 0 14.32,-3.79 22,22 0 0 1 22.06,0 29,29 0 0 0 28.65,0 22,22 0 0 1 22.06,0 29,29 0 0 0 28.65,0 22,22 0 0 1 22.06,0 26.78,26.78 0 0 0 14.33,3.79 3.5,3.5 0 0 0 0,-7 20,20 0 0 1 -11,-3 29,29 0 0 0 -28.65,0 22,22 0 0 1 -22.06,0 29,29 0 0 0 -28.65,0 22,22 0 0 1 -22.06,0 29,29 0 0 0 -28.65,0 20,20 0 0 1 -11,3 3.5,3.5 0 0 0 0,7 z"
       id="path10" />
    <path
       class="cls-1"
       d="m 203.91,246.28 h 18 a 3.5,3.5 0 0 0 3.5,-3.5 v -18 a 3.5,3.5 0 0 0 -3.5,-3.5 h -18 a 3.5,3.5 0 0 0 -3.5,3.5 v 18 a 3.5,3.5 0 0 0 3.5,3.5 z m 3.5,-18 h 11 v 11 h -11 z"
       id="path12" />
  </g>
</svg>
