<?xml version="1.0" encoding="UTF-8" standalone="no"?>
<svg
   xmlns:dc="http://purl.org/dc/elements/1.1/"
   xmlns:cc="http://creativecommons.org/ns#"
   xmlns:rdf="http://www.w3.org/1999/02/22-rdf-syntax-ns#"
   xmlns:svg="http://www.w3.org/2000/svg"
   xmlns="http://www.w3.org/2000/svg"
   xmlns:sodipodi="http://sodipodi.sourceforge.net/DTD/sodipodi-0.dtd"
   xmlns:inkscape="http://www.inkscape.org/namespaces/inkscape"
   viewBox="0 0 159.10001 147.05643"
   version="1.1"
   id="svg11"
   sodipodi:docname="flood a.svg"
   width="159.10001"
   height="147.05643"
   inkscape:version="1.0.2 (e86c870879, 2021-01-15, custom)">
  <g
     id="Layer_10"
     data-name="Layer 10"
     transform="translate(-151.79,-156.21)">
    <path
       class="cls-1"
       d="m 181.32,244.07 h -0.71 a 26.74,26.74 0 0 0 -14.32,3.79 20.06,20.06 0 0 1 -11,3 3.5,3.5 0 0 0 0,7 26.83,26.83 0 0 0 14.29,-3.86 22,22 0 0 1 22.06,0 29,29 0 0 0 28.65,0 22,22 0 0 1 22.06,0 29,29 0 0 0 28.65,0 22,22 0 0 1 22.06,0 26.9,26.9 0 0 0 14.33,3.79 3.5,3.5 0 0 0 0,-7 20,20 0 0 1 -11,-3 26.78,26.78 0 0 0 -14.39,-3.73 h -0.71 v -50.73 a 1.79,1.79 0 0 0 0,-0.23 3.52,3.52 0 0 0 -0.36,-2 l -17,-33 a 3.5,3.5 0 0 0 -3.11,-1.89 h -59 a 3.5,3.5 0 0 0 -3.11,1.89 l -17,33 a 3.44,3.44 0 0 0 -0.36,2 1.81,1.81 0 0 0 0,0.23 z M 243,246.5 a 3.52,3.52 0 0 0 0.06,-0.66 v -29.48 h 13 v 34.45 a 20,20 0 0 1 -10.42,-3 C 244.81,247.4 244,246.94 243,246.5 Z m 24.7,1.35 a 26.42,26.42 0 0 1 -4.64,2.09 v -37.08 a 3.49,3.49 0 0 0 -3.5,-3.5 h -20 a 3.5,3.5 0 0 0 -3.5,3.5 v 31.53 a 32,32 0 0 0 -4.75,-0.33 26.74,26.74 0 0 0 -14.31,3.79 22,22 0 0 1 -22.06,0 31.25,31.25 0 0 0 -6.62,-2.83 v -48.19 h 86 V 245 a 31.15,31.15 0 0 0 -6.61,2.85 z M 204,163.21 h 54.71 l 13.72,26.62 h -82.19 z"
       id="path2" />
    <path
       class="cls-1"
       d="m 222.07,209.36 h -19 a 3.5,3.5 0 0 0 -3.5,3.5 v 19 a 3.5,3.5 0 0 0 3.5,3.5 h 19 a 3.5,3.5 0 0 0 3.5,-3.5 v -19 a 3.49,3.49 0 0 0 -3.5,-3.5 z m -3.5,19 h -12 v -12 h 12 z"
       id="path4" />
    <path
       class="cls-1"
       d="m 155.26,280.54 a 26.74,26.74 0 0 0 14.32,-3.79 22,22 0 0 1 22.06,0 29,29 0 0 0 28.65,0 22,22 0 0 1 22.06,0 29,29 0 0 0 28.65,0 22,22 0 0 1 22.06,0 26.81,26.81 0 0 0 14.33,3.79 3.5,3.5 0 0 0 0,-7 20,20 0 0 1 -11,-3 29,29 0 0 0 -28.65,0 22,22 0 0 1 -22.06,0 29,29 0 0 0 -28.65,0 22,22 0 0 1 -22.06,0 29,29 0 0 0 -28.65,0 20.06,20.06 0 0 1 -11,3 3.5,3.5 0 0 0 0,7 z"
       id="path6" />
    <path
       class="cls-1"
       d="m 155.26,303.26 a 26.74,26.74 0 0 0 14.32,-3.79 22,22 0 0 1 22.06,0 29,29 0 0 0 28.65,0 22,22 0 0 1 22.06,0 29,29 0 0 0 28.65,0 22,22 0 0 1 22.06,0 26.81,26.81 0 0 0 14.33,3.79 3.5,3.5 0 0 0 0,-7 19.93,19.93 0 0 1 -11,-3 29,29 0 0 0 -28.65,0 22,22 0 0 1 -22.06,0 29,29 0 0 0 -28.65,0 22,22 0 0 1 -22.06,0 29,29 0 0 0 -28.65,0 20,20 0 0 1 -11,3 3.5,3.5 0 0 0 0,7 z"
       id="path8" />
  </g>
</svg>
