<?xml version="1.0" encoding="UTF-8" standalone="no"?>
<svg
   xmlns:dc="http://purl.org/dc/elements/1.1/"
   xmlns:cc="http://creativecommons.org/ns#"
   xmlns:rdf="http://www.w3.org/1999/02/22-rdf-syntax-ns#"
   xmlns:svg="http://www.w3.org/2000/svg"
   xmlns="http://www.w3.org/2000/svg"
   xmlns:sodipodi="http://sodipodi.sourceforge.net/DTD/sodipodi-0.dtd"
   xmlns:inkscape="http://www.inkscape.org/namespaces/inkscape"
   id="Layer_1"
   data-name="Layer 1"
   viewBox="0 0 23.74 23.162527"
   version="1.1">
  <g
     id="g26"
     transform="translate(-13.075608,-14.427472)">
    <g
       id="Layer_10"
       data-name="Layer 10"
       transform="translate(-50.054392,-46.08)">
      <path
         class="cls-2"
         d="M 79.12,64.52 76,61.41 a 1.35,1.35 0 0 0 -1.93,0 L 71,64.52 a 1.37,1.37 0 0 0 1.85,2 l 0.09,-0.09 0.77,-0.78 v 6.06 a 1.37,1.37 0 0 0 2.74,0 v -6.04 l 0.78,0.78 a 1.37,1.37 0 0 0 1.93,-1.93 z"
         id="path10" />
    </g>
    <g
       id="Layer_10-2"
       data-name="Layer 10"
       transform="translate(-50.054392,-46.08)">
      <path
         class="cls-3"
         d="m 63.63,76.39 c 1.89,0 1.89,-1 3.79,-1 1.9,0 1.89,1 3.79,1 1.9,0 1.89,-1 3.79,-1 1.9,0 1.9,1 3.79,1 1.89,0 1.9,-1 3.79,-1 1.89,0 1.9,1 3.79,1"
         id="path13" />
      <path
         class="cls-3"
         d="m 63.63,79.78 c 1.89,0 1.89,-1 3.79,-1 1.9,0 1.89,1 3.79,1 1.9,0 1.89,-1 3.79,-1 1.9,0 1.9,1 3.79,1 1.89,0 1.9,-1 3.79,-1 1.89,0 1.9,1 3.79,1"
         id="path15" />
      <path
         class="cls-3"
         d="m 63.63,83.17 c 1.89,0 1.89,-1 3.79,-1 1.9,0 1.89,1 3.79,1 1.9,0 1.89,-1 3.79,-1 1.9,0 1.9,1 3.79,1 1.89,0 1.9,-1 3.79,-1 1.89,0 1.9,1 3.79,1"
         id="path17" />
    </g>
  </g>
</svg>
