<?xml version="1.0" encoding="utf-8"?>
<!-- Generator: Adobe Illustrator 25.0.0, SVG Export Plug-In . SVG Version: 6.00 Build 0)  -->
<svg version="1.1" id="Layer_1" xmlns="http://www.w3.org/2000/svg" xmlns:xlink="http://www.w3.org/1999/xlink" x="0px" y="0px"
	 viewBox="0 0 74.8 173.2" style="enable-background:new 0 0 74.8 173.2;" xml:space="preserve">
<g id="Layer_10">
	<path d="M16.7,41.5v-38c0-1.9-1.6-3.5-3.5-3.5S9.7,1.6,9.7,3.5v38c0,1.9,1.6,3.5,3.5,3.5S16.7,43.4,16.7,41.5z"/>
	<path d="M26.4,41.5v-38c0-1.9-1.6-3.5-3.5-3.5s-3.5,1.6-3.5,3.5v38c0,1.9,1.6,3.5,3.5,3.5S26.4,43.4,26.4,41.5z"/>
	<path d="M36.1,3.5c0-1.9-1.6-3.5-3.5-3.5s-3.5,1.6-3.5,3.5v38c0,0.2,0,0.3,0,0.5c0,0.2,0,0.3,0,0.5c0,6.6-3.1,12-5.4,15.9
		c-1.6,2.9-2.9,4.9-2.9,7.1c0,2.4,0.4,11.4,0.6,18.6c0,0.2,0,0.3,0.1,0.5l1.4,81.7h-9.6l1.4-81.7c0-0.2,0.1-0.3,0.1-0.5
		c0.3-7.2,0.6-16.3,0.6-18.6c0-2.2-1.2-4.2-2.9-7.1C10.1,54.5,7,49,7,42.5c0-0.2,0-0.3,0-0.5c0-0.2,0-0.3,0-0.5v-38
		C7,1.6,5.4,0,3.5,0S0,1.6,0,3.5v38c0,0.2,0,0.3,0.1,0.5c0,0.2,0,0.3-0.1,0.5c0,8.4,3.8,15.1,6.4,19.4c0.7,1.2,1.4,2.4,1.9,3.6
		c0,1.8-0.2,8-0.6,17.6c-0.1,0.2-0.1,0.5-0.1,0.7l-1.4,85.8c0,0.9,0.3,1.8,1,2.5c0.7,0.6,1.6,1,2.5,1h16.7c0.9,0,1.8-0.4,2.5-1
		c0.7-0.7,1-1.6,1-2.5l-1.4-85.8c0-0.2,0-0.5-0.1-0.7c-0.4-9.4-0.6-15.8-0.6-17.6c0.5-1.3,1.2-2.5,1.9-3.6c2.6-4.4,6.4-11,6.4-19.4
		c0-0.2,0-0.3-0.1-0.5c0-0.2,0-0.3,0.1-0.5L36.1,3.5z"/>
	<path d="M52.1,172.2c0.7,0.7,1.6,1,2.5,1h16.7c1.9,0,3.5-1.6,3.5-3.5c0,0,0,0,0-0.1L73,83.9V4.1c0-1.4-0.9-2.7-2.2-3.2
		c-1.5-0.6-3-0.9-4.6-0.8h-0.1C54.5,0.9,44.2,15.3,43.7,31.6c-0.3,9.9,3.1,24.8,5.5,35.6c1,4.1,1.9,8.3,2.5,12.5
		c0.1,2.5-0.5,65.8-0.8,90C51,170.7,51.4,171.5,52.1,172.2z M50.8,31.8C51.2,18.6,59,8.2,66,7.1v76.8V84l1.7,82.2h-9.6
		c0.2-20.4,0.9-85.1,0.7-86.9c-0.2-2.7-1.3-7.5-2.7-13.6C53.8,55.2,50.5,40.9,50.8,31.8z"/>
</g>
</svg>
