<?xml version="1.0" encoding="utf-8"?>
<!-- Generator: Adobe Illustrator 25.0.0, SVG Export Plug-In . SVG Version: 6.00 Build 0)  -->
<svg version="1.1" id="Layer_1" xmlns="http://www.w3.org/2000/svg" xmlns:xlink="http://www.w3.org/1999/xlink" x="0px" y="0px"
	 viewBox="0 0 140 170" style="enable-background:new 0 0 140 170;" xml:space="preserve">
<g id="Layer_10">
	<path d="M72.1,87.6c0,3.2,1.9,4.9,4.6,4.9s4.6-1.6,4.6-4.9V73.2l7.9-10.6c2.9-4,3.8-5.2,3.8-7c0-2.4-2.1-4.1-4.9-4.1
		c-2.5,0-3.7,1.8-4.6,3.1l-6.8,9.7l-6.8-9.7c-1-1.4-2.1-3.1-4.6-3.1c-2.7,0-4.9,1.6-4.9,4.1c0,1.9,0.9,3,3.8,7l7.9,10.6V87.6z"/>
	<path d="M30.5,87.6c0,3.2,1.9,4.9,4.6,4.9s4.6-1.6,4.6-4.9V76h8.3c2.9,0,4.6-1.6,4.6-4.2s-1.7-4.2-4.6-4.2h-8.3v-7.2h9.5
		c2.9,0,4.6-1.6,4.6-4.2s-1.7-4.2-4.6-4.2h-14c-2.4-0.1-4.5,1.8-4.6,4.3c0,0.1,0,0.2,0,0.3L30.5,87.6z"/>
	<path d="M109.5,56.4c0-3.2-1.9-4.9-4.6-4.9s-4.6,1.6-4.6,4.9v31.3c0,3.2,1.9,4.9,4.6,4.9s4.6-1.6,4.6-4.9V56.4z"/>
	<path d="M116.5,0h-93C10.5,0,0,10.5,0,23.5v93c0,13,10.5,23.5,23.5,23.5h6.8c-0.1,9.4-0.3,21.5-0.3,21.5c0,5.7,2.6,7.5,4.2,8.1
		c0.6,0.2,1.3,0.3,1.9,0.3c1.7,0,3.9-0.7,6.4-3.6l23-26.4h51c13,0,23.5-10.5,23.5-23.5v-93C139.9,10.5,129.5,0,116.5,0z M133,116.5
		c0,9.1-7.4,16.5-16.5,16.5H63.9c-1,0-2,0.4-2.6,1.2l-24.1,27.6L37,162c0-0.1,0-0.3,0-0.4s0.2-15.5,0.4-25.1c0-1.9-1.5-3.5-3.4-3.5
		c0,0-0.1,0-0.1,0H23.5C14.4,133,7,125.6,7,116.5v-93C7,14.4,14.4,7,23.5,7h93c9.1,0,16.5,7.4,16.5,16.5V116.5z"/>
</g>
</svg>
