<?xml version="1.0" encoding="utf-8"?>
<!-- Generator: Adobe Illustrator 25.0.0, SVG Export Plug-In . SVG Version: 6.00 Build 0)  -->
<svg version="1.1" id="Layer_1" xmlns="http://www.w3.org/2000/svg" xmlns:xlink="http://www.w3.org/1999/xlink" x="0px" y="0px"
	 viewBox="0 0 180 146.6" style="enable-background:new 0 0 180 146.6;" xml:space="preserve">
<g id="Layer_10">
	<path d="M118.1,83.4c0,1.6-1.4,2.9-3,2.9c-1.6,0-2.9-1.4-2.9-3c0-1.6,1.3-2.9,2.9-2.9C116.7,80.4,118.1,81.7,118.1,83.4
		C118.1,83.3,118.1,83.4,118.1,83.4"/>
	<path d="M142.8,0.7c-0.6-0.4-1.3-0.7-2-0.7H39.2c-0.7,0-1.5,0.2-2.1,0.7C-3.1,29.9-12,86.1,17.2,126.4c5.4,7.5,11.9,14,19.4,19.5
		c0.6,0.4,1.3,0.7,2.1,0.7h102.8c0.8,0,1.5-0.2,2.1-0.7c40-29.5,48.4-85.9,18.9-125.9C156.9,12.6,150.3,6.1,142.8,0.7L142.8,0.7z
		 M40.4,7h99.3c10.2,7.7,18.6,17.6,24.4,29c-3.7,0-7.2-0.9-10.4-2.8c-8.7-4.8-19.3-4.8-28,0c-6.7,3.8-14.9,3.8-21.6,0
		c-8.7-4.8-19.3-4.8-28,0c-6.7,3.8-14.9,3.8-21.6,0c-8.7-4.8-19.3-4.8-28,0c-3.1,1.9-6.7,2.9-10.4,2.8C21.9,24.6,30.2,14.7,40.4,7
		L40.4,7z M140.2,139.5H39.8c-30-22.7-40.9-62.7-26.6-97.5c0.6,0.6,1.5,0.9,2.4,0.9c4.9,0.1,9.8-1.2,14-3.6c6.7-3.8,14.9-3.8,21.6,0
		c8.7,4.8,19.3,4.8,28,0c6.7-3.8,14.9-3.8,21.6,0c8.7,4.8,19.3,4.8,28,0c6.7-3.8,14.9-3.8,21.6,0c4.2,2.5,9.1,3.7,14,3.6
		c0.9,0,1.7-0.3,2.4-0.9C181,76.8,170.1,116.8,140.2,139.5z"/>
	<path d="M99.3,62.5c-9.4,0-18.4,3.4-25.5,9.6c-1-2.6-2.5-5-4.5-7c-4.8-4.8-11.7-6.8-18.3-5.3c-1.3,0.3-2.3,1.3-2.6,2.6
		c-1.5,6.6,0.5,13.5,5.3,18.3c1.1,1.1,2.4,2.1,3.7,2.9c-1.4,0.8-2.6,1.8-3.7,2.9c-4.8,4.8-6.8,11.7-5.3,18.3
		c0.3,1.3,1.3,2.3,2.6,2.6c1.4,0.3,2.9,0.5,4.3,0.5c8.4,0,15.9-5.3,18.7-13.2c16.2,14,40.7,12.3,54.7-3.9c1.5-1.8,2.9-3.6,4.1-5.6
		c0.6-1.1,0.6-2.5,0-3.6C125.7,69.8,113,62.6,99.3,62.5z M64.3,70.1c2.2,2.2,3.5,5.2,3.7,8.3c-0.3,0.4-0.6,0.8-0.8,1.1
		c-7.1-0.2-12.6-6.2-12.4-13.2C58.4,66.2,61.8,67.5,64.3,70.1L64.3,70.1z M54.8,101c-0.2-7.1,5.4-13,12.4-13.2c0.1,0,0.2,0,0.3,0
		c0.1,0.2,0.3,0.4,0.5,0.6c-0.1,7.1-6,12.7-13.1,12.6C54.9,101,54.9,101,54.8,101z M99.3,97.2c-9.4,0-18.3-4.2-24.4-11.4
		c-0.1-0.7-0.2-1.3-0.3-2c-0.1-0.1-0.1-0.3,0-0.4c0.2-0.8,0.3-1.7,0.4-2.6c11.3-13.4,31.3-15.2,44.7-3.9c2.2,1.9,4.2,4,5.8,6.4
		C119.6,92,109.8,97.2,99.3,97.2L99.3,97.2z"/>
</g>
</svg>
