<?xml version="1.0" encoding="UTF-8" standalone="no"?>
<svg
   xmlns:dc="http://purl.org/dc/elements/1.1/"
   xmlns:cc="http://creativecommons.org/ns#"
   xmlns:rdf="http://www.w3.org/1999/02/22-rdf-syntax-ns#"
   xmlns:svg="http://www.w3.org/2000/svg"
   xmlns="http://www.w3.org/2000/svg"
   xmlns:sodipodi="http://sodipodi.sourceforge.net/DTD/sodipodi-0.dtd"
   xmlns:inkscape="http://www.inkscape.org/namespaces/inkscape"
   viewBox="0 0 150.12778 138.09"
   version="1.1">
  <g
     id="Layer_10"
     data-name="Layer 10"
     transform="translate(-156.25548,-160.7)">
    <path
       class="cls-1"
       d="m 289.61,243.72 0.23,-0.22 c 11.32,-11.15 17.17,-25.24 16.49,-39.68 a 46.37,46.37 0 0 0 -16.87,-33.91 40.48,40.48 0 0 0 -25.69,-9.21 h -0.08 a 42.71,42.71 0 0 0 -32.31,15.13 42.36,42.36 0 0 0 -32.18,-15 h -0.08 a 40.73,40.73 0 0 0 -25.8,9.31 46.72,46.72 0 0 0 -17,33.95 c -0.75,14.45 5.06,28.52 16.34,39.64 l 0.42,0.4 v 0 a 4.81,4.81 0 0 0 0.38,0.42 l 3.1,3.1 48.55,48.54 a 9.57,9.57 0 0 0 3.57,2.18 8.11,8.11 0 0 0 2.55,0.42 8.31,8.31 0 0 0 5.9,-2.6 l 52.31,-52.3 z M 163.32,204.46 a 39.72,39.72 0 0 1 14.41,-28.88 33.74,33.74 0 0 1 21.4,-7.74 h 0.07 a 35,35 0 0 1 29.28,15.72 3.5,3.5 0 0 0 2.89,1.52 v 0 a 3.5,3.5 0 0 0 2.89,-1.52 35.47,35.47 0 0 1 29.45,-15.86 h 0.06 a 33.51,33.51 0 0 1 21.28,7.65 39.34,39.34 0 0 1 14.29,28.8 40.86,40.86 0 0 1 -0.91,10.64 h -30.09 a 3.5,3.5 0 0 0 -3.2,2.09 l -4.62,10.48 -7.95,-19.36 a 3.58,3.58 0 0 0 -3.27,-2.17 3.49,3.49 0 0 0 -3.23,2.22 l -12.25,31.27 -18.73,-45.52 a 3.5,3.5 0 0 0 -3.19,-2.17 h -0.05 a 3.48,3.48 0 0 0 -3.19,2.08 l -9.4,21 h -35.14 a 40.63,40.63 0 0 1 -0.8,-10.25 z m 121.19,34.45 -0.23,0.25 -52.08,52.09 c -0.36,0.35 -1,1 -2.16,0 l -48.51,-48.55 -3.33,-3.34 -0.22,-0.24 -0.4,-0.37 a 49.07,49.07 0 0 1 -11.38,-17 h 35.33 a 3.51,3.51 0 0 0 3.2,-2.07 l 7,-15.68 18.94,46 a 3.5,3.5 0 0 0 3.23,2.17 v 0 a 3.52,3.52 0 0 0 3.23,-2.23 l 12.26,-31.27 7.76,18.88 a 3.5,3.5 0 0 0 3.19,2.17 h 0.05 a 3.5,3.5 0 0 0 3.2,-2.09 l 7,-15.92 h 25.65 a 49.73,49.73 0 0 1 -11.36,16.74 z"
       id="path2" />
  </g>
</svg>
