<?xml version="1.0" encoding="UTF-8" standalone="no"?>
<svg
   xmlns:dc="http://purl.org/dc/elements/1.1/"
   xmlns:cc="http://creativecommons.org/ns#"
   xmlns:rdf="http://www.w3.org/1999/02/22-rdf-syntax-ns#"
   xmlns:svg="http://www.w3.org/2000/svg"
   xmlns="http://www.w3.org/2000/svg"
   xmlns:sodipodi="http://sodipodi.sourceforge.net/DTD/sodipodi-0.dtd"
   xmlns:inkscape="http://www.inkscape.org/namespaces/inkscape"
   viewBox="0 0 150.11609 138.16"
   version="1.1">
  <g
     id="Layer_10"
     data-name="Layer 10"
     transform="translate(-156.2571,-160.71)">
    <path
       class="cls-1"
       d="m 289.46,169.92 a 40.48,40.48 0 0 0 -25.69,-9.21 h -0.08 a 42.75,42.75 0 0 0 -32.32,15.13 42.34,42.34 0 0 0 -32.17,-15 h -0.09 a 40.72,40.72 0 0 0 -25.79,9.31 46.74,46.74 0 0 0 -17,34 c -0.74,14.45 5.07,28.52 16.34,39.63 l 0.29,0.28 0.14,0.13 v 0 a 4.81,4.81 0 0 0 0.38,0.42 l 3.1,3.1 48.54,48.55 a 9.06,9.06 0 0 0 6.17,2.61 8.13,8.13 0 0 0 5.85,-2.61 l 52.31,-52.31 0.16,-0.17 0.23,-0.22 c 11.31,-11.15 17.17,-25.24 16.49,-39.68 a 46.37,46.37 0 0 0 -16.86,-33.96 z m -4.55,68.62 -0.39,0.37 a 3.07,3.07 0 0 0 -0.25,0.26 l -52.08,52.09 c -0.35,0.35 -1,1 -2.15,0 l -48.51,-48.51 -3.33,-3.33 a 2.73,2.73 0 0 0 -0.23,-0.25 l -0.4,-0.37 c -9.83,-9.69 -14.89,-21.87 -14.26,-34.29 a 39.76,39.76 0 0 1 14.42,-28.88 33.74,33.74 0 0 1 21.4,-7.74 h 0.07 a 35.06,35.06 0 0 1 29.28,15.71 3.48,3.48 0 0 0 2.89,1.53 v 0 a 3.5,3.5 0 0 0 2.89,-1.52 35.47,35.47 0 0 1 29.44,-15.86 h 0.07 a 33.55,33.55 0 0 1 21.28,7.65 39.37,39.37 0 0 1 14.29,28.8 c 0.58,12.38 -4.54,24.59 -14.43,34.34 z"
       id="path2" />
  </g>
</svg>
