<svg
    viewBox="0 0 166.63405 119.55021"
    version="1.1"
    width="166.63405"
    height="119.55021"
    preserveAspectRatio="xMinYMid"
    aria-hidden="true"
    focusable="false">
        <title>Holding hands</title>
        <path d="m 23.870074,58.730198 3,5.67 a 0.75,0.75 0 0 0 0.07,0.12 l 7.49,12.93 a 10.3,10.3 0 0 0 7.72,16.24 10.28,10.28 0 0 0 9.61,9.600002 10.3,10.3 0 0 0 13,9.26 10.38,10.38 0 0 0 2.49,4 10.24,10.24 0 0 0 7.24,3 h 0.06 a 10.11,10.11 0 0 0 7.2,-3 l 0.79,-0.79 v 0 c 0.09,-0.1 0.17,-0.2 0.26,-0.29 l 1.24,1.14 a 10.09,10.09 0 0 0 7.06,2.91 h 0.05 a 10,10 0 0 0 9.369996,-6.48 10.05,10.05 0 0 0 10.2,-2.43 9.92,9.92 0 0 0 2.89,-6.35 10,10 0 0 0 9.25,-9.240002 9.9,9.9 0 0 0 6.34,-2.89 10,10 0 0 0 1.64,-12 l 8.72,-15.08 0.06,-0.11 3,-5.65 a 4.11,4.11 0 0 1 0.68,-0.93 l 20.18,-20.18 a 11,11 0 0 0 -0.05,-15.47 l -19.45,-19.4399998 a 10.89,10.89 0 0 0 -7.72,-3.22999998 10.75,10.75 0 0 0 -7.75,3.16999998 l -20,19.9999998 H 87.030074 c -0.69,0 -1.36,0 -2,0.1 a 3.32,3.32 0 0 0 -0.83,-0.11 l -26.54,-0.24 -19.72,-19.7199998 a 11,11 0 0 0 -7.73,-3.23999997543 10.85,10.85 0 0 0 -7.74,3.17999997543 L 3.2400735,22.410198 a 10.77,10.77 0 0 0 -3.239999966854,7.74 10.93,10.93 0 0 0 3.229999966854,7.72 l 19.8900005,19.89 a 4,4 0 0 1 0.75,0.97 z m 16.58,22.41 6.66,-6.67 a 3.19,3.19 0 0 1 2.26,-0.93 3.35,3.35 0 0 1 3.33,3.31 3.21,3.21 0 0 1 -0.93,2.28 v 0 l -3.33,3.33 -3.34,3.33 a 3.16,3.16 0 0 1 -2.27,0.93 3.31,3.31 0 0 1 -2.38,-5.58 z m 8.67,11.91 a 3.21,3.21 0 0 1 0.93,-2.28 l 3.34,-3.33 3.33,-3.33 v 0 a 3.17,3.17 0 0 1 2.26,-0.93 3.35,3.35 0 0 1 2.35,1 3.26,3.26 0 0 1 0,4.6 l -6.67,6.67 a 3.14,3.14 0 0 1 -2.27,0.93 3.35,3.35 0 0 1 -3.32,-3.31 z m 10.59,11.940002 a 3.33,3.33 0 0 1 -1,-2.34 3.19,3.19 0 0 1 0.93,-2.27 l 6.67,-6.670002 a 3.2,3.2 0 0 1 2.25,-0.92 3.31,3.31 0 0 1 2.35,1 3.26,3.26 0 0 1 0,4.61 l -6.59,6.650002 a 3.27,3.27 0 0 1 -4.61,-0.09 z m 17.94,5.93 -0.79,0.79 a 3.19,3.19 0 0 1 -2.25,0.92 v 0 a 3.31,3.31 0 0 1 -2.41,-5.58 l 0.79,-0.79 a 3.19,3.19 0 0 1 2.26,-0.93 3.32,3.32 0 0 1 2.35,1 3.27,3.27 0 0 1 0.05,4.56 z m 9.35,-80.720002 h 22.109996 a 1,1 0 0 0 0.17,0 5.76,5.76 0 0 0 3.8,-1.68 l 20.35,-20.3599998 a 3.87,3.87 0 0 1 2.74,-1.12 v 0 a 3.93,3.93 0 0 1 2.81,1.18 l 19.45,19.4399998 a 3.94,3.94 0 0 1 0.05,5.57 l -20.17,20.18 a 10.66,10.66 0 0 0 -1.94,2.63 l -2.93,5.59 -7.44,13.1 -23.92,-23.92 a 13,13 0 0 0 -18.339996,-0.07 l -8.15,8.15 a 6.17,6.17 0 0 1 -8.71,-0.07 l -1.23,-1.23 a 6.19,6.19 0 0 1 -1.84,-4.39 6,6 0 0 1 1.76,-4.32 l 0.09,-0.09 15.58,-16.68 a 8.13,8.13 0 0 1 5.76,-1.91 z m -80.0000005,-0.09 a 3.82,3.82 0 0 1 1.12,-2.76 L 27.360074,8.1201982 a 3.83,3.83 0 0 1 2.73,-1.13 v 0 a 4.05,4.05 0 0 1 2.82,1.18 l 20.09,20.0699998 a 5.8,5.8 0 0 0 3.76,1.7 h 0.24 l 16.55,0.15 -13,13.88 a 13,13 0 0 0 -3.77,9.27 13.15,13.15 0 0 0 3.89,9.3 l 1.22,1.23 a 13.19,13.19 0 0 0 18.62,0.07 l 8.15,-8.15 a 6,6 0 0 1 8.44,0.07 l 27.109996,27.1 0.09,0.1 a 3.0336199,3.0336199 0 1 1 -4.33,4.25 l -8.51,-8.52 v 0 l -3.26,-3.26 a 3.5355339,3.5355339 0 1 0 -5,5 l 11.8,11.73 a 3.15,3.15 0 0 1 0.93,2.2 3,3 0 0 1 -0.88,2.14 3.07,3.07 0 0 1 -4.33,0 v 0 l -11.809996,-11.81 a 3.5179007,3.5179007 0 1 0 -4.95,5 l 3.25,3.25 v 0 l 8.519996,8.520002 a 3.0334881,3.0334881 0 1 1 -4.29,4.29 l -8.439996,-8.570002 v 0 l -3.23,-3.23 a 3.5001786,3.5001786 0 0 0 -4.95,4.95 l 8.52,8.520002 a 3.1,3.1 0 0 1 0.92,2.2 3,3 0 0 1 -0.87,2.14 3,3 0 0 1 -2.13,0.87 v 0 a 3.1,3.1 0 0 1 -2.2,-0.92 l -0.11,-0.11 -3.32,-3 a 10.28,10.28 0 0 0 -7,-9.680002 10.3,10.3 0 0 0 -9.25,-13.06 10.28,10.28 0 0 0 -9.61,-9.6 10.29,10.29 0 0 0 -17.5,-6.67 l -2.68,2.68 -6.59,-11.22 -3,-5.62 a 10.9,10.9 0 0 0 -2,-2.62 l -19.8900005,-19.9 a 4,4 0 0 1 -1.11,-2.8 z" />
</svg>
