<?xml version="1.0" encoding="utf-8"?>
<!-- Generator: Adobe Illustrator 25.0.0, SVG Export Plug-In . SVG Version: 6.00 Build 0)  -->
<svg version="1.1" id="Layer_1" xmlns="http://www.w3.org/2000/svg" xmlns:xlink="http://www.w3.org/1999/xlink" x="0px" y="0px"
	 viewBox="0 0 176.7 177.2" style="enable-background:new 0 0 176.7 177.2;" xml:space="preserve">
<g>
	<path d="M71.4,41c-11.3,0-20.5-9.2-20.5-20.5S60.1,0,71.4,0s20.5,9.2,20.5,20.5S82.7,41,71.4,41z M71.4,7C64,7,57.9,13.1,57.9,20.5
		S64,34,71.4,34s13.5-6.1,13.5-13.5S78.8,7,71.4,7z"/>
	<path d="M3.5,137.2c-0.1,0-0.2,0-0.3,0c-1.9-0.2-3.3-1.9-3.2-3.8l2.9-31.5c0-0.1,0-0.1,0-0.2c1.8-12.8,12.9-22.4,25.9-22.4h27.8
		V54.5c0-8.2,6.6-14.8,14.8-14.8c0,0,0,0,0,0c6.8,0,12.7,4.6,14.4,11.2c0.6,2,4.3,11.4,19.6,11.4c4-0.1,7.7,1.3,10.5,4
		c2.9,2.7,4.5,6.4,4.6,10.3c0.2,8.2-6.2,15-14.4,15.3c-0.3,0-0.5,0-0.8,0C97,92,88.7,90.2,81.2,86.6c-1.7-0.8-2.5-2.9-1.7-4.7
		s2.9-2.5,4.7-1.7c6.5,3.1,13.9,4.7,21.1,4.6c0,0,0.1,0,0.2,0c0.2,0,0.3,0,0.5,0c4.3-0.1,7.7-3.7,7.6-8c-0.1-2.1-0.9-4-2.5-5.5
		c-1.5-1.4-3.5-2.2-5.6-2.1c0,0-0.1,0-0.1,0c-20.5,0-25.6-13.8-26.4-16.5c0,0,0-0.1,0-0.1c-0.9-3.5-4-5.9-7.6-5.9c0,0,0,0,0,0
		c-4.3,0-7.8,3.5-7.8,7.8v28.3c0,1.9-1.6,3.5-3.5,3.5H28.8c-9.4,0-17.5,7-18.9,16.3L7,134C6.8,135.8,5.3,137.2,3.5,137.2z"/>
	<path d="M49,177.2c-2.2,0-4.3-0.5-6.4-1.5c-3.6-1.7-6.2-4.7-7.6-8.4l-11.3-28.2c-2.6-6.5-0.2-13.9,5.5-17.8l3.9-2.6l-7.6-10.1
		c-4.4-5.9-3.8-14.2,1.4-19.4l9-9c1.4-1.4,3.6-1.4,5,0c1.4,1.4,1.4,3.6,0,5l-9,9c-2.7,2.7-3,7.1-0.7,10.2l9.8,13
		c0.6,0.8,0.8,1.7,0.7,2.7c-0.2,0.9-0.7,1.8-1.5,2.3l-7,4.7c-3,2-4.3,6-2.9,9.4l11.3,28.3c0,0,0,0.1,0,0.1c0.7,2,2.1,3.5,4,4.4
		c1.9,0.9,4,1,6,0.3c2-0.7,3.5-2.1,4.4-4c0.9-1.9,1-4,0.3-6c-0.1-0.2-0.1-0.4-0.2-0.6c0,0,0-0.1-0.1-0.1l-7.9-19.7
		c-0.6-1.5-0.1-3.3,1.3-4.2l9.3-6.2c1-0.7,1.8-1.6,2.4-2.6c0.6-1.1,1.8-1.8,3-1.8H94c1.9,0,3.5,1.6,3.5,3.5V162c0,0,0,0.1,0,0.1
		c-0.1,4.3,3.3,7.9,7.6,8c2.1,0.1,4.1-0.7,5.6-2.1s2.4-3.4,2.5-5.5c0-0.2,0-0.3,0-0.5c0,0,0-0.1,0-0.1v-12.1
		c0-14.9,2.8-29.5,8.4-43.3L136,70.2c0.5-1.3,1.8-2.2,3.2-2.2h21.5h0c3.4,0,6.4-2.1,7.4-5.3l1.4-4.2c0.3-1-0.2-2.1-1.2-2.6
		l-30.2-9.3c-1.5-0.5-2.5-1.8-2.5-3.3V29.6c-4.1,4.8-7.9,9.7-11.4,14.9c-1.1,1.6-3.3,2-4.9,0.9c-1.6-1.1-2-3.3-0.9-4.9
		c5.4-8,11.5-15.5,18.2-22.5c1-1,2.5-1.4,3.8-0.8c1.3,0.5,2.2,1.8,2.2,3.2v20.1l27.9,8.6c0.1,0,0.2,0.1,0.3,0.1
		c4.5,1.8,6.8,6.8,5.3,11.3l-1.4,4.2c-2,6.1-7.7,10.1-14.1,10.1c0,0,0,0,0,0h-19.1L128,109.1c-5.2,13-7.8,26.7-7.8,40.7v12.1
		c0,0.3,0,0.6,0,0.8c-0.2,8-6.8,14.4-14.8,14.4c-0.1,0-0.3,0-0.4,0c-8.2-0.2-14.6-7.1-14.4-15.2v-30.4H66.1c-1,1.2-2.1,2.3-3.4,3.2
		l-7,4.6l6.8,17c0.2,0.3,0.3,0.7,0.4,1c1.3,3.7,1.1,7.8-0.6,11.3c-1.7,3.6-4.7,6.3-8.4,7.6C52.3,176.9,50.6,177.2,49,177.2z"/>
</g>
</svg>
