<?xml version="1.0" encoding="UTF-8" standalone="no"?>
<svg
   xmlns:dc="http://purl.org/dc/elements/1.1/"
   xmlns:cc="http://creativecommons.org/ns#"
   xmlns:rdf="http://www.w3.org/1999/02/22-rdf-syntax-ns#"
   xmlns:svg="http://www.w3.org/2000/svg"
   xmlns="http://www.w3.org/2000/svg"
   xmlns:sodipodi="http://sodipodi.sourceforge.net/DTD/sodipodi-0.dtd"
   xmlns:inkscape="http://www.inkscape.org/namespaces/inkscape"
   viewBox="0 0 91.248864 187.49399"
   version="1.1"
   id="svg5"
   sodipodi:docname="Ice cream.svg"
   width="91.248863"
   height="187.49399"
   inkscape:version="1.0.2 (e86c870879, 2021-01-15, custom)">
  <g
     id="Layer_10"
     data-name="Layer 10"
     transform="translate(-185.68981,-135.98281)">
    <path
       class="cls-1"
       d="m 185.69,215.28 a 18.8,18.8 0 0 0 5.33,13.2 c 0,0 0,0 0,0 l 33.43,90.67 a 7.12,7.12 0 0 0 6.86,4.32 v 0 a 7.13,7.13 0 0 0 6.88,-4.35 l 33.13,-89.87 a 3,3 0 0 0 0.09,-0.32 18.88,18.88 0 0 0 -0.91,-27.55 18.86,18.86 0 0 0 -5.5,-25.45 19.18,19.18 0 0 0 0.87,-5.58 18.84,18.84 0 0 0 -17.7,-18.89 16.9,16.9 0 0 0 -33.68,0 18.84,18.84 0 0 0 -16.85,24.37 18.86,18.86 0 0 0 -8.27,15.52 18.67,18.67 0 0 0 2.72,9.83 18.91,18.91 0 0 0 -6.4,14.1 z m 46,101.17 a 1.59,1.59 0 0 1 -0.81,0 l -30.5,-82.7 a 18.86,18.86 0 0 0 4,0.46 l 57.17,-0.16 a 4.87,4.87 0 0 0 0.55,-0.06 z M 198.74,205 a 3.5,3.5 0 0 0 0.83,-5.45 11.85,11.85 0 0 1 3.87,-19 3.5,3.5 0 0 0 1.69,-4.82 11.85,11.85 0 0 1 10.47,-17.33 h 2.5 a 3.49,3.49 0 0 0 3.45,-4 9.72,9.72 0 0 1 -0.13,-1.51 9.91,9.91 0 1 1 19.81,0 9.47,9.47 0 0 1 -0.13,1.48 3.51,3.51 0 0 0 3.46,4 h 2.56 a 11.84,11.84 0 0 1 10.35,17.4 3.51,3.51 0 0 0 1.7,4.86 11.85,11.85 0 0 1 3.83,19.12 3.5,3.5 0 0 0 0.84,5.48 11.85,11.85 0 0 1 -2.69,21.82 l -56.72,0.16 A 11.84,11.84 0 0 1 198.74,205 Z"
       id="path2" />
  </g>
</svg>
