<?xml version="1.0" encoding="UTF-8" standalone="no"?>
<svg
   xmlns:dc="http://purl.org/dc/elements/1.1/"
   xmlns:cc="http://creativecommons.org/ns#"
   xmlns:rdf="http://www.w3.org/1999/02/22-rdf-syntax-ns#"
   xmlns:svg="http://www.w3.org/2000/svg"
   xmlns="http://www.w3.org/2000/svg"
   xmlns:sodipodi="http://sodipodi.sourceforge.net/DTD/sodipodi-0.dtd"
   xmlns:inkscape="http://www.inkscape.org/namespaces/inkscape"
   viewBox="0 0 121.16001 173.95905"
   version="1.1"
   id="svg7"
   sodipodi:docname="Internal leak.svg"
   width="121.16"
   height="173.95905"
   inkscape:version="1.0.2 (e86c870879, 2021-01-15, custom)">
  <g
     id="Layer_10"
     data-name="Layer 10"
     transform="translate(-170.69,-142.78)">
    <path
       class="cls-1"
       d="m 257.69,158.54 v -9 c 0,-3.86 -3.85,-6.76 -9,-6.76 h -69 c -5.11,0 -9,2.9 -9,6.76 v 9 c 0,3.64 3.44,6.43 8.12,6.73 v 28.38 a 35.29,35.29 0 0 0 0.19,3.61 97.72,97.72 0 0 0 30.55,61.74 95.53,95.53 0 0 0 60.15,25.54 c 0.9,3.53 3.34,5.94 6.39,5.94 h 9 c 3.85,0 6.76,-3.86 6.76,-9 v -69 c 0,-5.11 -2.91,-9 -6.76,-9 h -9 c -3.8,0 -6.68,3.75 -6.76,8.75 a 25.38,25.38 0 0 1 -18.7,-20.84 v -26.23 c 4.14,-0.62 7.06,-3.26 7.06,-6.62 z m -79.91,-8.38 a 4.37,4.37 0 0 1 2,-0.4 h 69 a 4.37,4.37 0 0 1 2,0.4 v 7.74 a 4.51,4.51 0 0 1 -2,0.4 h -69 a 4.51,4.51 0 0 1 -2,-0.4 z m 99,60.41 h 7.74 a 4.51,4.51 0 0 1 0.4,2 v 69 a 4.6,4.6 0 0 1 -0.4,2 h -7.74 a 4.46,4.46 0 0 1 -0.4,-2 v -0.13 c 0,-0.07 0,-0.14 0,-0.21 v -64.81 c 0,-0.07 0,-0.14 0,-0.21 v -3.68 a 4.37,4.37 0 0 1 0.35,-1.96 z m -7.4,8.92 v 58 A 88.52,88.52 0 0 1 226.5,263.34 l 3.74,-10.48 10.07,7.72 a 3.51,3.51 0 0 0 4,0.17 l 9.11,-5.81 a 3.5,3.5 0 1 0 -3.76,-5.9 l -7.05,4.49 -11.93,-9.14 a 3.49,3.49 0 0 0 -3.12,-0.58 3.46,3.46 0 0 0 -2.3,2.18 l -4.69,13.13 c -2.14,-1.66 -4.21,-3.41 -6.21,-5.27 a 90.73,90.73 0 0 1 -28.27,-57.35 27.4,27.4 0 0 1 -0.15,-2.89 V 165.3 h 57.73 v 26.44 a 4.19,4.19 0 0 0 0,0.5 c 2,13.82 12.55,24.81 25.66,27.25 z"
       id="path2" />
    <path
       class="cls-1"
       d="m 219,278.76 c -0.54,0.43 -13.2,10.68 -13.45,22.23 a 14.59,14.59 0 0 0 4.1,10.82 15.95,15.95 0 0 0 23.06,0 14.59,14.59 0 0 0 4.09,-10.81 c -0.25,-11.55 -12.91,-21.8 -13.44,-22.23 A 3.5,3.5 0 0 0 219,278.76 Z m 10.82,22.38 v 0 a 7.59,7.59 0 0 1 -2.11,5.77 8.95,8.95 0 0 1 -13.06,0 7.59,7.59 0 0 1 -2.11,-5.77 c 0.12,-5.52 5.15,-11.57 8.64,-15 3.49,3.42 8.51,9.45 8.63,15 z"
       id="path4" />
  </g>
</svg>
