<?xml version="1.0" encoding="UTF-8" standalone="no"?>
<svg
   xmlns:dc="http://purl.org/dc/elements/1.1/"
   xmlns:cc="http://creativecommons.org/ns#"
   xmlns:rdf="http://www.w3.org/1999/02/22-rdf-syntax-ns#"
   xmlns:svg="http://www.w3.org/2000/svg"
   xmlns="http://www.w3.org/2000/svg"
   xmlns:sodipodi="http://sodipodi.sourceforge.net/DTD/sodipodi-0.dtd"
   xmlns:inkscape="http://www.inkscape.org/namespaces/inkscape"
   viewBox="0 0 121.07163 147.72"
   version="1.1"
   id="svg5"
   sodipodi:docname="Internal blockage.svg"
   width="121.07163"
   height="147.72"
   inkscape:version="1.0.2 (e86c870879, 2021-01-15, custom)">
  <g
     id="Layer_10"
     data-name="Layer 10"
     transform="translate(-170.72,-155.89)">
    <path
       class="cls-1"
       d="m 285.11,216.69 h -9 c -3.8,0 -6.68,3.75 -6.76,8.76 a 25.39,25.39 0 0 1 -18.7,-20.85 v -26.31 c 4.14,-0.63 7.07,-3.27 7.07,-6.63 v -9 c 0,-3.86 -3.86,-6.77 -9,-6.77 h -69 c -5.11,0 -9,2.91 -9,6.77 v 9 c 0,3.64 3.44,6.44 8.12,6.74 v 28.38 a 32.73,32.73 0 0 0 0.19,3.6 97.75,97.75 0 0 0 30.46,61.76 95.51,95.51 0 0 0 60.15,25.53 c 0.9,3.53 3.34,5.94 6.39,5.94 h 9 c 3.85,0 6.76,-3.85 6.76,-9 v -69 c 0.08,-5.06 -2.79,-8.92 -6.68,-8.92 z m -23.79,30 a 9.7,9.7 0 0 1 -0.09,-1.19 9,9 0 0 1 8.1,-9 v 54.08 a 88.55,88.55 0 0 1 -52.64,-21.52 c 2.31,-2.69 6,-5.43 9.16,-5.9 a 3.51,3.51 0 0 0 3,-3.15 15.7,15.7 0 0 1 26.27,-10.01 3.5,3.5 0 0 0 4,0.52 l 0.28,-0.16 a 3.5,3.5 0 0 0 1.92,-3.63 z m -83.54,-83.45 a 4.51,4.51 0 0 1 2,-0.4 h 69 a 4.6,4.6 0 0 1 2,0.4 V 171 a 4.6,4.6 0 0 1 -2,0.4 h -69 a 4.51,4.51 0 0 1 -2,-0.4 z m 8.27,46.39 a 27.68,27.68 0 0 1 -0.15,-2.89 v -28.31 h 57.73 v 26.43 a 4.36,4.36 0 0 0 0,0.51 32.62,32.62 0 0 0 20,25.58 16.09,16.09 0 0 0 -8.86,10.34 22.72,22.72 0 0 0 -32.56,15.57 20.39,20.39 0 0 0 -10.76,7.38 90.85,90.85 0 0 1 -25.4,-54.57 z m 98.82,85 a 4.51,4.51 0 0 1 -0.4,2 h -7.74 a 4.37,4.37 0 0 1 -0.4,-2 v -0.15 c 0,-0.06 0,-0.12 0,-0.19 v -64.74 c 0,-0.07 0,-0.14 0,-0.2 v -3.69 a 4.46,4.46 0 0 1 0.4,-2 h 7.74 a 4.6,4.6 0 0 1 0.4,2 z"
       id="path2" />
  </g>
</svg>
