<?xml version="1.0" encoding="UTF-8" standalone="no"?>
<svg
   xmlns:dc="http://purl.org/dc/elements/1.1/"
   xmlns:cc="http://creativecommons.org/ns#"
   xmlns:rdf="http://www.w3.org/1999/02/22-rdf-syntax-ns#"
   xmlns:svg="http://www.w3.org/2000/svg"
   xmlns="http://www.w3.org/2000/svg"
   xmlns:sodipodi="http://sodipodi.sourceforge.net/DTD/sodipodi-0.dtd"
   xmlns:inkscape="http://www.inkscape.org/namespaces/inkscape"
   viewBox="0 0 160.20998 160.92206"
   version="1.1"
   id="svg5"
   sodipodi:docname="Landmark.svg"
   width="160.20998"
   height="160.92206"
   inkscape:version="1.0.2 (e86c870879, 2021-01-15, custom)">
  <g
     id="Layer_10"
     data-name="Layer 10"
     transform="translate(-151.09256,-149.38)">
    <path
       class="cls-1"
       d="m 307.82,310.11 a 3.5,3.5 0 0 0 2,-6.36 136.1,136.1 0 0 0 -75.15,-25.07 v -125.8 a 3.5,3.5 0 0 0 -7,0 V 164 H 179 a 4.69,4.69 0 0 0 -4.19,2.32 4.46,4.46 0 0 0 0.44,4.71 l 6.49,9.64 -6.27,8.33 a 4.62,4.62 0 0 0 -0.64,4.79 4.36,4.36 0 0 0 4.18,2.34 h 48.67 v 82.6 a 136.1,136.1 0 0 0 -74.87,25.06 3.5,3.5 0 1 0 4,5.72 128.25,128.25 0 0 1 149,0 3.47,3.47 0 0 0 2.01,0.6 z m -123.66,-121 3.53,-4.66 a 6.17,6.17 0 0 0 0.21,-7.16 L 183.68,171 h 44 v 18.08 z"
       id="path2" />
  </g>
</svg>
