<?xml version="1.0" encoding="utf-8"?>
<!-- Generator: Adobe Illustrator 25.0.0, SVG Export Plug-In . SVG Version: 6.00 Build 0)  -->
<svg version="1.1" id="Layer_1" xmlns="http://www.w3.org/2000/svg" xmlns:xlink="http://www.w3.org/1999/xlink" x="0px" y="0px"
	 viewBox="0 0 85.1 140" style="enable-background:new 0 0 85.1 140;" xml:space="preserve">
<g id="Layer_10">
	<path d="M1.2,109.8c1.4,1.9,3.6,2.9,5.9,2.9h17v21.5c0,4.1,2.1,5.3,3.3,5.7c0.4,0.1,0.8,0.2,1.2,0.2c1.3,0,3-0.6,4.7-3.1l32.7-49.8
		c2.1-2.5,1.7-6.2-0.8-8.3c-1.2-1-2.8-1.5-4.3-1.3h-1.3L84,35.7c2-2.7,1.4-6.5-1.3-8.5c-1.2-0.9-2.7-1.3-4.1-1.1h-7.7l6.3-16.6
		c0.9-2.2,0.7-4.6-0.6-6.6C75.2,1,73-0.1,70.7,0h-41c-4.4,0.2-8.3,2.9-10,7L0.7,57c-1.5,3.4-0.1,7.3,3.3,8.9c1,0.5,2.1,0.7,3.2,0.6
		h7.2L0.5,103.3C-0.4,105.4-0.1,107.9,1.2,109.8z M21.7,66.5c0.7-1.6,0.5-3.4-0.4-4.9c-1.1-1.4-2.7-2.2-4.5-2.2H7.2l19.1-50
		c0.7-1.4,2-2.3,3.5-2.4h40.9l-7.2,19c-0.7,1.6-0.6,3.4,0.4,4.9c1,1.4,2.7,2.2,4.5,2.2h9.1l-25.8,44c-1,1.5-1.1,3.4-0.2,5
		c1,1.5,2.7,2.4,4.5,2.4h3.4l-28.2,43v-15.8c0.1-3.2-2.5-5.9-5.8-6c-0.1,0-0.2,0-0.2,0H7.1L21.7,66.5z"/>
</g>
</svg>
