<?xml version="1.0" encoding="UTF-8" standalone="no"?>
<svg
   xmlns:dc="http://purl.org/dc/elements/1.1/"
   xmlns:cc="http://creativecommons.org/ns#"
   xmlns:rdf="http://www.w3.org/1999/02/22-rdf-syntax-ns#"
   xmlns:svg="http://www.w3.org/2000/svg"
   xmlns="http://www.w3.org/2000/svg"
   xmlns:sodipodi="http://sodipodi.sourceforge.net/DTD/sodipodi-0.dtd"
   xmlns:inkscape="http://www.inkscape.org/namespaces/inkscape"
   viewBox="0 0 159.13001 200.93588"
   version="1.1">
  <g
     id="Layer_10"
     data-name="Layer 10"
     transform="translate(-155.71,-129.25)">
    <path
       class="cls-1"
       d="m 311.39,323.14 a 20,20 0 0 1 -11,-3 26.64,26.64 0 0 0 -11.39,-3.63 l -6.88,-17.33 a 3.51,3.51 0 0 0 -3.25,-2.21 H 275 a 13.63,13.63 0 0 0 0.21,-3 1.09,1.09 0 0 0 0,-0.18 l -9.88,-110.67 a 3.49,3.49 0 0 0 -3.48,-3.18 h -3 l -1.43,-21 h 0.32 a 3.5,3.5 0 0 0 3.5,-3.38 c 0,-0.09 0,-0.23 0,-0.31 a 26,26 0 1 0 -52,0 c 0,0.11 0,0.21 0,0.31 a 3.51,3.51 0 0 0 3.5,3.38 h 0.08 l -1.41,21 h -2.95 a 3.49,3.49 0 0 0 -3.48,3.19 l -9.66,110.67 a 1.09,1.09 0 0 0 0,0.18 13.54,13.54 0 0 0 0.21,3 h -4.14 a 3.51,3.51 0 0 0 -3.27,2.25 l -6.61,17.29 a 26.71,26.71 0 0 0 -11.3,3.66 20.06,20.06 0 0 1 -11,3 3.5,3.5 0 0 0 0,7 26.83,26.83 0 0 0 14.32,-3.79 22,22 0 0 1 22.06,0 29,29 0 0 0 28.65,0 22,22 0 0 1 22.06,0 29,29 0 0 0 28.65,0 22,22 0 0 1 22.06,0 26.9,26.9 0 0 0 14.33,3.79 3.5,3.5 0 0 0 0,-7 z M 208.36,226 h 53.8 l 2.84,32 h -0.12 -59 c -0.11,0 -0.22,0 -0.33,0 z m 3.37,-38.69 a 3.33,3.33 0 0 0 1.09,0.19 H 258 a 3.77,3.77 0 0 0 0.76,-0.08 L 261.53,219 H 209 Z m 40.18,-7.3 H 238.72 V 159 h 11.75 z M 235.32,136.36 A 19,19 0 0 1 254,152 a 3.13,3.13 0 0 0 -0.53,0 0.93,0.93 0 0 0 -0.23,0 h -36.63 a 19,19 0 0 1 18.71,-15.67 z M 219.92,159 h 11.8 v 21 h -13.2 z M 202.39,294.35 205,264.84 a 3.46,3.46 0 0 0 0.92,0.13 h 59 a 3.65,3.65 0 0 0 0.74,-0.08 l 2.63,29.47 a 5.13,5.13 0 0 1 -0.52,2.61 h -17.64 v -9.09 c 0,-8.47 -6.64,-15.36 -14.81,-15.36 -8.17,0 -14.81,6.89 -14.81,15.36 V 297 h -17.59 a 5.15,5.15 0 0 1 -0.53,-2.65 z m 25.12,2.65 v -9.09 a 7.83,7.83 0 1 1 15.62,0 V 297 Z m 44.2,23.2 a 22,22 0 0 1 -22.06,0 29,29 0 0 0 -28.65,0 22,22 0 0 1 -22.06,0 27.4,27.4 0 0 0 -9.91,-3.5 l 4.85,-12.7 h 82.61 l 5.05,12.71 a 27.08,27.08 0 0 0 -9.83,3.46 z"
       id="path2" />
    <path
       class="cls-1"
       d="m 189.79,179.81 -11.26,6.5 a 3.5,3.5 0 0 0 1.75,6.53 3.46,3.46 0 0 0 1.75,-0.47 l 11.26,-6.5 a 3.5,3.5 0 1 0 -3.5,-6.06 z"
       id="path4" />
    <path
       class="cls-1"
       d="M 193.29,152.9 182,146.4 a 3.5,3.5 0 0 0 -3.5,6.06 l 11.26,6.5 a 3.45,3.45 0 0 0 1.74,0.47 3.5,3.5 0 0 0 1.76,-6.53 z"
       id="path6" />
    <path
       class="cls-1"
       d="m 293.4,147.68 a 3.49,3.49 0 0 0 -4.78,-1.28 l -11.26,6.5 a 3.5,3.5 0 0 0 1.75,6.53 3.46,3.46 0 0 0 1.75,-0.47 l 11.26,-6.5 a 3.5,3.5 0 0 0 1.28,-4.78 z"
       id="path8" />
    <path
       class="cls-1"
       d="m 292.12,186.31 -11.26,-6.5 a 3.5,3.5 0 0 0 -3.5,6.06 l 11.26,6.5 a 3.46,3.46 0 0 0 1.75,0.47 3.5,3.5 0 0 0 1.75,-6.53 z"
       id="path10" />
  </g>
</svg>
