<svg
    viewBox="0 0 199.00017 119.38572"
    version="1.1"
    width="199.00017"
    height="119.38572"
    preserveAspectRatio="xMinYMid"
    aria-hidden="true"
    focusable="false">
        <title>Lorry</title>
        <path d="m 188.24,61.11 h -1.79 L 175.18,29.57 a 4,4 0 0 0 -0.26,-0.56 c -3.42,-6 -7.59,-9 -12.42,-9 H 140.38 V 15.5 A 15.52,15.52 0 0 0 124.88,0 H 15.5 A 15.52,15.52 0 0 0 0,15.5 v 74.59 a 15.52,15.52 0 0 0 15.5,15.5 h 3.77 a 17.72,17.72 0 0 0 34.56,0 h 8.95 a 17.72,17.72 0 0 0 34.56,0 h 39.75 11.92 a 17.73,17.73 0 0 0 34.59,-0.07 h 4 a 17.25,17.25 0 0 0 3.49,-0.24 v 0.06 A 10.79,10.79 0 0 0 199,94.88 v -23 A 10.77,10.77 0 0 0 188.24,61.11 Z m -9.35,0 H 159.51 V 47.05 h 14.34 z M 36.55,112.33 A 10.75,10.75 0 1 1 47.3,101.58 10.77,10.77 0 0 1 36.55,112.33 Z m 43.51,0 A 10.75,10.75 0 1 1 90.81,101.58 10.77,10.77 0 0 1 80.06,112.33 Z M 133.38,98.55 H 97.53 a 17.73,17.73 0 0 0 -34.94,0 h -8.57 a 17.73,17.73 0 0 0 -34.94,0 H 15.5 A 8.51,8.51 0 0 1 7,90.05 V 15.46 a 8.51,8.51 0 0 1 8.5,-8.5 h 109.38 a 8.51,8.51 0 0 1 8.5,8.5 z m 32.91,13.78 a 10.75,10.75 0 1 1 10.75,-10.75 10.77,10.77 0 0 1 -10.75,10.75 z M 192,94.88 a 3.78,3.78 0 0 1 -2.42,3.52 c -0.64,0 -2.18,0 -5.83,0 a 17.73,17.73 0 0 0 -34.93,0.07 h -8.23 v -71.5 h 21.88 c 2.08,0 4.16,1.77 6.19,5.25 l 2.8,7.82 h -11.69 c -4.77,0 -7.26,3.17 -7.26,6.3 v 15.47 c 0,3.13 2.49,6.3 7.26,6.3 h 28.47 a 3.76,3.76 0 0 1 3.76,3.77 z" />
</svg>
