<?xml version="1.0" encoding="UTF-8" standalone="no"?>
<svg
   xmlns:dc="http://purl.org/dc/elements/1.1/"
   xmlns:cc="http://creativecommons.org/ns#"
   xmlns:rdf="http://www.w3.org/1999/02/22-rdf-syntax-ns#"
   xmlns:svg="http://www.w3.org/2000/svg"
   xmlns="http://www.w3.org/2000/svg"
   xmlns:sodipodi="http://sodipodi.sourceforge.net/DTD/sodipodi-0.dtd"
   xmlns:inkscape="http://www.inkscape.org/namespaces/inkscape"
   viewBox="0 0 136.44466 136.86017"
   version="1.1"
   id="svg6"
   sodipodi:docname="magnifying-glass.svg"
   width="136.44466"
   height="136.86017"
   inkscape:version="1.0.2 (e86c870879, 2021-01-15, custom)">
  <metadata
     id="metadata12">
    <rdf:RDF>
      <cc:Work
         rdf:about="">
        <dc:format>image/svg+xml</dc:format>
        <dc:type
           rdf:resource="http://purl.org/dc/dcmitype/StillImage" />
      </cc:Work>
    </rdf:RDF>
  </metadata>
  <defs
     id="defs10" />
  <sodipodi:namedview
     pagecolor="#ffffff"
     bordercolor="#666666"
     borderopacity="1"
     objecttolerance="10"
     gridtolerance="10"
     guidetolerance="10"
     inkscape:pageopacity="0"
     inkscape:pageshadow="2"
     inkscape:window-width="1920"
     inkscape:window-height="1001"
     id="namedview8"
     showgrid="false"
     inkscape:zoom="6.0645841"
     inkscape:cx="59.236695"
     inkscape:cy="87.392638"
     inkscape:window-x="-9"
     inkscape:window-y="-9"
     inkscape:window-maximized="1"
     inkscape:current-layer="svg6" />
  <g
     id="g4"
     transform="translate(-163.07936,-161.31983)">
    <path
       class="cls-1"
       d="m 248.43,203.76 a 42.55,42.55 0 0 0 -42.56,-42.44 h -0.12 a 42.55,42.55 0 0 0 -42.67,42.2 41.86,41.86 0 0 0 12.43,30 42.53,42.53 0 0 0 30.13,12.48 h 0.11 a 42.66,42.66 0 0 0 27.05,-9.61 l 10.2,10.2 -4.34,4.41 a 7.08,7.08 0 0 0 0,10.22 L 273.45,296 a 7.47,7.47 0 0 0 5.19,2.18 7,7 0 0 0 5,-2.18 l 13.7,-13.71 a 7.07,7.07 0 0 0 0,-10.22 l -34.78,-34.79 a 7.09,7.09 0 0 0 -10.22,0 l -4.34,4.36 -10.15,-10.15 a 41.9,41.9 0 0 0 10.58,-27.73 z m 8.89,38.45 0.12,-0.11 0.2,0.11 34.78,34.79 0.12,0.12 a 2.19,2.19 0 0 1 -0.11,0.2 l -13.71,13.68 -0.12,0.11 -0.2,-0.11 -34.79,-34.79 -0.11,-0.12 a 2.13,2.13 0 0 1 0.16,-0.25 z M 205.66,239 a 35.61,35.61 0 0 1 -25.21,-10.42 34.89,34.89 0 0 1 -10.37,-25 35.53,35.53 0 0 1 35.67,-35.22 h 0.1 a 35.320035,35.320035 0 1 1 -0.1,70.64 z"
       id="path2" />
    <path
       class="cls-1"
       d="m 205.9,179.7 v 0 a 3.5,3.5 0 0 0 0,7 17.15,17.15 0 0 1 17,17 3.5,3.5 0 0 0 3.5,3.49 v 0 a 3.51,3.51 0 0 0 3.49,-3.51 24.18,24.18 0 0 0 -23.99,-23.98 z"
       id="path4" />
  </g>
</svg>
