<?xml version="1.0" encoding="utf-8"?>
<!-- Generator: Adobe Illustrator 25.0.0, SVG Export Plug-In . SVG Version: 6.00 Build 0)  -->
<svg version="1.1" id="Layer_1" xmlns="http://www.w3.org/2000/svg" xmlns:xlink="http://www.w3.org/1999/xlink" x="0px" y="0px"
	 viewBox="0 0 136.5 137.6" style="enable-background:new 0 0 136.5 137.6;" xml:space="preserve">
<g>
	<path d="M115.6,137.6C115.6,137.6,115.6,137.6,115.6,137.6c-2.9,0-4.8-1.8-5.2-2.2l-34.8-34.8c-1.8-1.8-2.2-3.7-2.2-5
		c0-2.9,1.8-4.8,2.2-5.2l13.7-13.7c1.8-1.8,3.7-2.2,5-2.2c2.9,0,4.8,1.8,5.2,2.2l34.8,34.8c3.3,3.3,2.5,7.7,0,10.2l-13.7,13.7
		C118.8,137.2,116.9,137.6,115.6,137.6z M80.4,95.5c0,0,0.1,0.1,0.1,0.1l34.8,34.8c0,0,0.1,0.1,0.2,0.1c0,0,0.1-0.1,0.1-0.1
		l13.7-13.7c0,0,0.1-0.1,0.1-0.2c0,0-0.1-0.1-0.1-0.1L94.6,81.6c0,0-0.1-0.1-0.2-0.1c0,0-0.1,0.1-0.1,0.1L80.6,95.3
		C80.5,95.3,80.5,95.4,80.4,95.5z"/>
	<path d="M84.4,89c-0.9,0-1.8-0.3-2.5-1l-14-14c-1.4-1.4-1.4-3.6,0-4.9c1.4-1.4,3.6-1.4,4.9,0l14,14c1.4,1.4,1.4,3.6,0,4.9
		C86.2,88.6,85.3,89,84.4,89z"/>
	<path d="M42.5,85.4c-11.3,0-22-4.4-30-12.4C4.5,65,0,54.3,0,42.9c-0.1-11.4,4.3-22.1,12.3-30.2C20.3,4.6,31,0.1,42.4,0
		c11.4-0.1,22.1,4.3,30.3,12.3c8.1,8,12.6,18.7,12.7,30.1c0.1,23.5-18.9,42.8-42.4,43L42.5,85.4C42.5,85.4,42.5,85.4,42.5,85.4z
		 M42.7,7c-0.1,0-0.2,0-0.2,0C32.9,7.1,24,10.8,17.3,17.6S6.9,33.4,7,42.9c0,0,0,0,0,0c0,9.5,3.7,18.4,10.4,25.1
		c6.7,6.7,15.6,10.4,25.1,10.4c0,0,0,0,0.1,0l0.3,0c19.7-0.1,35.6-16.2,35.5-35.9c-0.1-9.5-3.8-18.5-10.6-25.2
		C61,10.6,52.1,7,42.7,7z"/>
</g>
</svg>
