<?xml version="1.0" encoding="utf-8"?>
<!-- Generator: Adobe Illustrator 25.0.0, SVG Export Plug-In . SVG Version: 6.00 Build 0)  -->
<svg version="1.1" id="Layer_1" xmlns="http://www.w3.org/2000/svg" xmlns:xlink="http://www.w3.org/1999/xlink" x="0px" y="0px"
	 viewBox="0 0 160 59.4" style="enable-background:new 0 0 160 59.4;" xml:space="preserve">
<g>
	<path d="M156.5,59.4c-7.3,0-11-2-14.4-3.8c-3-1.6-5.6-3-11.1-3s-8.1,1.4-11.1,3c-3.3,1.8-7.1,3.8-14.4,3.8s-11-2-14.4-3.8
		c-3-1.6-5.6-3-11.1-3c-5.5,0-8.1,1.4-11.1,3c-3.4,1.8-7.1,3.8-14.4,3.8s-11-2-14.4-3.8c-3-1.6-5.6-3-11.1-3s-8.1,1.4-11.1,3
		c-3.4,1.8-7.1,3.8-14.4,3.8c-1.9,0-3.5-1.6-3.5-3.5s1.6-3.5,3.5-3.5c5.5,0,8.1-1.4,11.1-3c3.4-1.8,7.1-3.8,14.4-3.8s11,2,14.4,3.8
		c3,1.6,5.6,3,11.1,3s8.1-1.4,11.1-3c3.4-1.8,7.1-3.8,14.4-3.8c7.3,0,11,2,14.4,3.8c3,1.6,5.6,3,11.1,3s8.1-1.4,11.1-3
		c3.3-1.8,7.1-3.8,14.4-3.8s11,2,14.4,3.8c3,1.6,5.6,3,11.1,3c1.9,0,3.5,1.6,3.5,3.5S158.4,59.4,156.5,59.4z"/>
	<path d="M156.5,13.8c-7.2,0-11-2-14.4-3.8c-3-1.6-5.6-3-11.1-3s-8.1,1.4-11.1,3c-3.4,1.8-7.1,3.8-14.4,3.8s-11-2-14.4-3.8
		c-3-1.6-5.6-3-11.1-3c-5.5,0-8.1,1.4-11.1,3c-3.4,1.8-7.1,3.8-14.4,3.8s-11-2-14.4-3.8c-3-1.6-5.6-3-11.1-3s-8.1,1.4-11.1,3
		c-3.4,1.8-7.1,3.8-14.4,3.8c-1.9,0-3.5-1.6-3.5-3.5s1.6-3.5,3.5-3.5c5.5,0,8.1-1.4,11.1-3C18,2,21.7,0,29,0s11,2,14.4,3.8
		c3,1.6,5.6,3,11.1,3s8.1-1.4,11.1-3C69,2,72.7,0,80,0c7.3,0,11,2,14.4,3.8c3,1.6,5.6,3,11.1,3s8.1-1.4,11.1-3C120,2,123.8,0,131,0
		s11,2,14.4,3.8c3,1.6,5.6,3,11.1,3c1.9,0,3.5,1.6,3.5,3.5S158.4,13.8,156.5,13.8z"/>
	<path d="M156.5,36.6c-7.2,0-11-2-14.4-3.8c-3-1.6-5.6-3-11.1-3s-8.1,1.4-11.1,3c-3.4,1.8-7.1,3.8-14.4,3.8s-11-2-14.4-3.8
		c-3-1.6-5.6-3-11.1-3c-5.5,0-8.1,1.4-11.1,3c-3.4,1.8-7.1,3.8-14.4,3.8s-11-2-14.4-3.8c-3-1.6-5.6-3-11.1-3s-8.1,1.4-11.1,3
		c-3.4,1.8-7.1,3.8-14.4,3.8C1.6,36.6,0,35,0,33.1s1.6-3.5,3.5-3.5c5.5,0,8.1-1.4,11.1-3c3.4-1.8,7.1-3.8,14.4-3.8s11,2,14.4,3.8
		c3,1.6,5.6,3,11.1,3s8.1-1.4,11.1-3c3.4-1.8,7.1-3.8,14.4-3.8c7.3,0,11,2,14.4,3.8c3,1.6,5.6,3,11.1,3s8.1-1.4,11.1-3
		c3.4-1.8,7.1-3.8,14.4-3.8s11,2,14.4,3.8c3,1.6,5.6,3,11.1,3c1.9,0,3.5,1.6,3.5,3.5S158.4,36.6,156.5,36.6z"/>
</g>
</svg>
