<?xml version="1.0" encoding="utf-8"?>
<!-- Generator: Adobe Illustrator 25.0.0, SVG Export Plug-In . SVG Version: 6.00 Build 0)  -->
<svg version="1.1" id="Layer_1" xmlns="http://www.w3.org/2000/svg" xmlns:xlink="http://www.w3.org/1999/xlink" x="0px" y="0px"
	 viewBox="0 0 63.3 118.6" style="enable-background:new 0 0 63.3 118.6;" xml:space="preserve">
<g>
	<path d="M31.6,63.3H4c-2.2,0-4-1.8-4-4V4c0-2.2,1.8-4,4-4h27.7c17.4,0,31.6,14.2,31.6,31.7C63.3,49.1,49.1,63.3,31.6,63.3z M8,55.3
		h23.6c13.1,0,23.7-10.6,23.7-23.7C55.3,18.6,44.7,8,31.7,8H8V55.3z"/>
	<path d="M4,118.6c-2.2,0-4-1.8-4-4V59.3c0-2.2,1.8-4,4-4s4,1.8,4,4v55.3C8,116.9,6.2,118.6,4,118.6z"/>
</g>
</svg>
