<?xml version="1.0" encoding="utf-8"?>
<!-- Generator: Adobe Illustrator 25.0.0, SVG Export Plug-In . SVG Version: 6.00 Build 0)  -->
<svg version="1.1" id="Layer_1" xmlns="http://www.w3.org/2000/svg" xmlns:xlink="http://www.w3.org/1999/xlink" x="0px" y="0px"
	 viewBox="0 0 180 140" style="enable-background:new 0 0 180 140;" xml:space="preserve">
<g>
	<g>
		<path d="M84,110.6H31.5c-1.9,0-3.5-1.6-3.5-3.5s1.6-3.5,3.5-3.5H84c1.9,0,3.5,1.6,3.5,3.5S85.9,110.6,84,110.6z"/>
	</g>
	<g>
		<path d="M161.5,140h-143C3.9,140,0,127.9,0,121.5v-103C0,3.9,12.1,0,18.5,0h143C176.1,0,180,12.1,180,18.5v103
			C180,136.1,167.9,140,161.5,140z M18.5,7C17.3,7,7,7.4,7,18.5v103c0,1.2,0.4,11.5,11.5,11.5h143c1.2,0,11.5-0.5,11.5-11.5v-103
			c0-1.2-0.4-11.5-11.5-11.5H18.5z"/>
	</g>
	<g>
		<path d="M176.5,42.7H3.5c-1.9,0-3.5-1.6-3.5-3.5s1.6-3.5,3.5-3.5h172.9c1.9,0,3.5,1.6,3.5,3.5S178.4,42.7,176.5,42.7z"/>
	</g>
	<g>
		<path d="M46.2,95.2H31.3c-1.9,0-3.5-1.6-3.5-3.5c0-1.9,1.6-3.5,3.5-3.5h14.9c1.9,0,3.5,1.6,3.5,3.5C49.7,93.7,48.1,95.2,46.2,95.2
			z"/>
	</g>
	<g>
		<path d="M104.5,79h-73c-1.9,0-3.5-1.6-3.5-3.5s1.6-3.5,3.5-3.5h73c1.9,0,3.5,1.6,3.5,3.5S106.4,79,104.5,79z"/>
	</g>
</g>
</svg>
