<?xml version="1.0" encoding="UTF-8" standalone="no"?>
<svg
   xmlns:dc="http://purl.org/dc/elements/1.1/"
   xmlns:cc="http://creativecommons.org/ns#"
   xmlns:rdf="http://www.w3.org/1999/02/22-rdf-syntax-ns#"
   xmlns:svg="http://www.w3.org/2000/svg"
   xmlns="http://www.w3.org/2000/svg"
   xmlns:sodipodi="http://sodipodi.sourceforge.net/DTD/sodipodi-0.dtd"
   xmlns:inkscape="http://www.inkscape.org/namespaces/inkscape"
   viewBox="0 0 120 149.02077"
   version="1.1">
  <path
     d="m 0,145.52077 a 3.5,3.5 0 0 0 3.5,3.5 h 113 a 3.5,3.5 0 0 0 3.5,-3.5 V 52.520771 a 3.5,3.5 0 0 0 -3.5,-3.5 H 78.87 a 3.5,3.5 0 0 0 -3.5,3.5 v 16.5 H 41.19 a 3.5,3.5 0 0 0 -3.5,3.5 v 16.5 H 3.5 a 3.5,3.5 0 0 0 -3.5,3.5 z M 82.37,56.020771 H 113 V 142.02077 H 82.37 Z m -37.68,20 H 75.32 V 142.02077 H 44.68 Z m -37.69,20 H 37.68 V 142.02077 H 7 Z"
     id="path2" />
  <path
     d="m 0.36,63.310771 a 3.48,3.48 0 0 0 3.19,2 3.52,3.52 0 0 0 1.44,-0.31 l 105.2,-47.64 -4.12,10.73 a 3.49,3.49 0 0 0 2,4.52 3.45,3.45 0 0 0 1.25,0.23 3.49,3.49 0 0 0 3.27,-2.25 l 7.17,-18.67 a 3.48,3.48 0 0 0 -0.07,-2.6699997 3.52,3.52 0 0 0 -1.94,-1.85 L 99.07,0.23077134 a 3.5007713,3.5007713 0 0 0 -2.5,6.53999996 l 10.83,4.1599997 -105.3,47.74 a 3.51,3.51 0 0 0 -1.74,4.64 z"
     id="path4" />
</svg>
