<?xml version="1.0" encoding="utf-8"?>
<!-- Generator: Adobe Illustrator 25.0.0, SVG Export Plug-In . SVG Version: 6.00 Build 0)  -->
<svg version="1.1" id="Layer_1" xmlns="http://www.w3.org/2000/svg" xmlns:xlink="http://www.w3.org/1999/xlink" x="0px" y="0px"
	 viewBox="0 0 132.4 132.4" style="enable-background:new 0 0 132.4 132.4;" xml:space="preserve">
<g id="Layer_10">
	<g>
		<path d="M104.9,132.4c-0.3,0-0.6,0-0.9,0c-12.2-0.4-41.2-10.8-67.3-36.8C10.8,69.6,0.4,40.5,0,28.3c-0.2-6.1,1.7-11.4,5.5-15.2h0
			c0,0,0,0,0,0c3.7-3.7,10-9.7,10-9.8c0.6-0.5,1.1-0.9,1.7-1.3c2.8-1.8,6.1-2.5,9.4-1.8c3.3,0.7,6.1,2.6,7.9,5.4l18.2,27.6
			c2.7,4.1,2.8,9.4,0.1,13.5l-4.6,9.6c0,0.1-0.1,0.1-0.1,0.2c-0.7,1.3-0.7,3,0.2,4.2c3.3,4.4,6.9,8.6,10.6,12.5
			c4,3.8,8.2,7.4,12.6,10.7c1.2,0.8,2.8,0.9,4.2,0.2c0.1,0,0.1-0.1,0.2-0.1l9.6-4.6c4.1-2.6,9.4-2.6,13.5,0.1l27.6,18.2
			c0.6,0.4,1.1,0.8,1.6,1.2c2.5,2.3,3.9,5.3,4,8.7c0.1,3.3-1,6.5-3.3,9c-0.1,0.1-6.1,6.4-9.8,10.1
			C115.6,130.5,110.7,132.4,104.9,132.4z M24.1,7c-1.1,0-2.1,0.3-3,0.9c-0.2,0.2-0.5,0.3-0.7,0.5c0,0-6.2,6-9.9,9.6c0,0,0,0,0,0
			C8,20.5,6.9,23.9,7,28.1C7.4,40,18.5,67.3,41.7,90.6c23.3,23.3,50.6,34.3,62.5,34.7c4.2,0.1,7.6-1,10-3.5c3.6-3.6,9.6-9.9,9.7-9.9
			c2-2.2,1.8-5.7-0.4-7.7c-0.2-0.2-0.5-0.4-0.7-0.6L95.3,85.5c-1.8-1.2-4.2-1.2-6,0c-0.1,0.1-0.3,0.2-0.4,0.2l-9.7,4.7
			c-3.7,2-8.2,1.8-11.6-0.7c-4.7-3.5-9.2-7.3-13.3-11.3c0,0-0.1-0.1-0.1-0.1c-4-4.2-7.8-8.6-11.3-13.3c0,0,0-0.1-0.1-0.1
			c-2.4-3.4-2.7-8-0.6-11.6l4.7-9.7c0.1-0.1,0.1-0.3,0.2-0.4c1.2-1.8,1.2-4.2,0-6.1L28.7,9.5c-0.8-1.2-2-2.1-3.5-2.4
			C24.8,7,24.5,7,24.1,7z M8,15.6L8,15.6L8,15.6z"/>
	</g>
</g>
</svg>
