<?xml version="1.0" encoding="utf-8"?>
<!-- Generator: Adobe Illustrator 25.0.0, SVG Export Plug-In . SVG Version: 6.00 Build 0)  -->
<svg version="1.1" id="Layer_1" xmlns="http://www.w3.org/2000/svg" xmlns:xlink="http://www.w3.org/1999/xlink" x="0px" y="0px"
	 viewBox="0 0 152.6 163.7" style="enable-background:new 0 0 152.6 163.7;" xml:space="preserve">
<g id="Layer_10">
	<path d="M148.1,36.6c5.3-4.3,6.1-12,1.8-17.3c-1.1-1.4-2.5-2.5-4.1-3.3C101.8-5.9,50-5.3,6.6,17.5c-6,3.2-8.3,10.6-5.2,16.6
		c0.7,1.4,1.8,2.7,3,3.7c0,0.1,0,0.1,0.1,0.2l63,119.6c2,3.8,5.9,6.1,10.1,6.1h0.1c4.3,0,8.2-2.5,10.1-6.3L148,36.9
		C148,36.8,148,36.7,148.1,36.6z M9.8,23.7C30.3,13,53,7.3,76.1,7h1.6c22.6,0,44.8,5.2,65,15.3c2.6,1.3,3.7,4.5,2.4,7.1
		c-0.6,1.3-1.7,2.2-3.1,2.7c-1.3,0.5-2.8,0.3-4.1-0.3C99,12.5,53.2,13,14.8,33.1c-2.6,1.4-5.8,0.4-7.2-2.2S7.2,25.1,9.8,23.7
		L9.8,23.7z M81.6,154.3c-0.7,1.5-2.2,2.4-3.9,2.4h-0.1c-1.6,0-3.1-0.9-3.9-2.4L13.8,40.7c1.5-0.2,2.9-0.6,4.3-1.3
		c36.5-19.2,79.9-19.6,116.8-1.3c1.3,0.6,2.7,1,4.1,1.2L81.6,154.3z"/>
	<path d="M66.3,52.3c0-8.3-6.7-15-15-15s-15,6.7-15,15s6.7,15,15,15S66.3,60.6,66.3,52.3L66.3,52.3z M51.3,60.3c-4.4,0-8-3.6-8-8
		s3.6-8,8-8s8,3.6,8,8C59.3,56.7,55.7,60.3,51.3,60.3C51.3,60.4,51.2,60.4,51.3,60.3L51.3,60.3z"/>
	<path d="M95.9,56c-8.3,0-15,6.7-15,15s6.7,15,15,15s15-6.7,15-15S104.2,56,95.9,56L95.9,56z M95.9,79c-4.4,0-8-3.6-8-8s3.6-8,8-8
		s8,3.6,8,8S100.3,79,95.9,79z"/>
	<path d="M73.4,93.1c-8.3,0-15,6.7-15,15s6.7,15,15,15s15-6.7,15-15C88.3,99.9,81.6,93.2,73.4,93.1z M73.4,116.2c-4.4,0-8-3.6-8-8
		s3.6-8,8-8s8,3.6,8,8C81.4,112.6,77.8,116.2,73.4,116.2C73.4,116.2,73.4,116.2,73.4,116.2L73.4,116.2z"/>
</g>
</svg>
