<?xml version="1.0" encoding="UTF-8" standalone="no"?>
<svg
   xmlns="http://www.w3.org/2000/svg"
   viewBox="0 0 180 148.17"
   version="1.1">
  <g transform="translate(-141.32,-129.83)">
    <path
       class="cls-1"
       d="m 321.32,259.51 v -103 c 0,-6.39 -3.86,-18.5 -18.5,-18.5 h -9 v -4.67 a 3.5,3.5 0 1 0 -7,0 V 138 h -22.5 v -4.67 a 3.5,3.5 0 1 0 -7,0 V 138 h -22.5 v -4.67 a 3.5,3.5 0 1 0 -7,0 V 138 h -22.5 v -4.67 a 3.5,3.5 0 1 0 -7,0 V 138 h -22.5 v -4.67 a 3.5,3.5 0 1 0 -7,0 V 138 h -9 c -6.4,0 -18.5,3.87 -18.5,18.5 v 103 c 0,6.4 3.87,18.5 18.5,18.5 h 143 c 6.4,0 18.5,-3.85 18.5,-18.49 z M 159.82,145 h 9 v 3.28 a 3.5,3.5 0 1 0 7,0 V 145 h 22.5 v 3.28 a 3.5,3.5 0 1 0 7,0 V 145 h 22.5 v 3.28 a 3.5,3.5 0 1 0 7,0 V 145 h 22.5 v 3.28 a 3.5,3.5 0 1 0 7,0 V 145 h 22.5 v 3.28 a 3.5,3.5 0 1 0 7,0 V 145 h 9 c 11.06,0 11.49,10.34 11.5,11.5 v 17.23 h -166 v -17.22 c 0,-11.05 10.34,-11.51 11.5,-11.51 z m 0,126 c -11.06,0 -11.49,-10.33 -11.5,-11.5 v -78.76 h 166 v 78.77 c 0,11.05 -10.31,11.49 -11.51,11.5 z"
       id="path2" />
    <path
       class="cls-1"
       d="m 263,198.65 -42.69,42.54 -20.69,-20.62 a 3.5143847,3.5143847 0 0 0 -4.94,5 l 23.16,23.08 a 3.5,3.5 0 0 0 4.94,0 l 45.17,-45 a 3.5179007,3.5179007 0 1 0 -4.95,-5 z"
       id="path4" />
  </g>
</svg>
