<?xml version="1.0" encoding="utf-8"?>
<!-- Generator: Adobe Illustrator 25.0.0, SVG Export Plug-In . SVG Version: 6.00 Build 0)  -->
<svg version="1.1" id="Layer_1" xmlns="http://www.w3.org/2000/svg" xmlns:xlink="http://www.w3.org/1999/xlink" x="0px" y="0px"
	 viewBox="0 0 168.2 180.6" style="enable-background:new 0 0 168.2 180.6;" xml:space="preserve">
<g>
	<path d="M48.9,85.1c-1.3,0-2.7-0.1-4-0.3C18.2,80.3,12.6,55,8.1,34.6c-2.1-9.3-4-18-7.5-23.3c-0.6-0.9-0.7-2-0.4-3s1.1-1.8,2-2.2
		c24.5-10,52.6-7.7,75.1,6.3c0,0,0.1,0,0.1,0.1c8.9,5.9,14.1,13.6,14.9,22.1c1,9.9-3.9,20.6-14.1,30.9
		C76.4,68.4,65.4,85.1,48.9,85.1z M8.5,11.2c2.9,6,4.6,13.8,6.4,21.9C19.4,53.3,24,74.2,46,77.8c1,0.2,1.9,0.2,2.8,0.2
		c13.7,0,23.5-16.4,23.6-16.5c0.1-0.3,0.3-0.5,0.5-0.7c8.9-8.9,13.1-17.7,12.3-25.6c-0.6-6.4-4.6-12.1-11.8-16.9
		C54,6.3,30,3.7,8.5,11.2z"/>
	<path d="M133.2,97c-11.8,0-19.7-11.6-21.2-14c-7.3-7.4-10.7-15-10-22.2c0.6-6.2,4.4-11.8,10.8-16.1c0,0,0.1,0,0.1-0.1
		c15.9-9.9,35.8-11.5,53.1-4.4c1,0.4,1.7,1.2,2,2.2c0.3,1,0.1,2.1-0.4,3c-2.3,3.5-3.7,9.5-5.1,15.9c-3.2,14.4-7.2,32.4-26.4,35.6
		C135.1,97,134.1,97,133.2,97z M117.8,79.1c0.1,0.2,7.5,12.4,17.2,10.8c14.5-2.4,17.7-16.5,20.7-30.2c1.2-5.2,2.3-10.3,4-14.4
		c-14.3-4.6-30.2-2.8-43.1,5.2c-4.7,3.1-7.3,6.8-7.7,11c-0.5,5.1,2.4,11,8.3,16.9C117.4,78.6,117.6,78.8,117.8,79.1z"/>
	<path d="M93.4,120.7c-0.1,0-0.3,0-0.4,0c-1.6-0.2-2.9-1.5-3.1-3.1c-5.7-57-39.7-74.9-40-75.1c-1.7-0.9-2.4-3-1.5-4.7
		c0.9-1.7,3-2.4,4.7-1.6c1.4,0.7,32.3,16.8,41.9,67.2c11.7-26.9,25.8-36.6,26.5-37c1.6-1.1,3.8-0.6,4.9,1c1.1,1.6,0.6,3.8-1,4.9
		c-0.2,0.1-17.2,12-28.6,46.1C96.2,119.8,94.9,120.7,93.4,120.7z"/>
	<path d="M118.5,180.6C118.5,180.6,118.5,180.6,118.5,180.6H68.4c-4.5,0-8.4-3.2-9.3-7.6l-9.6-48c-1-5.1,2.3-10.1,7.4-11.2
		c0.6-0.1,1.2-0.2,1.9-0.2H128c5.2,0,9.5,4.3,9.5,9.5c0,0.6-0.1,1.3-0.2,1.9l-9.6,47.9C126.9,177.4,123,180.6,118.5,180.6z
		 M58.8,120.7c-0.2,0-0.3,0-0.5,0.1c-1.3,0.3-2.2,1.6-2,2.9l9.6,47.9c0.2,1.1,1.3,2,2.4,2h50.1c0,0,0,0,0,0c0,0,0,0,0,0
		c1.2,0,2.2-0.8,2.4-2l9.6-47.9c0-0.2,0.1-0.3,0.1-0.5c0-1.4-1.1-2.5-2.5-2.5H58.8z"/>
</g>
</svg>
