<?xml version="1.0" encoding="UTF-8" standalone="no"?>
<svg
   xmlns:dc="http://purl.org/dc/elements/1.1/"
   xmlns:cc="http://creativecommons.org/ns#"
   xmlns:rdf="http://www.w3.org/1999/02/22-rdf-syntax-ns#"
   xmlns:svg="http://www.w3.org/2000/svg"
   xmlns="http://www.w3.org/2000/svg"
   xmlns:sodipodi="http://sodipodi.sourceforge.net/DTD/sodipodi-0.dtd"
   xmlns:inkscape="http://www.inkscape.org/namespaces/inkscape"
   viewBox="0 0 159.82717 160.00475"
   version="1.1"
   id="svg7"
   sodipodi:docname="Point of interest.svg"
   width="159.82716"
   height="160.00475"
   inkscape:version="1.0.2 (e86c870879, 2021-01-15, custom)">
  <g
     id="Layer_10"
     data-name="Layer 10"
     transform="translate(-151.35524,-149.74)">
    <path
       class="cls-1"
       d="m 248.82,199.92 a 17.5,17.5 0 1 0 -17.5,17.5 17.52,17.52 0 0 0 17.5,-17.5 z m -28,0 a 10.5,10.5 0 1 1 10.5,10.5 10.51,10.51 0 0 1 -10.5,-10.5 z"
       id="path2" />
    <path
       class="cls-1"
       d="m 152,308.26 a 3.51,3.51 0 0 0 4.88,0.85 128.83,128.83 0 0 1 73.25,-23.89 3.48,3.48 0 0 0 1.23,0.23 3.44,3.44 0 0 0 1.23,-0.23 128.86,128.86 0 0 1 73.26,23.89 3.5,3.5 0 0 0 4,-5.73 136.14,136.14 0 0 0 -69.25,-24.84 c 13.82,-12.71 42.88,-43.24 43.59,-75.86 0.31,-14.43 -4.26,-26.58 -13.59,-36.11 -11.37,-11.62 -27.92,-16.83 -39.27,-16.83 -11.35,0 -27.89,5.21 -39.26,16.83 -9.33,9.53 -13.9,21.68 -13.59,36.11 0.71,32.62 29.77,63.15 43.58,75.86 a 136.11,136.11 0 0 0 -69.24,24.84 3.51,3.51 0 0 0 -0.82,4.88 z m 33.51,-105.73 c -0.27,-12.47 3.63,-22.93 11.59,-31.06 9.9,-10.12 24.7,-14.73 34.26,-14.73 9.56,0 24.37,4.61 34.27,14.73 8,8.13 11.86,18.59 11.59,31.06 -0.73,33.77 -36.56,66.83 -45.86,74.85 C 222,269.36 186.2,236.3 185.47,202.53 Z"
       id="path4" />
  </g>
</svg>
