<?xml version="1.0" encoding="UTF-8" standalone="no"?>
<svg
   xmlns:dc="http://purl.org/dc/elements/1.1/"
   xmlns:cc="http://creativecommons.org/ns#"
   xmlns:rdf="http://www.w3.org/1999/02/22-rdf-syntax-ns#"
   xmlns:svg="http://www.w3.org/2000/svg"
   xmlns="http://www.w3.org/2000/svg"
   xmlns:sodipodi="http://sodipodi.sourceforge.net/DTD/sodipodi-0.dtd"
   xmlns:inkscape="http://www.inkscape.org/namespaces/inkscape"
   viewBox="0 0 180 140"
   version="1.1">
  <g
     id="Layer_10"
     data-name="Layer 10"
     transform="translate(-141.32,-159.74)">
    <path
       class="cls-1"
       d="m 302.82,159.74 h -143 c -6.39,0 -18.5,3.86 -18.5,18.5 v 103 c 0,6.39 3.87,18.5 18.5,18.5 h 143 c 6.4,0 18.5,-3.87 18.5,-18.5 v -103 c 0,-6.4 -3.86,-18.5 -18.5,-18.5 z m 0,7 a 11.66,11.66 0 0 1 6.91,1.93 l -78.41,76.77 -78.41,-76.66 a 13.83,13.83 0 0 1 6.91,-2 z m 11.5,114.5 c 0,11 -10.3,11.48 -11.51,11.5 h -143 c -11,0 -11.48,-10.34 -11.5,-11.5 v -103 a 14.26,14.26 0 0 1 0.46,-3.71 l 80.09,78.31 a 3.5,3.5 0 0 0 4.9,0 l 80,-78.3 a 13.89,13.89 0 0 1 0.58,3.7 z"
       id="path2" />
  </g>
</svg>
