<?xml version="1.0" encoding="UTF-8" standalone="no"?>
<svg
   xmlns:dc="http://purl.org/dc/elements/1.1/"
   xmlns:cc="http://creativecommons.org/ns#"
   xmlns:rdf="http://www.w3.org/1999/02/22-rdf-syntax-ns#"
   xmlns:svg="http://www.w3.org/2000/svg"
   xmlns="http://www.w3.org/2000/svg"
   xmlns:sodipodi="http://sodipodi.sourceforge.net/DTD/sodipodi-0.dtd"
   xmlns:inkscape="http://www.inkscape.org/namespaces/inkscape"
   viewBox="0 0 163.43067 159.9301"
   version="1.1">
  <g
     id="Layer_10"
     data-name="Layer 10"
     transform="translate(-152.55743,-149.7699)">
    <path
       class="cls-1"
       d="m 226.32,213.38 a 9.34,9.34 0 0 0 7.32,7.94 l 0.29,0.05 29.55,3.93 a 9.59,9.59 0 0 0 1.85,0.18 9.41,9.41 0 0 0 4.37,-1.07 h 0.08 v 0 a 9.37,9.37 0 0 0 4.25,-4.62 l 13.51,-26.62 0.12,-0.27 A 9.41,9.41 0 0 0 274.55,181 l -1.06,0.56 a 49.66,49.66 0 0 0 -46.06,-31.79 48.89,48.89 0 0 0 -28.62,9.18 4.35,4.35 0 0 0 -0.55,0.5 49.41,49.41 0 0 0 -15.5,19.07 10.45,10.45 0 0 0 4.49,13.48 l 22.05,12.16 a 10.46,10.46 0 0 0 5,1.29 10.17,10.17 0 0 0 3.31,-0.55 10.52,10.52 0 0 0 6.25,-5.71 70.34,70.34 0 0 1 3.63,-7.07 70.12,70.12 0 0 1 5.2,10.93 l -1.43,0.75 a 9.38,9.38 0 0 0 -4.94,9.58 z m -18.68,-51.71 a 42,42 0 0 1 19.79,-4.92 42.58,42.58 0 0 1 40.49,30.13 3.47,3.47 0 0 0 2.24,2.31 l 0.18,0.06 a 3.49,3.49 0 0 0 0.74,0.33 3.52,3.52 0 0 0 2.68,-0.27 l 1.94,-1 2.14,-1.13 a 2.35,2.35 0 0 1 2.76,0.33 v 0 a 2.38,2.38 0 0 1 0.65,2.6 l -13.49,26.58 -0.12,0.26 a 2.4,2.4 0 0 1 -1,1.18 h -0.11 l -0.15,0.08 a 2.4,2.4 0 0 1 -1.56,0.19 l -0.29,-0.05 -29.53,-3.9 a 2.35,2.35 0 0 1 -1.76,-2 2.38,2.38 0 0 1 1.27,-2.46 l 1.83,-1 2.26,-1.19 a 3.52,3.52 0 0 0 1.73,-4.19 77.68,77.68 0 0 0 -32.69,-41.94 z m 9.85,34.66 a 3.46,3.46 0 0 1 -2.09,1.91 3.36,3.36 0 0 1 -2.72,-0.24 l -22.05,-12.16 a 3.44,3.44 0 0 1 -1.52,-4.41 42.48,42.48 0 0 1 12.12,-15.43 72.32,72.32 0 0 1 22,19.64 77.12,77.12 0 0 0 -5.74,10.69 z"
       id="path2" />
    <path
       class="cls-1"
       d="M 315.91,246.06 A 49.5,49.5 0 0 0 307,222.28 10.49,10.49 0 0 0 293.07,219.47 l -21.62,13.05 a 10.42,10.42 0 0 0 -3,15.12 70.4,70.4 0 0 1 4.28,6.61 69.94,69.94 0 0 1 -12,-1 l 0.06,-1.62 a 9.4,9.4 0 0 0 -16.36,-6.73 l -0.18,0.22 -18.16,23.72 a 9.46,9.46 0 0 0 -2.33,5.81 v 0.16 a 9.42,9.42 0 0 0 1.87,6 l 16.29,25 0.16,0.23 a 9.29,9.29 0 0 0 7.39,3.66 9.63,9.63 0 0 0 2.93,-0.46 9.38,9.38 0 0 0 6.52,-8.67 v -1.22 a 49.35,49.35 0 0 0 56.87,-53.16 1.08,1.08 0 0 1 0.12,-0.13 z m -61.85,46.64 -0.14,0.13 a 3,3 0 0 0 -0.64,0.48 3.52,3.52 0 0 0 -1.11,2.45 c 0,0.16 -0.06,1.52 -0.1,2.73 0,0.94 -0.07,1.79 -0.07,1.89 a 2.38,2.38 0 0 1 -1.67,2.24 v 0 a 2.36,2.36 0 0 1 -2.56,-0.73 l -16.26,-25 -0.17,-0.24 a 2.37,2.37 0 0 1 -0.51,-1.5 c 0,0 0,-0.08 0,-0.12 v -0.15 a 2.47,2.47 0 0 1 0.63,-1.47 l 0.18,-0.22 18.13,-23.67 a 2.33,2.33 0 0 1 2.6,-0.53 2.37,2.37 0 0 1 1.5,2.35 l -0.07,1.76 c -0.05,1.22 -0.11,2.66 -0.12,2.85 a 3.51,3.51 0 0 0 2.77,3.6 77.42,77.42 0 0 0 52.63,-7.43 42.33,42.33 0 0 1 -51.88,39.78 3.51,3.51 0 0 0 -3.14,0.8 z m 1.16,-0.31 a 3.19,3.19 0 0 1 0.45,0 h 0.11 a 5.12,5.12 0 0 0 -0.56,0 z m 18.3,-51.62 a 3.39,3.39 0 0 1 1.59,-2.26 l 21.62,-13 a 3.46,3.46 0 0 1 4.6,0.87 42.53,42.53 0 0 1 7.3,18 71.14,71.14 0 0 1 -28.12,9.46 78,78 0 0 0 -6.38,-10.31 3.43,3.43 0 0 1 -0.61,-2.76 z"
       id="path4" />
    <path
       class="cls-1"
       d="m 186.55,300.81 a 0.45,0.45 0 0 0 0.12,0.06 49.59,49.59 0 0 0 25.33,1.42 10.5,10.5 0 0 0 8.23,-11.69 l -3.42,-25 a 10.47,10.47 0 0 0 -12.69,-8.79 68.54,68.54 0 0 1 -7.84,1.3 69.36,69.36 0 0 1 5.72,-10.66 l 1.47,0.7 a 9.37,9.37 0 0 0 10.69,-1.73 9.28,9.28 0 0 0 2,-10.6 2.1,2.1 0 0 0 -0.13,-0.26 L 201.47,209.5 a 9.32,9.32 0 0 0 -4.41,-4.44 h -0.08 -0.06 a 9.48,9.48 0 0 0 -6.25,-0.67 l -29.49,5 -0.28,0.06 A 9.4,9.4 0 0 0 159.22,227 l 1.09,0.52 a 49.19,49.19 0 0 0 26.24,73.29 z m -18.63,-72 a 3.5,3.5 0 0 0 0.51,-3.19 1.8,1.8 0 0 1 -0.05,-0.19 3.53,3.53 0 0 0 -2,-2.76 l -1.76,-0.84 -2.42,-1.16 a 2.37,2.37 0 0 1 -1.39,-2.41 v 0 a 2.33,2.33 0 0 1 1.7,-2.06 l 29.44,-5 a 1.27,1.27 0 0 0 0.28,-0.06 2.52,2.52 0 0 1 1.6,0.13 l 0.15,0.08 h 0.07 a 2.45,2.45 0 0 1 1.11,1.16 2,2 0 0 0 0.13,0.25 l 14.48,26 a 2.35,2.35 0 0 1 -0.55,2.6 2.4,2.4 0 0 1 -2.76,0.44 l -1.89,-0.91 -2.29,-1.09 a 3.49,3.49 0 0 0 -4.38,1.11 77.23,77.23 0 0 0 -14.2,51.21 42.2,42.2 0 0 1 -15.79,-63.36 z m 37.7,34.8 a 3.46,3.46 0 0 1 4.21,2.9 l 3.42,25 a 3.47,3.47 0 0 1 -2.7,3.88 42.55,42.55 0 0 1 -19.53,-0.58 71.28,71.28 0 0 1 2.54,-29.52 77.51,77.51 0 0 0 12.06,-1.68 z"
       id="path6" />
  </g>
</svg>
