<?xml version="1.0" encoding="UTF-8" standalone="no"?>
<svg
   xmlns:dc="http://purl.org/dc/elements/1.1/"
   xmlns:cc="http://creativecommons.org/ns#"
   xmlns:rdf="http://www.w3.org/1999/02/22-rdf-syntax-ns#"
   xmlns:svg="http://www.w3.org/2000/svg"
   xmlns="http://www.w3.org/2000/svg"
   xmlns:sodipodi="http://sodipodi.sourceforge.net/DTD/sodipodi-0.dtd"
   xmlns:inkscape="http://www.inkscape.org/namespaces/inkscape"
   viewBox="0 0 129.99628 98.661179"
   version="1.1">
   <g
     id="Layer_10"
     data-name="Layer 10"
     transform="translate(-166.32,-180.46471)">
    <path
       class="cls-1"
       d="m 166.32,229.75 c 0,9.65 7.55,17.5 16.82,17.5 h 53.47 l -2,2 A 17.500893,17.500893 0 0 0 259.36,274 l 31.84,-31.84 a 17.5,17.5 0 0 0 0,-24.73 l -31.83,-31.84 a 17.490287,17.490287 0 0 0 -24.74,24.73 l 2,2 h -53.49 c -9.27,-0.07 -16.82,7.78 -16.82,17.43 z m 16.82,-10.5 h 61.92 a 3.5,3.5 0 0 0 2.47,-6 l -7.94,-8 a 10.49,10.49 0 1 1 14.83,-14.83 l 31.83,31.84 a 10.5,10.5 0 0 1 0,14.83 L 254.42,269 v 0 a 10.49,10.49 0 1 1 -14.83,-14.83 l 7.94,-7.95 a 3.5,3.5 0 0 0 -2.47,-6 h -61.92 c -5.41,0 -9.82,-4.71 -9.82,-10.5 0,-5.79 4.41,-10.47 9.82,-10.47 z"
       id="path2" />
  </g>
</svg>
