<?xml version="1.0" encoding="UTF-8" standalone="no"?>
<svg
   xmlns="http://www.w3.org/2000/svg"
   viewBox="0 0 100.00318 140.00171"
   version="1.1">
  <path
     class="cls-1"
     d="m 93.081476,120.00023 h -5.85 l -18.55,-112.1400031 a 9.32,9.32 0 0 0 -9.27,-7.86000002098 h -18.79 a 9.32,9.32 0 0 0 -9.27,7.86000002098 l -18.57,112.1400031 H 6.9214762 a 6.78,6.78 0 0 0 -6.91999997,6.92 v 6.16 a 6.78,6.78 0 0 0 6.91999997,6.92 H 93.081476 a 6.78,6.78 0 0 0 6.920004,-6.92 v -6.16 a 6.77,6.77 0 0 0 -6.920004,-6.92 z m -64.43,-53.000003 h 42.71 l 3.8,23 h -50.32 z m 5,-30 h 32.77 l 3.81,23 h -40.42 z m 7,-30.0000001 h 18.71 a 2.33,2.33 0 0 1 2.43,2 l 3.47,21.0000001 h -30.48 l 3.47,-21.0000001 a 2.32,2.32 0 0 1 2.37,-2 z m -16.93,90.0000001 h 52.63 l 3.81,23.000003 h -60.28 z M 7.2114762,133.00023 v -6 H 92.861476 v 6 z"
     id="path2" />
</svg>
