<?xml version="1.0" encoding="UTF-8" standalone="no"?>
<svg
   xmlns:dc="http://purl.org/dc/elements/1.1/"
   xmlns:cc="http://creativecommons.org/ns#"
   xmlns:rdf="http://www.w3.org/1999/02/22-rdf-syntax-ns#"
   xmlns:svg="http://www.w3.org/2000/svg"
   xmlns="http://www.w3.org/2000/svg"
   xmlns:sodipodi="http://sodipodi.sourceforge.net/DTD/sodipodi-0.dtd"
   xmlns:inkscape="http://www.inkscape.org/namespaces/inkscape"
   viewBox="0 0 125.00543 172.99339"
   version="1.1">
  <g
     id="Layer_10"
     data-name="Layer 10"
     transform="translate(-172.81796,-143.24661)">
    <path
       class="cls-1"
       d="m 287,225.45 a 23.34,23.34 0 0 0 0,-39.4 2.77,2.77 0 0 1 -1.21,-2.91 23.58,23.58 0 0 0 -6.27,-21.58 23.43,23.43 0 0 0 -21.59,-6.29 2.8,2.8 0 0 1 -2.91,-1.2 23.34,23.34 0 0 0 -39.4,0 2.77,2.77 0 0 1 -2.9,1.2 23.36,23.36 0 0 0 -27.87,27.87 2.77,2.77 0 0 1 -1.2,2.91 23.33,23.33 0 0 0 0,39.4 2.75,2.75 0 0 1 1.2,2.91 23.59,23.59 0 0 0 6.28,21.58 23.15,23.15 0 0 0 12,6.41 l -21.46,37.15 a 3.5,3.5 0 0 0 3.92,5.13 l 19.2,-5 6.86,20.25 a 3.49,3.49 0 0 0 3,2.36 h 0.34 a 3.48,3.48 0 0 0 3,-1.75 l 17.33,-30 17.33,30 a 3.5,3.5 0 0 0 3,1.75 h 0.34 a 3.52,3.52 0 0 0 3,-2.36 l 6.86,-20.25 19.19,5 A 3.49,3.49 0 0 0 289,293.5 l -21.44,-37.15 a 23.19,23.19 0 0 0 12,-6.41 23.58,23.58 0 0 0 6.27,-21.58 2.78,2.78 0 0 1 1.17,-2.91 z m -71.2,78.82 -5.43,-16 A 3.52,3.52 0 0 0 206.16,286 l -14.23,3.74 19.17,-33.21 c 0.55,-0.08 1.09,-0.17 1.62,-0.29 a 2.75,2.75 0 0 1 2.9,1.2 23.52,23.52 0 0 0 8.77,8.05 1.11,1.11 0 0 0 0.09,0.19 l 6.8,11.79 z M 264.48,286 a 3.52,3.52 0 0 0 -4.2,2.27 l -5.43,16 L 234,268.21 c 0.44,0 0.87,0 1.3,0 a 23.62,23.62 0 0 0 19.7,-10.78 2.72,2.72 0 0 1 2.91,-1.2 c 0.53,0.12 1.07,0.21 1.61,0.29 l 19.18,33.21 z m 18.74,-66.43 a 9.77,9.77 0 0 0 -4.26,10.3 16.56,16.56 0 0 1 -4.39,15.13 16.25,16.25 0 0 1 -11.57,4.78 16.81,16.81 0 0 1 -3.56,-0.38 9.44,9.44 0 0 0 -2.12,-0.24 9.7,9.7 0 0 0 -8.21,4.5 16.34,16.34 0 0 1 -27.6,0 9.7,9.7 0 0 0 -8.21,-4.5 9.35,9.35 0 0 0 -2.11,0.24 17,17 0 0 1 -3.56,0.38 16.23,16.23 0 0 1 -11.55,-4.78 16.51,16.51 0 0 1 -4.39,-15.13 9.79,9.79 0 0 0 -4.27,-10.31 16.33,16.33 0 0 1 0,-27.6 9.8,9.8 0 0 0 4.27,-10.31 16.51,16.51 0 0 1 4.39,-15.13 16.23,16.23 0 0 1 11.56,-4.79 16.48,16.48 0 0 1 3.57,0.39 9.92,9.92 0 0 0 2.1,0.22 9.69,9.69 0 0 0 8.21,-4.49 16.34,16.34 0 0 1 27.6,0 9.69,9.69 0 0 0 8.21,4.49 9.34,9.34 0 0 0 2.11,-0.23 17,17 0 0 1 3.57,-0.38 16.25,16.25 0 0 1 11.56,4.79 16.56,16.56 0 0 1 4.43,15.12 9.78,9.78 0 0 0 4.23,10.36 16.34,16.34 0 0 1 0,27.61 z"
       id="path2" />
    <path
       class="cls-1"
       d="m 262,193.28 -15.09,-2 a 1.33,1.33 0 0 1 -0.82,-0.61 L 239.56,176 a 4.89,4.89 0 0 0 -4.28,-3.11 v 0 c -1,0 -3,0.41 -4.19,3.11 l -6.51,14.57 c 0,0 -0.34,0.63 -0.87,0.7 l -15.08,2 a 5,5 0 0 0 -4.19,3.13 4.64,4.64 0 0 0 1.48,5 l 11.11,11 a 1.63,1.63 0 0 1 0.43,1.23 l -2.9,15.95 a 4.91,4.91 0 0 0 1.74,5 4.15,4.15 0 0 0 2.4,0.76 5.57,5.57 0 0 0 2.8,-0.84 l 13.29,-7.69 a 1.2,1.2 0 0 1 1,-0.05 l 13.37,7.74 a 4.91,4.91 0 0 0 5.26,0 c 0.86,-0.6 2.21,-2 1.68,-4.92 l -2.89,-15.86 a 1.73,1.73 0 0 1 0.36,-1.26 l 11.18,-11 a 5,5 0 0 0 1.45,-5 4.63,4.63 0 0 0 -4.2,-3.18 z m -13.36,14.12 a 8.63,8.63 0 0 0 -2.35,7.4 l 2,11 -9,-5.21 a 7.52,7.52 0 0 0 -3.85,-1.05 8.6,8.6 0 0 0 -4.06,1 l -9,5.22 2,-11 a 8.65,8.65 0 0 0 -2.34,-7.4 l -7.89,-7.79 10.51,-1.39 a 8.34,8.34 0 0 0 6.3,-4.7 l 4.39,-9.83 4.4,9.83 a 8.32,8.32 0 0 0 6.29,4.7 l 10.52,1.39 z"
       id="path4" />
  </g>
</svg>
