<?xml version="1.0" encoding="utf-8"?>
<!-- Generator: Adobe Illustrator 25.0.0, SVG Export Plug-In . SVG Version: 6.00 Build 0)  -->
<svg version="1.1" id="Layer_1" xmlns="http://www.w3.org/2000/svg" xmlns:xlink="http://www.w3.org/1999/xlink" x="0px" y="0px"
	 viewBox="0 0 120 179.6" style="enable-background:new 0 0 120 179.6;" xml:space="preserve">
<g id="Layer_10">
	<path d="M85.3,67.6c0,3-2.5,5.5-5.5,5.5s-5.5-2.5-5.5-5.5s2.5-5.5,5.5-5.5l0,0C82.8,62.1,85.3,64.6,85.3,67.6"/>
	<path d="M45.8,67.6c0,3-2.5,5.5-5.5,5.5s-5.5-2.5-5.5-5.5s2.5-5.5,5.5-5.5l0,0C43.3,62.1,45.8,64.6,45.8,67.6"/>
	<path d="M91.9,130.5c0.1-0.1,0.3-0.2,0.4-0.3c17.5-11.8,27.9-31.6,27.8-52.7v-15c0-12.9-3.8-25.4-11.1-36.1l-0.1-0.1
		c-0.5-0.7-0.9-1.3-1.4-2c-0.1-0.1-0.2-0.2-0.3-0.4c-0.4-0.6-0.9-1.1-1.3-1.7c-0.2-0.2-0.3-0.4-0.5-0.6c-0.4-0.5-0.8-1-1.2-1.4
		l-0.8-0.8c-0.4-0.4-0.7-0.8-1.1-1.2c-0.6-0.6-1.3-1.3-1.9-1.9l-0.5-0.5c-0.5-0.5-1-1-1.5-1.4l-0.7-0.6l-1.5-1.2L95.4,12
		c-0.5-0.4-1-0.7-1.5-1.1l-0.9-0.6l-1.5-1C91.3,9.2,91,9,90.7,8.8c-0.5-0.3-1-0.6-1.5-0.9l-0.9-0.5c-0.5-0.3-1-0.6-1.6-0.8L85.8,6
		c-0.6-0.3-1.2-0.6-1.8-0.8c-0.3-0.1-0.5-0.2-0.8-0.4c-0.8-0.4-1.7-0.7-2.5-1c-0.3-0.1-0.6-0.2-0.9-0.3c-0.6-0.2-1.1-0.4-1.7-0.6
		L77,2.6l-1.5-0.5l-1.2-0.3c-0.5-0.1-1-0.2-1.5-0.4l-1.3-0.3l-1.6-0.3c-0.4-0.1-0.8-0.1-1.2-0.2L67,0.4l-1.2-0.1
		c-0.6-0.1-1.3-0.1-1.9-0.1c-0.3,0-0.6-0.1-1-0.1C61.9,0,61,0,60,0l0,0c-1,0-2,0-2.9,0.1l-0.8,0.1c-0.7,0-1.4,0.1-2.1,0.2l-0.8,0.1
		c-0.7,0.1-1.4,0.2-2.1,0.3l-0.7,0.1c-0.8,0.1-1.5,0.3-2.3,0.4l-0.4,0.1C46.8,1.5,45.9,1.7,45,2l0,0C29.8,6.1,16.7,16.2,8.8,29.9
		l-0.3,0.6c-0.3,0.6-0.6,1.1-0.9,1.7S7.1,33,6.9,33.4l-0.4,0.9C2.2,43.1,0,52.7,0,62.5v15c-0.1,21.1,10.3,40.8,27.7,52.6
		c0.2,0.1,0.3,0.2,0.5,0.3c4.3,2.8,9,5.1,13.8,6.7v11.3h-2.4c-2-0.1-20.2,0-34.7,25.9c-1,1.7-0.4,3.8,1.2,4.8c1.7,1,3.8,0.4,4.8-1.2
		c0-0.1,0.1-0.1,0.1-0.2c12.7-22.7,27.7-22.3,28.3-22.3h41.2c0.6,0,15.6-0.4,28.3,22.3c0.9,1.7,3,2.4,4.7,1.5c1.7-0.9,2.4-3,1.5-4.7
		c0-0.1-0.1-0.1-0.1-0.2c-14.5-25.9-32.7-25.9-34.7-25.9H78v-11.3C82.9,135.5,87.5,133.3,91.9,130.5z M32.3,124.8
		c-2.4-2.9-2.9-5.9-2.9-10.1v-23c0-0.7,0.5-1.3,1.2-1.3c0,0,0,0,0,0h58.7c0.7,0,1.3,0.6,1.2,1.3c0,0,0,0,0,0v23
		c0,4.2-0.5,7.2-2.9,10.1C70.9,135.7,49.2,135.7,32.3,124.8L32.3,124.8z M7,77.5v-15c0-2.3,0.1-4.5,0.4-6.7
		c9.8-2.6,18.9-7.1,26.9-13.2c7.4,8.3,18.1,13.1,29.3,13.1h49c0.3,2.3,0.4,4.6,0.4,6.9v15c0,0.2,0,0.4,0,0.6l-22.1,5.4
		c-0.5-0.1-1-0.1-1.5-0.1H30.7c-0.5,0-1,0.1-1.5,0.1L7,78.2C7,77.9,7,77.7,7,77.5L7,77.5z M12.8,37.3c0.3-0.6,0.6-1.2,0.9-1.8
		c0.1-0.3,0.3-0.5,0.4-0.8s0.4-0.8,0.6-1.1c7.8-13.7,21.4-23.2,36.9-25.9l0.6-0.1l1.9-0.2l0.8-0.1c0.6-0.1,1.2-0.1,1.8-0.1h0.7
		c0.8,0,1.7-0.1,2.5-0.1l0,0c0.9,0,1.7,0,2.5,0.1h0.8L65,7.3l1,0.1l1.5,0.2l1,0.2L69.8,8l1,0.2l1.5,0.4C72.9,8.7,73.5,8.9,74,9
		l1.4,0.4l1.2,0.4l1.1,0.4l1.2,0.5c0.3,0.1,0.7,0.3,1,0.4l1.2,0.5l1,0.5l1.2,0.6l0.9,0.5c0.8,0.4,1.6,0.9,2.4,1.4
		c0.2,0.1,0.5,0.3,0.7,0.4c0.4,0.2,0.8,0.5,1.2,0.8l0.8,0.5c0.4,0.3,0.8,0.6,1.1,0.8l0.7,0.6c0.4,0.3,0.8,0.6,1.2,0.9l0.6,0.5l1.2,1
		l0.4,0.3c8.3,7.5,14.2,17.4,16.9,28.3H63.5c-10.2-0.1-19.9-4.9-26-13.1c-0.6-0.8-1.5-1.3-2.4-1.4h-0.4c-0.8,0-1.6,0.3-2.3,0.8
		c-7,5.9-15,10.4-23.7,13.1c1-3.7,2.3-7.3,3.9-10.7L12.8,37.3z M97.6,116.7c0-0.6,0-1.3,0-2v-23c0-0.8-0.1-1.7-0.4-2.5l15.2-3.7
		C110.9,97.2,105.7,108.1,97.6,116.7z M7.6,85.5l15.3,3.7c-0.3,0.8-0.4,1.6-0.4,2.5v23c0,0.6,0,1.3,0,2
		C14.3,108.1,9.1,97.2,7.6,85.5L7.6,85.5z M71,148.5H49.1V139c7.2,1.4,14.6,1.4,21.9,0V148.5z"/>
</g>
</svg>
