<?xml version="1.0" encoding="UTF-8" standalone="no"?>
<svg
   xmlns:dc="http://purl.org/dc/elements/1.1/"
   xmlns:cc="http://creativecommons.org/ns#"
   xmlns:rdf="http://www.w3.org/1999/02/22-rdf-syntax-ns#"
   xmlns:svg="http://www.w3.org/2000/svg"
   xmlns="http://www.w3.org/2000/svg"
   xmlns:sodipodi="http://sodipodi.sourceforge.net/DTD/sodipodi-0.dtd"
   xmlns:inkscape="http://www.inkscape.org/namespaces/inkscape"
   viewBox="0 0 214.31 144.53954"
   version="1.1"
   id="svg11"
   sodipodi:docname="Saving.svg"
   width="214.31"
   height="144.53954"
   inkscape:version="1.0.2 (e86c870879, 2021-01-15, custom)">
  <g
     id="Layer_10"
     data-name="Layer 10"
     transform="translate(-124.15,-157.50046)">
    <path
       class="cls-1"
       d="m 182.44,203.47 a 5.5,5.5 0 1 1 -5.5,-5.5 5.5,5.5 0 0 1 5.5,5.5"
       id="path2" />
    <path
       class="cls-1"
       d="m 166.85,203.47 a 5.5,5.5 0 1 1 -5.5,-5.5 5.5,5.5 0 0 1 5.5,5.5"
       id="path4" />
    <path
       class="cls-1"
       d="m 319.62,184.23 a 15.82,15.82 0 0 0 -15.8,15.77 13.36,13.36 0 0 0 13.34,13.34 11.38,11.38 0 0 0 11.37,-11.34 3.5,3.5 0 0 0 -7,0 4.38,4.38 0 0 1 -4.37,4.38 6.35,6.35 0 0 1 -6.34,-6.34 8.82,8.82 0 0 1 8.8,-8.81 11.89,11.89 0 0 1 11.87,11.88 15.73,15.73 0 0 1 -15.71,15.72 h -9.55 c -4.29,-32.68 -41.51,-58.3 -86.64,-58.3 a 112.25,112.25 0 0 0 -40.86,7.54 c -3.81,-4.62 -10.2,-9.47 -20.51,-10.55 a 3.51,3.51 0 0 0 -3.08,1.26 c -9.1,11.13 -7.69,22.09 -5.91,27.88 a 39,39 0 0 0 -2.51,3.1 60.07,60.07 0 0 0 -8.36,12.1 h -0.55 a 13.65,13.65 0 0 0 -13.66,13.61 V 237 a 13.65,13.65 0 0 0 13.66,13.61 h 1.71 c 0.82,1.43 1.72,2.84 2.68,4.22 a 39.77,39.77 0 0 0 26.45,22.8 98.06,98.06 0 0 0 14.54,6.29 l 4.54,15.6 a 3.51,3.51 0 0 0 3.36,2.52 H 204 a 3.51,3.51 0 0 0 3.46,-3 l 1.47,-9.73 a 116.89,116.89 0 0 0 26,-0.52 l 3.07,10.69 a 3.5,3.5 0 0 0 3.36,2.52 h 12.89 a 3.51,3.51 0 0 0 3.46,-3 l 2.54,-16.71 a 96.74,96.74 0 0 0 12.05,-5.72 39.82,39.82 0 0 0 20.3,-16.23 c 9,-10.29 13.83,-22.21 14,-34.53 h 9.15 a 22.74,22.74 0 0 0 22.71,-22.72 18.89,18.89 0 0 0 -18.84,-18.86 z M 287.19,256 a 3.19,3.19 0 0 0 -0.35,0.47 32.8,32.8 0 0 1 -17.1,13.66 3.15,3.15 0 0 0 -0.59,0.27 89.46,89.46 0 0 1 -13.24,6.13 3.48,3.48 0 0 0 -2.25,2.76 L 251.27,295 H 244 l -3.24,-11.11 a 3.51,3.51 0 0 0 -3.91,-2.48 110.3,110.3 0 0 1 -30.49,0.57 3.51,3.51 0 0 0 -3.88,2.95 L 201,295 h -7.26 l -4.32,-14.84 a 3.49,3.49 0 0 0 -2.29,-2.36 91.82,91.82 0 0 1 -15.51,-6.57 3.58,3.58 0 0 0 -0.82,-0.32 32.74,32.74 0 0 1 -22.27,-19.16 3.66,3.66 0 0 0 -0.37,-0.67 52.21,52.21 0 0 1 -3.45,-5.63 3.5,3.5 0 0 0 -3.1,-1.88 h -3.78 a 6.64,6.64 0 0 1 -6.66,-6.61 v -21.49 a 6.64,6.64 0 0 1 6.66,-6.61 h 2.73 a 3.52,3.52 0 0 0 3.17,-2 52.86,52.86 0 0 1 8.35,-12.57 1.64,1.64 0 0 0 0.21,-0.25 32.71,32.71 0 0 1 3.43,-4 3.51,3.51 0 0 0 0.79,-3.79 c -1.72,-4.27 -3.49,-12.56 2.9,-21.47 a 22.29,22.29 0 0 1 15.26,9.55 3.51,3.51 0 0 0 4.28,1.26 104.39,104.39 0 0 1 40.66,-8 c 44.14,0 80.06,25.85 80.06,57.62 -0.02,10.86 -4.33,21.51 -12.48,30.79 z"
       id="path6" />
    <path
       class="cls-1"
       d="m 243.05,177.15 a 104.66,104.66 0 0 0 -23.14,-2.55 103.58,103.58 0 0 0 -23.74,2.73 3.5,3.5 0 0 0 0.79,6.9 3.72,3.72 0 0 0 0.81,-0.09 98.43,98.43 0 0 1 43.73,-0.14 3.5018352,3.5018352 0 1 0 1.55,-6.83 z"
       id="path8" />
  </g>
</svg>
