<?xml version="1.0" encoding="UTF-8" standalone="no"?>
<svg
   xmlns:dc="http://purl.org/dc/elements/1.1/"
   xmlns:cc="http://creativecommons.org/ns#"
   xmlns:rdf="http://www.w3.org/1999/02/22-rdf-syntax-ns#"
   xmlns:svg="http://www.w3.org/2000/svg"
   xmlns="http://www.w3.org/2000/svg"
   xmlns:sodipodi="http://sodipodi.sourceforge.net/DTD/sodipodi-0.dtd"
   xmlns:inkscape="http://www.inkscape.org/namespaces/inkscape"
   viewBox="0 0 160 160.85199"
   version="1.1"
   id="svg5"
   sodipodi:docname="Signpost.svg"
   width="160"
   height="160.85199"
   inkscape:version="1.0.2 (e86c870879, 2021-01-15, custom)">
  <g
     id="Layer_10"
     data-name="Layer 10"
     transform="translate(-151.47759,-149.39)">
    <path
       class="cls-1"
       d="m 152.81,303.76 a 3.5,3.5 0 0 0 4,5.73 128.19,128.19 0 0 1 149,0 3.5,3.5 0 1 0 4,-5.73 A 136.23,136.23 0 0 0 235,278.7 v -54.52 h 41.47 a 7,7 0 0 0 5.88,-3.32 l 6.05,-10 a 6.6,6.6 0 0 0 -0.18,-7 l -5.89,-8.65 a 7.28,7.28 0 0 0 -5.86,-3.1 H 235 v -39.22 a 3.5,3.5 0 0 0 -7,0 V 164 h -41.8 a 7,7 0 0 0 -5.88,3.32 l -6.06,10 a 6.63,6.63 0 0 0 0.19,7 l 5.88,8.65 a 7.32,7.32 0 0 0 5.87,3.1 H 228 v 82.63 a 136.1,136.1 0 0 0 -75.19,25.06 z m 123.58,-86.58 z m 0,-18.08 a 0.45,0.45 0 0 1 0.17,0.13 l 5.63,8.27 -5.83,9.67 H 235 V 199.1 Z M 186.27,171 Z m 0,0 z m 0,18.08 a 0.69,0.69 0 0 1 -0.17,-0.13 l -5.63,-8.27 5.84,-9.67 H 228 v 18.08 z"
       id="path2" />
  </g>
</svg>
