<?xml version="1.0" encoding="utf-8"?>
<!-- Generator: Adobe Illustrator 25.0.0, SVG Export Plug-In . SVG Version: 6.00 Build 0)  -->
<svg version="1.1" id="Layer_1" xmlns="http://www.w3.org/2000/svg" xmlns:xlink="http://www.w3.org/1999/xlink" x="0px" y="0px"
	 viewBox="0 0 140 199.4" style="enable-background:new 0 0 140 199.4;" xml:space="preserve">
<g id="Layer_10">
	<path d="M23.5,119.5H41l-11,72.2c0,0.1,0,0.2,0,0.3c-0.1,1.9,0.5,3.8,1.9,5.1c1.3,1.4,3.2,2.2,5.2,2.2h66c2,0,3.8-0.8,5.2-2.2
		c1.3-1.4,2-3.3,1.8-5.2c0-0.1,0-0.2,0-0.3l-11.3-72.2h17.8c8.1,0,23.5-4.9,23.5-23.5V65.5c0.1-3.2-2.5-5.9-5.7-6
		c-0.1,0-0.2,0-0.3,0H73.7V42.8h9.7v1.9c0,1.9,1.6,3.5,3.5,3.5s3.5-1.6,3.5-3.5v-12c0-1.9-1.6-3.5-3.5-3.5s-3.5,1.6-3.5,3.5v3h-9.7
		V17.1c-0.3-5.3,3.8-9.9,9.1-10.2S92.7,10.7,93,16c0,0.4,0,0.7,0,1.1c0,1.9,1.6,3.5,3.5,3.5c1.9,0,3.5-1.6,3.5-3.5
		C100.3,7.9,93,0.2,83.8,0c-9.2-0.2-16.9,7.1-17.1,16.3c0,0.3,0,0.5,0,0.8v18.7H56.2v-3c0-1.9-1.6-3.5-3.5-3.5s-3.5,1.6-3.5,3.5v12
		c0,1.9,1.6,3.5,3.5,3.5s3.5-1.6,3.5-3.5v-2h10.5v16.7H6c-3.2-0.1-5.9,2.5-6,5.7c0,0.1,0,0.2,0,0.3V96C0,104.1,4.9,119.5,23.5,119.5
		z M102.9,192.4H37l11.1-72.9h43.5L102.9,192.4z M7,66.5h126V96c0,15.9-14.8,16.5-16.5,16.5h-93C7.6,112.5,7,97.7,7,96V66.5z"/>
</g>
</svg>
