<?xml version="1.0" encoding="utf-8"?>
<!-- Generator: Adobe Illustrator 25.0.0, SVG Export Plug-In . SVG Version: 6.00 Build 0)  -->
<svg version="1.1" id="Layer_1" xmlns="http://www.w3.org/2000/svg" xmlns:xlink="http://www.w3.org/1999/xlink" x="0px" y="0px"
	 viewBox="0 0 153.6 169.5" style="enable-background:new 0 0 153.6 169.5;" xml:space="preserve">
<g>
	<g id="Shape_313">
		<path d="M76.8,169.5C34.5,169.5,0,136.3,0,95.6c0-1.9,1.6-3.5,3.5-3.5h146.6c1.9,0,3.5,1.6,3.5,3.5
			C153.6,136.3,119.2,169.5,76.8,169.5z M7.1,99.1c1.9,35.3,32.5,63.4,69.7,63.4c37.3,0,67.8-28.1,69.7-63.4H7.1z"/>
	</g>
	<g id="Shape_314">
		<path d="M76.8,99.1c-1.9,0-3.5-1.6-3.5-3.5V22.5C73.3,10.1,83.7,0,96.5,0c12.8,0,23.2,10.1,23.2,22.5v2.7c0,1.9-1.6,3.5-3.5,3.5
			s-3.5-1.6-3.5-3.5v-2.7C112.8,14,105.5,7,96.5,7s-16.2,7-16.2,15.5v73.1C80.3,97.5,78.7,99.1,76.8,99.1z"/>
	</g>
	<g id="Shape_315">
		<path d="M76.8,77.4H48.6c-1.9,0-3.5-1.6-3.5-3.5s1.6-3.5,3.5-3.5h28.2c1.9,0,3.5,1.6,3.5,3.5S78.7,77.4,76.8,77.4z"/>
	</g>
</g>
</svg>
