<?xml version="1.0" encoding="utf-8"?>
<!-- Generator: Adobe Illustrator 25.0.0, SVG Export Plug-In . SVG Version: 6.00 Build 0)  -->
<svg version="1.1" id="Layer_1" xmlns="http://www.w3.org/2000/svg" xmlns:xlink="http://www.w3.org/1999/xlink" x="0px" y="0px"
	 viewBox="0 0 119.5 179.9" style="enable-background:new 0 0 119.5 179.9;" xml:space="preserve">
<g>
	<path d="M91,179.9H28.7c-22.5,0-28.5-18.6-28.5-28.5V28.5C0.2,6,18.9,0,28.7,0H91c22.5,0,28.5,18.6,28.5,28.5v122.9
		C119.5,173.9,100.9,179.9,91,179.9z M28.7,7C28.6,7,23,7.1,17.6,9.9c-6.9,3.5-10.4,9.8-10.4,18.6v122.9c0,0,0.1,5.7,2.9,11.1
		c3.5,6.9,9.8,10.4,18.6,10.4H91c0,0,5.7-0.1,11.1-2.9c6.9-3.5,10.4-9.8,10.4-18.6V28.5c0,0-0.1-5.7-2.9-11.1
		C106.2,10.5,99.9,7,91,7H28.7z"/>
	<path d="M116,140.4H3.5c-1.9,0-3.5-1.6-3.5-3.5s1.6-3.5,3.5-3.5H116c1.9,0,3.5,1.6,3.5,3.5S118,140.4,116,140.4z"/>
	<path d="M59.8,167.3C59.8,167.3,59.8,167.3,59.8,167.3c-2.9,0-5.7-1.1-7.7-3.2s-3.2-4.8-3.2-7.7l0,0c0-6,4.9-10.9,10.9-10.9
		c2.9,0,5.7,1.1,7.7,3.2c2.1,2.1,3.2,4.8,3.2,7.7s-1.1,5.6-3.2,7.7C65.5,166.2,62.7,167.3,59.8,167.3z M56,156.4c0,1,0.4,2,1.1,2.7
		c0.7,0.7,1.7,1.1,2.7,1.1c0,0,0,0,0,0c1,0,2-0.4,2.7-1.1c0.7-0.7,1.1-1.7,1.1-2.7c0-1-0.4-2-1.1-2.7c-0.7-0.7-1.7-1.1-2.7-1.1
		C57.7,152.6,56,154.3,56,156.4L56,156.4z"/>
</g>
</svg>
