<?xml version="1.0" encoding="utf-8"?>
<!-- Generator: Adobe Illustrator 25.0.0, SVG Export Plug-In . SVG Version: 6.00 Build 0)  -->
<svg version="1.1" id="Layer_1" xmlns="http://www.w3.org/2000/svg" xmlns:xlink="http://www.w3.org/1999/xlink" x="0px" y="0px"
	 viewBox="0 0 120 200.7" style="enable-background:new 0 0 120 200.7;" xml:space="preserve">
<g id="Layer_10">
	<path d="M96.5,40h-4l-5-31.9C86.8,3.4,82.8,0,78,0H41.5c-4.7,0-8.8,3.4-9.5,8.1L27.2,40h-3.7C15.4,40,0,44.9,0,63.5v73.8
		c0,8.1,4.9,23.5,23.5,23.5h3.9l5,31.8c0.7,4.7,4.7,8.1,9.5,8.1h36.6c4.7,0,8.8-3.4,9.5-8.1l4.8-31.8h3.8c8.1,0,23.5-4.9,23.5-23.5
		V63.5C120,55.4,115.1,40,96.5,40z M39,9.2C39.1,7.9,40.2,7,41.5,7h36.6c1.3,0,2.4,0.9,2.6,2.2L85.4,40H34.3L39,9.2z M80.9,191.5
		c-0.2,1.3-1.3,2.2-2.5,2.2H41.8c-1.3,0-2.4-0.9-2.6-2.2l-4.8-30.7h51.2L80.9,191.5z M113,137.3c0,15.9-14.8,16.5-16.5,16.5h-73
		C7.6,153.8,7,139,7,137.3V63.5C7,47.6,21.8,47,23.5,47h73c15.9,0,16.5,14.8,16.5,16.5L113,137.3z"/>
	<path d="M59.7,113.3c-2.5,0-4.6,2-4.6,4.6s2,4.6,4.6,4.6s4.6-2,4.6-4.6C64.2,115.3,62.2,113.3,59.7,113.3z"/>
	<path d="M72.2,105.4c-6.9-6.9-18.1-6.9-25,0c-0.6,0.6-1.2,1.3-1.7,2c-1.2,1.5-1,3.7,0.5,4.9c1.5,1.2,3.7,1,4.9-0.5
		c0.1-0.1,0.1-0.2,0.2-0.2c0.3-0.4,0.6-0.8,1-1.2c4.2-4.2,10.9-4.2,15.1,0c0.4,0.4,0.7,0.8,1,1.2c1.1,1.6,3.3,1.9,4.9,0.7
		c1.6-1.1,1.9-3.3,0.7-4.9l0,0C73.3,106.6,72.8,106,72.2,105.4z"/>
	<path d="M60,74.9h-0.3h-0.3c-10.6,0-20.8,4.2-28.4,11.7c-1.4,1.4-1.4,3.6,0,5s3.6,1.4,5,0c6.2-6.2,14.6-9.7,23.4-9.7
		c0.1,0,0.2,0,0.3,0s0.2,0,0.3,0c8.8,0,17.2,3.5,23.4,9.7c1.4,1.4,3.6,1.4,5,0s1.4-3.6,0-5C80.9,79.1,70.7,74.9,60,74.9z"/>
	<path d="M81.8,96.7c-0.3-0.4-0.6-0.7-1-1.1C75.3,90.1,67.8,87,60,87c-0.1,0-0.2,0-0.3,0s-0.2,0-0.3,0c-7.8,0-15.3,3.1-20.8,8.6
		c-0.3,0.3-0.7,0.7-1,1.1l-0.2,0.3c-1.3,1.4-1.2,3.7,0.3,4.9c1.4,1.3,3.7,1.2,4.9-0.3l0,0l0.3-0.3c0.2-0.2,0.4-0.5,0.6-0.7
		c4.2-4.2,9.9-6.6,15.9-6.6h0.3H60c6,0,11.7,2.4,15.9,6.6c0.2,0.2,0.4,0.5,0.6,0.7l0.3,0.3c0.7,0.8,1.6,1.2,2.6,1.2
		c1.9,0,3.5-1.5,3.5-3.5c0-0.9-0.3-1.7-0.9-2.3L81.8,96.7z"/>
</g>
</svg>
