<?xml version="1.0" encoding="utf-8"?>
<!-- Generator: Adobe Illustrator 25.0.0, SVG Export Plug-In . SVG Version: 6.00 Build 0)  -->
<svg version="1.1" id="Layer_1" xmlns="http://www.w3.org/2000/svg" xmlns:xlink="http://www.w3.org/1999/xlink" x="0px" y="0px"
	 viewBox="0 0 161.1 175" style="enable-background:new 0 0 161.1 175;" xml:space="preserve">
<g>
	<path d="M80.6,63c-1.9,0-3.5-1.6-3.5-3.5v-56c0-1.9,1.6-3.5,3.5-3.5c1.9,0,3.5,1.6,3.5,3.5v56C84.1,61.4,82.5,63,80.6,63z"/>
	<path d="M80.6,40.6c-0.8,0-1.5-0.3-2.2-0.8l-28-22.4c-1.5-1.2-1.8-3.4-0.5-4.9c1.2-1.5,3.4-1.8,4.9-0.5l25.8,20.7L106.4,12
		c1.5-1.2,3.7-1,4.9,0.5c1.2,1.5,1,3.7-0.5,4.9l-28,22.4C82.1,40.3,81.3,40.6,80.6,40.6z"/>
	<path d="M56.3,77c-0.6,0-1.2-0.2-1.7-0.5l-48.5-28c-1.7-1-2.2-3.1-1.3-4.8c1-1.7,3.1-2.2,4.8-1.3l48.5,28c1.7,1,2.2,3.1,1.3,4.8
		C58.7,76.4,57.5,77,56.3,77z"/>
	<path d="M3.5,78.9c-1.4,0-2.7-0.8-3.3-2.2c-0.7-1.8,0.2-3.8,2-4.5l30.8-12l-5-32.7c-0.3-1.9,1-3.7,2.9-4c1.9-0.3,3.7,1,4,2.9
		l5.4,35.5c0.2,1.6-0.7,3.2-2.2,3.8l-33.4,13C4.4,78.8,3.9,78.9,3.5,78.9z"/>
	<path d="M7.8,133c-1.2,0-2.4-0.6-3-1.8c-1-1.7-0.4-3.8,1.3-4.8l48.5-28c1.7-1,3.8-0.4,4.8,1.3c1,1.7,0.4,3.8-1.3,4.8l-48.5,28
		C9,132.9,8.4,133,7.8,133z"/>
	<path d="M31.5,151.7c-0.2,0-0.4,0-0.5,0c-1.9-0.3-3.2-2.1-2.9-4l5-32.7l-30.8-12c-1.8-0.7-2.7-2.7-2-4.5c0.7-1.8,2.7-2.7,4.5-2
		l33.4,13c1.5,0.6,2.4,2.2,2.2,3.8L35,148.7C34.7,150.4,33.2,151.7,31.5,151.7z"/>
	<path d="M80.6,175c-1.9,0-3.5-1.6-3.5-3.5v-56c0-1.9,1.6-3.5,3.5-3.5c1.9,0,3.5,1.6,3.5,3.5v56C84.1,173.4,82.5,175,80.6,175z"/>
	<path d="M108.5,163.8c-0.8,0-1.5-0.3-2.2-0.8l-25.8-20.7L54.7,163c-1.5,1.2-3.7,1-4.9-0.5c-1.2-1.5-1-3.7,0.5-4.9l28-22.4
		c1.3-1,3.1-1,4.4,0l28,22.4c1.5,1.2,1.8,3.4,0.5,4.9C110.6,163.4,109.6,163.8,108.5,163.8z"/>
	<path d="M153.3,133c-0.6,0-1.2-0.2-1.7-0.5l-48.5-28c-1.7-1-2.2-3.1-1.3-4.8c1-1.7,3.1-2.2,4.8-1.3l48.5,28c1.7,1,2.2,3.1,1.3,4.8
		C155.7,132.4,154.5,133,153.3,133z"/>
	<path d="M129.6,151.7c-1.7,0-3.2-1.2-3.5-3l-5.4-35.5c-0.2-1.6,0.7-3.2,2.2-3.8l33.4-13c1.8-0.7,3.8,0.2,4.5,2
		c0.7,1.8-0.2,3.8-2,4.5l-30.8,12l5,32.7c0.3,1.9-1,3.7-2.9,4C129.9,151.7,129.8,151.7,129.6,151.7z"/>
	<path d="M104.8,77c-1.2,0-2.4-0.6-3-1.8c-1-1.7-0.4-3.8,1.3-4.8l48.5-28c1.7-1,3.8-0.4,4.8,1.3s0.4,3.8-1.3,4.8l-48.5,28
		C106,76.9,105.4,77,104.8,77z"/>
	<path d="M157.6,78.9c-0.4,0-0.9-0.1-1.3-0.2l-33.4-13c-1.5-0.6-2.4-2.2-2.2-3.8l5.4-35.4c0.3-1.9,2.1-3.2,4-2.9
		c1.9,0.3,3.2,2.1,2.9,4l-5,32.7l30.8,12c1.8,0.7,2.7,2.7,2,4.5C160.3,78,159,78.9,157.6,78.9z"/>
	<path d="M80.6,119c-0.6,0-1.2-0.2-1.7-0.5l-24.3-14c-1.1-0.6-1.8-1.8-1.8-3v-28c0-1.3,0.7-2.4,1.8-3l24.3-14c1.1-0.6,2.4-0.6,3.5,0
		l24.2,14c1.1,0.6,1.8,1.8,1.8,3v28c0,1.2-0.7,2.4-1.8,3l-24.2,14C81.8,118.8,81.2,119,80.6,119z M59.8,99.5l20.8,12l20.8-12v-24
		l-20.8-12l-20.8,12V99.5z"/>
</g>
</svg>
