<?xml version="1.0" encoding="utf-8"?>
<!-- Generator: Adobe Illustrator 25.0.0, SVG Export Plug-In . SVG Version: 6.00 Build 0)  -->
<svg version="1.1" id="Layer_1" xmlns="http://www.w3.org/2000/svg" xmlns:xlink="http://www.w3.org/1999/xlink" x="0px" y="0px"
	 viewBox="0 0 181.1 174.1" style="enable-background:new 0 0 181.1 174.1;" xml:space="preserve">
<g id="Shape_122">
	<path d="M22.9,174.1c-5.8,0-11.6-2.1-16.1-6.4c-0.3-0.3-0.6-0.6-0.9-0.9c-8.2-8.7-7.8-22.4,0.9-30.5l79.2-76
		c-5.7-17.8,0.2-37.3,14.8-49.2c15.5-12.6,36.9-14.7,54.6-5.5c1,0.5,1.7,1.5,1.8,2.6c0.2,1.1-0.2,2.2-1,3l-24.8,23.8v12.5h13.4
		l24.9-23.9c0.7-0.6,1.5-1,2.4-1h0c1.3,0,2.4,0.7,3,1.8c9.8,17.1,7.5,38.3-5.7,52.9c-12.9,14.2-32.8,19.7-51.1,14.1L39,167.7
		C34.5,172,28.7,174.1,22.9,174.1z M132.3,7c-9.7,0-19.2,3.3-27.1,9.6C92.3,27,87.5,44.5,93.3,60.1c0.5,1.3,0.2,2.8-0.9,3.8
		l-80.8,77.6c-5.9,5.5-6.2,14.8-0.6,20.6c0.2,0.2,0.4,0.4,0.6,0.6c6.3,6,16.3,6,22.6,0L115,85.1c1-0.9,2.3-1.2,3.6-0.8
		c16.2,5.7,34.1,1.1,45.6-11.6c10.1-11.2,12.7-27,6.9-40.6l-22.5,21.6c-0.7,0.6-1.5,1-2.4,1h-18.3c-1.9,0-3.5-1.6-3.5-3.5V33.7
		c0-1,0.4-1.9,1.1-2.5l22.2-21.3C142.7,7.9,137.5,7,132.3,7z"/>
</g>
</svg>
