<svg
    viewBox="0 0 103.55 120.02"
    version="1.1"
    width="103.55"
    height="120.02"
    preserveAspectRatio="xMinYMid"
    aria-hidden="true"
    focusable="false">
        <title>Sterling</title>
        <path d="m 0,60.91 c 0,7.52 5.76,15.14 16.76,15.14 h 5.83 a 28.94,28.94 0 0 1 -6.94,15.18 c -2.63,3.27 -5.35,6.66 -5.35,13.18 0,9.48 7.25,15.61 18.47,15.61 h 57.56 c 10.14,0 17.22,-6.42 17.22,-15.61 0,-9.19 -7.08,-15.61 -17.22,-15.61 H 51.42 A 29.3,29.3 0 0 0 54.5,76.09 h 6.87 c 11,0 16.76,-7.62 16.76,-15.14 0,-7.52 -5.76,-15.14 -16.76,-15.14 H 50.02 a 22.67,22.67 0 0 1 -1.84,-7.37 c 0,-8.64 9.56,-9.07 11.47,-9.07 9.66,0 12.21,4 15.17,8.68 2.46,3.88 5.52,8.7 12.91,8.7 8.32,0 15.35,-6.86 15.35,-15 C 103.08,19.47 91.29,0 59.65,0 32.51,0 14.98,14 14.98,35.78 a 32.21,32.21 0 0 0 1.91,10 H 16.76 C 5.76,45.77 0,53.38 0,60.91 Z m 21.91,-8.14 a 3.51,3.51 0 0 0 3.25,-4.79 c -1.65,-4.19 -3.18,-8.57 -3.18,-12.22 0,-17.75 14.43,-28.78 37.67,-28.78 26.54,0 36.43,15.18 36.43,24.75 0,4.18 -4,8 -8.35,8 -3.4,0 -4.6,-1.67 -7,-5.45 -3.2,-5 -7.57,-11.93 -21.08,-11.93 -11.05,0 -18.47,6.46 -18.47,16.07 0,3.78 1.39,7.44 2.5,10.39 0.24,0.62 0.46,1.22 0.66,1.79 a 3.52,3.52 0 0 0 3.89,2.29 l 0.44,-0.1 h 12.7 c 6.74,0 9.76,4.08 9.76,8.14 0,4.06 -3,8.14 -9.76,8.14 H 51.13 a 3.49,3.49 0 0 0 -3.5,3.5 c 0,7.53 -0.75,11.64 -5.35,17.56 a 3.5,3.5 0 0 0 2.76,5.65 h 41.29 c 6.21,0 10.22,3.38 10.22,8.61 0,5.23 -4,8.61 -10.22,8.61 H 28.77 c -4.28,0 -11.47,-1.12 -11.47,-8.61 0,-4.06 1.43,-5.84 3.8,-8.8 3.23,-4 7.65,-9.52 9,-22.67 a 3.5,3.5 0 0 0 -3.48,-3.85 h -9.83 c -6.74,0 -9.76,-4.09 -9.76,-8.14 0,-4.05 3,-8.14 9.76,-8.14 z" />
</svg>
