<?xml version="1.0" encoding="UTF-8" standalone="no"?>
<svg
   xmlns:dc="http://purl.org/dc/elements/1.1/"
   xmlns:cc="http://creativecommons.org/ns#"
   xmlns:rdf="http://www.w3.org/1999/02/22-rdf-syntax-ns#"
   xmlns:svg="http://www.w3.org/2000/svg"
   xmlns="http://www.w3.org/2000/svg"
   xmlns:sodipodi="http://sodipodi.sourceforge.net/DTD/sodipodi-0.dtd"
   xmlns:inkscape="http://www.inkscape.org/namespaces/inkscape"
   viewBox="0 0 159.93137 175.98793"
   version="1.1">
  <g
     id="Layer_10"
     data-name="Layer 10"
     transform="translate(-151.31998,-141.76998)">
    <path
       class="cls-1"
       d="m 184.85,251.74 h 36.61 l -12,15.37 a 4.92,4.92 0 0 0 1.79,7.47 l 8.3,3.91 -7,33.36 a 4.92,4.92 0 0 0 8.71,4 l 31.81,-40.92 a 4.92,4.92 0 0 0 -1.79,-7.47 l -8.31,-3.9 2.48,-11.83 h 12.92 c 12.85,0 16.86,0 18.25,0 h 0.2 0.9 c 18.49,0 33.53,-15.28 33.53,-34.05 A 33.74,33.74 0 0 0 282.44,184 c -0.46,-18.37 -15.32,-33.18 -33.53,-33.18 A 32.91,32.91 0 0 0 232.8,155 33.14,33.14 0 0 0 206.27,141.77 c -18.49,0 -33.53,15.28 -33.53,34 a 34.23,34.23 0 0 0 1.36,9.64 34.18,34.18 0 0 0 -22.78,32.26 c 0,18.79 15.05,34.07 33.53,34.07 z m 61.16,21 -24.69,31.77 5.47,-26.17 a 4.9,4.9 0 0 0 -2.72,-5.46 l -7.44,-3.49 24.7,-31.78 -5.47,26.17 a 4.91,4.91 0 0 0 2.72,5.47 z m -66.64,-81.49 a 3.49,3.49 0 0 0 2.5,-4.77 27.26,27.26 0 0 1 -2.13,-10.65 c 0,-14.91 11.9,-27 26.53,-27 a 26.29,26.29 0 0 1 22.55,12.81 3.51,3.51 0 0 0 5,1 26,26 0 0 1 15.08,-4.8 c 14.63,0 26.54,12.14 26.54,27.05 0,0.62 0,1.28 -0.09,2.07 a 3.53,3.53 0 0 0 0.88,2.6 3.59,3.59 0 0 0 2.49,1.16 26.7,26.7 0 0 1 25.59,27 c 0,14.91 -11.9,27.05 -26.53,27.05 h -0.65 -0.59 c -1,0 -7.27,0 -29.57,0 l 3,-14.53 a 4.92,4.92 0 0 0 -8.7,-4 l -14.37,18.5 h -41.38 -0.67 c -14.63,0 -26.53,-12.14 -26.53,-27.05 a 27,27 0 0 1 21.05,-26.48 z"
       id="path2" />
  </g>
</svg>
