<?xml version="1.0" encoding="UTF-8" standalone="no"?>
<svg
   xmlns:dc="http://purl.org/dc/elements/1.1/"
   xmlns:cc="http://creativecommons.org/ns#"
   xmlns:rdf="http://www.w3.org/1999/02/22-rdf-syntax-ns#"
   xmlns:svg="http://www.w3.org/2000/svg"
   xmlns="http://www.w3.org/2000/svg"
   xmlns:sodipodi="http://sodipodi.sourceforge.net/DTD/sodipodi-0.dtd"
   xmlns:inkscape="http://www.inkscape.org/namespaces/inkscape"
   viewBox="0 0 184.78009 160"
   version="1.1">
  <g
     id="Layer_10"
     data-name="Layer 10"
     transform="translate(-138.9299,-149.76)">
    <path
       class="cls-1"
       d="m 315,182.32 a 3.5,3.5 0 0 0 -4.78,-1.29 l -11.69,6.73 a 3.5,3.5 0 0 0 1.75,6.53 3.46,3.46 0 0 0 1.75,-0.47 l 11.68,-6.72 a 3.51,3.51 0 0 0 1.29,-4.78 z"
       id="path2" />
    <path
       class="cls-1"
       d="m 226.27,158.43 a 3.5,3.5 0 0 0 -1.29,4.78 l 6.2,10.76 a 3.5,3.5 0 0 0 3,1.75 3.45,3.45 0 0 0 1.74,-0.47 3.51,3.51 0 0 0 1.29,-4.78 l -6.2,-10.75 a 3.5,3.5 0 0 0 -4.74,-1.29 z"
       id="path4" />
    <path
       class="cls-1"
       d="m 207.16,181 a 3.5008927,3.5008927 0 1 0 -3.49,6.07 l 11.68,6.72 a 3.45,3.45 0 0 0 1.74,0.47 3.5,3.5 0 0 0 1.75,-6.53 z"
       id="path6" />
    <path
       class="cls-1"
       d="m 315,247.2 a 3.51,3.51 0 0 0 -1.29,-4.78 l -11.68,-6.73 a 3.5,3.5 0 1 0 -3.5,6.06 l 11.69,6.73 a 3.45,3.45 0 0 0 1.78,0.52 3.51,3.51 0 0 0 3,-1.8 z"
       id="path8" />
    <path
       class="cls-1"
       d="m 323.71,214.76 a 3.5,3.5 0 0 0 -3.5,-3.5 h -13.48 a 3.5,3.5 0 0 0 0,7 h 13.48 a 3.5,3.5 0 0 0 3.5,-3.5 z"
       id="path10" />
    <path
       class="cls-1"
       d="m 286.37,159.72 -6.2,10.75 a 3.5,3.5 0 0 0 1.29,4.78 3.45,3.45 0 0 0 1.74,0.47 3.51,3.51 0 0 0 3,-1.75 l 6.19,-10.76 a 3.5,3.5 0 1 0 -6.06,-3.49 z"
       id="path12" />
    <path
       class="cls-1"
       d="m 255.21,153.26 v 12.41 a 3.5,3.5 0 0 0 7,0 v -12.41 a 3.5,3.5 0 1 0 -7,0 z"
       id="path14" />
    <path
       class="cls-1"
       d="m 138.93,275.7 c 0,18.78 15,34.06 33.54,34.06 h 0.6 0.14 65 c 18.94,0 24.38,0 26.07,-0.05 v 0 h 0.13 c 0.32,0 0.65,0 1,0 18.49,0 33.53,-15.28 33.53,-34.06 a 33.84,33.84 0 0 0 -23.08,-32.37 33.93,33.93 0 1 0 -50.93,-32.42 32.75,32.75 0 0 0 -4.51,2.08 33.11,33.11 0 0 0 -26.53,-13.23 c -18.49,0 -33.53,15.27 -33.53,34.05 a 34.28,34.28 0 0 0 1.36,9.64 34.17,34.17 0 0 0 -22.79,32.3 z M 239.66,195 A 26.93,26.93 0 1 1 269.8,238.58 33.52,33.52 0 0 0 232.24,209.07 26.84,26.84 0 0 1 239.66,195 Z M 167,249.23 a 3.49,3.49 0 0 0 2.49,-4.78 27.24,27.24 0 0 1 -2.13,-10.64 c 0,-14.92 11.9,-27.05 26.53,-27.05 a 26.27,26.27 0 0 1 22.55,12.8 3.5,3.5 0 0 0 5,1 26,26 0 0 1 15.09,-4.8 c 14.63,0 26.53,12.13 26.53,27 0,0.61 0,1.27 -0.09,2.07 a 3.48,3.48 0 0 0 0.89,2.59 3.51,3.51 0 0 0 2.48,1.17 26.69,26.69 0 0 1 25.59,27 c 0,14.92 -11.9,27.06 -26.53,27.06 h -0.73 -0.52 c -3.48,0 -58.45,0 -91,0 h -0.66 c -14.63,0 -26.54,-12.14 -26.54,-27.06 A 27,27 0 0 1 167,249.23 Z"
       id="path16" />
  </g>
</svg>
