<?xml version="1.0" encoding="UTF-8" standalone="no"?>
<svg
   xmlns:dc="http://purl.org/dc/elements/1.1/"
   xmlns:cc="http://creativecommons.org/ns#"
   xmlns:rdf="http://www.w3.org/1999/02/22-rdf-syntax-ns#"
   xmlns:svg="http://www.w3.org/2000/svg"
   xmlns="http://www.w3.org/2000/svg"
   xmlns:sodipodi="http://sodipodi.sourceforge.net/DTD/sodipodi-0.dtd"
   xmlns:inkscape="http://www.inkscape.org/namespaces/inkscape"
   viewBox="0 0 160 160"
   version="1.1">
  <g
     id="Layer_10"
     data-name="Layer 10"
     transform="translate(-151.32,-149.75)">
    <path
       class="cls-1"
       d="m 196.18,161.71 a 3.5008927,3.5008927 0 1 0 -6.07,3.49 l 7.71,13.38 a 3.5,3.5 0 1 0 6.06,-3.49 z"
       id="path2" />
    <path
       class="cls-1"
       d="m 263.5,278.61 a 3.5,3.5 0 1 0 -6.06,3.49 l 9,15.69 a 3.5,3.5 0 0 0 3,1.75 3.46,3.46 0 0 0 1.75,-0.47 3.5,3.5 0 0 0 1.28,-4.78 z"
       id="path4" />
    <path
       class="cls-1"
       d="m 227.82,288.15 v 18.1 a 3.5,3.5 0 0 0 7,0 v -18.1 a 3.5,3.5 0 0 0 -7,0 z"
       id="path6" />
    <path
       class="cls-1"
       d="m 191.39,299.07 a 3.51,3.51 0 0 0 4.79,-1.28 l 9,-15.69 a 3.5008927,3.5008927 0 1 0 -6.07,-3.49 l -9,15.68 a 3.5,3.5 0 0 0 1.28,4.78 z"
       id="path8" />
    <path
       class="cls-1"
       d="m 283.08,203.44 a 3.46,3.46 0 0 0 1.75,-0.47 l 14.53,-8.37 a 3.5,3.5 0 1 0 -3.49,-6.06 l -14.54,8.36 a 3.51,3.51 0 0 0 1.75,6.54 z"
       id="path10" />
    <path
       class="cls-1"
       d="m 151.32,229.75 a 3.5,3.5 0 0 0 3.5,3.5 h 16.77 a 3.5,3.5 0 1 0 0,-7 h -16.77 a 3.5,3.5 0 0 0 -3.5,3.5 z"
       id="path12" />
    <path
       class="cls-1"
       d="m 261.79,180.34 a 3.5,3.5 0 0 0 3,-1.76 l 7.7,-13.38 a 3.5,3.5 0 1 0 -6.06,-3.49 l -7.71,13.38 a 3.49,3.49 0 0 0 1.29,4.78 3.45,3.45 0 0 0 1.78,0.47 z"
       id="path14" />
    <path
       class="cls-1"
       d="m 311.32,229.75 a 3.5,3.5 0 0 0 -3.5,-3.5 h -16.77 a 3.5,3.5 0 1 0 0,7 h 16.77 a 3.5,3.5 0 0 0 3.5,-3.5 z"
       id="path16" />
    <path
       class="cls-1"
       d="m 165,271.43 a 3.46,3.46 0 0 0 1.75,-0.47 l 14.53,-8.37 a 3.5008927,3.5008927 0 1 0 -3.49,-6.07 l -14.54,8.37 a 3.51,3.51 0 0 0 1.75,6.54 z"
       id="path18" />
    <path
       class="cls-1"
       d="m 177.81,203 a 3.5033876,3.5033876 0 0 0 3.5,-6.07 l -14.53,-8.36 a 3.5,3.5 0 0 0 -3.5,6.06 z"
       id="path20" />
    <path
       class="cls-1"
       d="m 234.82,168.69 v -15.44 a 3.5,3.5 0 0 0 -7,0 v 15.44 a 3.5,3.5 0 0 0 7,0 z"
       id="path22" />
    <path
       class="cls-1"
       d="m 202.08,258.11 a 41.36,41.36 0 1 0 0,-58.49 41.07,41.07 0 0 0 0,58.49 z m 29.24,-63.6 A 34.36,34.36 0 1 1 207,204.57 34.11,34.11 0 0 1 231.32,194.51 Z"
       id="path24" />
    <path
       class="cls-1"
       d="m 295.87,271 a 3.45,3.45 0 0 0 1.74,0.47 3.5,3.5 0 0 0 1.75,-6.54 l -14.53,-8.37 a 3.5033876,3.5033876 0 0 0 -3.5,6.07 z"
       id="path26" />
  </g>
</svg>
