<?xml version="1.0" encoding="utf-8"?>
<!-- Generator: Adobe Illustrator 25.0.0, SVG Export Plug-In . SVG Version: 6.00 Build 0)  -->
<svg version="1.1" id="Layer_1" xmlns="http://www.w3.org/2000/svg" xmlns:xlink="http://www.w3.org/1999/xlink" x="0px" y="0px"
	 viewBox="0 0 159.1 97.1" style="enable-background:new 0 0 159.1 97.1;" xml:space="preserve">
<path d="M120.4,37c-4.5,0-8.8-1.8-12-5l0,0c-3.2-3.2-5-7.5-5-12c0-4.5,1.8-8.8,5-12c6.6-6.6,17.4-6.6,24,0c3.2,3.2,5,7.5,5,12
	c0,4.5-1.8,8.8-5,12C129.2,35.2,125,37,120.4,37C120.4,37,120.4,37,120.4,37z M109.1,31.3c3,3,7,4.7,11.3,4.7c0,0,0,0,0,0
	c4.3,0,8.3-1.7,11.3-4.7c3-3,4.7-7,4.7-11.3s-1.7-8.3-4.7-11.3c-6.2-6.2-16.4-6.2-22.6,0c-3,3-4.7,7-4.7,11.3S106.1,28.3,109.1,31.3
	l-0.4,0.4L109.1,31.3z"/>
<path d="M120.4,40c-5.1,0-10.2-1.9-14.1-5.8c0,0,0,0,0,0c-7.8-7.8-7.8-20.5,0-28.3c7.8-7.8,20.5-7.8,28.3,0c7.8,7.8,7.8,20.5,0,28.3
	C130.6,38,125.5,40,120.4,40z M111.2,29.2c5.1,5.1,13.3,5.1,18.4,0c5.1-5.1,5.1-13.3,0-18.4c-5.1-5.1-13.3-5.1-18.4,0
	C106.1,15.9,106.1,24.1,111.2,29.2z"/>
<path d="M97.6,73.5c-0.7,0-1.4-0.2-2.1-0.7c-1.6-1.1-1.9-3.3-0.7-4.9l5.4-7.3c0.1-0.1,0.2-0.3,0.3-0.4c4.1-4.1,5-10.2,2.2-15.3
	c-0.1-0.1-0.1-0.3-0.2-0.5c-0.2-0.6-0.5-1.1-0.9-1.5L87.1,28.5c-13.7-13.7-36.1-13.7-49.9,0L27.2,38.6c-1.5,1.6-1.5,4.2,0.1,5.8
	c1.6,1.6,4.1,1.6,5.7,0l10-10c10.5-10.5,27.7-10.5,38.2,0l2.3,2.3c0.7,0.7,1.1,1.7,1,2.6c0,1-0.5,1.9-1.3,2.5
	c-0.2,0.2-0.5,0.4-0.7,0.7L52,72.5c-1.4,1.4-3.6,1.3-4.9-0.1c-1.4-1.4-1.3-3.6,0.1-4.9l29-28.4c-7.8-7.6-20.4-7.5-28.1,0.2L38,49.3
	c-4.4,4.2-11.2,4.2-15.5,0c-4.4-4.3-4.5-11.3-0.3-15.7l10.1-10.1c16.5-16.4,43.3-16.4,59.7,0L106.5,38c1.1,1.1,1.9,2.4,2.5,3.8
	c4,7.7,2.7,16.9-3.4,23.2l-5.2,7.1C99.7,73,98.7,73.5,97.6,73.5z"/>
<path d="M155.6,97.1c-7.2,0-11-2-14.3-3.8c-3-1.6-5.6-3-11-3c-5.5,0-8,1.4-11,3c-3.3,1.8-7.1,3.8-14.3,3.8c-7.2,0-11-2-14.3-3.8
	c-3-1.6-5.6-3-11-3c-5.5,0-8,1.4-11,3c-3.3,1.8-7.1,3.8-14.3,3.8c-7.2,0-11-2-14.3-3.8c-3-1.6-5.6-3-11-3c-5.5,0-8,1.4-11,3
	c-3.3,1.8-7.1,3.8-14.3,3.8c-1.9,0-3.5-1.6-3.5-3.5s1.6-3.5,3.5-3.5c5.5,0,8-1.4,11-3c3.3-1.8,7.1-3.8,14.3-3.8c7.2,0,11,2,14.3,3.8
	c3,1.6,5.6,3,11,3c5.5,0,8-1.4,11-3c3.3-1.8,7.1-3.8,14.3-3.8c7.2,0,11,2,14.3,3.8c3,1.6,5.6,3,11,3c5.5,0,8-1.4,11-3
	c3.3-1.8,7.1-3.8,14.3-3.8c7.2,0,11,2,14.3,3.8c3,1.6,5.6,3,11,3c1.9,0,3.5,1.6,3.5,3.5S157.6,97.1,155.6,97.1z"/>
<path d="M155.6,74.4c-7.2,0-11-2-14.3-3.8c-3-1.6-5.6-3-11-3c-5.5,0-8,1.4-11,3c-3.3,1.8-7.1,3.8-14.3,3.8c-7.2,0-11-2-14.3-3.8
	c-3-1.6-5.6-3-11-3c-5.5,0-8,1.4-11,3c-3.3,1.8-7.1,3.8-14.3,3.8c-7.2,0-11-2-14.3-3.8c-3-1.6-5.6-3-11-3c-5.5,0-8,1.4-11,3
	c-3.3,1.8-7.1,3.8-14.3,3.8c-1.9,0-3.5-1.6-3.5-3.5s1.6-3.5,3.5-3.5c5.5,0,8-1.4,11-3c3.3-1.8,7.1-3.8,14.3-3.8c7.2,0,11,2,14.3,3.8
	c3,1.6,5.6,3,11,3c5.5,0,8-1.4,11-3c3.3-1.8,7.1-3.8,14.3-3.8c7.2,0,11,2,14.3,3.8c3,1.6,5.6,3,11,3c5.5,0,8-1.4,11-3
	c3.3-1.8,7.1-3.8,14.3-3.8c7.2,0,11,2,14.3,3.8c3,1.6,5.6,3,11,3c1.9,0,3.5,1.6,3.5,3.5S157.6,74.4,155.6,74.4z"/>
</svg>
