<?xml version="1.0" encoding="UTF-8" standalone="no"?>
<svg
   xmlns:dc="http://purl.org/dc/elements/1.1/"
   xmlns:cc="http://creativecommons.org/ns#"
   xmlns:rdf="http://www.w3.org/1999/02/22-rdf-syntax-ns#"
   xmlns:svg="http://www.w3.org/2000/svg"
   xmlns="http://www.w3.org/2000/svg"
   xmlns:sodipodi="http://sodipodi.sourceforge.net/DTD/sodipodi-0.dtd"
   xmlns:inkscape="http://www.inkscape.org/namespaces/inkscape"
   viewBox="0 0 159.36002 119.83611"
   version="1.1"
   id="svg11"
   sodipodi:docname="Swimming.svg"
   width="159.36002"
   height="119.83611"
   inkscape:version="1.0.2 (e86c870879, 2021-01-15, custom)">
  <g
     id="Layer_10"
     data-name="Layer 10"
     transform="translate(-151.64,-169.82999)">
    <path
       class="cls-1"
       d="m 272,209.83 a 20,20 0 0 0 0,-40 v 0 A 20,20 0 0 0 257.87,204 v 0 a 20,20 0 0 0 14.13,5.83 z m -0.06,-33 v 0 A 13,13 0 1 1 262.82,199 v 0 A 13,13 0 0 1 272,176.84 Z"
       id="path2" />
    <path
       class="cls-1"
       d="m 311,286.15 a 3.5,3.5 0 0 0 -3.5,-3.5 20,20 0 0 1 -11,-3 29,29 0 0 0 -28.65,0 22,22 0 0 1 -22.06,0 29,29 0 0 0 -28.65,0 22,22 0 0 1 -22.06,0 29,29 0 0 0 -28.65,0 20.06,20.06 0 0 1 -11,3 3.5,3.5 0 1 0 0,7 26.83,26.83 0 0 0 14.32,-3.79 22,22 0 0 1 22.06,0 28.93,28.93 0 0 0 28.65,0 22,22 0 0 1 22.06,0 29,29 0 0 0 28.65,0 22,22 0 0 1 22.06,0 26.77,26.77 0 0 0 14.33,3.8 3.5,3.5 0 0 0 3.44,-3.51 z"
       id="path4" />
    <path
       class="cls-1"
       d="m 155.11,266.92 a 26.74,26.74 0 0 0 14.32,-3.79 22,22 0 0 1 22.06,0 29,29 0 0 0 28.65,0 22,22 0 0 1 22.06,0 29,29 0 0 0 28.65,0 22,22 0 0 1 22.06,0 26.78,26.78 0 0 0 14.33,3.79 3.5,3.5 0 0 0 0,-7 20,20 0 0 1 -11,-3 28.9,28.9 0 0 0 -28.65,0 22,22 0 0 1 -22.06,0 28.9,28.9 0 0 0 -28.65,0 22,22 0 0 1 -22.06,0 28.9,28.9 0 0 0 -28.65,0 20.07,20.07 0 0 1 -11,3 3.5,3.5 0 0 0 0,7 z"
       id="path6" />
    <path
       class="cls-1"
       d="m 194.79,234.23 a 29,29 0 0 0 -28.65,0 20,20 0 0 1 -11,3 3.5,3.5 0 0 0 0,7 26.74,26.74 0 0 0 14.32,-3.79 22,22 0 0 1 22.06,0 29,29 0 0 0 28.65,0 22,22 0 0 1 22.06,0 36,36 0 0 0 5.07,2.34 3.49,3.49 0 0 0 1.92,0.59 v 0 a 28.75,28.75 0 0 0 7.32,0.86 26.74,26.74 0 0 0 14.32,-3.79 22,22 0 0 1 22.06,0 26.78,26.78 0 0 0 14.33,3.79 3.5,3.5 0 0 0 0,-7 19.93,19.93 0 0 1 -11,-3 29,29 0 0 0 -28.65,0 20,20 0 0 1 -11,3 h -1 l 1.74,-2.36 a 19.86,19.86 0 0 0 3.38,-23.17 11,11 0 0 0 -2.49,-3.8 l -14.54,-14.5 a 42.32,42.32 0 0 0 -59.76,0 l -10.06,10.06 a 11.12279,11.12279 0 0 0 15.73,15.73 l 10.06,-10.06 a 20,20 0 0 1 28.11,-0.19 l -28.07,27.47 a 25.13,25.13 0 0 1 -4.91,-2.18 z m 40.46,-27.71 -2.34,-2.34 a 27,27 0 0 0 -38.2,0 l -10.06,10.06 a 4.1224325,4.1224325 0 0 1 -5.83,-5.83 l 10.06,-10.06 a 35.31,35.31 0 0 1 49.86,0 l 14.44,14.45 a 4.09,4.09 0 0 1 0.95,1.49 3.82,3.82 0 0 0 0.21,0.46 12.9,12.9 0 0 1 -2.25,15.32 3.26,3.26 0 0 0 -0.34,0.4 l -3.75,5.05 c -0.86,-0.4 -1.68,-0.83 -2.53,-1.29 a 29,29 0 0 0 -28.65,0 20.42,20.42 0 0 1 -7.72,2.77 l 25.23,-24.69 c 0.24,-0.24 0.49,-0.45 0.73,-0.67 a 3.5,3.5 0 0 0 0.19,-5.12 z"
       id="path8" />
  </g>
</svg>
