<?xml version="1.0" encoding="utf-8"?>
<!-- Generator: Adobe Illustrator 25.0.0, SVG Export Plug-In . SVG Version: 6.00 Build 0)  -->
<svg version="1.1" id="Layer_1" xmlns="http://www.w3.org/2000/svg" xmlns:xlink="http://www.w3.org/1999/xlink" x="0px" y="0px"
	 viewBox="0 0 159.1 139" style="enable-background:new 0 0 159.1 139;" xml:space="preserve">
<g id="Layer_10">
	<path d="M28.8,79.7c-5-0.1-10,1.2-14.3,3.8c-3.3,2-7.1,3.1-11,3C1.6,86.5,0,88.1,0,90s1.6,3.5,3.5,3.5c5,0.1,10-1.2,14.3-3.8
		c6.8-4,15.2-4,22.1,0c8.9,5,19.8,5,28.6,0c6.8-4,15.2-4,22.1,0c8.9,5,19.8,5,28.7,0c6.8-4,15.2-4,22.1,0c4.3,2.6,9.3,3.9,14.3,3.8
		c1.9,0,3.5-1.6,3.5-3.5s-1.6-3.5-3.5-3.5c-3.9,0.1-7.7-1-11-3c-8.9-5-19.8-5-28.6,0c-2.6,1.6-5.6,2.6-8.6,2.9c0-0.1,0-0.2,0-0.2
		V3.5c0-1.9-1.6-3.5-3.5-3.5c-1.9,0-3.5,1.6-3.5,3.5v20H58.8v-20c0-1.9-1.6-3.5-3.5-3.5s-3.5,1.6-3.5,3.5v82.7c0,0.1,0,0.2,0,0.2
		c-3.1-0.3-6-1.3-8.6-2.9C38.8,81,33.9,79.6,28.8,79.7z M79.5,79.7c-5-0.1-10,1.2-14.3,3.8c-2,1.2-4.2,2.1-6.4,2.6V60.5h41.5v25.6
		c-2.3-0.5-4.4-1.4-6.4-2.6C89.5,81,84.6,79.6,79.5,79.7z M100.3,30.5v23H58.8v-23H100.3z"/>
	<path d="M3.5,116.3c5,0.1,10-1.2,14.3-3.8c6.8-4,15.2-4,22.1,0c8.9,5,19.8,5,28.6,0c6.8-4,15.2-4,22.1,0c8.9,5,19.8,5,28.6,0
		c6.8-4,15.2-4,22.1,0c4.3,2.6,9.3,3.9,14.3,3.8c1.9,0,3.5-1.6,3.5-3.5s-1.6-3.5-3.5-3.5c-3.9,0.1-7.7-1-11-3c-8.9-5-19.8-5-28.6,0
		c-6.8,4-15.2,4-22.1,0c-8.9-5-19.8-5-28.6,0c-6.8,4-15.2,4-22.1,0c-8.9-5-19.8-5-28.6,0c-3.3,2-7.1,3.1-11,3
		c-1.9,0-3.5,1.6-3.5,3.5S1.6,116.3,3.5,116.3L3.5,116.3z"/>
	<path d="M3.5,139c5,0.1,10-1.2,14.3-3.8c6.8-4,15.2-4,22.1,0c8.9,5,19.8,5,28.6,0c6.8-4,15.2-4,22.1,0c8.9,5,19.8,5,28.6,0
		c6.8-4,15.2-4,22.1,0c4.3,2.6,9.3,3.9,14.3,3.8c1.9,0,3.5-1.6,3.5-3.5s-1.6-3.5-3.5-3.5c-3.9,0.1-7.7-1-11-3c-8.9-5-19.8-5-28.6,0
		c-6.8,4-15.2,4-22.1,0c-8.9-5-19.8-5-28.6,0c-6.8,4-15.2,4-22.1,0c-8.9-5-19.8-5-28.6,0c-3.3,2-7.1,3.1-11,3
		c-1.9,0-3.5,1.6-3.5,3.5S1.6,139,3.5,139L3.5,139z"/>
</g>
</svg>
