<?xml version="1.0" encoding="UTF-8" standalone="no"?>
<svg
   xmlns:dc="http://purl.org/dc/elements/1.1/"
   xmlns:cc="http://creativecommons.org/ns#"
   xmlns:rdf="http://www.w3.org/1999/02/22-rdf-syntax-ns#"
   xmlns:svg="http://www.w3.org/2000/svg"
   xmlns="http://www.w3.org/2000/svg"
   xmlns:sodipodi="http://sodipodi.sourceforge.net/DTD/sodipodi-0.dtd"
   xmlns:inkscape="http://www.inkscape.org/namespaces/inkscape"
   viewBox="0 0 151.10001 182.48204"
   version="1.1"
   id="svg7"
   sodipodi:docname="Tap.svg"
   width="151.10001"
   height="182.48204"
   inkscape:version="1.0.2 (e86c870879, 2021-01-15, custom)">
  <g
     id="Layer_10"
     data-name="Layer 10"
     transform="translate(-155.77,-138.54796)">
    <path
       class="cls-1"
       d="M 306.87,217.56 V 200.1 a 9.68,9.68 0 0 0 -9.66,-9.67 h -50.55 a 15.09,15.09 0 0 0 -6.45,2.1 l -28.44,19.31 v -22.45 0 -8.47 l 37.28,-21.53 a 9.81,9.81 0 0 0 3.92,-4 6.3,6.3 0 0 0 0,-6 l -4.5,-7.81 c -1.9,-3.29 -6.59,-4 -10.67,-1.65 L 206.38,158 a 20.8,20.8 0 0 0 -15.47,-6.91 h -14.29 a 20.88,20.88 0 0 0 -20.85,20.86 v 14.3 0 131.28 a 3.5,3.5 0 0 0 3.5,3.5 h 49 a 3.5,3.5 0 0 0 3.5,-3.5 v -61.21 l 42.84,-29.08 h 42.6 a 9.68,9.68 0 0 0 9.66,-9.68 z m -65.59,-71.64 a 3.19,3.19 0 0 1 1.37,-0.45 l 4,6.88 a 3.31,3.31 0 0 1 -1.08,1 l -33.78,19.5 v -0.89 a 20.72,20.72 0 0 0 -1.62,-8 z m -78.51,26.33 a 1.93,1.93 0 0 0 0,-0.24 1.7,1.7 0 0 0 0,-0.22 13.87,13.87 0 0 1 13.85,-13.72 h 14.29 a 13.88,13.88 0 0 1 13.86,13.72 1.62,1.62 0 0 0 0,0.22 1.93,1.93 0 0 0 0,0.24 v 13.63 h -42 z m 90.77,48 a 3.54,3.54 0 0 0 -2,0.6 l -45.24,30.72 a 3.48,3.48 0 0 0 -1.53,2.89 V 314 h -42 V 192.88 h 42 v 25.56 a 3.5,3.5 0 0 0 5.46,2.9 l 33.9,-23 a 2.84,2.84 0 0 1 0.69,-0.31 3.37,3.37 0 0 0 0.59,-0.25 2.56,2.56 0 0 1 1.25,-0.34 h 50.55 a 2.67,2.67 0 0 1 2.66,2.67 v 17.46 a 2.67,2.67 0 0 1 -2.66,2.68 z"
       id="path2" />
    <path
       class="cls-1"
       d="m 278.42,234.8 c -0.54,0.43 -13.2,10.67 -13.45,22.22 a 14.62,14.62 0 0 0 4.11,10.82 15.94,15.94 0 0 0 23.05,0 14.62,14.62 0 0 0 4.11,-10.84 c -0.25,-11.55 -12.91,-21.79 -13.45,-22.22 a 3.5,3.5 0 0 0 -4.37,0.02 z m 10.82,22.38 a 7.6,7.6 0 0 1 -2.11,5.77 9,9 0 0 1 -13.05,0 7.6,7.6 0 0 1 -2.11,-5.77 c 0.12,-5.53 5.14,-11.57 8.64,-15 3.49,3.43 8.51,9.47 8.63,15 z"
       id="path4" />
  </g>
</svg>
