<?xml version="1.0" encoding="utf-8"?>
<!-- Generator: Adobe Illustrator 25.0.0, SVG Export Plug-In . SVG Version: 6.00 Build 0)  -->
<svg version="1.1" id="Layer_1" xmlns="http://www.w3.org/2000/svg" xmlns:xlink="http://www.w3.org/1999/xlink" x="0px" y="0px"
	 viewBox="0 0 166.1 177.5" style="enable-background:new 0 0 166.1 177.5;" xml:space="preserve">
<g id="Shape_1344">
	<path d="M155.8,92.3H44.4c-1.9,0-3.5-1.6-3.5-3.5s1.6-3.5,3.5-3.5h111.4c1.9,0,3.5,1.6,3.5,3.5S157.7,92.3,155.8,92.3z"/>
</g>
<g id="Shape_1345">
	<path d="M37.6,166.1c-0.9,0-1.8-0.3-2.5-1L5.7,135.7C2,132,0,127.1,0,121.9c0-5.2,2-10.1,5.7-13.9c3.7-3.7,8.6-5.7,13.8-5.8h19.1
		c1.9,0,3.5,1.6,3.5,3.5s-1.6,3.5-3.5,3.5H19.6c-3.4,0-6.5,1.3-8.9,3.7S7,118.5,7,121.9c0,3.4,1.3,6.5,3.7,8.9l29.4,29.4
		c1.4,1.4,1.4,3.6,0,5C39.4,165.8,38.5,166.1,37.6,166.1z"/>
</g>
<g id="Shape_1346">
	<path d="M151.2,177.5H48.9c-8.2,0-14.9-6.7-14.9-14.9v-45.5c0-17.6,6.9-34.2,19.4-46.7c12.5-12.5,29-19.3,46.6-19.3c0,0,0,0,0,0
		c36.4,0,65.9,29.6,66,66v45.5C166.1,170.8,159.4,177.5,151.2,177.5z M100.1,58.2c-15.7,0-30.6,6.1-41.7,17.3
		c-11.1,11.1-17.3,26-17.3,41.7v45.4c0,4.3,3.5,7.9,7.9,7.9h102.3c4.3,0,7.9-3.5,7.9-7.9v-45.5C159.1,84.7,132.6,58.2,100.1,58.2
		C100.1,58.2,100.1,58.2,100.1,58.2z"/>
</g>
<g id="Oval_94">
	<path d="M100.1,58.2C100.1,58.2,100.1,58.2,100.1,58.2L100.1,58.2c-8.2,0-14.9-6.7-14.9-14.9c0-8.2,6.7-14.9,14.9-14.9c0,0,0,0,0,0
		c4,0,7.7,1.6,10.5,4.4c2.8,2.8,4.3,6.5,4.3,10.5c0,4-1.6,7.7-4.4,10.5C107.8,56.6,104.1,58.2,100.1,58.2z M100.1,35.4
		c-4.3,0-7.9,3.5-7.9,7.9c0,4.3,3.5,7.9,7.9,7.9h0c0,0,0,0,0,0c2.1,0,4.1-0.8,5.6-2.3c1.5-1.5,2.3-3.5,2.3-5.6
		c0-2.1-0.8-4.1-2.3-5.6S102.2,35.4,100.1,35.4C100.1,35.4,100.1,35.4,100.1,35.4z"/>
</g>
<g id="Shape_1347">
	<path d="M151.2,84.7c-1.9,0-3.5-1.6-3.5-3.5V57.5c0.6-27-20.7-49.6-47.6-50.5C73.2,7.9,51.8,30.5,52.4,57.4l0,23.8
		c0,1.9-1.6,3.5-3.5,3.5s-3.5-1.6-3.5-3.5V57.5C44.7,26.8,69.2,0.9,100,0c0.1,0,0.1,0,0.2,0c30.8,0.9,55.3,26.8,54.5,57.6l0,23.6
		C154.7,83.1,153.2,84.7,151.2,84.7z"/>
</g>
</svg>
