<?xml version="1.0" encoding="utf-8"?>
<!-- Generator: Adobe Illustrator 25.2.0, SVG Export Plug-In . SVG Version: 6.00 Build 0)  -->
<svg version="1.1" id="Layer_1" xmlns="http://www.w3.org/2000/svg" xmlns:xlink="http://www.w3.org/1999/xlink" x="0px" y="0px"
	 viewBox="0 0 132.3 178.5" style="enable-background:new 0 0 132.3 178.5;" xml:space="preserve">
<path d="M37.7,178.6c-0.7,0-1.4,0-2.1-0.1c-10.1-0.6-19.3-5-26-12.5c-13.5-15.1-12.6-38.2,1.8-52.2V25.8C11.7,11.2,23.8-0.3,38.3,0
	C52.8,0.3,64.3,12.4,64,26.9l0,87c0.6,0.6,1.2,1.2,1.8,1.9c13.9,15.5,12.5,39.4-3,53.3C55.9,175.2,47,178.6,37.7,178.6z M37.7,7
	c-10.4,0-19,8.4-19.3,18.9l0,0.9v88.6c0,1-0.4,1.9-1.2,2.6c-12.6,11.3-13.7,30.7-2.4,43.4c5.5,6.1,13,9.7,21.2,10.2
	c8.2,0.5,16.1-2.3,22.2-7.8c12.6-11.3,13.7-30.7,2.4-43.4c-0.8-0.9-1.6-1.7-2.4-2.4c-0.7-0.7-1.2-1.6-1.2-2.6V26.8
	C57.3,16.1,48.8,7.3,38.1,7C38,7,37.8,7,37.7,7z M64,115.4L64,115.4L64,115.4z"/>
<path d="M37.7,132.8c-1.9,0-3.5-1.6-3.5-3.5V78c0-1.9,1.6-3.5,3.5-3.5s3.5,1.6,3.5,3.5v51.3C41.2,131.2,39.6,132.8,37.7,132.8z"/>
<path d="M37.7,155.6c-4,0-7.8-1.6-10.6-4.4c-2.8-2.8-4.3-6.6-4.2-10.5c0-8.1,6.7-14.7,14.9-14.7c8.2,0,14.8,6.7,14.8,14.9
	C52.6,149,45.9,155.6,37.7,155.6z M37.8,132.9c-4.4,0-7.9,3.5-7.9,7.8c0,2.1,0.8,4.1,2.2,5.6c1.5,1.5,3.5,2.3,5.6,2.3
	c4.4,0,7.9-3.5,7.9-7.8C45.6,136.4,42.1,132.9,37.8,132.9z"/>
<path d="M128.9,30.3H89c-1.9,0-3.5-1.6-3.5-3.5s1.6-3.5,3.5-3.5h39.9c1.9,0,3.5,1.6,3.5,3.5S130.8,30.3,128.9,30.3z"/>
<path d="M106.1,64.4H89c-1.9,0-3.5-1.6-3.5-3.5s1.6-3.5,3.5-3.5h17.1c1.9,0,3.5,1.6,3.5,3.5S108,64.4,106.1,64.4z"/>
<path d="M128.9,98.6H89c-1.9,0-3.5-1.6-3.5-3.5s1.6-3.5,3.5-3.5h39.9c1.9,0,3.5,1.6,3.5,3.5S130.8,98.6,128.9,98.6z"/>
</svg>
