<?xml version="1.0" encoding="UTF-8" standalone="no"?>
<svg
   xmlns:dc="http://purl.org/dc/elements/1.1/"
   xmlns:cc="http://creativecommons.org/ns#"
   xmlns:rdf="http://www.w3.org/1999/02/22-rdf-syntax-ns#"
   xmlns:svg="http://www.w3.org/2000/svg"
   xmlns="http://www.w3.org/2000/svg"
   xmlns:sodipodi="http://sodipodi.sourceforge.net/DTD/sodipodi-0.dtd"
   xmlns:inkscape="http://www.inkscape.org/namespaces/inkscape"
   viewBox="0 0 140 170.00015"
   version="1.1">
  <g
     id="Layer_10"
     data-name="Layer 10"
     transform="translate(-165.27,-144.73)">
    <path
       class="cls-1"
       d="m 199.49,314.39 a 5.25,5.25 0 0 0 1.9,0.34 c 1.66,0 3.9,-0.73 6.38,-3.58 l 23,-26.42 h 51 a 23.52,23.52 0 0 0 23.5,-23.5 v -93 a 23.53,23.53 0 0 0 -23.5,-23.5 h -93 a 23.54,23.54 0 0 0 -23.5,23.5 v 93 a 23.53,23.53 0 0 0 23.5,23.5 h 6.81 c -0.13,9.4 -0.31,21.51 -0.31,21.56 0.05,5.71 2.66,7.52 4.22,8.1 z m -10.67,-36.66 a 16.52,16.52 0 0 1 -16.5,-16.5 v -93 a 16.53,16.53 0 0 1 16.5,-16.5 h 93 a 16.52,16.52 0 0 1 16.5,16.5 v 93 a 16.52,16.52 0 0 1 -16.5,16.5 h -52.61 a 3.52,3.52 0 0 0 -2.64,1.2 l -24.08,27.62 a 1.45,1.45 0 0 1 -0.16,0.18 c 0,-0.12 0,-0.25 0,-0.39 0,-0.14 0.23,-15.53 0.36,-25.06 a 3.52,3.52 0 0 0 -3.5,-3.55 z"
       id="path2" />
    <path
       class="cls-1"
       d="m 215.1,245.49 a 13.67,13.67 0 0 0 8.84,3.95 c 0.25,0 0.51,0 0.76,0 a 13.15,13.15 0 0 0 9.17,-3.91 l 42.05,-42.11 v 0 a 13.41,13.41 0 0 0 0,-18.84 c -2.21,-2.23 -6.18,-4.26 -9.6,-3.92 a 13.14,13.14 0 0 0 -9.16,3.9 l -32.66,32.7 -10.85,-10.86 a 13.41,13.41 0 0 0 -18.84,0 c -2.23,2.22 -4.26,6.19 -3.92,9.6 a 13.1,13.1 0 0 0 3.9,9.16 z M 197.89,215.8 a 3.83,3.83 0 0 0 0,-0.47 6.65,6.65 0 0 1 1.88,-4 6.38,6.38 0 0 1 4.5,-1.85 6.3,6.3 0 0 1 4.47,1.84 L 222,224.65 a 3.5,3.5 0 0 0 4.95,0 l 35.14,-35.18 a 6.16,6.16 0 0 1 4.41,-1.84 v 0 a 3.71,3.71 0 0 0 0.47,0 6.65,6.65 0 0 1 3.95,1.88 6.4,6.4 0 0 1 0,9 l -42,42.12 a 6.21,6.21 0 0 1 -4.41,1.84 v 0 a 3.59,3.59 0 0 0 -0.47,0 6.59,6.59 0 0 1 -4,-1.89 L 199.7,220.25 a 6.18,6.18 0 0 1 -1.81,-4.45 z"
       id="path4" />
  </g>
</svg>
