<?xml version="1.0" encoding="utf-8"?>
<!-- Generator: Adobe Illustrator 25.0.0, SVG Export Plug-In . SVG Version: 6.00 Build 0)  -->
<svg version="1.1" id="Layer_1" xmlns="http://www.w3.org/2000/svg" xmlns:xlink="http://www.w3.org/1999/xlink" x="0px" y="0px"
	 viewBox="0 0 140.1 200.2" style="enable-background:new 0 0 140.1 200.2;" xml:space="preserve">
<g id="Layer_10">
	<path d="M116.5,28.1H108c-1.3-5.4-6.6-8.7-12-7.5c-5.4,1.3-8.7,6.6-7.5,12c1.3,5.4,6.6,8.7,12,7.5c2.8-0.7,5.2-2.5,6.5-5h9.4
		c1.9,0,3.5-1.6,3.5-3.5S118.4,28.1,116.5,28.1z M98.3,33.4c-1.7,0-3-1.3-3-3s1.3-3,3-3s3,1.3,3,3C101.3,32.1,100,33.4,98.3,33.4
		L98.3,33.4z"/>
	<path d="M134,80.6h-1.8l7.8-73.1c0.2-1.6-0.4-3.3-1.5-4.5c-1.7-1.9-4.6-3-8-3H9.5c-3.4,0-6.3,1.1-8,3C0.4,4.2-0.1,5.8,0,7.5
		l8.2,73.1H6c-3.2-0.1-5.9,2.5-6,5.8c0,0.1,0,0.2,0,0.2v30.5c0,8.1,4.9,23.5,23.5,23.5h14.4l-7.9,51.9c0,0.1,0,0.2,0,0.3
		c-0.1,1.9,0.5,3.8,1.9,5.2c1.3,1.4,3.2,2.2,5.2,2.2h66c2,0,3.8-0.8,5.2-2.2c1.3-1.4,2-3.3,1.8-5.2c0-0.1,0-0.2,0-0.3l-8.1-51.9
		h14.6c8.1,0,23.5-4.9,23.5-23.5V86.6c0.1-3.2-2.5-5.9-5.7-6C134.2,80.6,134.1,80.6,134,80.6z M37,193.2l8-52.5h49.8l8.2,52.6
		L37,193.2z M7,7.5C7.8,7.1,8.7,7,9.5,7h120.8c0.9,0,1.7,0.1,2.5,0.5l-7.8,73.1H15.3L7,7.5z M133,117.1c0,15.9-14.8,16.5-16.5,16.5
		h-93C7.6,133.6,7,118.8,7,117.1V87.6h126V117.1z"/>
</g>
</svg>
