<?xml version="1.0" encoding="utf-8"?>
<!-- Generator: Adobe Illustrator 25.0.0, SVG Export Plug-In . SVG Version: 6.00 Build 0)  -->
<svg version="1.1" id="Layer_1" xmlns="http://www.w3.org/2000/svg" xmlns:xlink="http://www.w3.org/1999/xlink" x="0px" y="0px"
	 viewBox="0 0 160.5 177.1" style="enable-background:new 0 0 160.5 177.1;" xml:space="preserve">
<g id="Shape_270">
	<path d="M145.5,97.7c-0.1,0-0.2,0-0.3,0l-35.4,0c-1.9,0-3.5-1.6-3.5-3.5V14.8c0.2-8.4,7.1-15,15.4-14.8l23.5,0c0,0,0,0,0.1,0
		c8.2-0.2,15.1,6.5,15.3,14.8l0,68.1C160.4,91.2,153.6,97.7,145.5,97.7z M113.3,94.2L113.3,94.2L113.3,94.2z M113.3,90.7h31.9
		c4.5,0.1,8.2-3.5,8.3-7.9l0-68c-0.1-4.4-3.8-7.9-8.2-7.8c0,0-0.1,0-0.1,0h-23.6c-4.5-0.1-8.2,3.5-8.3,7.9L113.3,90.7z"/>
</g>
<g id="Shape_271">
	<path d="M14.9,97.8c-0.2,0-0.4,0-0.6,0C6,97.4-0.3,90.5,0,82.3c0.3-8.2,7.2-14.5,15.4-14.2h94.4c1.9,0,3.5,1.6,3.5,3.5v22.7
		c0,1.9-1.6,3.5-3.5,3.5H15.4C15.2,97.7,15,97.8,14.9,97.8z M14.8,75.1c-4.2,0-7.7,3.3-7.8,7.5c-0.2,4.3,3.2,8,7.5,8.2
		c0.2,0,0.4,0,0.7,0c0,0,0.1,0,0.1,0h91V75.1h-91c0,0-0.1,0-0.1,0C15.1,75.1,15,75.1,14.8,75.1z"/>
</g>
<g id="Shape_272">
	<path d="M121.6,177.1H44.9c-1.1,0-2.1-0.5-2.8-1.3c-0.7-0.8-0.9-2-0.6-3l5.2-21.1C25.1,140,11.8,118.2,11.8,94.3
		c0-1.9,1.6-3.5,3.5-3.5h129.9c0.9,0,1.8,0.4,2.5,1c0.7,0.7,1,1.6,1,2.5c-0.1,11.5-7.6,21.4-18.5,24.8c-3.1,1.1-5.2,4.1-5.1,7.5
		l0,47.1C125.1,175.6,123.5,177.1,121.6,177.1z M49.3,170.1h68.8v-43.5c-0.1-6.3,3.8-12,9.8-14.2c0.1,0,0.1,0,0.2-0.1
		c6.9-2.1,11.9-7.8,13.3-14.7H18.9c1.3,20.8,13.8,39.3,33.4,48.9c1.5,0.7,2.3,2.4,1.9,4L49.3,170.1z"/>
</g>
</svg>
