<?xml version="1.0" encoding="UTF-8" standalone="no"?>
<svg
   xmlns:dc="http://purl.org/dc/elements/1.1/"
   xmlns:cc="http://creativecommons.org/ns#"
   xmlns:rdf="http://www.w3.org/1999/02/22-rdf-syntax-ns#"
   xmlns:svg="http://www.w3.org/2000/svg"
   xmlns="http://www.w3.org/2000/svg"
   xmlns:sodipodi="http://sodipodi.sourceforge.net/DTD/sodipodi-0.dtd"
   xmlns:inkscape="http://www.inkscape.org/namespaces/inkscape"
   viewBox="0 0 148.32735 133.17273"
   version="1.1"
   id="svg7"
   sodipodi:docname="Toilet roll.svg"
   width="148.32735"
   height="133.17273"
   inkscape:version="1.0.2 (e86c870879, 2021-01-15, custom)">
  <g
     id="Layer_10"
     data-name="Layer 10"
     transform="translate(-157.18,-163.15857)">
    <path
       class="cls-1"
       d="m 187.58,256.67 a 21.37,21.37 0 0 0 3.85,-0.36 3.63,3.63 0 0 0 1.54,0.36 h 17.92 v 36.16 a 3.5,3.5 0 0 0 4.25,3.42 l 43.05,-9.44 43.06,9.44 a 3.82,3.82 0 0 0 0.75,0.08 3.52,3.52 0 0 0 3.5,-3.5 v -84.78 a 2.09,2.09 0 0 0 0,-0.35 c -0.73,-25.15 -13.82,-44.53 -30.4,-44.53 a 4.88,4.88 0 0 0 -0.64,0 4.21,4.21 0 0 0 -0.62,0 H 193 a 3.5,3.5 0 0 0 -1.54,0.37 20.51,20.51 0 0 0 -3.85,-0.37 c -17.06,0 -30.43,20.54 -30.43,46.75 0,26.21 13.34,46.75 30.4,46.75 z m 16.23,-7 a 38.44,38.44 0 0 0 7.08,-9.37 v 9.37 z m 69.88,-79.5 h 0.36 a 2.36,2.36 0 0 0 0.46,0 5.45,5.45 0 0 0 0.62,-0.05 c 12.68,0.06 23.37,18.24 23.37,39.75 v 78.56 l -39.56,-8.67 a 3.45,3.45 0 0 0 -1.5,0 l -39.55,8.67 V 214.3 c 0.08,-1.44 0.13,-2.9 0.13,-4.38 0,-17 -5.62,-31.57 -14.21,-39.75 z m -86.11,0 c 12.19,0 22.57,16.77 23.38,37.17 a 3.35,3.35 0 0 0 -0.07,0.71 v 6 c -1.26,19.71 -11.42,35.65 -23.31,35.65 -12.7,0 -23.43,-18.2 -23.43,-39.75 0,-21.55 10.73,-39.78 23.43,-39.78 z"
       id="path2" />
    <path
       class="cls-1"
       d="m 187.58,226.08 c 6.27,0 11.18,-7.1 11.18,-16.16 0,-9.06 -4.91,-16.16 -11.18,-16.16 -6.27,0 -11.17,7.1 -11.17,16.16 0,9.06 4.91,16.16 11.17,16.16 z m 0,-25.32 c 1.67,0 4.18,3.66 4.18,9.16 0,5.5 -2.51,9.16 -4.18,9.16 -1.67,0 -4.17,-3.65 -4.17,-9.16 0,-5.51 2.51,-9.16 4.17,-9.16 z"
       id="path4" />
  </g>
</svg>
