<?xml version="1.0" encoding="UTF-8" standalone="no"?>
<svg
   xmlns:dc="http://purl.org/dc/elements/1.1/"
   xmlns:cc="http://creativecommons.org/ns#"
   xmlns:rdf="http://www.w3.org/1999/02/22-rdf-syntax-ns#"
   xmlns:svg="http://www.w3.org/2000/svg"
   xmlns="http://www.w3.org/2000/svg"
   xmlns:sodipodi="http://sodipodi.sourceforge.net/DTD/sodipodi-0.dtd"
   xmlns:inkscape="http://www.inkscape.org/namespaces/inkscape"
   viewBox="0 0 194.36 144.25"
   version="1.1"
   id="svg5"
   sodipodi:docname="Towel.svg"
   width="194.36"
   height="144.25"
   inkscape:version="1.0.2 (e86c870879, 2021-01-15, custom)">
  <g
     id="Layer_10"
     data-name="Layer 10"
     transform="translate(-134.14,-157.63)">
    <path
       class="cls-1"
       d="M 325,176.19 H 311.26 A 22.09,22.09 0 0 0 289.47,157.63 H 182.62 a 22.11,22.11 0 0 0 -21.79,18.56 h -23.19 a 3.5,3.5 0 0 0 0,7 h 22.91 v 109 a 9.7,9.7 0 0 0 9.69,9.69 H 274 a 9.7,9.7 0 0 0 9.69,-9.69 V 279 h 18.16 a 9.7,9.7 0 0 0 9.69,-9.69 V 183.19 H 325 a 3.5,3.5 0 0 0 0,-7 z m -20.89,0 h -20 a 15,15 0 0 1 8,-10 3.53,3.53 0 0 0 1.26,-1.07 15.12,15.12 0 0 1 10.75,11.07 z m -121.5,-11.56 h 100 a 21.91,21.91 0 0 0 -5.94,15.07 v 80.19 c -4.31,0.78 -6.93,3.05 -9.11,4.94 -2.34,2 -4,3.51 -7.76,3.51 -3.76,0 -5.41,-1.47 -7.75,-3.51 -2.68,-2.32 -6,-5.22 -12.35,-5.22 -6.35,0 -9.67,2.9 -12.35,5.22 -2.34,2 -4,3.51 -7.75,3.51 -3.75,0 -5.42,-1.47 -7.76,-3.51 -2.68,-2.32 -6,-5.22 -12.35,-5.22 -6.35,0 -9.66,2.9 -12.34,5.22 -2.35,2 -4,3.51 -7.76,3.51 -3.76,0 -5.41,-1.47 -7.76,-3.51 a 26.52,26.52 0 0 0 -4.11,-3.09 v -82 a 15.09,15.09 0 0 1 15.1,-15.11 z M 274,294.87 H 170.24 a 2.7,2.7 0 0 1 -2.69,-2.69 v -21.65 c 2.6,2.25 5.91,4.81 11.87,4.81 6.33,0 9.67,-2.89 12.35,-5.22 2.34,-2 4,-3.51 7.75,-3.51 3.75,0 5.41,1.47 7.76,3.51 2.68,2.33 6,5.22 12.35,5.22 6.35,0 9.66,-2.89 12.34,-5.22 2.35,-2 4,-3.51 7.76,-3.51 3.76,0 5.41,1.47 7.76,3.51 2.68,2.33 6,5.22 12.34,5.22 6.34,0 9.67,-2.89 12.35,-5.22 a 13.91,13.91 0 0 1 4.52,-3 v 25.07 a 2.69,2.69 0 0 1 -2.7,2.68 z m 30.54,-25.61 a 2.69,2.69 0 0 1 -2.69,2.69 H 283.7 v -88.76 h 20.85 z"
       id="path2" />
  </g>
</svg>
