<?xml version="1.0" encoding="UTF-8" standalone="no"?>
<svg
   xmlns:dc="http://purl.org/dc/elements/1.1/"
   xmlns:cc="http://creativecommons.org/ns#"
   xmlns:rdf="http://www.w3.org/1999/02/22-rdf-syntax-ns#"
   xmlns:svg="http://www.w3.org/2000/svg"
   xmlns="http://www.w3.org/2000/svg"
   xmlns:sodipodi="http://sodipodi.sourceforge.net/DTD/sodipodi-0.dtd"
   xmlns:inkscape="http://www.inkscape.org/namespaces/inkscape"
   viewBox="0 0 159.82913 160.00223"
   version="1.1"
   id="svg5"
   sodipodi:docname="Trees.svg"
   width="159.82913"
   height="160.00223"
   inkscape:version="1.0.2 (e86c870879, 2021-01-15, custom)">
  <g
     id="Layer_10"
     data-name="Layer 10"
     transform="translate(-151.47759,-149.74777)">
    <path
       class="cls-1"
       d="m 152.81,303.38 a 3.5,3.5 0 0 0 4,5.73 128.19,128.19 0 0 1 149,0 3.47,3.47 0 0 0 2,0.64 3.5,3.5 0 0 0 2,-6.37 138.45,138.45 0 0 0 -41.8,-20 v -32.83 h 19.72 a 32.6,32.6 0 0 0 9.21,-1.21 20.29,20.29 0 0 0 7.47,-3.89 18.25,18.25 0 0 0 4.91,-6.52 20.94,20.94 0 0 0 1.71,-8.63 22.62,22.62 0 0 0 -0.72,-5.79 15,15 0 0 0 -7.35,-9.39 l -0.45,-0.24 a 15.48,15.48 0 0 0 1.13,-1.76 18.46,18.46 0 0 0 2,-8.9 c 0,-5.79 -1.76,-10.35 -5.24,-13.58 a 14.33,14.33 0 0 0 -1.71,-1.38 c 0.11,-0.17 0.21,-0.35 0.31,-0.53 a 16.54,16.54 0 0 0 1.79,-8 c 0,-5.17 -1.58,-9.26 -4.71,-12.17 -3.13,-2.91 -7.38,-4.27 -12.88,-4.27 h -1.49 a 19,19 0 0 0 -0.45,-1.87 18.31,18.31 0 0 0 -3.46,-6.7 16.16,16.16 0 0 0 -5.83,-4.42 18.43,18.43 0 0 0 -7.69,-1.55 v 0 a 18.42,18.42 0 0 0 -7.68,1.55 16.16,16.16 0 0 0 -5.83,4.42 18.32,18.32 0 0 0 -3.47,6.7 19,19 0 0 0 -0.44,1.87 h -1.5 c -5.49,0 -9.82,1.44 -12.88,4.27 -3.06,2.83 -4.7,7 -4.7,12.17 a 16.54,16.54 0 0 0 1.79,8 c 0.1,0.18 0.2,0.36 0.31,0.53 a 15.28,15.28 0 0 0 -1.72,1.38 c -3.47,3.23 -5.23,7.79 -5.23,13.58 0,0.27 0,0.54 0,0.82 -0.52,0 -1,-0.06 -1.58,-0.06 h -2.24 a 23,23 0 0 0 -0.6,-2.62 21,21 0 0 0 -3.93,-7.62 18.43,18.43 0 0 0 -6.61,-5 21.13,21.13 0 0 0 -8.75,-1.75 v 0 a 21,21 0 0 0 -8.75,1.76 18.38,18.38 0 0 0 -6.61,5 21,21 0 0 0 -3.93,7.62 25.34,25.34 0 0 0 -0.6,2.62 h -2.24 c -6.27,0 -11.21,1.63 -14.66,4.84 -3.45,3.21 -5.31,7.92 -5.31,13.8 a 18.82,18.82 0 0 0 2,9 15.72,15.72 0 0 0 1.19,1.85 l -0.53,0.29 a 15.21,15.21 0 0 0 -7.46,9.52 23,23 0 0 0 -0.74,5.89 21.19,21.19 0 0 0 1.75,8.77 18.42,18.42 0 0 0 5,6.63 20.69,20.69 0 0 0 7.6,4 33.32,33.32 0 0 0 9.37,1.23 H 196 V 283 a 138.26,138.26 0 0 0 -43.19,20.38 z m 77.11,-99.16 c 0,-3.82 1,-6.58 3,-8.46 a 9.65,9.65 0 0 1 3.65,-2.06 3.5,3.5 0 0 0 1.08,-6.07 7.18,7.18 0 0 1 -1.94,-2.25 9.77,9.77 0 0 1 -0.94,-4.63 c 0,-3.19 0.81,-5.49 2.47,-7 1.66,-1.51 4.44,-2.4 8.11,-2.4 h 4.55 a 3.49,3.49 0 0 0 3.48,-3.18 20.46,20.46 0 0 1 0.64,-3.74 11.44,11.44 0 0 1 2.12,-4.18 9.06,9.06 0 0 1 3.33,-2.51 11.54,11.54 0 0 1 4.74,-0.93 h 0.16 a 11.5,11.5 0 0 1 4.73,0.93 9,9 0 0 1 3.34,2.51 11.44,11.44 0 0 1 2.12,4.18 20.46,20.46 0 0 1 0.64,3.74 3.49,3.49 0 0 0 3.48,3.18 h 4.54 c 3.68,0 6.4,0.81 8.12,2.4 1.72,1.59 2.47,3.85 2.47,7 a 9.77,9.77 0 0 1 -0.94,4.63 7.31,7.31 0 0 1 -1.94,2.25 3.49,3.49 0 0 0 1.07,6.07 9.65,9.65 0 0 1 3.65,2.06 c 2,1.88 3,4.64 3,8.46 a 11.7,11.7 0 0 1 -1.14,5.55 9.56,9.56 0 0 1 -3.54,3.56 3.5,3.5 0 0 0 1.19,6.41 14.91,14.91 0 0 1 4.4,1.49 8.35,8.35 0 0 1 2.59,2.17 8.24,8.24 0 0 1 1.41,2.9 15.49,15.49 0 0 1 0.49,4 14.06,14.06 0 0 1 -1.1,5.76 10.85,10.85 0 0 1 -3,4 13.41,13.41 0 0 1 -4.94,2.53 25.75,25.75 0 0 1 -7.24,0.93 H 268 v -14.09 a 3.62,3.62 0 0 0 1,-0.67 l 9,-9 a 3.5179007,3.5179007 0 0 0 -5,-4.95 l -5,5.05 V 204.9 a 3.5,3.5 0 0 0 -7,0 v 14.93 l -5,-5.05 a 3.5179007,3.5179007 0 1 0 -5,4.95 l 9,9 a 3.51,3.51 0 0 0 1,0.67 v 14.12 h -15.13 a 15,15 0 0 0 -7.22,-8.74 l -0.53,-0.29 a 14,14 0 0 0 1.2,-1.86 18.75,18.75 0 0 0 2,-9 c 0,-5.88 -1.78,-10.52 -5.31,-13.8 a 16.84,16.84 0 0 0 -6,-3.5 17.21,17.21 0 0 1 -0.09,-2.11 z m -54.64,59.59 a 26.59,26.59 0 0 1 -7.41,-0.95 13.84,13.84 0 0 1 -5.06,-2.6 11.27,11.27 0 0 1 -3.1,-4.14 14.31,14.31 0 0 1 -1.13,-5.9 15.75,15.75 0 0 1 0.51,-4.09 8.12,8.12 0 0 1 1.45,-3 8.57,8.57 0 0 1 2.66,-2.24 15,15 0 0 1 4.5,-1.52 3.5,3.5 0 0 0 1.19,-6.41 10,10 0 0 1 -3.62,-3.66 11.91,11.91 0 0 1 -1.17,-5.7 c 0,-3.91 1,-6.74 3.08,-8.67 2.08,-1.93 5.44,-3 9.89,-3 h 5.31 a 3.5,3.5 0 0 0 3.49,-3.17 24.68,24.68 0 0 1 0.76,-4.49 14,14 0 0 1 2.6,-5.1 11.27,11.27 0 0 1 4.11,-3.11 14.21,14.21 0 0 1 5.8,-1.13 h 0.15 a 14.21,14.21 0 0 1 5.8,1.13 11.3,11.3 0 0 1 4.12,3.11 14.09,14.09 0 0 1 2.59,5.1 24.68,24.68 0 0 1 0.76,4.49 3.5,3.5 0 0 0 3.49,3.17 h 5.31 c 4.45,0 7.78,1 9.9,3 2.12,2 3.07,4.76 3.07,8.67 a 12,12 0 0 1 -1.16,5.7 10,10 0 0 1 -3.63,3.66 3.5,3.5 0 0 0 1.19,6.41 14.92,14.92 0 0 1 4.5,1.52 8.57,8.57 0 0 1 2.66,2.24 8.22,8.22 0 0 1 1.46,3 16.2,16.2 0 0 1 0.5,4.09 14.31,14.31 0 0 1 -1.13,5.9 11.27,11.27 0 0 1 -3.1,4.14 13.84,13.84 0 0 1 -5.06,2.6 26.54,26.54 0 0 1 -7.41,0.95 H 203 v -14 a 3.48,3.48 0 0 0 1,-0.66 l 9,-9 a 3.5179007,3.5179007 0 1 0 -5,-4.95 l -5,5 v -14.89 a 3.5,3.5 0 0 0 -7,0 v 14.92 l -5.05,-5 a 3.5,3.5 0 0 0 -4.94,4.95 l 9,9 a 3.58,3.58 0 0 0 1,0.66 v 14 z m 27.68,7 h 20.19 a 33.45,33.45 0 0 0 9.38,-1.23 20.65,20.65 0 0 0 7.59,-4 18.39,18.39 0 0 0 5,-6.63 21.22,21.22 0 0 0 1.73,-8.44 H 261 v 31.09 a 133.44,133.44 0 0 0 -58.08,-0.3 z"
       id="path2" />
  </g>
</svg>
