<?xml version="1.0" encoding="UTF-8" standalone="no"?>
<svg
   xmlns:dc="http://purl.org/dc/elements/1.1/"
   xmlns:cc="http://creativecommons.org/ns#"
   xmlns:rdf="http://www.w3.org/1999/02/22-rdf-syntax-ns#"
   xmlns:svg="http://www.w3.org/2000/svg"
   xmlns="http://www.w3.org/2000/svg"
   xmlns:sodipodi="http://sodipodi.sourceforge.net/DTD/sodipodi-0.dtd"
   xmlns:inkscape="http://www.inkscape.org/namespaces/inkscape"
   viewBox="0 0 168.25037 119.31991"
   version="1.1">
  <g
     id="Layer_10"
     data-name="Layer 10"
     transform="translate(-147.18963,-170.13)">
    <path
       class="cls-1"
       d="m 226.25,170.13 h -68.06 a 11,11 0 0 0 -11,11.09 v 82.14 a 13.53,13.53 0 0 0 13.52,13.52 h 7.68 a 17.75,17.75 0 0 0 33.91,0 c 18.17,0 39.5,0 58,-0.06 a 17.74,17.74 0 0 0 34,-0.08 h 6.87 a 24.88,24.88 0 0 0 4.4,-0.26 v 0.07 a 13.56,13.56 0 0 0 9.87,-13 v -12.4 a 13.54,13.54 0 0 0 -13.52,-13.52 h -3.6 l -4.32,-9.79 -7.13,-16 v 0 l -4.35,-9.76 c 0,-0.1 -0.1,-0.21 -0.15,-0.31 -4.47,-7.82 -9.85,-11.78 -16,-11.78 H 244 a 13.43,13.43 0 0 0 -6.74,1.82 v -10.59 a 11,11 0 0 0 -11.01,-11.09 z m -68.06,7 h 68.06 a 4,4 0 0 1 4,4.09 v 56.26 h -76 v -56.26 a 4,4 0 0 1 3.94,-4.09 z m 27.18,105.24 a 10.75,10.75 0 1 1 10.75,-10.75 10.77,10.77 0 0 1 -10.75,10.75 z m 91.91,0 A 10.75,10.75 0 1 1 288,271.62 10.77,10.77 0 0 1 277.28,282.37 Z m 13.35,-44.84 h -33.26 a 2.59,2.59 0 0 1 -1.45,-0.31 v -20.17 a 2.68,2.68 0 0 1 1.45,-0.31 h 24 l 4.7,10.55 z m -53.19,-34 A 6.53,6.53 0 0 1 244,197 h 22.4 c 3.45,0 6.67,2.65 9.81,8.11 l 2.08,4.66 h -20.92 c -5.55,0 -8.45,3.62 -8.45,7.2 v 20.4 c 0,3.57 2.9,7.19 8.45,7.19 h 38.15 a 3,3 0 0 0 0.52,0 h 5.87 a 6.53,6.53 0 0 1 6.52,6.52 v 12.4 a 6.53,6.53 0 0 1 -4.43,6.16 c -0.78,0 -3,0.05 -9.08,0.08 a 17.75,17.75 0 0 0 -35.3,0.09 l -56.59,0.05 a 17.75,17.75 0 0 0 -35.32,0 h -7 a 6.52,6.52 0 0 1 -6.52,-6.52 v -18.46 h 79.5 a 4.12,4.12 0 0 0 3.72,-3.9 z"
       id="path2" />
  </g>
</svg>
