<?xml version="1.0" encoding="utf-8"?>
<!-- Generator: Adobe Illustrator 25.0.0, SVG Export Plug-In . SVG Version: 6.00 Build 0)  -->
<svg version="1.1" id="Layer_1" xmlns="http://www.w3.org/2000/svg" xmlns:xlink="http://www.w3.org/1999/xlink" x="0px" y="0px"
	 viewBox="0 0 200 140" style="enable-background:new 0 0 200 140;" xml:space="preserve">
<g id="Layer_10">
	<path d="M122.5,139.2h-45c-1.9,0-3.5-1.6-3.5-3.5v-19.4c0-1.9,1.6-3.5,3.5-3.5h45c1.9,0,3.5,1.6,3.5,3.5c0,0,0,0,0,0v19.4
		C126,137.7,124.4,139.3,122.5,139.2z M81,132.2h38v-12.4H81V132.2z"/>
	<path d="M136.5,140h-73c-1.9,0-3.5-1.6-3.5-3.5s1.6-3.5,3.5-3.5h73c1.9,0,3.5,1.6,3.5,3.5S138.4,140,136.5,140z"/>
	<path d="M186.5,0h-173C8.1,0,0,3.6,0,13.5v92.8c0,5.4,3.6,13.5,13.5,13.5H153v2.8c0,9.4,7.6,17,17,17s17-7.6,17-17v-2.8
		c5.4-0.2,12.9-3.9,12.9-13.5V13.5C200,8.1,196.4,0,186.5,0z M180.1,122.6c0,5.5-4.5,10-10,10s-10-4.5-10-10V86.8h20V122.6z
		 M193,106.3c0,5.3-4,6.3-5.9,6.5V83.3c0-1.9-1.6-3.5-3.5-3.5h-27c-1.9,0-3.5,1.6-3.5,3.5v29.5H13.5c-5.9,0-6.5-5-6.5-6.5V13.5
		C7,7.6,12,7,13.5,7h173c5.9,0,6.5,5,6.5,6.5V106.3z"/>
	<path d="M100,74.5c-2.5,0-4.6,2-4.6,4.6s2,4.6,4.6,4.6s4.6-2,4.6-4.6C104.6,76.6,102.5,74.5,100,74.5C100,74.5,100,74.5,100,74.5z"
		/>
	<path d="M112.5,66.6c-6.9-6.9-18.1-6.9-25,0c-0.6,0.6-1.2,1.3-1.7,2c-1.1,1.6-0.8,3.7,0.7,4.9c1.6,1.1,3.7,0.8,4.9-0.7
		c0.3-0.4,0.6-0.8,1-1.2c4.2-4.2,10.9-4.2,15.1,0c0.4,0.4,0.7,0.8,1,1.2c1.1,1.6,3.3,1.9,4.9,0.8c0,0,0,0,0,0
		c1.6-1.1,1.9-3.3,0.7-4.9c0,0,0,0,0,0C113.7,67.9,113.1,67.2,112.5,66.6z"/>
	<path d="M100.3,36.2c-0.1,0-0.2,0-0.3,0c-0.1,0-0.2,0-0.3,0c-10.6,0-20.8,4.2-28.4,11.7c-1.4,1.4-1.4,3.6,0,5s3.6,1.4,5,0
		c6.2-6.2,14.6-9.7,23.4-9.7c0.1,0,0.2,0,0.3,0c0.1,0,0.2,0,0.3,0c8.7,0,17.1,3.5,23.3,9.6c0.7,0.6,1.6,1,2.5,1c0.9,0,1.8-0.3,2.5-1
		c1.4-1.4,1.4-3.6,0-4.9c0,0,0,0,0,0C121.1,40.4,110.9,36.1,100.3,36.2z"/>
	<path d="M122.1,57.9c-0.3-0.4-0.6-0.7-1-1.1c-5.5-5.5-13-8.6-20.8-8.6c-0.1,0-0.2,0-0.3,0c-0.1,0-0.2,0-0.3,0
		c-7.8,0-15.3,3.1-20.8,8.6c-0.4,0.4-0.7,0.7-1,1.1l-0.2,0.3c-1.3,1.4-1.2,3.6,0.2,4.9c1.4,1.3,3.6,1.2,4.9-0.2c0,0,0.1-0.1,0.1-0.1
		l0.3-0.3c0.2-0.2,0.4-0.5,0.6-0.7c4.2-4.2,9.9-6.6,15.8-6.6c0.1,0,0.2,0,0.3,0c0.1,0,0.2,0,0.3,0c5.9,0,11.7,2.3,15.9,6.6
		c0.2,0.2,0.4,0.5,0.6,0.7l0.3,0.3c0.7,0.8,1.6,1.2,2.6,1.2c0.9,0,1.7-0.3,2.3-0.9c1.4-1.3,1.6-3.5,0.3-4.9L122.1,57.9z"/>
	<path d="M167.6,98.7c2.5,0,4.6-2,4.6-4.6s-2-4.6-4.6-4.6c-2.5,0-4.6,2-4.6,4.6c0,0,0,0,0,0C163,96.7,165,98.7,167.6,98.7z"/>
	<path d="M167.6,108.2c0,2.5,2,4.6,4.6,4.6c2.5,0,4.6-2,4.6-4.6c0-2.5-2-4.6-4.6-4.6C169.6,103.7,167.6,105.7,167.6,108.2z"/>
</g>
</svg>
