<?xml version="1.0" encoding="UTF-8" standalone="no"?>
<svg
   xmlns:dc="http://purl.org/dc/elements/1.1/"
   xmlns:cc="http://creativecommons.org/ns#"
   xmlns:rdf="http://www.w3.org/1999/02/22-rdf-syntax-ns#"
   xmlns:svg="http://www.w3.org/2000/svg"
   xmlns="http://www.w3.org/2000/svg"
   xmlns:sodipodi="http://sodipodi.sourceforge.net/DTD/sodipodi-0.dtd"
   xmlns:inkscape="http://www.inkscape.org/namespaces/inkscape"
   viewBox="0 0 179.99494 174.98"
   version="1.1"
   id="svg5"
   sodipodi:docname="Umbrella.svg"
   width="179.99493"
   height="174.98"
   inkscape:version="1.0.2 (e86c870879, 2021-01-15, custom)">
  <g
     id="Layer_10"
     data-name="Layer 10"
     transform="translate(-141.28253,-142.23)">
    <path
       class="cls-1"
       d="m 215.1,310.23 a 13.09,13.09 0 0 1 -13.1,-13.08 3.5,3.5 0 0 0 -7,0 20.06,20.06 0 1 0 40.12,0 v -58.88 h 82.66 a 3.49,3.49 0 0 0 3.46,-4 90.67,90.67 0 0 0 -25.88,-51.54 87.71,87.71 0 0 0 -60.24,-25.84 v -11.16 a 3.5,3.5 0 0 0 -7,0 v 11.13 a 87.81,87.81 0 0 0 -60.92,25.86 90.8,90.8 0 0 0 -25.88,51.54 3.49,3.49 0 0 0 3.46,4 h 83.34 v 58.88 a 13.09,13.09 0 0 1 -13.02,13.09 z m 20.06,-79 v -65.82 l 0.42,0.27 0.62,0.43 0.48,0.32 0.75,0.54 0.65,0.47 0.94,0.71 0.59,0.47 0.7,0.55 0.66,0.55 0.68,0.56 0.71,0.62 0.67,0.6 0.76,0.69 0.67,0.63 0.79,0.76 0.53,0.53 c 0.55,0.55 1.11,1.13 1.67,1.73 0.21,0.23 0.43,0.45 0.64,0.69 l 0.87,1 c 0.21,0.24 0.42,0.49 0.64,0.73 0.22,0.24 0.59,0.69 0.88,1.05 0.29,0.36 0.42,0.5 0.62,0.76 0.2,0.26 0.61,0.75 0.92,1.13 l 0.57,0.75 1,1.27 0.33,0.46 1.1,1.55 q 1.64,2.37 3.12,4.87 v 0 c 0.44,0.74 0.86,1.48 1.28,2.23 l 0.21,0.38 c 0.39,0.71 0.77,1.43 1.14,2.15 0.09,0.17 0.19,0.34 0.27,0.52 0.36,0.7 0.71,1.42 1.06,2.14 l 0.27,0.58 c 0.34,0.72 0.67,1.45 1,2.18 0.09,0.2 0.18,0.4 0.26,0.61 0.32,0.74 0.63,1.48 0.93,2.23 l 0.24,0.61 c 0.3,0.76 0.59,1.52 0.88,2.3 l 0.21,0.58 c 0.28,0.79 0.56,1.59 0.83,2.4 0.06,0.17 0.11,0.35 0.17,0.52 0.27,0.84 0.54,1.68 0.8,2.53 0,0.14 0.07,0.27 0.11,0.4 0.27,0.9 0.53,1.81 0.78,2.72 a 0.85,0.85 0 0 0 0,0.17 125.94,125.94 0 0 1 3.14,15.94 z m 55.3,-43.6 a 83.8,83.8 0 0 1 23.22,43.6 h -34.9 c -0.34,-2.77 -0.78,-5.49 -1.27,-8.16 0,-0.06 0,-0.13 0,-0.19 -0.21,-1.14 -0.44,-2.27 -0.68,-3.39 0,-0.11 -0.05,-0.22 -0.08,-0.33 -0.23,-1.08 -0.48,-2.15 -0.73,-3.2 0,-0.14 -0.07,-0.28 -0.11,-0.42 -0.25,-1 -0.52,-2 -0.8,-3 0,-0.16 -0.09,-0.32 -0.13,-0.48 -0.28,-1 -0.56,-2 -0.86,-2.92 -0.05,-0.17 -0.11,-0.34 -0.16,-0.51 -0.3,-0.95 -0.61,-1.9 -0.93,-2.84 -0.06,-0.16 -0.12,-0.33 -0.17,-0.5 -0.33,-0.93 -0.67,-1.86 -1,-2.78 -0.07,-0.16 -0.13,-0.32 -0.19,-0.48 -0.35,-0.93 -0.72,-1.84 -1.1,-2.75 l -0.18,-0.43 C 270,197.92 269.6,197 269.18,196.09 l -0.15,-0.35 c -0.44,-0.94 -0.89,-1.88 -1.35,-2.8 a 2.4,2.4 0 0 0 -0.11,-0.23 c -0.49,-1 -1,-2 -1.53,-2.93 v 0 a 95.47,95.47 0 0 0 -5.23,-8.54 84.94,84.94 0 0 0 -13.08,-14.95 l -0.18,-0.16 c -0.48,-0.43 -1,-0.85 -1.42,-1.25 a 81.07,81.07 0 0 1 44.33,22.79 z m -118.28,0 a 81.13,81.13 0 0 1 44.39,-22.81 l -1.51,1.32 -0.08,0.08 a 84.28,84.28 0 0 0 -13.08,15 95.13,95.13 0 0 0 -6.78,11.5 l -0.09,0.18 c -0.47,0.94 -0.93,1.89 -1.37,2.86 0,0.09 -0.09,0.19 -0.13,0.29 -0.43,0.93 -0.84,1.87 -1.24,2.82 l -0.15,0.36 c -0.39,0.93 -0.77,1.88 -1.13,2.83 l -0.15,0.39 q -0.54,1.43 -1.05,2.88 c 0,0.14 -0.09,0.27 -0.14,0.41 -0.33,1 -0.65,2 -1,2.95 l -0.12,0.39 c -0.31,1 -0.61,2 -0.9,3 l -0.09,0.35 c -0.29,1.05 -0.57,2.11 -0.84,3.17 0,0.1 -0.05,0.2 -0.07,0.3 -0.27,1.1 -0.53,2.21 -0.77,3.34 a 1.16,1.16 0 0 0 0,0.18 c -0.26,1.18 -0.49,2.37 -0.72,3.56 v 0 c -0.5,2.69 -0.94,5.42 -1.29,8.21 H 149 a 83.75,83.75 0 0 1 23.18,-43.52 z m 18.75,43.6 a 123.07,123.07 0 0 1 3.16,-16 v -0.06 c 0.26,-0.95 0.53,-1.89 0.8,-2.83 l 0.09,-0.28 c 0.26,-0.88 0.54,-1.76 0.82,-2.63 0.05,-0.14 0.09,-0.28 0.14,-0.42 0.28,-0.84 0.56,-1.66 0.86,-2.48 L 197,206 c 0.29,-0.79 0.59,-1.58 0.9,-2.36 0.07,-0.19 0.15,-0.37 0.22,-0.55 0.31,-0.77 0.62,-1.53 0.95,-2.28 l 0.24,-0.56 c 0.33,-0.75 0.66,-1.49 1,-2.22 l 0.25,-0.54 c 0.35,-0.73 0.71,-1.46 1.07,-2.18 l 0.26,-0.49 c 0.37,-0.73 0.76,-1.46 1.15,-2.17 l 0.21,-0.37 c 0.42,-0.75 0.84,-1.5 1.28,-2.23 v -0.06 c 1,-1.66 2,-3.27 3.11,-4.84 q 0.51,-0.74 1,-1.44 l 0.41,-0.58 c 0.31,-0.42 0.63,-0.83 0.94,-1.24 l 0.59,-0.77 c 0.3,-0.39 0.6,-0.76 0.9,-1.13 l 0.63,-0.77 c 0.3,-0.35 0.59,-0.7 0.89,-1 l 0.63,-0.72 0.88,-1 0.61,-0.66 c 0.73,-0.77 1.45,-1.52 2.17,-2.22 v -0.06 l 0.83,-0.79 0.63,-0.59 0.78,-0.72 0.64,-0.56 0.75,-0.65 0.62,-0.53 0.71,-0.59 0.62,-0.49 0.67,-0.52 0.64,-0.48 1.1,-0.81 0.56,-0.4 0.59,-0.4 0.5,-0.34 0.55,-0.36 0.23,-0.15 -0.29,66.07 z"
       id="path2" />
  </g>
</svg>
