<?xml version="1.0" encoding="utf-8"?>
<!-- Generator: Adobe Illustrator 25.0.0, SVG Export Plug-In . SVG Version: 6.00 Build 0)  -->
<svg version="1.1" id="Layer_1" xmlns="http://www.w3.org/2000/svg" xmlns:xlink="http://www.w3.org/1999/xlink" x="0px" y="0px"
	 viewBox="0 0 130.6 185.3" style="enable-background:new 0 0 130.6 185.3;" xml:space="preserve">
<g id="Oval_124">
	<path d="M77.7,48.1c-13.7,0-24.9-10.8-24.9-24.1C52.8,10.8,64,0,77.7,0c13.7,0,24.9,10.8,24.9,24.1C102.6,37.3,91.4,48.1,77.7,48.1
		z M77.7,6.4c-10.2,0-18.5,7.9-18.5,17.7c0,9.7,8.3,17.7,18.5,17.7c10.2,0,18.5-7.9,18.5-17.7C96.2,14.3,87.9,6.4,77.7,6.4z"/>
</g>
<g id="Shape_609">
	<path d="M77.7,173.3c-1.8,0-3.2-1.4-3.2-3.2v-41.7c0-1.8,1.4-3.2,3.2-3.2s3.2,1.4,3.2,3.2v41.7C80.9,171.8,79.5,173.3,77.7,173.3z"
		/>
</g>
<g id="Shape_610">
	<path d="M102.5,119.6c-1.8,0-3.2-1.4-3.2-3.2V92.6c0-1.8,1.4-3.2,3.2-3.2s3.2,1.4,3.2,3.2v23.8
		C105.7,118.2,104.3,119.6,102.5,119.6z"/>
</g>
<g id="Shape_611">
	<path d="M3.2,185.2c-1.8,0-3.2-1.4-3.2-3.2v-53.6c0-0.1,0-0.1,0-0.2c0.4-8.1,6.8-14.4,14.8-14.8c4.2-0.2,8.2,1.2,11.3,4
		c3.1,2.8,4.9,6.6,5.1,10.8c0.1,1.8-1.3,3.3-3,3.3c-1.8,0.1-3.3-1.3-3.3-3c-0.1-2.5-1.2-4.7-3-6.4c-1.8-1.7-4.2-2.5-6.7-2.4
		c-4.7,0.2-8.5,4-8.8,8.7V182C6.4,183.8,5,185.2,3.2,185.2z"/>
</g>
<g id="Shape_612">
	<path d="M65.3,185.3c-4,0-7.8-1.5-10.7-4.3c-3-2.9-4.8-6.7-4.9-10.9l0-53.7c0-1.8,1.4-3.2,3.2-3.2s3.2,1.4,3.2,3.2v53.6
		c0.1,2.4,1.1,4.7,2.9,6.4c1.8,1.7,4.1,2.6,6.6,2.5c4.9-0.1,8.8-4.1,9-9c0-1.7,1.5-3.1,3.2-3.1c0,0,0,0,0,0c1.7,0,3.1,1.4,3.2,3.1
		c0.1,2.5,1.2,4.7,3,6.4s4.2,2.5,6.6,2.4c4.8-0.2,8.6-4,8.9-8.8v-53.6c0-1.7,1.4-3.2,3.1-3.2c0,0,0,0,0.1,0c1.7,0,3.1,1.4,3.2,3.1
		c0.1,2.5,1.2,4.7,3,6.4c1.8,1.7,4.2,2.5,6.6,2.4c4.8-0.2,8.6-4.1,8.9-8.8V92.6c0-18-15.3-32.6-34.1-32.6H65.3
		c-18.8,0-34.1,14.6-34.1,32.6c0,1.8-1.4,3.2-3.2,3.2s-3.2-1.4-3.2-3.2c0-21.5,18.1-39,40.5-39h24.8c22.3,0,40.5,17.5,40.5,39v23.8
		c0,0,0,0.1,0,0.1c-0.3,8.1-6.9,14.7-15,15c-3.7,0.2-7.1-1-9.9-3v41.5c0,0,0,0.1,0,0.1c-0.3,8.1-6.9,14.7-15,15
		c-5.2,0.2-10-2.2-13-6.1c-2.8,3.7-7.1,6.1-12,6.2C65.6,185.3,65.4,185.3,65.3,185.3z"/>
</g>
</svg>
