<?xml version="1.0" encoding="UTF-8" standalone="no"?>
<svg
   xmlns:dc="http://purl.org/dc/elements/1.1/"
   xmlns:cc="http://creativecommons.org/ns#"
   xmlns:rdf="http://www.w3.org/1999/02/22-rdf-syntax-ns#"
   xmlns:svg="http://www.w3.org/2000/svg"
   xmlns="http://www.w3.org/2000/svg"
   xmlns:sodipodi="http://sodipodi.sourceforge.net/DTD/sodipodi-0.dtd"
   xmlns:inkscape="http://www.inkscape.org/namespaces/inkscape"
   viewBox="0 0 147.14537 125.17221"
   version="1.1"
   id="svg5"
   sodipodi:docname="Walking.svg"
   width="147.14537"
   height="125.17221"
   inkscape:version="1.0.2 (e86c870879, 2021-01-15, custom)">
  <g
     id="Layer_10"
     data-name="Layer 10"
     transform="translate(-157.77632,-167.15949)">
    <path
       class="cls-1"
       d="M 164.69,292.33 H 298 a 6.77,6.77 0 0 0 6.92,-6.92 v -8.6 a 6.82,6.82 0 0 0 -4.71,-6.6 V 243.9 c 0,-16 -14.66,-21.66 -22.42,-22.46 h -31.3 v -48.93 a 3.5,3.5 0 0 0 -3.42,-3.5 l -78.71,-1.85 a 3.52,3.52 0 0 0 -3.58,3.5 v 100.39 a 6.61,6.61 0 0 0 -3,5.76 v 8.6 a 6.78,6.78 0 0 0 6.91,6.92 z m 133.18,-7 h -133.1 v -8.44 h 133.1 z m -58.38,-109.4 v 13.74 a 3.24,3.24 0 0 0 -0.82,-0.11 h -21.15 a 3.5,3.5 0 0 0 0,7 h 21.15 a 3.76,3.76 0 0 0 0.82,-0.11 V 203 a 3.76,3.76 0 0 0 -0.82,-0.11 h -21.15 a 3.5,3.5 0 0 0 0,7 h 21.15 a 3.75,3.75 0 0 0 0.82,-0.1 v 15.12 a 3.5,3.5 0 0 0 3.5,3.5 h 34.19 c 1.78,0.22 16,2.45 16,15.47 v 26 H 167.8 v -95.64 z"
       id="path2" />
  </g>
</svg>
