<?xml version="1.0" encoding="UTF-8" standalone="no"?>
<svg
   xmlns:dc="http://purl.org/dc/elements/1.1/"
   xmlns:cc="http://creativecommons.org/ns#"
   xmlns:rdf="http://www.w3.org/1999/02/22-rdf-syntax-ns#"
   xmlns:svg="http://www.w3.org/2000/svg"
   xmlns="http://www.w3.org/2000/svg"
   xmlns:sodipodi="http://sodipodi.sourceforge.net/DTD/sodipodi-0.dtd"
   xmlns:inkscape="http://www.inkscape.org/namespaces/inkscape"
   viewBox="0 0 130.19055 182.44081"
   version="1.1"
   id="svg7"
   sodipodi:docname="Walking_1.svg"
   width="130.19055"
   height="182.44081"
   inkscape:version="1.0.2 (e86c870879, 2021-01-15, custom)">
  <g
     id="Layer_10"
     data-name="Layer 10"
     transform="translate(-166.20674,-138.54)">
    <path
       class="cls-1"
       d="m 192.08,271 c -8.52,11.34 -21.88,25.64 -22,25.79 a 14.37,14.37 0 0 0 8.69,24.07 13.59,13.59 0 0 0 1.8,0.11 h 0.67 a 14.31,14.31 0 0 0 9.83,-4.54 c 0.59,-0.63 14.55,-15.57 24,-28.15 4.61,-6.14 9.07,-12.46 12.81,-21.45 10.29,15 24.07,35.23 33.05,48.41 a 13.42,13.42 0 0 0 18.68,3.33 l 0.82,-0.57 a 13.33,13.33 0 0 0 5.49,-8.41 l 0.05,-0.24 a 13.38,13.38 0 0 0 -2.14,-9.95 L 248.4,241.47 a 6.7,6.7 0 0 1 -1,-3.47 v -7.31 a 41.78,41.78 0 0 0 18.81,4.46 42.57,42.57 0 0 0 6.82,-0.55 l 14,-2.27 a 11.14229,11.14229 0 0 0 -3.55,-22 l -14.05,2.28 a 20,20 0 0 1 -22,-13 19.73,19.73 0 0 0 -1.3,-5.5 1.43,1.43 0 0 0 -0.08,-0.22 20,20 0 0 0 -18.53,-12.51 H 218 a 42.19,42.19 0 0 0 -40.28,42.21 v 14.22 a 11.12,11.12 0 0 0 22.24,0 V 223.6 a 19.89,19.89 0 0 1 8.07,-16 L 208,224.09 c 0,0.19 0,1.68 0.2,3.88 a 3.59,3.59 0 0 0 -0.46,1.31 c -3.48,24.52 -7.99,31.49 -15.66,41.72 z m 78.55,-51.45 14,-2.28 a 4.13,4.13 0 0 1 4.73,3.41 4.09,4.09 0 0 1 -0.72,3.07 4.14,4.14 0 0 1 -2.69,1.66 l -14,2.27 a 35,35 0 0 1 -24.47,-5 v -10.37 a 27.18,27.18 0 0 0 23.11,7.27 z m -62.83,-20 A 26.9,26.9 0 0 0 193,223.6 v 14.22 a 4.12,4.12 0 0 1 -8.24,0 V 223.6 a 35.19,35.19 0 0 1 33.52,-35.21 h 9.32 a 13,13 0 0 1 11.92,7.81 l 0.16,1 a 26.16,26.16 0 0 0 0.91,3.84 c 0,0.12 0,0.24 0,0.36 l -0.09,21.44 a 3.48,3.48 0 0 0 0,2.86 l -0.1,12.3 a 13.74,13.74 0 0 0 2,7.13 l 35.49,58 a 1.74,1.74 0 0 0 0.11,0.18 6.34,6.34 0 0 1 1.06,4.77 l 3.44,0.68 -3.46,-0.56 a 6.42,6.42 0 0 1 -2.63,4.05 l -0.82,0.57 a 6.42,6.42 0 0 1 -8.92,-1.57 c -1.82,-2.67 -44.63,-65.5 -46.91,-68.52 -3.92,-5.2 -4.8,-15.2 -4.8,-18.6 l 0.09,-19.07 a 5.84,5.84 0 0 0 -5.34,-5.89 h -0.33 a 3.5,3.5 0 0 0 -1.58,0.34 z m 6.37,47.42 c 0.56,0.74 4,5.7 8.88,12.85 -3.74,10.66 -8.38,17.32 -13.6,24.26 -9.23,12.28 -22.93,27 -23.51,27.58 a 7.33,7.33 0 0 1 -5,2.32 6.82,6.82 0 0 1 -1.28,-0.05 7.38,7.38 0 0 1 -4.46,-12.33 c 0.14,-0.14 13.8,-14.79 22.51,-26.37 6.51,-8.66 11.12,-15.5 14.58,-31.34 a 23.05,23.05 0 0 0 1.88,3.04 z"
       id="path2" />
    <path
       class="cls-1"
       d="m 247.52,158.54 a 20,20 0 1 0 -20,20 20,20 0 0 0 20,-20 z m -33,0 a 13,13 0 1 1 13,13 13,13 0 0 1 -13,-13 z"
       id="path4" />
  </g>
</svg>
