<?xml version="1.0" encoding="UTF-8" standalone="no"?>
<svg
   xmlns:dc="http://purl.org/dc/elements/1.1/"
   xmlns:cc="http://creativecommons.org/ns#"
   xmlns:rdf="http://www.w3.org/1999/02/22-rdf-syntax-ns#"
   xmlns:svg="http://www.w3.org/2000/svg"
   xmlns="http://www.w3.org/2000/svg"
   xmlns:sodipodi="http://sodipodi.sourceforge.net/DTD/sodipodi-0.dtd"
   xmlns:inkscape="http://www.inkscape.org/namespaces/inkscape"
   viewBox="0 0 140.00295 180.00148"
   version="1.1"
   id="svg11"
   sodipodi:docname="Washing machine.svg"
   width="140.00294"
   height="180.00148"
   inkscape:version="1.0.2 (e86c870879, 2021-01-15, custom)">
  <g
     id="Layer_10"
     data-name="Layer 10"
     transform="translate(-161.31853,-139.74853)">
    <path
       class="cls-1"
       d="m 184.82,319.75 h 93 c 8.13,0 23.5,-4.91 23.5,-23.5 v -150.5 a 5.87,5.87 0 0 0 -6,-6 h -128 a 5.87,5.87 0 0 0 -6,6 v 150.5 c 0,8.13 4.91,23.5 23.5,23.5 z m 109.5,-173 v 32.69 h -126 v -32.69 z m -126,39.69 h 126 v 109.81 c 0,6.78 -2.65,11.58 -7.87,14.27 a 21.62,21.62 0 0 1 -8.63,2.23 h -93 c -6.77,0 -11.58,-2.65 -14.27,-7.88 a 21.56,21.56 0 0 1 -2.23,-8.62 z"
       id="path2" />
    <path
       class="cls-1"
       d="m 184.78,165.36 h 23 a 3.5,3.5 0 0 0 0,-7 h -23 a 3.5,3.5 0 1 0 0,7 z"
       id="path4" />
    <path
       class="cls-1"
       d="m 271.28,171.86 a 10,10 0 1 0 -10,-10 10,10 0 0 0 10,10 z m 0,-13 a 3,3 0 1 1 -3,3 3,3 0 0 1 3,-3 z"
       id="path6" />
    <path
       class="cls-1"
       d="m 229.85,299.8 h 1.47 1.47 a 50.06,50.06 0 0 0 48.53,-50 v -0.33 c 0,-1.21 -0.05,-2.52 -0.17,-4 a 1.85,1.85 0 0 0 0,-0.23 50,50 0 0 0 -99.57,0 c 0,0.08 0,0.15 0,0.23 -0.11,1.46 -0.17,2.77 -0.17,4 0,0.06 0,0.11 0,0.17 0,0.06 0,0.11 0,0.16 a 50.06,50.06 0 0 0 48.44,50 z m 9.85,-7.8 h -0.11 c -0.63,0.12 -1.27,0.23 -1.91,0.33 l -0.55,0.07 c -0.5,0.07 -1,0.14 -1.52,0.19 -0.52,0.05 -0.74,0.06 -1.11,0.08 l -1,0.08 c -0.72,0 -1.44,0.05 -2.17,0.05 -0.73,0 -1.45,0 -2.17,-0.05 l -1,-0.08 c -0.37,0 -0.74,0 -1.11,-0.08 -0.37,-0.08 -1,-0.12 -1.52,-0.19 l -0.55,-0.07 c -0.64,-0.1 -1.28,-0.21 -1.91,-0.33 h -0.11 a 43.3,43.3 0 0 1 -34.55,-40.08 25.33,25.33 0 0 0 14.7,4.26 c 8.09,0 12.3,-2.71 16,-5.11 3.33,-2.14 6.19,-4 12.22,-4 6.03,0 8.9,1.85 12.22,4 3.72,2.4 7.93,5.11 16,5.11 a 25.33,25.33 0 0 0 14.7,-4.26 A 43.32,43.32 0 0 1 239.7,292 Z m -8.38,-85.18 a 43.06,43.06 0 0 1 42.58,37 c -0.73,0.44 -1.43,0.89 -2.11,1.33 -3.33,2.14 -6.2,4 -12.23,4 -6.03,0 -8.9,-1.85 -12.22,-4 -3.72,-2.4 -7.93,-5.11 -16,-5.11 -8.07,0 -12.3,2.71 -16,5.11 -3.32,2.14 -6.19,4 -12.22,4 -6.03,0 -8.9,-1.85 -12.23,-4 -0.69,-0.44 -1.38,-0.89 -2.11,-1.33 a 43.05,43.05 0 0 1 42.54,-36.99 z"
       id="path8" />
  </g>
</svg>
