<?xml version="1.0" encoding="UTF-8" standalone="no"?>
<svg
   xmlns:dc="http://purl.org/dc/elements/1.1/"
   xmlns:cc="http://creativecommons.org/ns#"
   xmlns:rdf="http://www.w3.org/1999/02/22-rdf-syntax-ns#"
   xmlns:svg="http://www.w3.org/2000/svg"
   xmlns="http://www.w3.org/2000/svg"
   xmlns:sodipodi="http://sodipodi.sourceforge.net/DTD/sodipodi-0.dtd"
   xmlns:inkscape="http://www.inkscape.org/namespaces/inkscape"
   viewBox="0 0 173.66001 118.12144"
   version="1.1"
   id="svg5"
   sodipodi:docname="Washing.svg"
   width="173.66"
   height="118.12144"
   inkscape:version="1.0.2 (e86c870879, 2021-01-15, custom)">
  <g
     id="Layer_10"
     data-name="Layer 10"
     transform="translate(-144.5,-170.69)">
    <path
       class="cls-1"
       d="m 314.66,188.39 a 3.5,3.5 0 0 0 0,-7 H 261 v -7.2 a 3.5,3.5 0 1 0 -7,0 v 7.2 h -45.4 v -7.2 a 3.5,3.5 0 0 0 -7,0 v 7.2 H 148 a 3.5,3.5 0 0 0 0,7 h 37.43 v 55.21 l -11.9,-9.92 a 3.51,3.51 0 0 0 -4.93,0.45 l -16.92,20.31 a 3.51,3.51 0 0 0 0.45,4.93 L 186.49,288 a 3.53,3.53 0 0 0 2.24,0.81 h 26.35 a 3.49,3.49 0 0 0 3.5,-3.45 12.74,12.74 0 0 1 25.48,0 3.51,3.51 0 0 0 3.5,3.45 h 26.26 a 3.47,3.47 0 0 0 2.33,-0.81 l 34.37,-28.63 a 3.46,3.46 0 0 0 1.25,-2.37 3.52,3.52 0 0 0 -0.8,-2.56 l -16.91,-20.31 a 3.51,3.51 0 0 0 -4.93,-0.45 l -11.91,9.92 v -55.21 z m -42.42,65.85 a 3.48,3.48 0 0 0 3.72,-0.48 l 15,-12.46 12.43,14.93 -30.59,25.49 -0.23,0.07 v 0 h -21.86 a 19.74,19.74 0 0 0 -38.77,0 h -21.77 v 0 l -0.23,-0.07 -30.6,-25.49 12.43,-14.93 15,12.46 a 3.5,3.5 0 0 0 5.74,-2.69 v -62.68 h 9.2 v 5.45 a 3.5,3.5 0 1 0 7,0 v -5.45 H 254 v 5.45 a 3.5,3.5 0 0 0 7,0 v -5.45 h 9.2 v 62.68 a 3.51,3.51 0 0 0 2.04,3.17 z"
       id="path2" />
  </g>
</svg>
