<?xml version="1.0" encoding="utf-8"?>
<!-- Generator: Adobe Illustrator 25.0.0, SVG Export Plug-In . SVG Version: 6.00 Build 0)  -->
<svg version="1.1" id="Layer_1" xmlns="http://www.w3.org/2000/svg" xmlns:xlink="http://www.w3.org/1999/xlink" x="0px" y="0px"
	 viewBox="0 0 183.4 183.4" style="enable-background:new 0 0 183.4 183.4;" xml:space="preserve">
<path d="M91.8,183.4c-8,0-16-1-23.9-3.2c-23.7-6.3-43.4-21.5-55.7-42.7C-13,93.8,2,37.6,45.8,12.3C89.6-13,145.8,2,171.1,45.8
	c0,0,0,0,0,0.1c12.2,21.2,15.5,45.9,9.1,69.5c-6.3,23.7-21.5,43.4-42.7,55.7c0,0,0,0,0,0C123.4,179.3,107.7,183.4,91.8,183.4z
	 M91.5,7c-14.4,0-28.9,3.6-42.2,11.3C8.9,41.7-5,93.6,18.3,134c11.3,19.6,29.6,33.6,51.4,39.5c21.8,5.9,44.7,2.9,64.3-8.5
	c0,0,0,0,0,0c19.6-11.3,33.6-29.6,39.5-51.4c5.9-21.9,2.8-44.7-8.5-64.3c0,0,0,0,0-0.1C149.3,22.2,120.8,7,91.5,7z M135.8,168.1
	L135.8,168.1L135.8,168.1z"/>
<path d="M64,145.6c-1.9,0-3.5-1.6-3.5-3.5v-35.9c0-1.9,1.6-3.5,3.5-3.5s3.5,1.6,3.5,3.5v35.9C67.5,144,65.9,145.6,64,145.6z"/>
<path d="M81.9,127.7H46.1c-1.9,0-3.5-1.6-3.5-3.5s1.6-3.5,3.5-3.5h35.9c1.9,0,3.5,1.6,3.5,3.5S83.9,127.7,81.9,127.7z"/>
<path d="M51.3,140.4c-0.9,0-1.8-0.3-2.5-1c-1.4-1.4-1.4-3.6,0-5L74.2,109c1.4-1.4,3.6-1.4,4.9,0c1.4,1.4,1.4,3.6,0,5l-25.4,25.4
	C53.1,140,52.2,140.4,51.3,140.4z"/>
<path d="M76.7,140.4c-0.9,0-1.8-0.3-2.5-1l-25.4-25.4c-1.4-1.4-1.4-3.6,0-5c1.4-1.4,3.6-1.4,4.9,0l25.4,25.4c1.4,1.4,1.4,3.6,0,5
	C78.5,140,77.6,140.4,76.7,140.4z"/>
<path d="M75.6,82.6H49.6c-1.9,0-3.5-1.6-3.5-3.5V45.8c0-1.9,1.6-3.5,3.5-3.5h26.1c1.9,0,3.5,1.6,3.5,3.5v33.3
	C79.1,81.1,77.6,82.6,75.6,82.6z M53.1,75.6h19.1V49.3H53.1V75.6z"/>
<path d="M103,82.6H76.9c-1.9,0-3.5-1.6-3.5-3.5V45.8c0-1.9,1.6-3.5,3.5-3.5H103c1.9,0,3.5,1.6,3.5,3.5v33.3
	C106.5,81.1,104.9,82.6,103,82.6z M80.4,75.6h19.1V49.3H80.4V75.6z"/>
<path d="M131,82.6h-26.1c-1.9,0-3.5-1.6-3.5-3.5V45.8c0-1.9,1.6-3.5,3.5-3.5H131c1.9,0,3.5,1.6,3.5,3.5v33.3
	C134.5,81.1,132.9,82.6,131,82.6z M108.4,75.6h19.1V49.3h-19.1V75.6z"/>
<path d="M119.4,145.6c-11.8,0-21.4-9.6-21.4-21.4s9.6-21.4,21.4-21.4c11.8,0,21.4,9.6,21.4,21.4S131.2,145.6,119.4,145.6z
	 M119.4,109.7c-8,0-14.4,6.5-14.4,14.4s6.5,14.4,14.4,14.4c8,0,14.4-6.5,14.4-14.4S127.4,109.7,119.4,109.7z"/>
<path d="M117.1,125.5c-1,0-1.9-0.4-2.6-1.2l-9-10.1c-1.3-1.4-1.2-3.7,0.3-4.9c1.4-1.3,3.7-1.2,4.9,0.3l9,10.1
	c1.3,1.4,1.2,3.7-0.3,4.9C118.8,125.2,118,125.5,117.1,125.5z"/>
</svg>
