<?xml version="1.0" encoding="utf-8"?>
<!-- Generator: Adobe Illustrator 25.0.0, SVG Export Plug-In . SVG Version: 6.00 Build 0)  -->
<svg version="1.1" id="Layer_1" xmlns="http://www.w3.org/2000/svg" xmlns:xlink="http://www.w3.org/1999/xlink" x="0px" y="0px"
	 viewBox="0 0 155 154.3" style="enable-background:new 0 0 155 154.3;" xml:space="preserve">
<g id="Layer_10">
	<path d="M51.5,118.7h-0.9c-10.8-0.1-20.7-6.4-25.4-16.1c-0.9-1.7-3-2.4-4.7-1.5c-1.7,0.9-2.3,2.9-1.5,4.6
		c5.9,12.1,18.1,19.9,31.6,20c0.4,0,0.8,0,1.1,0c1.9-0.1,3.5-1.7,3.4-3.6C55.1,120.2,53.4,118.7,51.5,118.7L51.5,118.7z"/>
	<path d="M112.2,120.7c-2.3,2.2-2.4,6-0.2,8.3c0.1,0.1,0.1,0.1,0.2,0.2l23.3,23.3c0.7,0.7,1.6,1.2,2.5,1.5c0.6,0.2,1.2,0.3,1.9,0.3
		c1.6,0,3.1-0.7,4.2-1.8l9.2-9.2c2.3-2.2,2.4-5.9,0.2-8.3c-0.1-0.1-0.1-0.1-0.2-0.2l-23.3-23.3c-0.7-0.7-1.6-1.2-2.5-1.5
		c-2.1-0.7-4.5-0.1-6,1.5l-2.1,2.1l-4.8-4.8c4.2-5.2,6.6-11.8,6.6-18.5c0-15-11.2-27.7-26.1-29.7C82.9,27.9,53.5,2,52.3,0.9
		c-1.3-1.2-3.3-1.2-4.6,0C45.7,2.5,0.9,42.3,0,85.4c-0.3,15.5,4.6,28.9,14.3,38.8C25.8,135.9,40.7,140,50,140
		c11.6,0,28.5-6.3,39.2-19.9c0.6,0,1.1,0,1.6,0h0.1c6.7,0,13.3-2.2,18.6-6.4l4.8,4.8L112.2,120.7z M114,90.3c0,6-2.4,11.8-6.7,16
		c-0.1,0-0.1,0.1-0.2,0.1c0,0-0.1,0.1-0.1,0.1c-4.3,4.2-10.1,6.5-16.1,6.5h-0.1c-6.1,0-12-2.4-16.3-6.7c-8.9-8.8-9-23.2-0.1-32.1
		c0.1-0.1,0.1-0.1,0.2-0.2c4.3-4.3,10.2-6.7,16.3-6.7h0.1C103.6,67.4,113.9,77.6,114,90.3L114,90.3z M50,133
		c-8.6,0-21.4-4.2-30.6-13.6c-8.5-8.6-12.6-20-12.3-33.8C7.7,50.9,40.8,17,50,8.3c6.9,6.6,27.5,27.5,37.4,52.3
		c-6.7,0.8-12.9,3.7-17.7,8.5c-11.7,11.5-11.9,30.3-0.4,42c0.1,0.1,0.2,0.2,0.2,0.3c3.3,3.3,7.3,5.8,11.7,7.2
		C72,128.4,59.1,133,50,133L50,133z M147.5,139.1l-7.8,7.8L117.8,125l7.8-7.8L147.5,139.1z"/>
</g>
</svg>
