<?xml version="1.0" encoding="UTF-8" standalone="no"?>
<svg
   xmlns:dc="http://purl.org/dc/elements/1.1/"
   xmlns:cc="http://creativecommons.org/ns#"
   xmlns:rdf="http://www.w3.org/1999/02/22-rdf-syntax-ns#"
   xmlns:svg="http://www.w3.org/2000/svg"
   xmlns="http://www.w3.org/2000/svg"
   xmlns:sodipodi="http://sodipodi.sourceforge.net/DTD/sodipodi-0.dtd"
   xmlns:inkscape="http://www.inkscape.org/namespaces/inkscape"
   viewBox="0 0 189.76007 175.92056"
   version="1.1"
   id="svg9"
   sodipodi:docname="Water jug.svg"
   width="189.76007"
   height="175.92056"
   inkscape:version="1.0.2 (e86c870879, 2021-01-15, custom)">
  <g
     id="Layer_10"
     data-name="Layer 10"
     transform="translate(-136.45,-141.78944)">
    <path
       class="cls-1"
       d="m 136.6,216.52 c 0,15.41 11.36,28.79 26.86,32.23 l 1.45,44.3 a 24.75,24.75 0 0 0 24.74,24.66 h 89.44 A 24.74,24.74 0 0 0 303.83,293 l 1.47,-110.8 c 12.41,-7.16 20.91,-20 20.91,-32 a 8.44,8.44 0 0 0 -6.59,-8.27 3.48,3.48 0 0 0 -0.79,-0.09 H 164.2 a 3.5,3.5 0 0 0 -4.09,3.31 c 0,0.11 0,0.23 0,0.34 l 0.28,8.43 h -14.1 a 9.86,9.86 0 0 0 -9.84,9.86 v 32.77 a 9.86,9.86 0 0 0 0.12,1.53 z M 296.83,293 a 17.75,17.75 0 0 1 -17.74,17.72 H 189.65 A 17.75,17.75 0 0 1 171.91,293 a 0.49,0.49 0 0 0 0,-0.12 l -1.53,-47.16 v 0 l -1.21,-36.95 H 298 Z m 21.49,-144.14 a 1.48,1.48 0 0 1 0.89,1.36 c 0,9.86 -8,21.13 -19,26.78 a 3.51,3.51 0 0 0 -1.9,3.07 L 298,201.75 H 168.94 l -1.37,-41.81 -0.36,-11.09 z m -174.88,14.92 a 2.85,2.85 0 0 1 2.84,-2.86 h 14.32 l 2.63,80.56 c -11.44,-3.31 -19.63,-13.42 -19.63,-25 v -18.75 a 3.68,3.68 0 0 0 -0.06,-0.66 2.56,2.56 0 0 1 -0.05,-0.55 z"
       id="path2" />
    <path
       class="cls-1"
       d="m 257.53,269.13 h 21.15 a 3.5,3.5 0 0 0 0,-7 h -21.15 a 3.5,3.5 0 1 0 0,7 z"
       id="path4" />
    <path
       class="cls-1"
       d="m 257.53,282.49 h 21.15 a 3.5,3.5 0 1 0 0,-7 h -21.15 a 3.5,3.5 0 1 0 0,7 z"
       id="path6" />
  </g>
</svg>
