<?xml version="1.0" encoding="UTF-8" standalone="no"?>
<svg
   xmlns:dc="http://purl.org/dc/elements/1.1/"
   xmlns:cc="http://creativecommons.org/ns#"
   xmlns:rdf="http://www.w3.org/1999/02/22-rdf-syntax-ns#"
   xmlns:svg="http://www.w3.org/2000/svg"
   xmlns="http://www.w3.org/2000/svg"
   xmlns:sodipodi="http://sodipodi.sourceforge.net/DTD/sodipodi-0.dtd"
   xmlns:inkscape="http://www.inkscape.org/namespaces/inkscape"
   viewBox="0 0 99.90738 140.00291"
   version="1.1">
  <g
     id="Layer_10"
     data-name="Layer 10"
     transform="translate(-181.36631,-159.74709)">
    <path
       class="cls-1"
       d="m 231.32,299.75 c 9.3,0 24.2,-4.13 35.6,-15.75 9.69,-9.89 14.65,-23.31 14.34,-38.83 -0.85,-43.16 -45.72,-82.89 -47.63,-84.56 a 3.51,3.51 0 0 0 -4.61,0 c -1.91,1.67 -46.79,41.4 -47.64,84.56 -0.31,15.52 4.65,28.94 14.34,38.83 11.4,11.62 26.28,15.75 35.6,15.75 z m 0,-131.74 c 9.13,8.69 42.26,42.56 42.95,77.3 0.27,13.79 -3.88,25.16 -12.35,33.79 -9.24,9.43 -22,13.65 -30.6,13.65 -8.6,0 -21.36,-4.22 -30.6,-13.65 -8.46,-8.64 -12.62,-20 -12.34,-33.79 0.68,-34.7 33.82,-68.61 42.94,-77.31 z"
       id="path2" />
    <path
       class="cls-1"
       d="m 232,285.47 h 1.14 a 3.5020565,3.5020565 0 1 0 -0.24,-7 H 232 a 28.46,28.46 0 0 1 -25.38,-16.13 3.5016853,3.5016853 0 1 0 -6.26,3.14 35.44,35.44 0 0 0 31.64,19.99 z"
       id="path4" />
  </g>
</svg>
