<?xml version="1.0" encoding="utf-8"?>
<!-- Generator: Adobe Illustrator 25.0.0, SVG Export Plug-In . SVG Version: 6.00 Build 0)  -->
<svg version="1.1" id="Layer_1" xmlns="http://www.w3.org/2000/svg" xmlns:xlink="http://www.w3.org/1999/xlink" x="0px" y="0px"
	 viewBox="0 0 180.1 149.9" style="enable-background:new 0 0 180.1 149.9;" xml:space="preserve">
<g>
	<path d="M27.3,94.1c-0.6,0-1.2-0.1-1.7-0.4C17.9,89.4,11.4,83,6.9,75.4c-14-23.8-6-54.5,17.8-68.5c11.5-6.8,25-8.7,37.9-5.3
		C75.5,5,86.3,13.2,93.1,24.7c1,1.7,0.4,3.8-1.2,4.8c-1.7,1-3.8,0.4-4.8-1.2c-5.8-9.9-15.2-16.9-26.3-19.8
		C49.7,5.5,38.1,7.1,28.2,13C7.8,25,0.9,51.4,12.9,71.8c3.9,6.6,9.4,12,16.1,15.8c1.7,0.9,2.3,3.1,1.4,4.8
		C29.7,93.5,28.6,94.1,27.3,94.1z"/>
</g>
<g>
	<path d="M123,50.3c-0.9,0-1.8-0.3-2.5-1c-1.4-1.4-1.4-3.6,0-4.9l19.1-19.1c1.4-1.4,3.6-1.4,4.9,0c1.4,1.4,1.4,3.6,0,4.9l-19.1,19.1
		C124.8,50,123.9,50.3,123,50.3z"/>
</g>
<g>
	<path d="M127.9,78c-0.9,0-1.8-0.3-2.5-1c-1.4-1.4-1.4-3.6,0-4.9l31.2-31.2c1.4-1.4,3.6-1.4,5,0c1.4,1.4,1.4,3.6,0,4.9L130.3,77
		C129.7,77.7,128.8,78,127.9,78z"/>
</g>
<g>
	<path d="M158.6,46.8c-2.3,0-4.9-0.7-7.1-3l-9.2-9.2c-1.9-1.9-4.6-6.8-1.8-12.1l6.6-12.4c0.3-0.6,2-3.5,5.3-4c1.5-0.2,3.8,0,6.1,2.3
		l19.2,19.2c0.5,0.5,2.8,3,2.3,6.3c-0.2,1.5-1.1,3.6-4,5.1l-12.4,6.6C162.5,46.2,160.7,46.8,158.6,46.8z M147.3,29.7l9.2,9.2
		c1.6,1.6,3.5,0.7,3.9,0.5l12.4-6.5c0.1,0,0.1-0.1,0.2-0.1c-0.1-0.1-0.1-0.2-0.2-0.2l-19.2-19.2c-0.1-0.1-0.1-0.1-0.2-0.2
		c-0.1,0.1-0.1,0.2-0.2,0.2l-6.6,12.4C145.7,27.8,147,29.4,147.3,29.7z M147.3,29.7L147.3,29.7L147.3,29.7L147.3,29.7z"/>
</g>
<g>
	<path d="M135,149.9H25c-4.7,0-8.5-3.8-8.5-8.5c0-0.2,0-0.4,0.1-0.6l19-109.7c0.2-4.5,3.9-8.2,8.5-8.2h71c4.6,0,8.3,3.6,8.5,8.1
		l20,109.7c0,0.2,0.1,0.4,0.1,0.6C143.5,146.1,139.7,149.9,135,149.9z M23.5,141.6c0.1,0.7,0.7,1.3,1.5,1.3h110
		c0.8,0,1.4-0.6,1.5-1.3L116.6,32c0-0.2-0.1-0.4-0.1-0.6c0-0.8-0.7-1.5-1.5-1.5H44c-0.8,0-1.5,0.7-1.5,1.5c0,0.2,0,0.4-0.1,0.6
		L23.5,141.6z M39,31.4L39,31.4L39,31.4z"/>
</g>
</svg>
