<?xml version="1.0" encoding="utf-8"?>
<!-- Generator: Adobe Illustrator 25.0.0, SVG Export Plug-In . SVG Version: 6.00 Build 0)  -->
<svg version="1.1" id="Layer_1" xmlns="http://www.w3.org/2000/svg" xmlns:xlink="http://www.w3.org/1999/xlink" x="0px" y="0px"
	 viewBox="0 0 164.4 153.9" style="enable-background:new 0 0 164.4 153.9;" xml:space="preserve">
<path d="M87.4,153.9c-1.9,0-3.5-1.6-3.5-3.5V3.5c0-1.9,1.6-3.5,3.5-3.5s3.5,1.6,3.5,3.5v146.9C90.9,152.3,89.4,153.9,87.4,153.9z"/>
<path d="M134.6,59.5c-13.5,0-24.5-11-24.5-24.5s11-24.5,24.5-24.5s24.5,11,24.5,24.5S148.1,59.5,134.6,59.5z M134.6,17.5
	c-9.6,0-17.5,7.9-17.5,17.5s7.9,17.5,17.5,17.5s17.5-7.9,17.5-17.5S144.3,17.5,134.6,17.5z"/>
<path d="M145.2,153.8h-21c-1.8,0-3.3-1.3-3.5-3.1l-4.9-38.9h-7.4c-1.9,0-3.5-1.6-3.5-3.5V92.7c0-0.7,0-1.5,0-2.2
	c0.6-16.4,14.5-29.2,30.9-28.5c16.4,0.6,29.1,14.4,28.5,30.8v15.7c0,1.9-1.6,3.5-3.5,3.5h-7.3l-4.9,38.9
	C148.4,152.5,146.9,153.8,145.2,153.8z M127.2,146.8h14.8l4.9-38.9c0.2-1.8,1.7-3.1,3.5-3.1h6.9V92.6c0,0,0-0.1,0-0.1
	c0.5-12.5-9.3-23.1-21.8-23.6c-6-0.2-11.9,1.9-16.3,6s-7,9.7-7.3,15.8c0,0.6,0,1.2,0,1.8c0,0,0,0.1,0,0.1v12.2h7
	c1.8,0,3.3,1.3,3.5,3.1L127.2,146.8z"/>
<path d="M45.4,153.8h-21c-1.7,0-3.2-1.2-3.5-2.9l-4.8-28.5H3.5c-1.1,0-2.1-0.5-2.8-1.4s-0.9-2-0.6-3L8.1,89c0-0.1,0-0.1,0.1-0.2
	C12.6,75.4,18.9,62.9,35,62.9c16,0,22.4,12.5,26.9,25.9c0,0.1,0,0.1,0.1,0.2l7.9,28.9c0.3,1.1,0.1,2.2-0.6,3s-1.7,1.4-2.8,1.4H53.6
	l-4.8,28.5C48.6,152.6,47.1,153.8,45.4,153.8z M27.4,146.8h15l4.8-28.5c0.3-1.7,1.7-2.9,3.5-2.9h11.2L55.2,91
	C50,75.6,44.5,69.9,35,69.9c-9.6,0-15.1,5.7-20.2,21l-6.7,24.4h11.1c1.7,0,3.2,1.2,3.5,2.9L27.4,146.8z"/>
<path d="M35,59.5c-13.5,0-24.5-11-24.5-24.5s11-24.5,24.5-24.5s24.5,11,24.5,24.5S48.5,59.5,35,59.5z M35,17.5
	c-9.6,0-17.5,7.9-17.5,17.5S25.3,52.5,35,52.5S52.5,44.6,52.5,35S44.6,17.5,35,17.5z"/>
</svg>
