<?xml version="1.0" encoding="UTF-8" standalone="no"?>
<svg
   xmlns:dc="http://purl.org/dc/elements/1.1/"
   xmlns:cc="http://creativecommons.org/ns#"
   xmlns:rdf="http://www.w3.org/1999/02/22-rdf-syntax-ns#"
   xmlns:svg="http://www.w3.org/2000/svg"
   xmlns="http://www.w3.org/2000/svg"
   xmlns:sodipodi="http://sodipodi.sourceforge.net/DTD/sodipodi-0.dtd"
   xmlns:inkscape="http://www.inkscape.org/namespaces/inkscape"
   viewBox="0 0 202.64229 159.43835"
   version="1.1">
  <g
     id="Layer_10"
     data-name="Layer 10"
     transform="translate(-130,-150.01)">
    <path
       class="cls-1"
       d="m 153.44,224.42 h 73 a 3.5,3.5 0 0 0 0,-7 h -73 a 3.5,3.5 0 0 0 0,7 z"
       id="path2" />
    <path
       class="cls-1"
       d="m 153.44,243.74 h 65.48 a 3.5,3.5 0 0 0 0,-7 h -65.48 a 3.5,3.5 0 0 0 0,7 z"
       id="path4" />
    <path
       class="cls-1"
       d="m 226.44,256.07 h -73 a 3.5,3.5 0 0 0 0,7 h 73 a 3.5,3.5 0 0 0 0,-7 z"
       id="path6" />
    <path
       class="cls-1"
       d="m 270,207.51 h 10 c 4,0 10,-2.66 10,-10 V 180 c 0,-4 -2.67,-10 -10,-10 h -10 c -4,0 -10,2.67 -10,10 v 17.5 c -0.06,4.03 2.6,10.01 10,10.01 z m -3,-27.49 c 0,-1.93 1,-3 3,-3 h 9.95 c 1.94,0 2.95,1 3,3 v 17.48 c 0,1.95 -1,3 -3,3 H 270 c -1.94,0 -3,-1 -3,-3 z"
       id="path8" />
    <path
       class="cls-1"
       d="m 328,213.33 c -7.81,2.64 -13.64,4.67 -18,6.24 v -51.06 c 0,-6.39 -3.86,-18.5 -18.5,-18.5 h -143 c -6.4,0 -18.5,3.87 -18.5,18.5 v 103 c 0,6.4 3.87,18.5 18.5,18.5 h 88.08 a 6.65,6.65 0 0 0 1.75,3 l 14.44,14.44 a 6.8,6.8 0 0 0 9.63,0 L 279.85,290 h 11.65 c 6.4,0 18.5,-3.86 18.5,-18.5 v -11.64 l 10.55,-10.55 c 0.66,-0.65 1.88,-1.87 11.91,-31.55 a 3.5,3.5 0 0 0 -4.44,-4.43 z m -191,58.18 v -103 c 0,-11.06 10.34,-11.48 11.5,-11.5 h 143 c 11.06,0 11.49,10.34 11.5,11.5 v 53.64 c -5.61,2.17 -6.16,2.72 -6.53,3.08 L 238.69,283 H 148.5 C 137.44,283 137,272.67 137,271.51 Z m 120.59,30.87 -13.9,-13.9 a 3.71,3.71 0 0 0 0.47,-1 L 298,233.57 312.18,247.75 Z M 303,271.51 c 0,4.78 -1.76,8 -5.38,9.91 A 15.36,15.36 0 0 1 291.5,283 h -4.65 L 303,266.86 Z m 13.42,-29.45 -12.69,-12.69 c 4,-1.59 11.74,-4.33 19.8,-7.11 -2.78,8.06 -5.53,15.74 -7.11,19.8 z"
       id="path10" />
  </g>
</svg>
