<?xml version="1.0" encoding="UTF-8" standalone="no"?>
<svg
   xmlns:dc="http://purl.org/dc/elements/1.1/"
   xmlns:cc="http://creativecommons.org/ns#"
   xmlns:rdf="http://www.w3.org/1999/02/22-rdf-syntax-ns#"
   xmlns:svg="http://www.w3.org/2000/svg"
   xmlns="http://www.w3.org/2000/svg"
   xmlns:sodipodi="http://sodipodi.sourceforge.net/DTD/sodipodi-0.dtd"
   xmlns:inkscape="http://www.inkscape.org/namespaces/inkscape"
   viewBox="0 0 95.364358 95.317001"
   version="1.1">
  <g
     id="Layer_10"
     data-name="Layer 10"
     transform="translate(-187.64282,-182.053)">
    <path
       class="cls-1"
       d="m 277.82,247.43 -17.74,-17.71 17.63,-17.66 a 17.65,17.65 0 0 0 0,-24.8 c -3.35,-3.37 -8.69,-5.56 -12.56,-5.16 A 17.27,17.27 0 0 0 253,187.24 L 235.3,205 217.65,187.37 a 17.64,17.64 0 0 0 -24.8,0 c -3.38,3.34 -5.56,8.69 -5.16,12.56 a 17.25,17.25 0 0 0 5.13,12.07 l 17.74,17.71 -17.63,17.66 a 17.65,17.65 0 0 0 0,24.8 17.89,17.89 0 0 0 11.61,5.2 c 0.33,0 0.64,0 0.95,0 a 17.26,17.26 0 0 0 12.12,-5.14 l 17.71,-17.74 17.68,17.63 a 17.66,17.66 0 0 0 24.81,0 c 3.37,-3.35 5.55,-8.69 5.15,-12.56 a 17.25,17.25 0 0 0 -5.14,-12.13 z m -4.95,19.71 a 10.64,10.64 0 0 1 -14.94,0 l -20.12,-20.09 a 3.49,3.49 0 0 0 -4.95,0 l -20.2,20.22 a 10.26,10.26 0 0 1 -7.36,3.08 v 0 h -0.47 c -1.56,0.21 -4.91,-1.11 -6.91,-3.12 a 10.64,10.64 0 0 1 0,-14.93 L 218,232.22 a 3.5,3.5 0 0 0 0,-4.95 l -20.23,-20.19 a 10.33,10.33 0 0 1 -3.07,-7.37 3.59,3.59 0 0 0 0,-0.47 c -0.21,-1.56 1.1,-4.92 3.12,-6.91 a 10.61,10.61 0 0 1 14.93,0 l 20.13,20.09 a 3.46,3.46 0 0 0 2.47,1 v 0 a 3.51,3.51 0 0 0 2.47,-1 L 258,192.17 a 10.31,10.31 0 0 1 7.36,-3.07 v 0 a 3.71,3.71 0 0 0 0.47,0 c 1.54,-0.22 4.91,1.11 6.91,3.12 a 10.63,10.63 0 0 1 0,14.93 l -20.1,20.13 a 3.5,3.5 0 0 0 0,4.95 l 20.22,20.19 a 10.25,10.25 0 0 1 3.07,7.37 3.57,3.57 0 0 0 0,0.47 c 0.27,1.53 -1.05,4.88 -3.06,6.88 z"
       id="path2" />
  </g>
</svg>
