<svg xmlns="http://www.w3.org/2000/svg" height="36" width="24" viewBox="0 0 36 36" fill="none">
    <path fill-rule="evenodd" clip-rule="evenodd" d="M6 21C6 17.0218 7.58035 13.2064 10.3934 10.3934C13.2064 7.58035 17.0218 6 21 6C24.9782 6 28.7936 7.58035 31.6066 10.3934C34.4196 13.2064 36 17.0218 36 21C36 24.9782 34.4196 28.7936 31.6066 31.6066C28.7936 34.4196 24.9782 36 21 36C17.0218 36 13.2064 34.4196 10.3934 31.6066C7.58035 28.7936 6 24.9782 6 21ZM11.7192 11.7192C9.25781 14.1806 7.875 17.519 7.875 21C7.875 24.481 9.25781 27.8194 11.7192 30.2808C14.1806 32.7422 17.519 34.125 21 34.125C24.481 34.125 27.8194 32.7422 30.2808 30.2808C32.7422 27.8194 34.125 24.481 34.125 21C34.125 17.519 32.7422 14.1806 30.2808 11.7192C27.8194 9.25781 24.481 7.875 21 7.875C17.519 7.875 14.1806 9.25781 11.7192 11.7192Z" fill="#005eb8"/>
    <path d="M20 25.75C20 26.375 20.625 27 21.25 27C22 27 22.5 26.375 22.5 25.875V18.375V18.25C22.5 17.5 22 17 21.25 17C20.5 17 20 17.625 20 18.25V25.75Z" fill="#005eb8"/>
    <path d="M20 13.25C20 14 20.625 14.5 21.25 14.5C21.875 14.5 22.5 14 22.5 13.25C22.5 12.5 21.875 12 21.25 12C20.5 12 20 12.5 20 13.25Z" fill="#005eb8"/>
</svg>
 
	