<svg width="19" height="22" viewBox="0 0 19 22" fill="none" xmlns="http://www.w3.org/2000/svg">
<path fill-rule="evenodd" clip-rule="evenodd" d="M11.4893 4.41213V0H2.49023C1.62984 0 0.929688 0.686091 0.929688 1.52919V20.1851C0.929688 21.0282 1.62984 21.7143 2.49023 21.7143H16.512C17.3724 21.7143 18.0725 21.0282 18.0725 20.1851V6.45101H13.57C12.4224 6.45101 11.4892 5.53656 11.4892 4.41211L11.4893 4.41213ZM12.3583 4.713C12.3583 5.26476 12.9176 5.7144 13.604 5.7144H18.0726L12.3584 1.14297L12.3583 4.713ZM10.0948 4.55441C9.99117 4.17545 9.7158 3.96955 9.5099 4.00366C9.37328 4.01917 9.24258 4.06808 9.12935 4.14607C9.01611 4.22406 8.92382 4.32872 8.86062 4.45083C8.58096 5.10374 9.08831 6.88095 9.26418 7.49703L9.26419 7.49704C9.28294 7.56274 9.29793 7.61523 9.30779 7.65175C8.65472 9.61221 6.41761 13.5003 5.35148 13.7416C5.31737 13.5003 5.45506 12.7437 6.90015 11.814C6.97838 11.7427 7.04753 11.6621 7.10605 11.5739C5.83275 12.1929 4.28535 13.1214 5.21127 13.8477C5.27628 13.8898 5.34576 13.9245 5.41843 13.9513C6.14097 14.2266 7.173 13.3323 8.17092 11.3365C9.2439 10.9524 10.3489 10.6646 11.4729 10.4762C12.8839 11.44 13.8123 11.6131 14.4666 11.3706C14.593 11.3151 14.707 11.2347 14.8016 11.1342C14.8962 11.0337 14.9696 10.9152 15.0174 10.7857C15.0865 10.6086 15.0865 10.4121 15.0174 10.235C14.672 9.6604 13.244 9.85414 12.3628 9.97368C12.1901 9.9971 12.0385 10.0177 11.9201 10.0291C10.7832 9.34063 10.0253 8.13428 9.71832 7.27658L9.73945 7.19546C9.75589 7.26359 9.77228 7.3258 9.7878 7.38016C9.81834 7.27936 9.85114 7.17801 9.88377 7.07717L9.88377 7.07716C10.0336 6.61414 10.1799 6.16193 10.0888 5.82363C10.1744 5.38132 10.2 4.96913 10.0973 4.5582L10.0948 4.55441ZM10.0888 5.82363C10.0439 5.6567 9.94111 5.51751 9.75243 5.41843C9.47781 5.75469 9.60999 6.65886 9.73945 7.19546C9.77709 7.0521 9.81509 6.91303 9.85209 6.77766L9.8521 6.77761C9.94448 6.4396 10.0306 6.12464 10.0888 5.82363ZM15.0174 10.7857C14.5008 11.44 13.2969 10.9929 12.299 10.3727C13.1934 10.2703 14.1231 10.235 14.5349 10.3385C15.0276 10.5024 15.0194 10.7294 15.0176 10.7797L15.0174 10.7857ZM10.9575 9.82317C10.1655 9.95959 9.616 10.1668 8.82398 10.4762C9.18856 9.71172 9.48774 8.91771 9.71832 8.10271C10.0087 8.7553 10.4305 9.34098 10.9575 9.82317ZM6.71843 16.4728H6.51394V17.3883H6.71843C7.01056 17.3883 7.27348 17.2894 7.27348 16.9413C7.27348 16.5931 7.01891 16.4728 6.71843 16.4728ZM6.51394 19H5.92969V16H6.66836C7.30269 16 7.88278 16.1891 7.88278 16.9069C7.88278 17.6074 7.38616 17.861 6.76017 17.861H6.51394V19ZM9.09579 19H8.2987V16H9.09579C9.98887 16 10.7776 16.3095 10.7776 17.5C10.7776 18.6905 9.98887 19 9.09579 19ZM9.20847 16.4728H8.88296V18.5272H9.20847C9.69674 18.5272 10.1683 18.1533 10.1683 17.5C10.1683 16.8467 9.69674 16.4728 9.20847 16.4728ZM11.3105 19H11.8947V17.6848H12.8796V17.212H11.8947V16.4728H12.9297V16H11.3105V19Z" fill="#DA291C"/>
</svg>
