<svg viewBox="0 0 16 16" fill="none" xmlns="http://www.w3.org/2000/svg">
<path d="M15.7366 5.59703L10.4046 0.261677C10.1514 0.00751522 9.77071 -0.0695606 9.43894 0.066057C9.11309 0.195735 8.89315 0.504002 8.87611 0.854495V3.0004L5.88431 5.99996L1.31064 6.78248C0.981828 6.83658 0.710782 7.06925 0.607858 7.38715C0.505661 7.70432 0.589344 8.05185 0.824835 8.28824L3.63899 11.1042L0.262154 14.4831C0.0940479 14.6491 0 14.8751 0 15.1115C0 15.3479 0.0940498 15.5739 0.262154 15.7399C0.609469 16.0867 1.17082 16.0867 1.51814 15.7399L4.89498 12.3609L7.70914 15.1769C7.8765 15.3421 8.10163 15.4355 8.33713 15.4377C8.4297 15.4355 8.52078 15.4214 8.60965 15.3962C8.92142 15.2873 9.14878 15.0168 9.2021 14.6908L9.95451 10.1142L12.9522 7.12052H15.1087C15.4693 7.11978 15.7937 6.90193 15.9322 6.56921C16.0707 6.23575 15.9929 5.8512 15.7366 5.59703ZM12.5968 5.33619C12.3613 5.33619 12.1354 5.4303 11.9688 5.59703L8.50891 9.05321C8.37709 9.18511 8.29045 9.35556 8.26008 9.53932L7.74464 12.6872L3.30728 8.22336L6.45321 7.7076C6.63687 7.67722 6.8072 7.59052 6.93901 7.45862L10.3693 3.99656C10.5382 3.83131 10.6322 3.60456 10.63 3.36817V3.00063L12.9406 5.31271L12.5968 5.33619Z"/>
</svg>
