<svg
    xmlns="http://www.w3.org/2000/svg"
    width="18.001"
    height="18.001"
    viewBox="0 0 18.001 18.001"
    preserveAspectRatio="xMinYMid"
    aria-hidden="true"
    focusable="false">
        <title>Search</title>
        <path id="search" d="M2806.877-25.515a.423.423 0 0 1 0 .6l-.795.795a.421.421 0 0 1-.6 0l-4.268-4.268a.429.429 0 0 1-.123-.3v-.464a7.292 7.292 0 0 1-4.782 1.779 7.311 7.311 0 0 1-7.309-7.315 7.311 7.311 0 0 1 7.312-7.312 7.311 7.311 0 0 1 7.313 7.312 7.3 7.3 0 0 1-1.779 4.781h.464a.416.416 0 0 1 .3.123zm-10.565-3.547a5.623 5.623 0 0 0 5.625-5.625 5.623 5.623 0 0 0-5.625-5.625 5.624 5.624 0 0 0-5.625 5.625 5.624 5.624 0 0 0 5.625 5.624z" class="cls-1" transform="translate(-2789 42)"/>
</svg>
