<?xml version="1.0" encoding="UTF-8" standalone="no"?>
<svg
   xmlns:dc="http://purl.org/dc/elements/1.1/"
   xmlns:cc="http://creativecommons.org/ns#"
   xmlns:rdf="http://www.w3.org/1999/02/22-rdf-syntax-ns#"
   xmlns:svg="http://www.w3.org/2000/svg"
   xmlns="http://www.w3.org/2000/svg"
   xmlns:sodipodi="http://sodipodi.sourceforge.net/DTD/sodipodi-0.dtd"
   xmlns:inkscape="http://www.inkscape.org/namespaces/inkscape"
   viewBox="0 0 119.69003 116.00002"
   version="1.1">
  <g
     id="Layer_10"
     data-name="Layer 10"
     transform="translate(-171.53997,-171.78)">
    <path
       class="cls-1"
       d="M 171.54,184.81 V 235 a 13,13 0 0 0 13,13 h 6.14 c -0.05,3.5 -0.13,8.74 -0.18,12 0,3.94 2.22,5.22 3.17,5.59 a 4.45,4.45 0 0 0 1.63,0.3 6.05,6.05 0 0 0 4.48,-2.28 l 12,-13.11 v 6.4 a 13,13 0 0 0 13,13 h 23.95 l 14.26,15.6 a 6,6 0 0 0 4.47,2.28 4.56,4.56 0 0 0 1.64,-0.3 c 0.95,-0.37 3.17,-1.65 3.17,-5.64 -0.05,-3.21 -0.13,-8.45 -0.18,-11.94 h 6.14 a 13,13 0 0 0 13,-13 v -50.23 a 13,13 0 0 0 -13,-13 h -27.31 v -8.89 a 13,13 0 0 0 -13,-13 h -53.41 a 13,13 0 0 0 -12.97,13.03 z m 106.6,15.89 a 6,6 0 0 1 6,6 v 50.15 a 6,6 0 0 1 -6,6 h -9.68 a 3.5,3.5 0 0 0 -3.5,3.5 c 0,0.91 0.09,6.88 0.15,11.14 l -12.35,-13.5 a 3.48,3.48 0 0 0 -2.58,-1.14 h -25.49 a 6,6 0 0 1 -6,-6 v -8.89 H 238 a 13,13 0 0 0 13,-13 V 200.7 Z m -99.6,-15.89 a 6,6 0 0 1 6,-6 H 238 a 6,6 0 0 1 6,6 V 235 a 6,6 0 0 1 -6,6 h -25.54 a 3.48,3.48 0 0 0 -2.58,1.14 l -12.34,13.5 c 0.06,-4.28 0.15,-10.24 0.15,-11.14 a 3.5,3.5 0 0 0 -3.5,-3.5 h -9.68 a 6,6 0 0 1 -6,-6 z"
       id="path2" />
  </g>
</svg>
