<svg xmlns="http://www.w3.org/2000/svg" data-name="Layer 1" viewBox="5.07 4.33 816.16 94.52"><path d="M204.44 5.91H253v11.52h-35.47v26.7h33.91v11.52h-33.91v41.63h-13.09zM322 97.28h-11.92V86.67h-.26c-3.66 7.59-12.56 12.18-21.86 12.18-17.28 0-25-10.74-25-28.67V30.52h12.31v34.56c0 15.57 3.4 23.16 14.13 23.82 14 0 20.29-11.26 20.29-27.49V30.52H322zm55.11-56.81h-17.67V77c0 7.72 4.71 11.91 10.34 11.91a15.18 15.18 0 008.38-2.36V97a38.4 38.4 0 01-10.47 1.84c-12.7 0-20.55-6-20.55-19.38v-39h-15.05v-9.94h15.05V15.07l12.3-3.92v19.37h17.67zm71.21 56.81h-11.91V86.67h-.26c-3.67 7.59-12.57 12.18-21.86 12.18-17.28 0-25-10.74-25-28.67V30.52h12.3v34.56c0 15.57 3.41 23.16 14.14 23.82 14 0 20.29-11.26 20.29-27.49V30.52h12.3zm14.41-66.76h11.52v10.34h.26C477.78 33.92 484.85 29 491.92 29a34.34 34.34 0 018.11.92v11a18.11 18.11 0 00-6.8-1.18c-11 0-18.2 10.47-18.2 27.23v30.31h-12.3zm98.83 64.01c-4.71 1.7-10.08 4.32-21.08 4.32-23.69 0-34.55-14.4-34.55-36.13C505.93 43 518.36 29 537.21 29c22.26 0 29.45 16.23 29.45 37.7H519a21.84 21.84 0 0022 22.2c8.11 0 17.54-4.19 20.55-6.68zm-8-37.05c0-10.21-6-18.58-16.63-18.58-12 0-17 9.94-17.93 18.58zm28.17-51.57h22.51l34.82 68.33h.26V5.91h17.54v91.37h-22.38L599.53 29h-.26v68.28h-17.54zm92.16 0h18.32v36.91h36.65V5.91h18.33v91.37h-18.33V57.22h-36.65v40.06h-18.32zm140.32 16.76a47.21 47.21 0 00-18.58-3.93c-6.29 0-14.4 2.75-14.4 12.7 0 15.83 40 9.16 40 39.79 0 20-15.84 27.62-34.29 27.62-10 0-14.4-1.31-23.43-3.54l1.7-16.49a44.13 44.13 0 0020.68 5.63c6.94 0 16.23-3.54 16.23-11.78 0-17.41-40-10.21-40-40.45 0-20.42 15.84-27.88 31.94-27.88a69.14 69.14 0 0121.86 3.27z" fill="#fff"/><path fill="#00a499" d="M51.02 51.82L5.07 97.77h26.58l45.94-45.95L31.65 5.88H5.07l45.95 45.94z"/><path fill="#ae2573" d="M104.08 51.82L58.13 97.77h26.58l45.95-45.95L84.71 5.88H58.13l45.95 45.94z"/><path fill="#ed8b00" d="M157.43 51.82l-45.95 45.95h26.57L184 51.82 138.05 5.88h-26.57l45.95 45.94z"/><path fill="none" d="M-86.82-86.12h1000V189.3h-1000z"/></svg>