<?xml version="1.0" encoding="utf-8"?>
<!-- Generator: Adobe Illustrator 25.0.0, SVG Export Plug-In . SVG Version: 6.00 Build 0)  -->
<svg version="1.1" id="Layer_1" xmlns="http://www.w3.org/2000/svg" xmlns:xlink="http://www.w3.org/1999/xlink" x="0px" y="0px"
	 viewBox="0 0 161.3 161.3" style="enable-background:new 0 0 161.3 161.3;" xml:space="preserve">
<path d="M80.7,161.3C80.7,161.3,80.7,161.3,80.7,161.3c-21.6,0-41.8-8.4-57.1-23.6C8.4,122.4,0,102.2,0,80.6s8.4-41.8,23.6-57
	c31.5-31.5,82.6-31.5,114.1,0c0,0,0,0,0,0c31.4,31.5,31.4,82.6,0,114.1c0,0,0,0,0,0C122.5,152.9,102.2,161.3,80.7,161.3z M80.7,7
	c-18.9,0-37.7,7.2-52.1,21.5C14.7,42.5,7,61,7,80.6c0,19.7,7.7,38.2,21.6,52.1c13.9,13.9,32.4,21.6,52.1,21.6c0,0,0,0,0,0
	c19.7,0,38.2-7.7,52.1-21.6c0,0,0,0,0,0c28.7-28.7,28.7-75.4,0-104.2h0C118.4,14.2,99.5,7,80.7,7z"/>
<path d="M61.2,103.6c-0.9,0-1.8-0.3-2.5-1c-1.4-1.4-1.4-3.6,0-4.9l19.5-19.5c1.4-1.4,3.6-1.4,4.9,0c1.4,1.4,1.4,3.6,0,4.9
	l-19.5,19.5C63,103.3,62.1,103.6,61.2,103.6z"/>
<path d="M80.7,84.1c-1.9,0-3.5-1.6-3.5-3.5V31.9c0-1.9,1.6-3.5,3.5-3.5s3.5,1.6,3.5,3.5v48.7C84.2,82.6,82.6,84.1,80.7,84.1z"/>
</svg>
