<svg width="42" height="42" viewBox="0 0 42 42" xmlns="http://www.w3.org/2000/svg" >
<path fill-rule="evenodd" clip-rule="evenodd"  fill="white" d="M21 33C27.6274 33 33 27.6274 33 21C33 14.3726 27.6274 9 21 9C14.3726 9 9 14.3726 9 21C9 27.6274 14.3726 33 21 33ZM21 36C29.2843 36 36 29.2843 36 21C36 12.7157 29.2843 6 21 6C12.7157 6 6 12.7157 6 21C6 29.2843 12.7157 36 21 36Z" fill="black"/>
<path fill-rule="evenodd" clip-rule="evenodd"  fill="white" d="M21.25 13C22.0785 13 22.75 13.6716 22.75 14.5V23C22.75 23.4379 22.5587 23.8539 22.2262 24.1389L18.7262 27.1389C18.0972 27.678 17.1503 27.6052 16.6112 26.9762C16.072 26.3472 16.1449 25.4002 16.7739 24.8611L19.75 22.3101V14.5C19.75 13.6716 20.4216 13 21.25 13Z" fill="black"/>
</svg>
