<svg
    version="1.1"
    xmlns="http://www.w3.org/2000/svg"
    width="32"
    height="32"
    viewBox="0 0 32 32"
    preserveAspectRatio="xMinYMid"
    aria-hidden="true"
    focusable="false">
        <title>Close</title>
        <path d="M31.25 4.875l-11.313 11.125 11.125 11.125c0.563 0.563 0.75 1.125 0.75 2.063 0 1.5-1.313 2.813-2.813 2.813-0.75 0-1.5-0.375-2.063-0.75l-10.938-11.313-11.125 11.125c-0.563 0.563-1.125 0.75-2.063 0.75-1.5 0-2.813-1.313-2.813-2.813 0-0.75 0.375-1.5 0.75-2.063l11.125-11.125-11.125-11.125c-0.375-0.375-0.75-1.125-0.75-1.875 0-1.5 1.313-2.813 2.813-2.813 0.75 0 1.5 0.375 2.063 0.75l11.125 11.125 11.125-11.125c0.563-0.563 1.125-0.75 2.063-0.75 1.5 0 2.813 1.313 2.813 2.813 0 0.75-0.375 1.5-0.75 2.063z"></path>
</svg>
