<svg viewBox="0 0 31 31" fill="none" xmlns="http://www.w3.org/2000/svg">
<path fill-rule="evenodd" clip-rule="evenodd" d="M5.28079 5.28061C2.46774 8.09365 0.88739 11.909 0.88739 15.8872C0.88739 19.8655 2.46774 23.6808 5.28079 26.4938C8.09383 29.3069 11.9091 30.8872 15.8874 30.8872C19.8656 30.8872 23.6809 29.3069 26.494 26.4938C29.307 23.6808 30.8874 19.8655 30.8874 15.8872C30.8874 11.909 29.307 8.09365 26.494 5.28061C23.6809 2.46756 19.8656 0.887207 15.8874 0.887207C11.9091 0.887207 8.09383 2.46756 5.28079 5.28061ZM2.76239 15.8872C2.76239 12.4062 4.1452 9.06785 6.60661 6.60643C9.06803 4.14502 12.4064 2.76221 15.8874 2.76221C19.3684 2.76221 22.7068 4.14502 25.1682 6.60643C27.6296 9.06785 29.0124 12.4062 29.0124 15.8872C29.0124 19.3682 27.6296 22.7066 25.1682 25.168C22.7068 27.6294 19.3684 29.0122 15.8874 29.0122C12.4064 29.0122 9.06803 27.6294 6.60661 25.168C4.1452 22.7066 2.76239 19.3682 2.76239 15.8872ZM11.2473 11.2468C11.6134 10.8806 12.207 10.8806 12.5731 11.2468L15.8877 14.5614L19.2022 11.2469C19.5683 10.8808 20.1619 10.8808 20.528 11.2469C20.8941 11.613 20.8941 12.2066 20.528 12.5727L17.2135 15.8872L20.528 19.2017C20.8941 19.5678 20.8941 20.1614 20.528 20.5275C20.1619 20.8936 19.5683 20.8936 19.2022 20.5275L15.8877 17.213L12.5731 20.5277C12.207 20.8938 11.6134 20.8938 11.2473 20.5277C10.8811 20.1615 10.8811 19.5679 11.2473 19.2018L14.5619 15.8872L11.2473 12.5726C10.8811 12.2065 10.8811 11.6129 11.2473 11.2468Z"/>
</svg>
