<svg width="19" height="22" viewBox="0 0 19 22" fill="none" xmlns="http://www.w3.org/2000/svg">
<path fill-rule="evenodd" clip-rule="evenodd" d="M11.4893 4.41213V0H2.49023C1.62984 0 0.929688 0.686091 0.929688 1.52919V20.1851C0.929688 21.0282 1.62984 21.7143 2.49023 21.7143H16.512C17.3724 21.7143 18.0725 21.0282 18.0725 20.1851V6.45101H13.57C12.4224 6.45101 11.4892 5.53656 11.4892 4.41211L11.4893 4.41213ZM12.3583 4.713C12.3583 5.26476 12.9176 5.7144 13.604 5.7144H18.0726L12.3584 1.14297L12.3583 4.713ZM3.50367 6H9.35571C10.1217 6.00294 10.1203 6.99707 9.35571 7H3.50367C2.73768 6.99706 2.73904 6.00293 3.50367 6ZM3.50367 12H9.35571C10.1217 12.0029 10.1203 12.9971 9.35571 13H3.50367C2.73768 12.9971 2.73904 12.0029 3.50367 12ZM15.3491 8H3.51029C2.73685 8.00293 2.73546 8.99706 3.51029 9H15.3491C16.1225 8.99707 16.1239 8.00294 15.3491 8ZM3.51029 10H15.3491C16.1239 10.0029 16.1225 10.9971 15.3491 11H3.51029C2.73546 10.9971 2.73685 10.0029 3.51029 10ZM6.00045 17.4917C6.00045 18.3809 6.52737 19 7.52762 19C8.51448 19 9.05479 18.3684 9.05479 17.4917C9.05479 16.615 8.50554 16 7.52762 16C6.5363 16 6.00045 16.6025 6.00045 17.4917ZM6.6524 17.4917C6.6524 16.9806 6.90693 16.4571 7.52762 16.4571C8.14831 16.4571 8.40284 16.9806 8.40284 17.4917C8.40284 18.0152 8.16617 18.5429 7.52762 18.5429C6.88907 18.5429 6.6524 18.0152 6.6524 17.4917ZM2.92969 18.9501H3.78258C4.73818 18.9501 5.58214 18.651 5.58214 17.5C5.58214 16.349 4.73818 16.0499 3.78258 16.0499H2.92969V18.9501ZM3.55484 16.5069H3.90315C4.4256 16.5069 4.93019 16.8684 4.93019 17.5C4.93019 18.1316 4.4256 18.4931 3.90315 18.4931H3.55484V16.5069ZM11.1862 18.5429C11.4318 18.5429 11.7221 18.4931 11.8694 18.4224L11.8962 18.9086C11.6685 18.9584 11.4229 19 11.1862 19C10.177 19 9.47597 18.5305 9.47597 17.5499C9.47597 16.5568 10.1279 16 11.1862 16C11.3916 16 11.664 16.0374 11.8917 16.1205L11.8471 16.6108C11.6104 16.4861 11.3961 16.4571 11.1728 16.4571C10.5298 16.4571 10.1279 16.9141 10.1279 17.5083C10.1279 18.0983 10.5209 18.5429 11.1862 18.5429ZM12.5406 18.9086H13.2461L13.974 17.7784L14.6929 18.9086H15.4297L14.4071 17.4003L15.3448 16.0083H14.675L14.0097 17.0429L13.3577 16.0083H12.6343L13.5631 17.4003L12.5406 18.9086Z" fill="#41B6E6"/>
</svg>
