<svg viewBox="0 0 33 30" fill="none" xmlns="http://www.w3.org/2000/svg">
<path d="M32.9951 3.28341C32.9951 2.41285 32.6508 1.5776 32.0387 0.961957C31.4266 0.346317 30.5962 0 29.7307 0H9.24181C7.43902 0 5.97736 1.47015 5.97736 3.28341V13.4944H2.04028C0.913351 13.4944 0 14.4131 0 15.5465V23.9845C0 24.5296 0.215184 25.0506 0.59772 25.4354C0.980273 25.8218 1.4983 26.0366 2.04028 26.0366H4.23199L4.99073 29.3617C5.05767 29.6599 5.28561 29.8956 5.5789 29.9726C5.87378 30.0511 6.18621 29.9581 6.39024 29.7305L9.72483 26.0366H15.1556C15.696 26.0366 16.2156 25.8218 16.5982 25.4354C16.9808 25.0507 17.1959 24.5296 17.1959 23.9845V19.4169H17.8813L23.4713 25.602C23.6753 25.828 23.9877 25.921 24.2826 25.8441C24.5759 25.7671 24.8038 25.5315 24.8708 25.2332L26.2049 19.4167H29.7356C30.6011 19.4167 31.4315 19.0704 32.0436 18.4547C32.6557 17.8391 33 17.0038 33 16.1333L32.9951 3.28341ZM15.5634 23.9845C15.5634 24.0935 15.5204 24.1977 15.4439 24.2747C15.3674 24.3516 15.2637 24.3949 15.1554 24.3949H9.36137C9.13024 24.3965 8.91026 24.4943 8.75724 24.6659L6.23081 27.4603L5.6761 25.0298V25.0314C5.59002 24.6594 5.26008 24.3949 4.88071 24.3949H2.02432C1.79798 24.3949 1.61627 24.2121 1.61627 23.9845V15.5465C1.61627 15.3205 1.79798 15.1361 2.02432 15.1361H5.96141V16.1333C5.96141 17.0039 6.30571 17.8391 6.91781 18.4548C7.52991 19.0704 8.36037 19.4167 9.22586 19.4167H15.5634L15.5634 23.9845ZM31.3629 16.1334C31.3629 16.5695 31.1908 16.9863 30.8847 17.2942C30.5787 17.602 30.1643 17.7751 29.7307 17.7751H25.553C25.1721 17.7751 24.8421 18.0397 24.756 18.4116L23.6291 23.3367L18.8439 18.0459C18.6892 17.876 18.4693 17.7782 18.2397 17.7798H9.24169C8.34111 17.7798 7.60947 17.0439 7.60947 16.1381V3.28356C7.60947 2.37615 8.34111 1.64185 9.24169 1.64185H29.7306C30.1641 1.64185 30.5786 1.815 30.8846 2.12283C31.1906 2.43066 31.3628 2.84748 31.3628 3.28356L31.3629 16.1334Z" />
</svg>
