<svg viewBox="0 0 38 35" fill="none" xmlns="http://www.w3.org/2000/svg">
    <path d="M36.9278 35L38 33.9006L27.4821 23.1153C29.2376 22.8982 30.9191 22.262 32.3915 21.2579C33.8639 20.2538 35.0862 18.9097 35.9603 17.3335C36.8345 15.7573 37.3361 13.993 37.4249 12.182C37.5137 10.3711 37.1873 8.56403 36.4718 6.90587C35.7563 5.24772 34.6716 3.78466 33.3049 2.63414C31.9382 1.48361 30.3274 0.677666 28.602 0.280983C26.8765 -0.115699 25.0844 -0.0920661 23.3695 0.349984C21.6546 0.792035 20.0646 1.64019 18.7272 2.82637C17.3738 1.62607 15.762 0.772116 14.0242 0.334648C12.2865 -0.10282 10.4723 -0.111319 8.7307 0.30985C6.98911 0.731018 5.3698 1.56984 4.00578 2.75741C2.64176 3.94498 1.57194 5.44743 0.884197 7.14134C0.196455 8.83524 -0.0895888 10.6723 0.0495601 12.5016C0.188709 14.3309 0.749081 16.1002 1.68465 17.6643C2.62021 19.2283 3.90429 20.5425 5.43139 21.4989C6.95849 22.4552 8.68506 23.0264 10.4693 23.1656L0 33.9006L1.0723 35L11.8733 23.9244L22.6744 35L23.7466 33.9006L20.1026 30.1638L26.1571 23.9554L36.9278 35ZM35.7999 11.5994C35.7999 13.4979 35.2719 15.3571 34.2779 16.9589C33.2838 18.5606 31.8648 19.8384 30.1875 20.6423C28.5102 21.4463 26.6441 21.7431 24.8081 21.4978C22.972 21.2526 21.2423 20.4755 19.8218 19.2577C21.6373 17.1408 22.6387 14.4183 22.6387 11.5993C22.6387 8.78028 21.6373 6.05777 19.8218 3.94088C21.2423 2.72312 22.9721 1.94603 24.8081 1.70079C26.6441 1.45555 28.5102 1.75232 30.1876 2.55628C31.8649 3.36025 33.2838 4.63807 34.2779 6.23981C35.272 7.84155 35.7999 9.70078 35.7999 11.5994ZM1.65336 11.5994C1.65334 9.62506 2.22426 7.69509 3.29392 6.0535C4.36358 4.41192 5.88394 3.13245 7.66275 2.3769C9.44155 1.62136 11.3989 1.42366 13.2873 1.80881C15.1757 2.19396 16.9102 3.14467 18.2717 4.54071C19.6331 5.93674 20.5603 7.7154 20.9359 9.65177C21.3116 11.5881 21.1188 13.5952 20.382 15.4193C19.6452 17.2433 18.3974 18.8023 16.7966 19.8992C15.1957 20.996 13.3135 21.5815 11.3882 21.5815C10.1098 21.5815 8.84388 21.3233 7.66278 20.8217C6.48168 20.3201 5.4085 19.5848 4.50452 18.6579C3.60053 17.7309 2.88345 16.6305 2.39421 15.4194C1.90497 14.2083 1.65315 12.9103 1.65314 11.5994H1.65336ZM13.1611 23.0459C15.2221 22.7008 17.1491 21.7751 18.7268 20.3722C20.4427 21.8984 22.5685 22.8568 24.8252 23.1218L19.0301 29.0644L13.1611 23.0459Z" />
</svg>
