<svg  viewBox="0 0 28 30" fill="none" xmlns="http://www.w3.org/2000/svg">
<path d="M0.331455 10.1697L13.483 0.169939C13.758 -0.0383895 14.2005 -0.074197 14.5171 0.169939L27.6686 10.1697C27.8741 10.326 28 10.5782 28 10.8338V29.1667C28 29.6029 27.5957 30 27.1515 30H18.2424C17.7983 30 17.3939 29.6029 17.3939 29.1667V23.3335C17.3939 21.4732 15.8942 20.0002 14 20.0002C12.1058 20.0002 10.6061 21.4732 10.6061 23.3335V29.1667C10.6061 29.6029 10.2017 30 9.75759 30H0.8485C0.40437 30 1.59787e-05 29.6029 1.59787e-05 29.1667V10.8338C-0.00164281 10.5782 0.125961 10.326 0.331455 10.1697Z" />
</svg>
