<svg viewBox="0 0 23 21"  xmlns="http://www.w3.org/2000/svg">
<path fill-rule="evenodd" clip-rule="evenodd" d="M22.0496 9.14833C22.1145 9.52506 22.0902 9.91177 21.9787 10.2774L21.9707 10.3103L20.2802 15.9771C19.3967 18.8456 17.8103 20.2292 15.4258 20.2292C15.047 20.2292 14.28 20.2354 13.6516 20.2405C13.2157 20.244 12.8465 20.247 12.7201 20.247C10.0393 20.247 8.94578 20.0361 5.65374 18.4417C5.57853 18.4053 5.51511 18.3484 5.47074 18.2776C5.42636 18.2068 5.40283 18.1249 5.40283 18.0413V7.97567C5.40283 7.86618 5.44633 7.76117 5.52375 7.68375C5.60117 7.60632 5.70618 7.56283 5.81567 7.56283C5.99367 7.56259 6.16902 7.51974 6.32707 7.43785C6.48511 7.35597 6.62125 7.23743 6.7241 7.09215L11.0749 0.928029C11.2702 0.651425 11.5269 0.423803 11.8248 0.263008C12.1228 0.102213 12.4539 0.0126154 12.7923 0.00123823C13.1307 -0.010139 13.4671 0.0570138 13.7752 0.197432C14.0833 0.337851 14.3547 0.547719 14.5681 0.810583C14.799 1.09331 14.9544 1.43 15.0197 1.78915C15.0851 2.1483 15.0583 2.51815 14.9417 2.86411L13.6712 5.5271C13.5901 5.69652 13.5534 5.88371 13.5643 6.0712C13.5752 6.25869 13.6334 6.44036 13.7336 6.59924C13.8337 6.75812 13.9725 6.88903 14.1369 6.97974C14.3014 7.07045 14.4861 7.118 14.6739 7.11796H19.6387C20.021 7.11788 20.398 7.20741 20.7394 7.37936C21.0808 7.55132 21.3772 7.80092 21.6047 8.10812C21.8323 8.41533 21.9846 8.77159 22.0496 9.14833ZM4.04457 7.56335H4.06771V18.4627C4.06771 18.8166 3.9271 19.1561 3.67681 19.4064C3.42652 19.6567 3.08706 19.7973 2.7331 19.7973H1.39848C1.2805 19.7973 1.16734 19.7504 1.08391 19.667C1.00048 19.5836 0.953613 19.4704 0.953613 19.3524V6.89604C0.953613 6.77806 1.00048 6.6649 1.08391 6.58147C1.16734 6.49804 1.2805 6.45117 1.39848 6.45117H2.7331C3.04772 6.45223 3.35186 6.5644 3.59182 6.76789C3.83178 6.97139 3.99214 7.25312 4.04457 7.56335Z"/>
</svg>
