<svg viewBox="0 0 17 24" xmlns="http://www.w3.org/2000/svg">
    <path fill-rule="evenodd" clip-rule="evenodd" d="M6.63946 15.8835C5.54155 15.694 4.49016 15.2763 3.55544 14.6518C2.23985 13.7727 1.21447 12.5233 0.608968 11.0615C0.00346762 9.59966 -0.154961 7.99113 0.153721 6.43928C0.462402 4.88743 1.22433 3.46197 2.34315 2.34315C3.46197 1.22433 4.88743 0.462403 6.43928 0.153721C7.99113 -0.15496 9.59965 0.00346583 11.0615 0.608967C12.5233 1.21447 13.7727 2.23985 14.6517 3.55544C15.5308 4.87103 16 6.41775 16 8C15.9975 10.121 15.1539 12.1544 13.6541 13.6541C12.5357 14.7725 11.1205 15.5261 9.59348 15.838L16.2779 22.5057L15.4573 23.3235L8.13933 16.0237L0.820613 23.3235L0 22.5057L6.63946 15.8835ZM4.22054 2.34363C5.33926 1.59612 6.65452 1.19714 8 1.19714C9.80366 1.19901 11.5329 1.91634 12.8083 3.19172C14.0837 4.4671 14.801 6.19635 14.8029 8C14.8029 9.34548 14.4039 10.6607 13.6564 11.7795C12.9089 12.8982 11.8464 13.7701 10.6033 14.285C9.36029 14.7999 7.99245 14.9346 6.67283 14.6721C5.3532 14.4097 4.14105 13.7617 3.18966 12.8103C2.23826 11.859 1.59035 10.6468 1.32786 9.32718C1.06537 8.00755 1.20009 6.63972 1.71498 5.39666C2.22987 4.1536 3.10181 3.09114 4.22054 2.34363Z" fill="#212B32"/>
</svg>
