<svg viewBox="0 0 23 30" xmlns="http://www.w3.org/2000/svg">
<path d="M20.3419 20.4667C20.2962 20.4192 20.2668 20.3496 20.2668 20.2799V11.9382C20.2668 7.20866 16.7793 3.30775 12.3378 2.86997V0.869477C12.3378 0.390569 11.9621 0 11.5015 0C11.0408 0 10.6651 0.390587 10.6651 0.869477V2.86997C6.22368 3.3098 2.73611 7.20888 2.73611 11.9382V20.2813C2.73611 20.3509 2.70671 20.4205 2.66097 20.4681L0.565203 22.6468C0.200936 23.0255 0 23.5299 0 24.0648V24.7305C0 25.8394 0.865746 26.7395 1.93242 26.7395H7.79523C8.09252 28.5871 9.63946 30 11.5 30C13.3605 30 14.9074 28.5871 15.2048 26.7395H21.0676C22.1343 26.7395 23 25.8394 23 24.7305V24.0648C23 23.5299 22.7991 23.0255 22.4348 22.6468L20.3419 20.4667ZM11.5013 28.2581C10.5686 28.2581 9.78615 27.6145 9.51989 26.7365H13.4844C13.2165 27.6145 12.4341 28.2581 11.5013 28.2581ZM21.3284 24.7276C21.3284 24.8753 21.2108 24.9976 21.0687 24.9976H1.93388C1.79177 24.9976 1.67416 24.8753 1.67416 24.7276V24.0619C1.67416 23.9923 1.69866 23.9227 1.7493 23.8751L3.84507 21.6963C4.20933 21.3176 4.41027 20.8133 4.41027 20.2783L4.40864 11.9383C4.40864 7.87281 7.59069 4.56471 11.5013 4.56471C15.4119 4.56471 18.5939 7.87281 18.5939 11.9383V20.2814C18.5939 20.8163 18.7949 21.3207 19.1591 21.6994L21.2549 23.8781C21.3055 23.9257 21.33 23.9953 21.33 24.065L21.3284 24.7276Z" />
</svg>
