<svg width="19" height="22" viewBox="0 0 19 22" fill="none" xmlns="http://www.w3.org/2000/svg">
<path fill-rule="evenodd" clip-rule="evenodd" d="M11.4893 0V4.41213L11.4892 4.41211C11.4892 5.53656 12.4224 6.45101 13.57 6.45101H18.0725V20.1851C18.0725 21.0282 17.3724 21.7143 16.512 21.7143H2.49023C1.62984 21.7143 0.929688 21.0282 0.929688 20.1851V1.52919C0.929688 0.686091 1.62984 0 2.49023 0H11.4893ZM13.604 5.7144C12.9176 5.7144 12.3583 5.26476 12.3583 4.713L12.3584 1.14297L18.0726 5.7144H13.604ZM9.77115 7V10.1585H12.9297C12.9297 8.41417 11.5155 7 9.77115 7ZM9.08822 7.68293C7.34386 7.68293 5.92969 9.0971 5.92969 10.8415C5.92969 12.5858 7.34386 14 9.08822 14C10.8326 14 12.2468 12.5858 12.2468 10.8415H9.08822V7.68293ZM6.54591 16.4728H6.76159C7.07851 16.4728 7.347 16.5931 7.347 16.9413C7.347 17.2894 7.0697 17.3883 6.76159 17.3883H6.54591V16.4728ZM5.92969 19H6.54591V17.861H6.80561C7.46585 17.861 7.98964 17.6075 7.98964 16.9069C7.98964 16.1891 7.37782 16 6.70877 16H5.92969V19ZM8.99173 16.4728H9.20741C9.52432 16.4728 9.79282 16.5931 9.79282 16.9413C9.79282 17.2894 9.51552 17.3883 9.20741 17.3883H8.99173V16.4728ZM8.3755 19H8.99173V17.861H9.25142C9.91166 17.861 10.4355 17.6075 10.4355 16.9069C10.4355 16.1891 9.82363 16 9.15459 16H8.3755V19ZM12.0494 19H11.4331V16.4728H10.5528V16H12.9297V16.4728H12.0494V19Z" fill="#ED8B00"/>
</svg>
