<svg viewBox="0 0 22 16" xmlns="http://www.w3.org/2000/svg">
    <path d="M18.7253 6.31173C15.8512 3.7631 11.9242 3.58842 10.269 3.64569C10.2369 3.64698 10.2049 3.64176 10.1749 3.63033C10.1449 3.6189 10.1175 3.60152 10.0944 3.57921C10.0713 3.55691 10.053 3.53016 10.0405 3.50057C10.028 3.47098 10.0216 3.43917 10.0218 3.40706V0.951966C10.0213 0.770567 9.96914 0.593063 9.87141 0.440244C9.77367 0.287426 9.63441 0.165621 9.46994 0.0890956C9.30548 0.0125706 9.12261 -0.0155055 8.94276 0.00815541C8.76291 0.0318164 8.59352 0.106235 8.45444 0.222694L1.30108 6.29933C1.19238 6.38891 1.10486 6.50144 1.04479 6.62885C0.984716 6.75625 0.953585 6.89538 0.953629 7.03623C0.952833 7.17433 0.982436 7.31091 1.04034 7.43628C1.09824 7.56166 1.18303 7.67275 1.28867 7.76169L8.46017 14.097C8.59992 14.2122 8.76954 14.2852 8.94925 14.3076C9.12895 14.33 9.31131 14.3008 9.47505 14.2234C9.63878 14.1461 9.77713 14.0237 9.87395 13.8707C9.97076 13.7177 10.022 13.5402 10.0218 13.3591V10.4621C10.0218 10.4072 10.0409 10.354 10.0757 10.3115C10.1105 10.2691 10.1589 10.24 10.2127 10.2292C12.034 9.84737 17.9779 9.12382 21.0563 14.8969C21.1067 14.9902 21.1867 15.0641 21.2837 15.1069C21.3807 15.1497 21.4892 15.159 21.5921 15.1333C21.695 15.1075 21.7863 15.0483 21.8518 14.9649C21.9173 14.8815 21.9531 14.7786 21.9536 14.6726C21.9536 11.0253 20.8673 8.21319 18.7253 6.31173Z" />
</svg>
