<?xml version="1.0" encoding="UTF-8" standalone="no"?>
<svg
   xmlns:dc="http://purl.org/dc/elements/1.1/"
   xmlns:cc="http://creativecommons.org/ns#"
   xmlns:rdf="http://www.w3.org/1999/02/22-rdf-syntax-ns#"
   xmlns:svg="http://www.w3.org/2000/svg"
   xmlns="http://www.w3.org/2000/svg"
   xmlns:sodipodi="http://sodipodi.sourceforge.net/DTD/sodipodi-0.dtd"
   xmlns:inkscape="http://www.inkscape.org/namespaces/inkscape"
   viewBox="0 0 139.07175 118.17001"
   version="1.1">
  <g
     id="Layer_10"
     data-name="Layer 10"
     transform="translate(-161.79985,-170.69)">
    <path
       class="cls-1"
       d="m 173.91,223.5 a 12.19,12.19 0 0 0 -12.11,12.25 v 32.16 a 12.2,12.2 0 0 0 12.11,12.25 H 206 c 0.94,0.21 5.33,1.33 25.5,7 a 46.11,46.11 0 0 0 12.42,1.7 h 38.45 a 3.52,3.52 0 0 0 1.94,-0.59 12.4,12.4 0 0 0 6.5,-3.53 12.92,12.92 0 0 0 1.86,-15.64 12.86,12.86 0 0 0 4.23,-21.28 12.87,12.87 0 0 0 0.28,-18.32 3.7,3.7 0 0 0 -0.28,-0.28 12.82,12.82 0 0 0 -8.68,-22.09 H 266 l -0.77,-21.61 A 14.86,14.86 0 0 0 261,175.07 14.51,14.51 0 0 0 250.6,170.69 h -2 a 14.8,14.8 0 0 0 -14.69,14.89 l 0.17,21.89 c -10.23,5.9 -25,14.37 -28.22,16 z m 65.39,-11 a 3.53,3.53 0 0 0 1.75,-3.06 l -0.19,-23.9 a 7.79,7.79 0 0 1 7.69,-7.86 h 2 a 7.52,7.52 0 0 1 5.45,2.32 7.88,7.88 0 0 1 2.27,5.57 v 0.13 l 0.9,25 a 3.49,3.49 0 0 0 3.49,3.37 h 25.54 a 5.8,5.8 0 0 1 0,11.6 h -14.84 a 3.5,3.5 0 0 0 0,7 h 14.84 a 5.53,5.53 0 0 1 4,1.68 5.82,5.82 0 0 1 1.68,4.12 5.73,5.73 0 0 1 -5.65,5.79 h -14.87 a 3.5,3.5 0 0 0 0,7 h 14.84 a 5.8,5.8 0 0 1 0,11.6 h -14.76 a 3.5,3.5 0 1 0 0,7 h 8.38 a 5.53,5.53 0 0 1 4,1.68 5.92,5.92 0 0 1 0,8.24 5.56,5.56 0 0 1 -4,1.67 3.49,3.49 0 0 0 -1.51,0.35 H 243.9 a 39.18,39.18 0 0 1 -10.54,-1.45 c -25.88,-7.22 -26.37,-7.22 -27.07,-7.22 h -32.38 a 5.19,5.19 0 0 1 -5.11,-5.25 v -32.13 a 5.18,5.18 0 0 1 5.11,-5.25 h 32.67 c 1.22,0 1.59,0 32.72,-17.99 z"
       id="path2" />
  </g>
</svg>
