<?xml version="1.0" encoding="UTF-8" standalone="no"?>
<svg
   xmlns="http://www.w3.org/2000/svg"
   width="30"
   height="30"
   viewBox="0 0 30 30">
  <path
     fill-rule="evenodd"
     clip-rule="evenodd"
     d="M 4.3934,4.3934 C 1.58035,7.2064 0,11.0218 0,15 0,18.9782 1.58035,22.7936 4.3934,25.6066 7.2064,28.4196 11.0218,30 15,30 18.9782,30 22.7936,28.4196 25.6066,25.6066 28.4196,22.7936 30,18.9782 30,15 30,11.0218 28.4196,7.2064 25.6066,4.3934 22.7936,1.58035 18.9782,0 15,0 11.0218,0 7.2064,1.58035 4.3934,4.3934 Z M 1.875,15 C 1.875,11.519 3.25781,8.1806 5.7192,5.7192 8.1806,3.25781 11.519,1.875 15,1.875 c 3.481,0 6.8194,1.38281 9.2808,3.8442 2.4614,2.4614 3.8442,5.7998 3.8442,9.2808 0,3.481 -1.3828,6.8194 -3.8442,9.2808 C 21.8194,26.7422 18.481,28.125 15,28.125 11.519,28.125 8.1806,26.7422 5.7192,24.2808 3.25781,21.8194 1.875,18.481 1.875,15 Z m 11.9005,4.7762 c 0.0594,-0.0594 0.1091,-0.1248 0.1492,-0.1942 l 7.8057,-7.8057 c 0.3661,-0.3661 0.3661,-0.9597 0,-1.3258 -0.3661,-0.3661 -0.9597,-0.3661 -1.3258,0 L 13.0901,17.765 9.7755,14.4504 c -0.3661,-0.3661 -0.9597,-0.3661 -1.3259,0 -0.3661,0.3661 -0.3661,0.9597 0,1.3258 l 4,4 c 0.3662,0.3661 0.9598,0.3661 1.3259,0 z"
     id="path2" />
</svg>
