<svg width="19" height="22" viewBox="0 0 19 22" fill="none" xmlns="http://www.w3.org/2000/svg">
<path fill-rule="evenodd" clip-rule="evenodd" d="M11.4893 4.41213V0H2.49023C1.62984 0 0.929688 0.686091 0.929688 1.52919V20.1851C0.929688 21.0282 1.62984 21.7143 2.49023 21.7143H16.512C17.3724 21.7143 18.0725 21.0282 18.0725 20.1851V6.45101H13.57C12.4224 6.45101 11.4892 5.53656 11.4892 4.41211L11.4893 4.41213ZM12.3583 4.713C12.3583 5.26476 12.9176 5.7144 13.604 5.7144H18.0726L12.3584 1.14297L12.3583 4.713ZM2.92969 6H6.21459V7.512H2.92969V6ZM2.97576 8.80113H6.21453V10.3131H2.97576V8.80113ZM6.21453 11.6466H2.97576V13.1586H6.21453V11.6466ZM7.78655 6H11.0715V7.512H7.78655V6ZM11.0714 8.80113H7.83266V10.3131H11.0714V8.80113ZM7.83266 11.6466H11.0714V13.1586H7.83266V11.6466ZM15.9297 8.80113H12.6909V10.3131H15.9297V8.80113ZM12.6909 11.6466H15.9297V13.1586H12.6909V11.6466ZM12.7575 16.1039C12.5434 16.0332 12.3082 16 12.0563 16C11.5398 16 11.0317 16.2368 11.0317 16.885C11.0317 17.4308 11.4471 17.5923 11.8055 17.7318C12.0774 17.8375 12.3166 17.9306 12.3166 18.169C12.3166 18.4307 12.0185 18.5429 11.7959 18.5429C11.565 18.5429 11.334 18.4723 11.1324 18.3643L11.0778 18.8878L11.1418 18.9035C11.3904 18.9646 11.5347 19 11.8295 19C12.4216 19 12.9297 18.759 12.9297 18.1233C12.9297 17.5577 12.4949 17.3928 12.1311 17.2549C11.8696 17.1557 11.6447 17.0704 11.6447 16.8601C11.6447 16.5443 11.9051 16.4571 12.1066 16.4571C12.3124 16.4571 12.5182 16.5028 12.7029 16.5817L12.7575 16.1039ZM6.59316 18.9501H5.92969L6.8913 17.4418L6.01787 16.0499H6.69814L7.31122 17.0845L7.9369 16.0499H8.56677L7.68494 17.4418L8.64656 18.9501H7.95369L7.27762 17.8199L6.59316 18.9501ZM10.7545 18.9501H9.02865V16.0499H9.61654V18.4931H10.7545V18.9501Z" fill="#006747"/>
</svg>
