<?xml version="1.0" encoding="UTF-8" standalone="no"?>
<svg
   xmlns:dc="http://purl.org/dc/elements/1.1/"
   xmlns:cc="http://creativecommons.org/ns#"
   xmlns:rdf="http://www.w3.org/1999/02/22-rdf-syntax-ns#"
   xmlns:svg="http://www.w3.org/2000/svg"
   xmlns="http://www.w3.org/2000/svg"
   xmlns:sodipodi="http://sodipodi.sourceforge.net/DTD/sodipodi-0.dtd"
   xmlns:inkscape="http://www.inkscape.org/namespaces/inkscape"
   viewBox="0 0 32 120.03"
   version="1.1">
  <g
     id="Layer_10"
     data-name="Layer 10"
     transform="translate(-215.365,-169.72)">
    <path
       class="cls-1"
       d="m 231.32,253.27 c 8.5,0 14.67,-6.84 14.67,-16.28 V 186 c 0,-9.43 -6.17,-16.28 -14.67,-16.28 -8.5,0 -14.66,6.85 -14.66,16.28 v 51 c 0,9.43 6.16,16.27 14.66,16.27 z M 223.66,186 c 0,-4.62 2.37,-9.28 7.66,-9.28 5.29,0 7.68,4.68 7.68,9.28 v 51 c 0,4.62 -2.37,9.28 -7.67,9.28 -5.3,0 -7.66,-4.66 -7.66,-9.28 z"
       id="path2" />
    <path
       class="cls-1"
       d="m 231.32,289.75 a 16.09,16.09 0 0 0 16,-16.17 16,16 0 1 0 -31.91,0 16.09,16.09 0 0 0 15.91,16.17 z m 0,-25.33 a 9.29,9.29 0 0 1 9,9.16 9,9 0 1 1 -17.91,0 9.29,9.29 0 0 1 8.91,-9.16 z"
       id="path4" />
  </g>
</svg>
