<?xml version="1.0" encoding="utf-8"?>
<!-- Generator: Adobe Illustrator 25.0.0, SVG Export Plug-In . SVG Version: 6.00 Build 0)  -->
<svg version="1.1" id="Layer_1" xmlns="http://www.w3.org/2000/svg" xmlns:xlink="http://www.w3.org/1999/xlink" x="0px" y="0px"
	 viewBox="0 0 118 119.7" style="enable-background:new 0 0 118 119.7;" xml:space="preserve">
<g id="Layer_10">
	<path d="M87.7,34l17.7-17.7c1.4-1.4,1.4-3.6,0-5s-3.6-1.4-5,0l0,0L82.7,29c-1.4,1.4-1.4,3.6,0,5c0.7,0.7,1.6,1,2.5,1
		C86.1,35,87,34.6,87.7,34z"/>
	<path d="M73.3,23.1c1.6,0,3-1.1,3.4-2.6l4.4-16.3c0.4-1.9-0.8-3.8-2.7-4.2c-1.8-0.4-3.5,0.6-4.1,2.3l-4.4,16.3
		c-0.5,1.9,0.6,3.8,2.5,4.3C72.7,23.1,73,23.1,73.3,23.1z"/>
	<path d="M117.9,39.2c-0.5-1.9-2.4-3-4.3-2.5c0,0,0,0,0,0l-16.3,4.4c-1.9,0.5-3,2.4-2.5,4.3c0.4,1.5,1.8,2.6,3.4,2.6
		c0.3,0,0.6,0,0.9-0.1l16.3-4.4C117.3,43,118.4,41.1,117.9,39.2C117.9,39.2,117.9,39.2,117.9,39.2z"/>
	<path d="M106.5,78.5c2.8-2.1,3.4-6,1.3-8.8c-0.2-0.3-0.4-0.5-0.7-0.8l0,0L48.9,10.7c-2.4-2.5-6.4-2.6-8.9-0.1
		c-0.2,0.2-0.5,0.5-0.7,0.8c-0.1,0.1-0.2,0.2-0.3,0.4L4.5,72.1c-6.8,9.1-5.9,23.1,2.2,31.1l8.2,8.2c4.6,4.4,10.7,6.8,17,6.8
		c5.1,0.1,10.1-1.5,14.2-4.5l2.3-1.3l1.4,2.4c1.4,2.3,3.6,4,6.3,4.7c0.8,0.2,1.7,0.3,2.6,0.3c1.8,0,3.6-0.5,5.2-1.4l23.5-13.8
		c4.9-2.9,6.5-9.1,3.6-14l-1.3-2.2l16.5-9.6C106.3,78.7,106.4,78.6,106.5,78.5z M84.5,94.3c0.7,1.3,0.3,2.9-1,3.7c0,0,0,0,0,0
		L60,111.8c-0.6,0.3-1.3,0.4-2,0.3c-0.7-0.2-1.3-0.6-1.7-1.2l-1.4-2.4l28.2-16.4L84.5,94.3z M48.4,104.2l-0.3,0.1
		c-0.1,0-0.1,0.1-0.2,0.2l-5.5,3.2c-0.1,0.1-0.3,0.2-0.4,0.2c-6.8,4.9-16.1,4.3-22.1-1.5l-8.2-8.2C6,92.2,5.3,82.9,10.3,76.1
		c0.1-0.1,0.2-0.3,0.3-0.4l34.1-59.5l57.1,57.1L48.4,104.2z"/>
</g>
</svg>
