<svg viewBox="0 0 21 20" fill="none" xmlns="http://www.w3.org/2000/svg">
<path d="M19.1739 0H1.82609C1.34178 0 0.877306 0.192391 0.534849 0.534848C0.192391 0.877306 0 1.34178 0 1.82609V13.6957C0 14.18 0.192391 14.6444 0.534849 14.9869C0.877306 15.3293 1.34178 15.5217 1.82609 15.5217H5.47826V18.2609C5.4783 18.4414 5.53187 18.6179 5.6322 18.768C5.73253 18.9181 5.87511 19.0351 6.04192 19.1042C6.20874 19.1733 6.39229 19.1914 6.56938 19.1562C6.74646 19.121 6.90914 19.034 7.03683 18.9064L10.4233 15.5217H19.1739C19.6582 15.5217 20.1227 15.3293 20.4652 14.9869C20.8076 14.6444 21 14.18 21 13.6957V1.82609C21 1.34178 20.8076 0.877306 20.4652 0.534848C20.1227 0.192391 19.6582 0 19.1739 0ZM19.1739 13.4656C19.1739 13.5261 19.1499 13.5842 19.1071 13.627C19.0643 13.6698 19.0062 13.6938 18.9457 13.6938H10.0435C9.80134 13.6939 9.56915 13.7901 9.39796 13.9613L7.30435 16.055V14.6087C7.30435 14.3665 7.20815 14.1343 7.03692 13.9631C6.86569 13.7918 6.63346 13.6957 6.3913 13.6957H2.05435C1.99381 13.6957 1.93575 13.6716 1.89294 13.6288C1.85014 13.586 1.82609 13.5279 1.82609 13.4674V2.05435C1.82609 1.99381 1.85014 1.93575 1.89294 1.89294C1.93575 1.85014 1.99381 1.82609 2.05435 1.82609H18.9457C19.0062 1.82609 19.0643 1.85014 19.1071 1.89294C19.1499 1.93575 19.1739 1.99381 19.1739 2.05435V13.4656Z"/>
</svg>
