<svg viewBox="0 0 17 16" fill="none" xmlns="http://www.w3.org/2000/svg">
<path d="M13.4579 15.9928C13.3805 15.9928 13.3047 15.9738 13.237 15.9386L8.49908 13.482L3.76114 15.9386C3.60054 16.0222 3.40573 16.0082 3.25925 15.9026C3.11278 15.7977 3.03917 15.6187 3.07039 15.4427L3.97603 10.2487L0.143003 6.55473C0.0136262 6.43003 -0.0324721 6.24372 0.023292 6.07427C0.0790581 5.9041 0.228505 5.78087 0.406956 5.7552L5.70394 5.00408L8.07281 0.260394C8.15312 0.100488 8.31819 0 8.49887 0C8.67954 0 8.84461 0.100492 8.92492 0.260394L11.2953 4.99075L16.5923 5.74187C16.7715 5.76754 16.9202 5.89077 16.9767 6.06094C17.0325 6.23038 16.9864 6.41669 16.857 6.54213L13.0219 10.2485L13.926 15.4521C13.9491 15.5878 13.9104 15.7279 13.8204 15.8335C13.7305 15.9391 13.5974 16 13.4576 16L13.4579 15.9928Z"/>
</svg>
