<svg viewBox="0 0 35 26" xmlns="http://www.w3.org/2000/svg">
<path d="M26.1333 0C29.9248 0 33.0076 3.10597 33.0076 6.92556C33.0076 9.35483 31.7622 11.4941 29.8797 12.73C31.8255 13.4397 33.5324 14.6924 34.8105 16.3338C35.1147 16.7267 35.0453 17.2965 34.6553 17.603C34.2653 17.9095 33.6998 17.8395 33.3955 17.4467C31.6437 15.1943 28.9711 13.8861 26.1328 13.8861C23.2948 13.8861 20.6222 15.1964 18.8723 17.4446C18.568 17.8375 18.0025 17.9095 17.6125 17.6009C17.2225 17.2945 17.1511 16.7247 17.4573 16.3318C18.7375 14.6862 20.4403 13.4397 22.3881 12.7301C20.5056 11.4938 19.2602 9.35256 19.2602 6.92562C19.2602 3.10587 22.3431 5.22272e-05 26.1345 5.22272e-05L26.1333 0ZM26.1333 1.81627C23.328 1.81627 21.0617 4.09947 21.0617 6.92572C21.0617 9.75197 23.328 12.0352 26.1333 12.0352C28.9387 12.0352 31.205 9.75197 31.205 6.92572C31.205 4.09741 28.9387 1.81627 26.1333 1.81627Z" />
<path d="M10.5653 4.98604C14.3567 4.98604 17.4396 8.09201 17.4396 11.9116C17.4396 14.2504 16.2717 16.4102 14.3443 17.6934C17.558 18.8762 20.0693 21.5235 21.088 24.8228C21.235 25.3 20.9716 25.8101 20.4979 25.9582C20.0242 26.1063 19.5179 25.8409 19.3709 25.3637C18.1724 21.4802 14.5994 18.8368 10.5647 18.8368C6.5282 18.8368 2.95707 21.4779 1.75856 25.3637C1.61156 25.841 1.10521 26.1084 0.631552 25.9582C0.15787 25.8101 -0.107575 25.3 0.0414945 24.8228C1.06031 21.5235 3.57165 18.874 6.78516 17.6934C4.85776 16.4078 3.68988 14.2521 3.68988 11.9116C3.68988 8.09186 6.77287 4.98604 10.5642 4.98604H10.5653ZM10.5653 6.80232C7.75991 6.80232 5.4936 9.08551 5.4936 11.9118C5.4936 14.738 7.75991 17.0212 10.5653 17.0212C13.3706 17.0212 15.6369 14.738 15.6369 11.9118C15.6369 9.08551 13.3706 6.80232 10.5653 6.80232Z" />
</svg>
