<svg viewBox="0 0 28 30" fill="none" xmlns="http://www.w3.org/2000/svg">
<path d="M13.483 0.169939L0.331455 10.1697C0.125961 10.326 -0.00164281 10.5782 1.59787e-05 10.8338V29.1667C1.59787e-05 29.6029 0.40437 30 0.8485 30H9.75759C10.2017 30 10.6061 29.6029 10.6061 29.1667V23.3335C10.6061 21.4732 12.1058 20.0002 14 20.0002C15.8942 20.0002 17.3939 21.4732 17.3939 23.3335V29.1667C17.3939 29.6029 17.7983 30 18.2424 30H27.1515C27.5957 30 28 29.6029 28 29.1667V10.8338C28 10.5782 27.8741 10.326 27.6686 10.1697L14.5171 0.169939C14.2005 -0.074197 13.758 -0.0383895 13.483 0.169939V0.169939ZM14 1.87565L26.3031 11.2375V28.3334H19.0909V23.3335C19.0909 20.578 16.8057 18.3336 14 18.3336C11.1944 18.3336 8.90912 20.578 8.90912 23.3335V28.3334H1.69701V11.2375L14 1.87565Z" />
</svg>
