<?xml version="1.0" encoding="UTF-8" standalone="no"?>
<svg
   xmlns:dc="http://purl.org/dc/elements/1.1/"
   xmlns:cc="http://creativecommons.org/ns#"
   xmlns:rdf="http://www.w3.org/1999/02/22-rdf-syntax-ns#"
   xmlns:svg="http://www.w3.org/2000/svg"
   xmlns="http://www.w3.org/2000/svg"
   xmlns:sodipodi="http://sodipodi.sourceforge.net/DTD/sodipodi-0.dtd"
   xmlns:inkscape="http://www.inkscape.org/namespaces/inkscape"
   viewBox="0 0 129.99628 98.507523"
   version="1.1">
  <g
     id="Layer_10"
     data-name="Layer 10"
     transform="translate(-166.29372,-180.60338)">
    <path
       class="cls-1"
       d="M 171.44,242.11 203.28,274 A 17.500906,17.500906 0 0 0 228,249.22 l -2,-2 h 53.47 c 9.27,0 16.82,-7.85 16.82,-17.5 0,-9.65 -7.55,-17.5 -16.82,-17.5 H 226 l 2,-2 a 17.49,17.49 0 0 0 -24.73,-24.73 l -31.84,31.84 a 17.5,17.5 0 0 0 0.01,24.78 z m 4.95,-19.78 31.84,-31.84 a 10.49,10.49 0 0 1 14.83,14.83 l -7.95,8 a 3.5,3.5 0 0 0 2.48,6 h 61.92 c 5.41,0 9.82,4.71 9.82,10.5 0,5.79 -4.41,10.5 -9.82,10.5 h -61.92 a 3.5,3.5 0 0 0 -2.48,6 l 7.95,7.95 A 10.49,10.49 0 0 1 208.23,269 l -31.84,-31.84 a 10.5,10.5 0 0 1 0,-14.83 z"
       id="path2" />
  </g>
</svg>
