<?xml version="1.0" encoding="UTF-8" standalone="no"?>
<svg
   xmlns:dc="http://purl.org/dc/elements/1.1/"
   xmlns:cc="http://creativecommons.org/ns#"
   xmlns:rdf="http://www.w3.org/1999/02/22-rdf-syntax-ns#"
   xmlns:svg="http://www.w3.org/2000/svg"
   xmlns="http://www.w3.org/2000/svg"
   xmlns:sodipodi="http://sodipodi.sourceforge.net/DTD/sodipodi-0.dtd"
   xmlns:inkscape="http://www.inkscape.org/namespaces/inkscape"
   viewBox="0 0 115.43271 115.68015"
   version="1.1">
  <g
     id="Layer_10"
     data-name="Layer 10"
     transform="translate(-173.63794,-171.9)">
    <path
       class="cls-1"
       d="m 209,208 -29.63,3.91 c -2.12,0.28 -4.66,1.45 -5.48,3.89 -0.48,1.43 -0.51,3.68 2.08,6.24 l 21.93,21.63 a 6.55,6.55 0 0 1 1.7,5.33 l -5.7,31.33 c -0.19,1 -0.59,4.53 2.05,6.39 a 4.74,4.74 0 0 0 2.76,0.86 7.64,7.64 0 0 0 3.82,-1.18 l 26.26,-15.2 a 5.59,5.59 0 0 1 5.15,0 l 26.27,15.2 c 0.9,0.52 4.06,2.09 6.7,0.23 1.24,-0.87 2.59,-2.67 1.93,-6.3 l -5.7,-31.29 a 6.61,6.61 0 0 1 1.67,-5.35 l 22,-21.65 c 1.51,-1.49 2.84,-4 2,-6.4 -0.48,-1.44 -1.81,-3.25 -5.42,-3.73 L 253.71,208 a 6.1,6.1 0 0 1 -4.26,-3.18 L 236.58,176 c -0.43,-1 -2.08,-4.1 -5.31,-4.1 -1.52,0 -3.64,0.71 -5.16,4.1 l -12.87,28.81 A 6.05,6.05 0 0 1 209,208 Z m 10.65,-0.33 11.72,-26.21 11.71,26.21 a 12.94,12.94 0 0 0 9.72,7.33 l 27.5,3.63 -20.42,20.14 a 13.56,13.56 0 0 0 -3.65,11.55 l 5.24,28.79 -24,-13.91 a 12.56,12.56 0 0 0 -12.16,0 l -24,13.91 5.24,-28.79 A 13.57,13.57 0 0 0 202.9,238.77 L 182.4,218.58 209.9,215 a 12.94,12.94 0 0 0 9.73,-7.32 z"
       id="path2" />
  </g>
</svg>
