<?xml version="1.0" encoding="UTF-8" standalone="no"?>
<svg
   xmlns:dc="http://purl.org/dc/elements/1.1/"
   xmlns:cc="http://creativecommons.org/ns#"
   xmlns:rdf="http://www.w3.org/1999/02/22-rdf-syntax-ns#"
   xmlns:svg="http://www.w3.org/2000/svg"
   xmlns="http://www.w3.org/2000/svg"
   xmlns:sodipodi="http://sodipodi.sourceforge.net/DTD/sodipodi-0.dtd"
   xmlns:inkscape="http://www.inkscape.org/namespaces/inkscape"
   viewBox="0 0 124.02921 95.306999"
   version="1.1"
   id="svg5">
  <g
     id="Layer_10"
     data-name="Layer 10"
     transform="translate(-173.30449,-182.083)">
    <path
       class="cls-1"
       d="m 173.34,231.07 a 17.29,17.29 0 0 0 5.14,12.12 l 29,29 a 17.89,17.89 0 0 0 11.62,5.2 c 0.32,0 0.63,0 0.94,0 a 17.3,17.3 0 0 0 12.12,-5.14 l 60.08,-60.16 v 0 a 17.64,17.64 0 0 0 0,-24.8 c -3.35,-3.37 -8.69,-5.56 -12.56,-5.16 a 17.22,17.22 0 0 0 -12.12,5.14 L 219.86,235 203.3,218.5 a 17.65,17.65 0 0 0 -24.8,0 c -3.37,3.36 -5.5,8.7 -5.16,12.57 z m 10.09,-7.59 a 10.65,10.65 0 0 1 14.94,0 l 19,19 a 3.49,3.49 0 0 0 5,0 l 50.19,-50.26 a 10.31,10.31 0 0 1 7.36,-3.07 v 0 a 3.55,3.55 0 0 0 0.46,0 c 1.56,-0.21 4.92,1.11 6.91,3.12 a 10.64,10.64 0 0 1 0,14.94 l -60.08,60.16 a 10.28,10.28 0 0 1 -7.37,3.08 v 0 a 3.59,3.59 0 0 0 -0.47,0 c -1.56,0.21 -4.92,-1.11 -6.91,-3.12 l -29.05,-29 a 10.3,10.3 0 0 1 -3.08,-7.37 3.71,3.71 0 0 0 0,-0.47 c -0.23,-1.66 1.09,-5.01 3.1,-7.01 z"
       id="path2" />
  </g>
</svg>
